<?xml version="1.0" standalone="no"?>
<!DOCTYPE svg PUBLIC "-//W3C//DTD SVG 1.1//EN" "http://www.w3.org/Graphics/SVG/1.1/DTD/svg11.dtd" >
<svg xmlns="http://www.w3.org/2000/svg">
<metadata></metadata>
<defs>
<font id="museosansroundedw03-700Rg" horiz-adv-x="1226" >
<font-face units-per-em="2048" ascent="1638" descent="-410" />
<missing-glyph horiz-adv-x="512" />
<glyph horiz-adv-x="0" />
<glyph unicode="&#xd;" horiz-adv-x="681" />
<glyph unicode=" "  horiz-adv-x="512" />
<glyph unicode="&#x09;" horiz-adv-x="512" />
<glyph unicode="&#xa0;" horiz-adv-x="512" />
<glyph unicode="!" horiz-adv-x="552" d="M143 1366q0 88 84 88h97q88 0 84 -88l-17 -862q0 -84 -86 -84h-59q-82 0 -86 84zM152 86v72q0 86 84 86h81q86 0 86 -86v-72q0 -86 -86 -86h-81q-84 0 -84 86z" />
<glyph unicode="&#x22;" horiz-adv-x="724" d="M102 1108v287q0 86 84 86h23q86 0 86 -86v-287q0 -84 -86 -84h-23q-84 0 -84 84zM430 1108v287q0 86 86 86h23q84 0 84 -86v-287q0 -84 -84 -84h-23q-86 0 -86 84z" />
<glyph unicode="#" horiz-adv-x="1425" d="M78 473l4 21q8 76 90 75h166l51 287h-149q-43 0 -63.5 24.5t-14.5 65.5l4 21q12 78 90 77h164l57 332q16 78 94 78h35q45 0 65.5 -24.5t12.5 -67.5l-55 -318h278l60 332q12 78 92 78h37q45 0 64.5 -24.5t13.5 -67.5l-58 -318h154q45 0 65.5 -24.5t12.5 -67.5l-2 -18 q-12 -78 -93 -78h-168l-51 -287h152q90 0 78 -90l-4 -20q-12 -76 -93 -76h-163l-54 -305q-12 -78 -92 -78h-37q-45 0 -65.5 24.5t-12.5 67.5l52 291h-281l-51 -305q-16 -78 -94 -78h-37q-43 0 -63.5 24.5t-14.5 67.5l51 291h-149q-94 0 -78 90zM547 569h278l52 287h-281z " />
<glyph unicode="$" horiz-adv-x="1124" d="M92 1057q0 80 29 148.5t79 122.5t120.5 90t156.5 50v109q0 84 82 84h14q80 0 80 -72v-116q106 -8 181 -41t116 -62q35 -20 39 -50t-14 -65l-35 -69q-39 -70 -117 -27q-41 25 -104.5 50.5t-140.5 25.5q-92 0 -157 -48t-65 -126q0 -61 51.5 -101t128 -76t167 -73t167 -89 t128 -129t51.5 -192q0 -78 -27 -148.5t-78 -126.5t-123.5 -94t-167.5 -50v-103q0 -86 -80 -86h-14q-82 0 -82 72v117q-63 6 -116.5 22t-97.5 35.5t-77.5 41.5t-56.5 40q-33 23 -35 54.5t21 64.5l45 63q47 66 119 19q47 -33 121.5 -68t170.5 -35q41 0 80 11.5t69 33t47 54 t17 77.5q0 61 -51 103.5t-128 79t-167 74.5t-166.5 91.5t-128 128t-51.5 185.5z" />
<glyph unicode="%" horiz-adv-x="1622" d="M80 1155q0 66 25.5 125t70.5 103t106.5 70t131.5 26t130 -26t105 -70t72 -103t27 -125q0 -68 -27 -127t-72 -102t-105 -69t-130 -26t-131.5 26t-106.5 69t-70.5 102t-25.5 127zM193.5 30.5q-15.5 30.5 19.5 73.5l995 1299q39 51 105 51h41q55 0 70.5 -30.5t-19.5 -73.5 l-995 -1299q-39 -51 -105 -51h-43q-53 0 -68.5 30.5zM279 1155q0 -57 39 -96t96 -39t97 39t40 96q0 55 -40 95t-97 40t-96 -40t-39 -95zM874 297q0 66 26 125t71 103t106.5 70t130.5 26q70 0 130.5 -26t105.5 -70t71.5 -103.5t26.5 -124.5q0 -68 -26.5 -126t-71.5 -101 t-105.5 -69t-130.5 -26t-131 26t-106 69t-71 101t-26 126zM1073 299q0 -57 39 -96t96 -39t97.5 39t40.5 96q0 55 -40 95t-98 40q-57 0 -96 -40t-39 -95z" />
<glyph unicode="&#x26;" horiz-adv-x="1335" d="M80 412q0 59 17.5 115.5t49 104.5t77.5 85t104 57v4q-53 23 -92 66q-35 37 -64 98.5t-29 153.5q0 96 36 167.5t98.5 120t146.5 72t178 23.5h86q86 0 86 -86v-52q0 -84 -86 -84h-67q-100 0 -155.5 -57t-55.5 -137q0 -31 10 -65.5t34.5 -62.5t67.5 -46.5t109 -18.5h231v105 q0 84 86 84h88q86 0 86 -70v-119h103q86 0 86 -86v-57q0 -86 -86 -86h-103v-172q0 -111 -35.5 -202t-103.5 -155.5t-165 -100.5t-220 -36q-117 0 -213 34t-163.5 92.5t-104.5 138.5t-37 172zM350 428q0 -88 67.5 -149.5t180.5 -61.5q125 0 194.5 66.5t69.5 199.5v158h-246 q-123 0 -194.5 -53.5t-71.5 -159.5z" />
<glyph unicode="'" horiz-adv-x="397" d="M100 1139v256q0 86 86 86h27q84 0 84 -86v-256q0 -86 -84 -86h-27q-86 0 -86 86z" />
<glyph unicode="(" horiz-adv-x="583" d="M88 702q0 205 53.5 394.5t153.5 363.5q18 33 42.5 45.5t59.5 12.5h39q49 0 65.5 -27t-5.5 -74q-86 -170 -131.5 -349t-45.5 -368q0 -205 45.5 -403.5t137.5 -390.5q20 -45 3.5 -73t-65.5 -28h-43q-67 1 -96 52q-100 180 -156.5 395t-56.5 450z" />
<glyph unicode=")" horiz-adv-x="583" d="M77 -166q-15 29 5 76q180 385 180 790q0 188 -45 367.5t-131 349.5q-23 47 -8.5 74t63.5 27h43q35 0 59.5 -12.5t43.5 -45.5q100 -174 154.5 -363.5t54.5 -394.5q0 -233 -56.5 -446t-154.5 -393q-31 -57 -101 -58h-41q-51 0 -66 29z" />
<glyph unicode="*" horiz-adv-x="960" d="M88 1149l16 51q14 41 41 54.5t66 -3.5l168 -65l-10 178q-4 43 17.5 66.5t64.5 23.5h57q41 0 62.5 -22.5t17.5 -65.5l-10 -180l165 65q41 16 70 4t41 -53l16 -51q27 -84 -57 -102l-176 -48v-4l113 -135q59 -66 -13 -121l-43 -30q-72 -55 -116 22l-97 150h-4l-94 -148 q-47 -78 -119 -24l-43 30q-72 53 -14 117l112 139v4l-169 46q-86 18 -62 102z" />
<glyph unicode="+" horiz-adv-x="1267" d="M86 569v31q0 86 86 86h356v399q0 86 86 86h41q84 0 84 -86v-399h359q84 0 84 -86v-31q0 -86 -84 -86h-359v-397q0 -86 -84 -86h-41q-86 0 -86 86v397h-356q-86 0 -86 86z" />
<glyph unicode="," horiz-adv-x="499" d="M43 -147l100 340q20 72 97 71h77q47 0 65.5 -27.5t0.5 -72.5l-141 -342q-27 -66 -99 -66h-26q-47 0 -66.5 25.5t-7.5 71.5z" />
<glyph unicode="-" horiz-adv-x="854" d="M119 557v57q0 84 86 84h444q86 0 86 -84v-57q0 -86 -86 -86h-444q-86 0 -86 86z" />
<glyph unicode="." horiz-adv-x="487" d="M113 86v92q0 84 86 84h90q86 0 86 -84v-92q0 -86 -86 -86h-90q-86 0 -86 86z" />
<glyph unicode="/" horiz-adv-x="831" d="M74 10l469 1448q25 70 98 70h45q47 0 66.5 -25.5t5.5 -70.5l-469 -1448q-20 -70 -96 -70h-48q-47 0 -66.5 25.5t-4.5 70.5z" />
<glyph unicode="0" horiz-adv-x="1277" d="M113 729q0 156 26.5 293t88 238.5t161.5 160t250 58.5t251 -58.5t162.5 -160t88 -238.5t26.5 -293q0 -158 -26.5 -295t-88 -238.5t-162.5 -161t-251 -59.5t-250 59.5t-161.5 161t-88 238.5t-26.5 295zM383 729q0 -109 12.5 -202t41 -161.5t78.5 -108.5t124 -40t124 40 t78.5 108.5t41 162t12.5 201.5q0 106 -12.5 198.5t-41 161t-78.5 107.5t-124 39t-124 -39t-78.5 -107.5t-41 -160.5t-12.5 -199z" />
<glyph unicode="1" horiz-adv-x="1007" d="M88 86v57q0 84 84 84h231v807v68q0 16 3 31h-5q-6 -12 -14 -25q-8 -10 -17.5 -23.5t-23.5 -25.5l-63 -62q-63 -57 -119 4l-39 41q-59 59 2 121l258 248q25 23 49.5 33t57.5 10h86q84 0 84 -86v-1141h229q86 0 86 -84v-57q0 -86 -86 -86h-719q-84 0 -84 86z" />
<glyph unicode="2" horiz-adv-x="1161" d="M88 86v43q0 131 50 228.5t126 173t164 135t164 116t126 114.5t50 130q0 96 -64.5 149.5t-156.5 53.5q-39 0 -73 -10.5t-60.5 -26.5t-47 -35.5t-34.5 -36.5q-29 -29 -59.5 -37t-61.5 19l-55 43q-68 51 -23 115q25 31 61.5 69.5t91 71.5t124 55.5t159.5 22.5 q94 0 180.5 -29t152 -84t103 -135t37.5 -182q0 -117 -48 -204t-120.5 -155.5t-157.5 -124t-159 -107.5t-125 -107.5t-53 -123.5h600q86 0 86 -84v-57q0 -86 -86 -86h-799q-41 0 -66.5 21.5t-25.5 64.5z" />
<glyph unicode="3" horiz-adv-x="1146" d="M75 172.5q-3 30.5 19 63.5l41 63q23 35 52.5 38t64.5 -20q41 -29 107.5 -60.5t154.5 -31.5q115 0 188.5 61.5t73.5 155.5q0 57 -24.5 100.5t-67.5 71t-99.5 41t-119.5 13.5h-31q-66 0 -94 59l-8 16q-29 57 18 111l223 264q20 25 40 45.5t34 34.5l31 31v4q-12 -2 -33 -4 q-16 -2 -40.5 -2h-55.5h-350q-84 0 -84 84v57q0 86 84 86h716q86 0 86 -84v-22q0 -33 -8 -57.5t-30 -47.5l-318 -366q76 -10 147.5 -43t127 -86.5t89 -127t33.5 -167.5q0 -92 -33.5 -179.5t-99 -153t-161 -105.5t-218.5 -40q-76 0 -141 14.5t-117.5 36t-93 46.5t-67.5 45 q-33 25 -36 55.5z" />
<glyph unicode="4" horiz-adv-x="1243" d="M41 459v20q0 59 31 105l561 815q35 55 102 55h160q86 0 86 -86v-774h102q86 0 86 -84v-51q0 -84 -69 -84h-119v-289q0 -86 -86 -86h-90q-84 0 -84 86v289h-596q-84 0 -84 84zM319 594h402v450q0 27 1 53.5t3 49.5q2 25 6 49h-4q-10 -23 -20 -45q-10 -20 -23.5 -44 t-28.5 -44l-336 -465v-4z" />
<glyph unicode="5" horiz-adv-x="1146" d="M96 175.5q-2 31.5 21 62.5l41 61q43 68 116 16q35 -29 95.5 -59.5t146.5 -30.5q53 0 102.5 17.5t87 49.5t60 78t22.5 103q0 115 -82.5 183.5t-207.5 68.5q-55 0 -98.5 -13.5t-69.5 -23.5q-31 -10 -58.5 -12t-56.5 8l-18 6q-70 27 -64 103l53 579q6 82 88 82h598 q86 0 86 -86v-57q0 -84 -86 -84h-450l-23 -240q-4 -31 -6 -49q-2 -10 -4 -18h4q20 8 45 16q23 6 49.5 11t61.5 5q121 0 216 -37.5t160.5 -102t100.5 -152t35 -185.5q0 -109 -40 -200t-109.5 -157.5t-166 -104.5t-208.5 -38q-76 0 -139.5 14.5t-115 37t-89 47t-64.5 47.5 q-31 23 -33 54.5z" />
<glyph unicode="6" d="M100 657q0 147 42 295t125 264.5t209 189.5t294 73q66 0 125 -10.5t94 -22.5q80 -25 51 -109l-24 -67q-14 -43 -39 -53.5t-62 -2.5q-27 8 -57.5 14.5t-73.5 6.5q-88 0 -155.5 -34t-114.5 -89t-76.5 -128t-44.5 -150h4q35 45 111 79.5t182 34.5q104 0 187.5 -37 t141.5 -101.5t90 -149.5t32 -179q0 -102 -34 -194t-97.5 -162t-151.5 -110t-196 -40q-115 0 -216.5 46.5t-178.5 134.5t-122 214.5t-45 286.5zM375 561q0 -55 21.5 -115.5t59.5 -111.5t91 -84t115 -33q100 0 159.5 69.5t59.5 178.5q0 55 -17.5 103t-51.5 84t-87 57.5 t-123 21.5q-98 0 -162.5 -46t-64.5 -124z" />
<glyph unicode="7" horiz-adv-x="1079" d="M51 1311v57q0 86 84 86h830q86 0 86 -84v-45q0 -29 -5.5 -53.5t-19.5 -50.5l-582 -1160q-33 -61 -102 -61h-92q-49 0 -66.5 27.5t4.5 72.5l496 994q16 35 31.5 59.5t25.5 40.5q12 20 25 33v4q-8 -2 -21 -2q-10 -2 -28.5 -2h-44.5h-537q-84 0 -84 84z" />
<glyph unicode="8" horiz-adv-x="1239" d="M98 412q0 80 29 145.5t65.5 113.5t73.5 78.5t56 43.5q-74 53 -120 122.5t-46 167.5q0 74 28.5 144.5t86 127t144.5 90.5t206 34q102 0 190 -28t151.5 -79t99.5 -123.5t36 -163.5q0 -70 -21.5 -131t-49.5 -108t-54.5 -80t-38.5 -45q88 -53 144.5 -129t56.5 -186 q0 -82 -35 -160t-101.5 -137.5t-162 -96.5t-218.5 -37q-119 0 -215 35t-163.5 94.5t-104.5 138.5t-37 169zM362 440q0 -53 20.5 -96t55.5 -73.5t82 -48t101 -17.5q49 0 93 15.5t77.5 42t53 64.5t19.5 83q0 51 -27.5 88t-75.5 66.5t-114.5 58t-146.5 63.5q-14 -12 -38 -33.5 t-45.5 -52.5t-38 -71t-16.5 -89zM414 1079q0 -53 27.5 -91t73.5 -67.5t105 -55t125 -52.5q8 12 24.5 34.5t32 53.5t28 70t12.5 84q0 94 -59.5 144t-159.5 50q-104 0 -156.5 -49t-52.5 -121z" />
<glyph unicode="9" d="M86 981q0 102 34 192.5t97.5 158t150.5 107.5t195 40q115 0 217.5 -46.5t179 -134.5t121.5 -215t45 -286q0 -147 -41 -294t-124.5 -264.5t-209.5 -190.5t-294 -73q-66 0 -125.5 10.5t-93.5 22.5q-80 25 -52 107l25 69q14 43 38.5 52.5t61.5 3.5q29 -8 58.5 -15.5 t72.5 -7.5q88 0 156 34t115 90t76.5 129t44.5 151h-5q-39 -49 -118.5 -83t-178.5 -34q-100 0 -182 38t-140 103.5t-91 152.5t-33 183zM348 987q0 -53 16.5 -101t51.5 -85t86 -58.5t123 -21.5q98 0 162.5 47t64.5 125q0 55 -21.5 114.5t-59.5 110.5t-91 84t-115 33 q-100 0 -158.5 -68.5t-58.5 -179.5z" />
<glyph unicode=":" horiz-adv-x="501" d="M123 86v88q0 86 84 86h88q86 0 86 -86v-88q0 -86 -86 -86h-88q-84 0 -84 86zM123 868v90q0 86 84 86h88q86 0 86 -86v-90q0 -84 -86 -84h-88q-84 0 -84 84z" />
<glyph unicode=";" horiz-adv-x="565" d="M76 -150l86 340q18 74 94 74h78q49 0 67.5 -26.5t-0.5 -71.5l-125 -342q-23 -68 -98 -68h-28q-47 0 -65.5 25.5t-8.5 68.5zM182 866v92q0 86 84 86h84q86 0 86 -86v-92q0 -86 -86 -86h-84q-84 0 -84 86z" />
<glyph unicode="&#x3c;" horiz-adv-x="1267" d="M115 573v25q0 72 63 100l821 365q45 20 73 2t28 -66v-47q0 -72 -68 -98l-643 -266v-4l643 -267q68 -29 68 -98v-47q0 -49 -28 -66.5t-73 0.5l-821 367q-63 27 -63 100z" />
<glyph unicode="=" horiz-adv-x="1267" d="M135 358v31q0 86 84 86h830q86 0 86 -86v-31q0 -84 -86 -84h-830q-84 0 -84 84zM135 780v31q0 84 84 84h830q86 0 86 -84v-31q0 -86 -86 -86h-830q-84 0 -84 86z" />
<glyph unicode="&#x3e;" horiz-adv-x="1267" d="M170 172v47q0 72 66 98l643 267v4l-643 266q-66 27 -66 98v47q0 47 26.5 65.5t71.5 -1.5l822 -365q66 -31 65 -100v-25q0 -74 -65 -100l-822 -364q-45 -20 -71.5 -2t-26.5 65z" />
<glyph unicode="?" horiz-adv-x="960" d="M71.5 1337.5q2.5 28.5 37.5 51.5q47 31 126.5 62.5t190.5 31.5q86 0 167 -26.5t143.5 -76t100 -121t37.5 -161.5q0 -80 -24.5 -140.5t-62 -107.5t-81.5 -87t-84 -78t-69 -79t-35 -92l-4 -35q-8 -33 -26.5 -46t-55.5 -13h-82q-86 0 -86 84v33q0 66 24.5 115.5t62.5 91.5 t82 79t82 75t62.5 80t24.5 95q0 72 -57.5 121t-141.5 49q-47 0 -84.5 -13t-66.5 -28q-35 -18 -67.5 -16t-55.5 37l-35 51q-25 35 -22.5 63.5zM264 86v72q0 86 86 86h82q84 0 84 -86v-72q0 -86 -84 -86h-82q-86 0 -86 86z" />
<glyph unicode="@" horiz-adv-x="1658" d="M94 492q0 160 59.5 299t164 242.5t244.5 162.5t304 59q156 0 264.5 -36.5t174 -98t95.5 -142.5t30 -169v-512h63q84 0 84 -84v-16q0 -86 -84 -86h-481q-104 0 -185.5 31.5t-138.5 85t-87 122t-30 142.5t30 141t86 119.5t138 83t187 30.5h172q-2 80 -88 130.5t-222 50.5 q-111 0 -207 -46.5t-165.5 -123t-109.5 -177t-40 -208.5q0 -102 33 -195.5t94.5 -166.5t148.5 -121t197 -62q41 -6 61.5 -26.5t20.5 -61.5v-33q0 -41 -22.5 -63.5t-65.5 -18.5q-164 14 -297 76.5t-228 163t-147.5 231t-52.5 277.5zM829 498q0 -84 53.5 -142.5t145.5 -58.5 h156v401h-152q-94 0 -148.5 -59t-54.5 -141z" />
<glyph unicode="A" horiz-adv-x="1298" d="M33 98l454 1286q25 70 97 70h131q76 0 96 -70l455 -1286q7 -20 7 -37q-1 -21 -11 -35q-20 -26 -66 -26h-94q-76 0 -96 70l-103 303h-510l-100 -301q-20 -72 -96 -72h-95q-46 0 -66 26q-10 14 -11 34q0 17 8 38zM459 588h379l-129 389q-10 31 -20.5 69.5t-18.5 73.5 q-10 39 -19 82h-4q-12 -43 -20 -82q-10 -35 -18.5 -73.5t-18.5 -69.5z" />
<glyph unicode="B" horiz-adv-x="1277" d="M168 86v1282q0 86 84 86h434q98 0 181 -24.5t142.5 -72.5t93.5 -118t34 -160q0 -102 -46.5 -184t-129.5 -127v-4q59 -18 103 -53t72.5 -81t43 -99.5t14.5 -108.5q0 -109 -40 -188.5t-109.5 -132t-160.5 -77t-192 -24.5h-440q-84 0 -84 86zM430 227h283q102 0 156.5 59.5 t54.5 151.5t-55.5 150.5t-155.5 58.5h-283v-420zM430 860h258q86 0 132 54.5t46 132.5t-46 129t-138 51h-252v-367z" />
<glyph unicode="C" horiz-adv-x="1441" d="M82 733q0 158 55.5 294t154.5 236.5t236.5 158t302.5 57.5q88 0 163 -15.5t134.5 -37t104.5 -47t74 -46.5q35 -27 35 -62q0 -26 -19 -57l-37 -59q-24 -40 -60 -40q-25 0 -57 20q-47 31 -131 66.5t-196 35.5q-119 0 -210 -40t-152.5 -108.5t-93.5 -159.5t-32 -192 q0 -102 33 -196.5t95.5 -166t153.5 -114.5t208 -43q61 0 115.5 13.5t99.5 32t81 41t60 40.5q32 23 59 23q34 0 60 -37l41 -56q22 -29 22 -56q0 -33 -34 -62q-31 -25 -79 -56.5t-112.5 -59.5t-145.5 -46.5t-177 -18.5q-172 0 -310.5 58.5t-237 160t-151.5 240.5t-53 299z" />
<glyph unicode="D" horiz-adv-x="1490" d="M168 86v1282q0 86 84 86h412q168 0 305 -49t233 -141.5t149.5 -227.5t53.5 -307t-53.5 -307t-149.5 -229.5t-233.5 -143.5t-304.5 -49h-412q-84 0 -84 86zM430 227h219q221 0 352.5 128t131.5 374q0 121 -35 214t-98.5 155.5t-152.5 95.5t-198 33h-219v-1000z" />
<glyph unicode="E" horiz-adv-x="1140" d="M168 86v1282q0 86 84 86h700q86 0 86 -86v-57q0 -84 -86 -84h-522v-381h406q86 0 86 -84v-57q0 -86 -86 -87h-406v-391h555q86 0 86 -84v-57q0 -86 -86 -86h-733q-84 0 -84 86z" />
<glyph unicode="F" horiz-adv-x="1048" d="M168 86v1282q0 86 84 86h666q86 0 86 -86v-57q0 -84 -86 -84h-488v-412h397q86 0 86 -84v-57q0 -86 -86 -86h-397v-502q0 -86 -84 -86h-94q-84 0 -84 86z" />
<glyph unicode="G" horiz-adv-x="1544" d="M82 721q0 162 56.5 301t156.5 240.5t237.5 159t301.5 57.5q90 0 166.5 -14.5t137 -36t104.5 -44t67 -38.5q37 -29 37 -64q0 -26 -19 -55l-37 -58q-23 -35 -52 -40q-5 -1 -10 -1q-25 0 -57 19q-47 29 -126.5 59.5t-196.5 30.5q-119 0 -211 -40t-154.5 -108.5t-95.5 -160.5 t-33 -195q0 -115 38 -210t103.5 -162.5t153.5 -105.5t191 -38q92 0 160.5 24.5t115.5 55.5q53 35 92 80v162h-139q-86 0 -86 86v55q0 86 86 86h291q84 0 84 -86v-594q0 -86 -84 -86h-51q-41 0 -62.5 19.5t-21.5 50.5v34v25q0 6 2 10h-4q-45 -45 -109 -82q-53 -31 -133 -56.5 t-184 -25.5q-145 0 -274.5 54.5t-227.5 153t-155.5 235.5t-57.5 303z" />
<glyph unicode="H" horiz-adv-x="1525" d="M168 86v1282q0 86 84 86h94q84 0 84 -86v-530h666v530q0 86 86 86h92q84 0 84 -86v-1282q0 -86 -84 -86h-92q-86 0 -86 86v524h-666v-524q0 -86 -84 -86h-94q-84 0 -84 86z" />
<glyph unicode="I" horiz-adv-x="598" d="M168 86v1282q0 86 84 86h94q84 0 84 -86v-1282q0 -86 -84 -86h-94q-84 0 -84 86z" />
<glyph unicode="J" horiz-adv-x="1095" d="M39 430q0 84 84 84h96q41 0 59.5 -18.5t22.5 -63.5q6 -88 50 -151.5t141 -63.5q76 0 132 50t56 167v793h-289q-86 0 -86 84v57q0 86 86 86h467q86 0 86 -86v-938q0 -119 -39 -205t-103.5 -141t-145.5 -82t-164 -27q-84 0 -166 28t-145.5 83t-102.5 141t-39 203z" />
<glyph unicode="K" horiz-adv-x="1286" d="M168 86v1282q0 86 84 86h94q84 0 84 -86v-506h191l307 533q33 59 100 59h100q52 0 68 -30q7 -12 6 -26q0 -21 -14 -46l-352 -590v-4l378 -656q16 -27 16 -49q0 -15 -6 -25q-18 -28 -69 -28h-113q-68 0 -100 59l-321 576h-191v-549q0 -86 -84 -86h-94q-84 0 -84 86z" />
<glyph unicode="L" horiz-adv-x="1067" d="M168 86v1282q0 86 84 86h94q84 0 84 -86v-1141h543q86 0 86 -84v-57q0 -86 -86 -86h-721q-84 0 -84 86z" />
<glyph unicode="M" horiz-adv-x="1746" d="M121 88l104 1284q10 82 88 82h129q72 0 97 -70l260 -649q12 -33 25.5 -69.5t23.5 -69.5l24 -74h5q10 37 22 74q10 33 23.5 69.5t25.5 69.5l260 649q25 70 99 70h127q82 0 88 -82l104 -1284v-11q0 -77 -82 -77h-92q-82 0 -88 82l-55 731q-4 35 -4 75v75q0 39 2 75h-4 q-14 -43 -27 -82q-12 -35 -25.5 -73.5t-25.5 -69.5l-211 -496q-25 -67 -94 -67h-2h-87q-74 0 -98 67l-209 496q-12 31 -26.5 71t-26.5 74q-14 41 -27 82h-4q2 -39 2 -77q0 -35 -1 -75t-3 -75l-55 -731q-6 -82 -88 -82h-92q-82 0 -82 77v11z" />
<glyph unicode="N" horiz-adv-x="1521" d="M168 86v1282q0 86 84 86h110q72 0 103 -57l516 -783q20 -33 43 -71.5t39 -73.5q20 -39 39 -80h4q-4 41 -8 80q-4 35 -5 74t-1 71v754q0 86 86 86h92q86 0 86 -86v-1282q0 -86 -86 -86h-111q-70 0 -100 57l-518 781q-20 33 -42 71.5t-38 73.5q-23 39 -41 80h-4 q2 -41 6 -80q4 -35 6 -74t2 -71v-752q0 -86 -84 -86h-94q-84 0 -84 86z" />
<glyph unicode="O" horiz-adv-x="1667" d="M82 737q0 156 55.5 291t155.5 235.5t237.5 158t303.5 57.5t303 -57.5t237.5 -158t155.5 -235.5t55 -291q0 -160 -55 -299t-155.5 -242.5t-238 -162t-302.5 -58.5q-166 0 -303.5 58.5t-237.5 162t-155.5 242.5t-55.5 299zM354 737q0 -111 36 -206t99.5 -164.5 t151.5 -109.5t193 -40q104 0 192 40t151.5 109.5t99.5 165t36 205.5q0 106 -36 197.5t-99.5 159t-151.5 105.5t-192 38t-192.5 -38t-152 -105.5t-99.5 -159t-36 -197.5z" />
<glyph unicode="P" horiz-adv-x="1236" d="M168 86v1282q0 86 84 86h475q102 0 187 -34t146.5 -96t95.5 -149.5t34 -193.5t-34 -194.5t-95.5 -152t-146.5 -98t-187 -34.5h-297v-416q0 -86 -84 -86h-94q-84 0 -84 86zM430 731h248q117 0 180.5 67.5t63.5 182.5q0 113 -62.5 179.5t-177.5 66.5h-252v-496z" />
<glyph unicode="Q" horiz-adv-x="1667" d="M82 735q0 156 55.5 292t155.5 236.5t238.5 158t302.5 57.5q166 0 303 -57.5t237.5 -158t155.5 -236.5t55 -292q0 -133 -43 -248.5t-117 -212.5l99 -92q35 -29 35 -62q0 -28 -27 -59l-37 -38q-32 -33 -62 -33q-26 0 -51 24l-104 105q-92 -70 -203.5 -107t-240.5 -37 q-166 0 -303.5 59.5t-237.5 162t-155.5 240.5t-55.5 298zM354 735q0 -111 36 -205t100.5 -163.5t152.5 -109.5t191 -40q68 0 134 19.5t119 58.5l-100 96q-29 27 -32 57v6q0 28 26 56l37 39q31 36 61 36q26 0 51 -26l103 -104q39 59 59.5 130.5t20.5 149.5q0 106 -37 198.5 t-101.5 160t-151.5 105.5t-189 38t-190.5 -38t-153 -105.5t-100.5 -160t-36 -198.5z" />
<glyph unicode="R" horiz-adv-x="1282" d="M168 86v1282q0 86 84 86h393q109 0 169 -9t108 -30q111 -47 177 -148.5t66 -248.5q0 -66 -16 -127.5t-47 -113.5t-76 -93t-102 -63v-5l12 -18q6 -10 15.5 -23.5t19.5 -33.5l239 -439q16 -27 16 -49q0 -15 -6 -25q-18 -28 -69 -28h-111q-68 0 -100 59l-256 484h-254v-457 q0 -86 -84 -86h-94q-84 0 -84 86zM430 772h238q106 0 167.5 61.5t61.5 170.5q0 70 -27.5 122t-87.5 76q-27 12 -62.5 18.5t-94.5 6.5h-195v-455z" />
<glyph unicode="S" horiz-adv-x="1124" d="M83 174q-2 6 -2 13q0 24 23 55l46 65q25 35 52 38h7q25 0 59 -19q18 -12 46 -31t66 -35t84 -28.5t99 -12.5q102 0 159.5 46t57.5 120q0 70 -50 115t-126 81.5t-163 73.5t-162.5 88.5t-126 126t-50.5 187.5q0 96 38 174t103.5 133t154.5 85t194 30q63 0 121.5 -11.5 t106.5 -28t86 -36t61 -35.5q41 -29 41 -67q0 -23 -15 -50l-37 -67q-23 -45 -53.5 -45t-62.5 16q-45 27 -105.5 53.5t-146.5 26.5q-102 0 -161.5 -45t-59.5 -119q0 -68 50 -112t125.5 -78.5t163 -70.5t163 -87t125.5 -127t50 -190q0 -88 -32.5 -167t-94 -137.5t-150.5 -92.5 t-204 -34q-78 0 -147.5 15.5t-127 38t-101 48.5t-70.5 46q-25 23 -34 51z" />
<glyph unicode="T" horiz-adv-x="1239" d="M12 1311v57q0 86 86 86h1045q84 0 84 -86v-57q0 -84 -84 -84h-391v-1141q0 -86 -86 -86h-93q-84 0 -84 86v1141h-391q-86 0 -86 84z" />
<glyph unicode="U" horiz-adv-x="1472" d="M152 522v846q0 86 84 86h92q86 0 86 -86v-844q0 -147 87 -227t234 -80t235.5 80t88.5 227v844q0 86 84 86h94q84 0 84 -86v-846q0 -123 -42 -223t-119 -172t-184.5 -112t-238.5 -40q-133 0 -240.5 40t-184 112t-118.5 172t-42 223z" />
<glyph unicode="V" horiz-adv-x="1306" d="M25 1356q-7 21 -7 37q0 21 10 35q19 26 66 26h109q76 0 96 -72l297 -876q10 -33 19.5 -69t17.5 -68q8 -37 18 -76h4q8 39 17 76q8 33 18 68.5t21 68.5l301 876q18 72 94 72h104q46 0 66 -26q11 -15 11 -35q0 -17 -7 -37l-465 -1288q-23 -68 -96 -68h-131q-74 0 -96 68z " />
<glyph unicode="W" horiz-adv-x="1966" d="M72 1360q-4 15 -4 28q0 24 12 40q18 26 65 26h103q74 0 92 -76l211 -929q6 -31 10 -59t8 -50q4 -25 4 -45h5q2 20 6 45q6 45 24 109l242 931q20 74 96 74h70q76 0 92 -74l240 -931q8 -33 14 -60t10 -49q4 -25 6 -45h4q2 20 7 45q4 23 7 50.5t11 58.5l223 929q14 76 94 76 h97q47 0 67 -26q12 -16 12 -39q0 -13 -4 -29l-333 -1288q-20 -72 -97 -72h-145q-76 0 -94 74l-207 786q-18 72 -29 131q-6 31 -10 60h-6q-4 -29 -10 -60q-4 -29 -11.5 -62.5t-15.5 -68.5l-209 -786q-18 -74 -94 -74h-148q-76 0 -94 74z" />
<glyph unicode="X" horiz-adv-x="1245" d="M62 28q-7 11 -6 24q0 22 18 50l389 635l-373 615q-17 27 -17 48q1 12 7 24q16 30 67 30h115q68 0 100 -59l168 -297q16 -33 33 -63.5t29 -57.5q14 -31 29 -57h4q12 27 26 57q12 25 28.5 56.5t35.5 64.5l170 297q33 59 100 59h115q52 0 68 -30q6 -11 6 -24q0 -21 -17 -48 l-375 -615l389 -635q18 -29 18 -51q1 -13 -5 -23q-16 -28 -70 -28h-106q-68 0 -101 59l-194 332q-18 31 -34.5 61.5t-29.5 55.5q-14 29 -26 55h-5q-12 -27 -26 -55q-12 -25 -28.5 -55.5t-33.5 -61.5l-192 -332q-33 -59 -100 -59h-105q-53 0 -71 28z" />
<glyph unicode="Y" horiz-adv-x="1187" d="M28 1424q17 30 66 30h115q68 0 98 -63l197 -365q16 -35 32.5 -68.5t28.5 -62.5q14 -33 27 -64h4q12 31 27 64q12 29 28.5 62.5t32.5 68.5l197 365q31 63 98 63h115q51 0 68 -30q6 -11 6 -25q0 -21 -15 -47l-428 -744v-522q0 -86 -84 -86h-92q-86 0 -86 86v522l-426 744 q-16 26 -16 47q0 14 7 25z" />
<glyph unicode="Z" horiz-adv-x="1230" d="M63 86v25q0 59 35 108l611 877q47 66 73 96q16 20 33 35v4q-12 -2 -29 -2q-14 -2 -34.5 -2h-44.5h-525q-86 0 -86 84v57q0 86 86 86h881q84 0 84 -84v-24q0 -33 -7 -57.5t-26 -51.5l-612 -879q-23 -33 -42.5 -56t-33.5 -40q-18 -20 -31 -35v-4q12 0 29 2q14 0 33.5 1 t46.5 1h567q86 0 86 -84v-57q0 -86 -86 -86h-921q-86 0 -87 86z" />
<glyph unicode="[" horiz-adv-x="620" d="M147 -109v1543q0 84 86 84h234q86 0 86 -84v-19q0 -86 -80 -86h-102v-1335h96q86 0 86 -86v-17q0 -86 -86 -86h-234q-86 0 -86 86z" />
<glyph unicode="\" horiz-adv-x="831" d="M74 1432q-14 45 5 70.5t66 25.5h45q74 0 99 -70l467 -1448q16 -45 -3.5 -70.5t-66.5 -25.5h-47q-74 0 -98 70z" />
<glyph unicode="]" horiz-adv-x="620" d="M70 -92q0 86 84 86h98v1335h-98q-84 0 -84 86v19q0 84 84 84h235q84 0 84 -84v-1543q0 -86 -84 -86h-235q-84 0 -84 86v17z" />
<glyph unicode="^" horiz-adv-x="1267" d="M174 600l342 789q27 66 98 65h23q74 0 100 -65l340 -789q18 -43 1 -70.5t-66 -27.5h-45q-72 0 -99 67l-241 611l-244 -611q-23 -68 -98 -67h-43q-49 0 -67.5 27.5t-0.5 70.5z" />
<glyph unicode="_" horiz-adv-x="1155" d="M2 -86q0 86 86 86h979q84 0 84 -86v-31q0 -84 -84 -84h-979q-86 0 -86 84v31z" />
<glyph unicode="`" horiz-adv-x="1009" d="M352.5 1798q12.5 31 65.5 31h76q66 0 100 -60l72 -124q20 -35 12 -65t-53 -30h-54q-35 0 -58.5 12.5t-45.5 39.5l-92 124q-35 41 -22.5 72z" />
<glyph unicode="a" horiz-adv-x="1075" d="M49 289q0 76 28.5 132t78 96t112 64.5t130 39t135 19.5t126.5 5h43v25q0 102 -57 143t-137 41q-66 0 -123 -19.5t-94 -39.5q-27 -12 -49 -12q-43 0 -66 46l-20 39q-14 27 -14 49q0 41 46 66q51 27 138.5 56.5t203.5 29.5q205 0 319 -108.5t114 -307.5v-567q0 -86 -86 -86 h-70q-84 0 -84 86v41q0 25 2 33q0 8 2 12h-4q-31 -55 -78 -98q-41 -37 -102.5 -68t-147.5 -31q-72 0 -134 22.5t-109.5 63.5t-75 98.5t-27.5 129.5zM307 311q0 -53 40 -95t118 -42q55 0 99 24.5t75 64.5t48.5 89t17.5 97v38h-43q-49 0 -111 -6t-116 -24.5t-91 -53.5t-37 -92 z" />
<glyph unicode="b" horiz-adv-x="1234" d="M129 86v1282q0 86 86 86h88q86 0 86 -86v-379q0 -20 -1 -35.5t-3 -27.5q-2 -14 -2 -25h4q29 47 74 84q39 31 99.5 57.5t146.5 26.5q104 0 189 -40t145.5 -111.5t93 -172t32.5 -221.5q0 -125 -36.5 -226t-100 -173t-151.5 -111t-189 -39q-90 0 -149.5 27t-98.5 61 q-45 37 -71 89h-4q0 -4 2 -13q0 -6 1 -14t1 -19v-32q0 -35 -21.5 -54.5t-64.5 -19.5h-70q-86 0 -86 86zM381 522q0 -63 16.5 -122.5t49 -104.5t80.5 -72.5t112 -27.5q55 0 103.5 21.5t84 62t56 101t20.5 138.5q0 74 -19.5 134.5t-53 103.5t-81 66.5t-104.5 23.5 q-51 0 -98 -19.5t-84 -59.5t-59.5 -100.5t-22.5 -144.5z" />
<glyph unicode="c" horiz-adv-x="1085" d="M63 522q0 111 40 210t114 174t179.5 119t234.5 44q127 0 211 -36t131 -68q33 -23 36 -53v-6q0 -27 -20 -58l-26 -41q-23 -35 -51 -38h-8q-25 0 -56 15q-33 23 -84 43.5t-119 20.5q-72 0 -131 -25.5t-100 -69.5t-63.5 -102.5t-22.5 -126.5q0 -66 22.5 -125t64.5 -104 t102.5 -71.5t135.5 -26.5q78 0 137.5 26.5t96.5 52.5q30 17 54 17q39 0 63 -43l20 -39q15 -28 15 -51q0 -37 -38 -64q-25 -18 -59.5 -38.5t-81.5 -39t-104.5 -31t-124.5 -12.5q-129 0 -234.5 43t-179.5 117t-114 173t-40 214z" />
<glyph unicode="d" horiz-adv-x="1234" d="M68 522q0 125 34.5 225.5t98 172t149.5 110.5t191 39q86 0 144 -23.5t93 -52.5q41 -33 68 -73h4q-2 8 -2 16q-2 8 -2 19.5v23.5v389q0 86 84 86h90q84 0 84 -86v-1282q0 -86 -84 -86h-76q-84 0 -84 78v41q0 20 2 26q0 6 2 11h-4q-29 -51 -74 -90q-39 -35 -101 -63 t-153 -28q-106 0 -192 40t-146.5 112t-93 173t-32.5 222zM330 522q0 -150 71.5 -238.5t188.5 -88.5q51 0 98 19t84 59t58.5 102.5t21.5 148.5q0 61 -16.5 118.5t-48 103t-81 73t-114.5 27.5q-53 0 -100.5 -21.5t-83 -62.5t-57 -101.5t-21.5 -138.5z" />
<glyph unicode="e" horiz-adv-x="1118" d="M66 522q0 121 38.5 221.5t108.5 173t168 112.5t215 40q111 0 198 -38t145 -103.5t89 -157.5t31 -199q0 -35 -25.5 -61.5t-64.5 -26.5h-637q6 -72 33.5 -125t69.5 -89t96.5 -54t113.5 -18q72 0 130.5 22.5t94.5 44.5q29 14 52 14q8 0 15 -2q28 -6 48 -40l25 -41 q14 -27 14 -50q0 -39 -43 -65q-51 -33 -141 -69t-213 -36q-129 0 -233.5 44t-177.5 119t-111.5 174t-38.5 210zM338 641h463q-4 111 -62.5 171t-148.5 60q-100 0 -167 -63.5t-85 -167.5z" />
<glyph unicode="f" horiz-adv-x="692" d="M49 909v35q0 86 84 86h51v49q0 125 47.5 200t113 116t132 54t107.5 13h30q84 0 84 -86v-53q0 -78 -88 -84q-25 -2 -53.5 -7t-53 -22.5t-42 -50.5t-17.5 -90v-39h140q84 0 84 -86v-35q0 -86 -84 -86h-140v-737q0 -86 -86 -86h-90q-84 0 -84 86v737h-51q-84 0 -84 86z" />
<glyph unicode="g" horiz-adv-x="1218" d="M70 551q0 106 29.5 200.5t89 165t147.5 111.5t205 41q92 0 151.5 -25.5t93.5 -54.5q41 -37 64 -80h4q-2 2 -2 6v21v39q0 29 21.5 49t62.5 20h70q84 0 84 -86v-895q0 -135 -48.5 -228t-125 -152.5t-174 -86t-193.5 -26.5q-88 0 -170 16.5t-135 38.5q-55 23 -55 69 q0 19 10 42l16 47q16 39 42 50q11 5 26 5q18 0 41 -8q37 -14 88 -26.5t123 -12.5q59 0 113 13.5t94 44t63.5 78.5t23.5 118v78v18.5t2 16.5q0 8 3 18h-5q-43 -74 -112.5 -115t-173.5 -41q-115 0 -203 42t-148.5 115t-91 169t-30.5 205zM332 561q0 -141 67.5 -231t194.5 -90 q45 0 89 14t78 50t54.5 94.5t20.5 146.5q0 90 -20.5 148.5t-55.5 93t-81 48t-97 13.5q-123 0 -186.5 -79t-63.5 -208z" />
<glyph unicode="h" d="M129 86v1282q0 86 86 86h88q86 0 86 -86v-422q0 -20 -1 -35.5t-3 -27.5q-2 -14 -2 -25h4q18 37 52 75t80 68.5t104.5 49t126.5 18.5q174 0 269 -94t95 -303v-586q0 -86 -86 -86h-88q-86 0 -86 86v532q0 96 -33 154.5t-131 58.5q-68 0 -124 -26.5t-95 -72.5t-60.5 -109.5 t-21.5 -137.5v-399q0 -86 -86 -86h-88q-86 0 -86 86z" />
<glyph unicode="i" horiz-adv-x="516" d="M129 86v872q0 86 84 86h90q84 0 84 -86v-872q0 -86 -84 -86h-90q-84 0 -84 86zM129 1307v61q0 86 84 86h90q86 0 86 -86v-61q0 -84 -86 -84h-90q-84 0 -84 84z" />
<glyph unicode="j" horiz-adv-x="518" d="M-125 -285q0 49 25.5 64.5t58.5 19.5q27 2 56.5 10.5t55 28t42 56t16.5 96.5v968q0 86 86 86h88q86 0 86 -86v-985q0 -127 -48 -204.5t-113.5 -120.5t-132 -57.5t-105.5 -14.5h-31q-84 0 -84 86v53zM129 1307v61q0 86 86 86h90q84 0 84 -86v-61q0 -84 -84 -84h-90 q-86 0 -86 84z" />
<glyph unicode="k" horiz-adv-x="1091" d="M129 86v1282q0 86 86 86h88q86 0 86 -86v-692h129l217 311q35 57 103 57h98q54 0 68 -30q5 -10 4 -22q0 -23 -19 -50l-260 -364v-5l307 -471q17 -29 17 -51q1 -13 -5 -23q-16 -28 -69 -28h-111q-68 0 -100 59l-244 398h-135v-371q0 -86 -86 -86h-88q-86 0 -86 86z" />
<glyph unicode="l" horiz-adv-x="571" d="M127 326v1042q0 86 84 86h90q84 0 84 -86v-1022q0 -39 7 -62.5t19.5 -37t27 -18.5t28.5 -7q29 -4 46 -21.5t17 -52.5v-69q0 -41 -19 -64.5t-67 -23.5q-53 0 -108 10t-102.5 45t-77 101.5t-29.5 179.5z" />
<glyph unicode="m" horiz-adv-x="1839" d="M129 86v872q0 86 84 86h80q84 0 84 -86v-63q0 -10 -1 -18.5t-1 -14.5q-2 -8 -2 -14h4q18 39 51 78t77 70.5t98 52t116 20.5q240 0 305 -215h4q20 41 56 80t82 68.5t101.5 48t116.5 18.5q164 0 253 -95t89 -302v-586q0 -86 -86 -86h-88q-86 0 -86 86v537q0 45 -5 82.5 t-20.5 65.5t-44 44t-73.5 16q-66 0 -116 -30.5t-83.5 -81.5t-50 -116.5t-16.5 -133.5v-383q0 -86 -84 -86h-90q-86 0 -86 86v537q0 43 -4.5 80.5t-19.5 66.5t-43 45t-73 16q-70 0 -120 -31.5t-83.5 -83.5t-50 -116.5t-16.5 -130.5v-383q0 -86 -84 -86h-90q-84 0 -84 86z" />
<glyph unicode="n" d="M129 86v872q0 86 84 86h80q84 0 84 -86v-63q0 -10 -1 -18.5t-1 -14.5q-2 -8 -2 -14h4q16 33 47 71.5t76 71.5t106.5 55.5t141.5 22.5q174 0 269 -94t95 -303v-586q0 -86 -86 -86h-88q-86 0 -86 86v532q0 96 -33 154.5t-131 58.5q-70 0 -125 -26.5t-94 -73.5t-60.5 -109.5 t-21.5 -132.5v-403q0 -86 -84 -86h-90q-84 0 -84 86z" />
<glyph unicode="o" horiz-adv-x="1273" d="M63 522q0 119 45.5 220.5t123 173t182 112.5t223.5 41t223.5 -41t183 -112.5t123.5 -173t45 -220.5q0 -121 -45 -221t-123.5 -173t-183 -113t-223.5 -40t-223.5 40t-182 113t-123 173t-45.5 221zM328 522q0 -74 24.5 -133t66.5 -102t98 -66.5t120 -23.5q63 0 119.5 23.5 t99.5 66.5t67.5 102.5t24.5 132.5q0 72 -24.5 132.5t-67.5 103.5t-99.5 66.5t-119.5 23.5t-119.5 -23.5t-98.5 -66.5t-66.5 -103.5t-24.5 -132.5z" />
<glyph unicode="p" horiz-adv-x="1234" d="M129 -324v1282q0 86 86 86h66q41 0 62.5 -20t21.5 -51v-47q0 -10 -1.5 -16.5t-1.5 -12.5v-12h5q29 51 75 92q41 35 104.5 63.5t155.5 28.5q106 0 192.5 -40t147 -112.5t93 -173t32.5 -221.5q0 -125 -35.5 -225t-100 -172t-152.5 -111t-191 -39q-82 0 -139 25t-92 55 q-43 35 -70 80h-4q0 -10 2 -24q2 -12 3 -28.5t1 -37.5v-369q0 -86 -86 -86h-88q-86 0 -86 86zM381 516q0 -61 16.5 -118.5t49 -102.5t82 -72.5t112.5 -27.5q53 0 101.5 21.5t84 62t56 101t20.5 138.5q0 150 -71.5 239t-186.5 89q-51 0 -98 -19.5t-84 -59.5t-59.5 -102.5 t-22.5 -148.5z" />
<glyph unicode="q" horiz-adv-x="1234" d="M68 522q0 125 35.5 225.5t98 172t150.5 110.5t193 39q90 0 150.5 -26.5t99.5 -59.5q45 -37 71 -86h4q-2 2 -2 10q-2 4 -2 12.5v18.5v37q0 29 21.5 49t64.5 20h68q84 0 84 -86v-1282q0 -86 -84 -86h-90q-84 0 -84 86v379v37t2 29q0 14 2 24h-4q-27 -49 -70 -86 q-37 -33 -98.5 -58.5t-153.5 -25.5q-102 0 -186 40t-143.5 112t-93 173t-33.5 222zM330 522q0 -150 71.5 -238.5t188.5 -88.5q51 0 98 19t84 59t58.5 102.5t21.5 148.5q0 61 -16.5 118.5t-48 103t-81 73t-114.5 27.5q-53 0 -100.5 -21.5t-83 -62.5t-57 -101.5t-21.5 -138.5z " />
<glyph unicode="r" horiz-adv-x="768" d="M129 86v872q0 86 84 86h80q86 0 86 -86v-98q0 -16 -1 -28.5t-3 -22.5t-2 -21h4q14 47 43 94.5t68.5 85.5t88 61.5t103.5 23.5q43 0 60.5 -21.5t17.5 -64.5v-80q0 -86 -88 -86q-72 0 -125 -33t-88 -86t-52.5 -120.5t-17.5 -139.5v-336q0 -86 -84 -86h-90q-84 0 -84 86z " />
<glyph unicode="s" horiz-adv-x="915" d="M65 133q-1 5 -1 9q0 27 20 57l25 37q23 32 50 36q4 1 8 1q24 0 58 -17q37 -20 95.5 -46t138.5 -26q68 0 106.5 29t38.5 78q0 43 -38 68.5t-96 47t-124.5 46t-125 61.5t-96.5 94.5t-38 147.5q0 76 32 135t86 98t126.5 59.5t154.5 20.5q104 0 177 -26.5t114 -49.5 q35 -18 41 -49q2 -8 2 -17q0 -23 -12 -48l-21 -37q-18 -37 -46 -43q-8 -2 -17 -2q-23 0 -51 12q-35 16 -84 33.5t-115 17.5q-68 0 -104.5 -26.5t-36.5 -75.5q0 -43 38 -69.5t96 -47t124.5 -44.5t125 -60.5t96.5 -94t38 -145.5q0 -70 -27.5 -128t-80 -101t-126 -68 t-163.5 -25q-127 0 -214.5 37t-134.5 70q-35 20 -39 51z" />
<glyph unicode="t" horiz-adv-x="745" d="M47 909v35q0 86 86 86h60v213q0 86 86 86h81q86 0 86 -86v-213h152q86 0 86 -86v-35q0 -86 -84 -86h-154v-405q0 -59 16.5 -95t41 -57.5t54.5 -31t56 -11.5q47 -4 66.5 -22.5t19.5 -61.5v-63q0 -47 -26.5 -66.5t-79.5 -19.5q-70 0 -142.5 20.5t-131 65.5t-96.5 117.5 t-38 179.5v450h-55q-84 0 -84 86z" />
<glyph unicode="u" horiz-adv-x="1216" d="M115 373v585q0 86 86 86h88q86 0 86 -86v-532q0 -96 32.5 -154.5t129.5 -58.5q70 0 125 28.5t92 78t56 113t19 132.5v393q0 86 86 86h89q86 0 86 -86v-872q0 -86 -86 -86h-80q-84 0 -84 86v61v18.5t2 14.5q0 8 2 15h-4q-18 -41 -52 -80t-81.5 -70t-104.5 -50.5 t-125 -19.5q-168 0 -265 92.5t-97 305.5z" />
<glyph unicode="v" horiz-adv-x="1064" d="M37 946q-8 21 -8 38q0 20 10 34q18 26 65 26h97q76 0 96 -71l195 -576q8 -23 14 -51.5t12 -50.5q6 -29 12 -55h5q4 27 10 55q4 23 11 51.5t15 50.5l195 576q20 71 94 71h2h96q46 0 66 -26q11 -15 11 -35q0 -17 -7 -37l-315 -876q-23 -70 -97 -70h-163q-76 0 -97 70z" />
<glyph unicode="w" horiz-adv-x="1658" d="M45 948q-5 16 -5 30q0 24 12 40q20 26 65 26h98q78 0 92 -75l168 -611q4 -23 7 -41t7 -34q4 -18 7 -35h4q2 16 6 35q4 16 7 34.5t9 40.5l176 611q14 73 93 73h2h77q76 0 95 -73l174 -611q6 -23 9 -41t7 -34q4 -18 6 -35h4q2 16 6 35q4 16 7.5 34.5t9.5 40.5l166 611 q18 75 92 75h2h94q48 0 66 -26q11 -16 11 -39q0 -14 -5 -31l-268 -876q-20 -72 -97 -72h-137q-78 0 -96 74l-158 522q-6 20 -10 40.5t-8 37.5q-4 18 -6 35h-5q-4 -16 -8 -35q-4 -16 -8 -37t-10 -41l-158 -522q-18 -74 -94 -74h-141q-74 0 -95 72z" />
<glyph unicode="x" horiz-adv-x="1019" d="M62 30q-5 10 -5 22q0 22 19 50l278 426l-270 414q-19 28 -19 50q-1 12 5 22q16 30 69 30h105q66 0 100 -61l131 -223q4 -10 11.5 -21.5t11.5 -21.5q6 -10 10 -23h4q6 12 12 23q4 10 10.5 21.5t10.5 21.5l131 223q33 61 100 61h105q53 0 69 -30q5 -10 5 -22q0 -22 -19 -50 l-268 -414l278 -426q18 -27 18 -49q0 -11 -6 -23q-16 -30 -69 -30h-98q-68 0 -101 59l-149 244q-4 8 -9.5 18.5t-9.5 18.5q-6 8 -10 18h-4q-2 -10 -8 -18q-4 -8 -10.5 -18.5t-10.5 -18.5l-147 -244q-35 -59 -101 -59h-100q-53 0 -69 30z" />
<glyph unicode="y" horiz-adv-x="1052" d="M21 1016q18 28 67 28h111q72 0 96 -69l197 -533q6 -23 13 -46t13 -46q8 -25 12 -49h5q4 25 10 47q4 20 11 44t13 46l185 535q20 71 94 71h2h102q47 0 66 -26q11 -15 11 -35q0 -17 -7 -37l-430 -1102q-27 -72 -68 -123t-90 -84.5t-105.5 -50t-113.5 -16.5q-43 0 -80 10 t-65 21q-37 14 -46 45q-4 10 -4 22q0 21 11 43l18 45q16 35 41 44.5t51 2.5q14 -6 33 -12t41 -6q57 0 100 42t66 97l39 92l-397 928q-11 24 -11 43q0 16 9 29z" />
<glyph unicode="z" horiz-adv-x="1044" d="M57 70v20q0 33 8.5 52.5t28.5 43.5l432 541q18 23 33.5 40t28.5 30l26 26v4q-8 -2 -22 -2q-12 -2 -30.5 -2h-43.5h-354q-86 0 -86 86v49q0 86 86 86h717q86 0 86 -69v-21q0 -33 -8.5 -52t-28.5 -44l-432 -543q-18 -23 -35 -40l-29 -29l-26 -27v-4q10 0 24 2q12 2 29.5 3 t44.5 1h389q86 0 86 -86v-49q0 -86 -86 -86h-752q-86 0 -86 70z" />
<glyph unicode="{" horiz-adv-x="702" d="M49 631v80q0 39 18.5 57t49.5 39q35 14 70.5 59t35.5 135v175q0 111 37 179t87 106t103.5 50.5t86.5 12.5h26q86 0 86 -86v-31q0 -84 -86 -84q-16 0 -36.5 -5t-39 -22.5t-31 -52.5t-12.5 -94v-215q0 -78 -26.5 -128t-57.5 -79q-37 -35 -84 -53v-4q47 -14 84 -49 q31 -29 57.5 -80.5t26.5 -128.5v-240q0 -59 12.5 -93t31 -51.5t39 -22.5t36.5 -5q86 0 86 -86v-31q0 -86 -86 -86h-26q-33 0 -86.5 13.5t-103.5 50.5t-87 105.5t-37 178.5v199q0 43 -10 76t-25.5 55.5t-34 36.5t-34.5 25q-33 18 -51.5 36.5t-18.5 57.5z" />
<glyph unicode="|" horiz-adv-x="514" d="M145 -246v1790q0 86 86 86h52q86 0 86 -86v-1790q0 -84 -86 -84h-52q-86 0 -86 84z" />
<glyph unicode="}" horiz-adv-x="704" d="M53 -86q0 86 86 86q14 0 35 5t39 22.5t31.5 51.5t13.5 93v240q0 78 25.5 129t58.5 80q37 35 84 49v4q-47 18 -84 53q-33 29 -58.5 79t-25.5 128v215q0 59 -13.5 94t-31.5 52.5t-38.5 22.5t-35.5 5q-86 0 -86 84v31q0 86 86 86h27q33 0 86 -12.5t103.5 -50.5t87 -106.5 t36.5 -178.5v-175q0 -90 36 -135t71 -59q31 -20 49 -38.5t18 -57.5v-80q0 -39 -18.5 -57.5t-50.5 -36.5q-16 -10 -35 -24.5t-34 -37t-25.5 -55.5t-10.5 -76v-199q0 -111 -36.5 -179t-87 -105t-103.5 -50.5t-86 -13.5h-27q-86 0 -86 86v31z" />
<glyph unicode="~" horiz-adv-x="1214" d="M104 514q23 135 101 200.5t205 65.5q78 0 127 -28.5t88 -64.5t74.5 -64.5t86.5 -28.5t77 31.5t38 68.5q16 37 33.5 57.5t56.5 20.5h41q41 0 64.5 -23.5t17.5 -66.5q-18 -145 -98 -214t-209 -69q-78 0 -127 29t-88 63.5t-76 63.5t-88 29q-49 0 -74.5 -31t-36.5 -70 q-16 -35 -34.5 -55t-57.5 -20h-41q-43 0 -65.5 26.5t-14.5 79.5z" />
<glyph unicode="&#xa2;" horiz-adv-x="1153" d="M86 727q0 111 30.5 208t88 174t137.5 128t176 68v86q0 86 82 86h14q82 0 82 -68v-104q57 -10 111.5 -34t100.5 -58.5t82 -75.5t59 -84q39 -76 -45 -111l-78 -31q-45 -16 -67.5 -2.5t-45.5 41.5q-35 53 -83 84t-112 31q-61 0 -110 -24.5t-85 -69.5t-55.5 -108.5 t-19.5 -139.5q0 -147 70.5 -240.5t197.5 -93.5q66 0 114 31t83 84q23 27 46.5 42t66.5 -1l78 -31q82 -35 45 -113q-23 -41 -58 -83t-81 -77.5t-100 -59t-114 -29.5v-93q0 -84 -82 -84h-14q-82 0 -82 84v93q-96 16 -176 66t-137.5 127t-88 174t-30.5 208z" />
<glyph unicode="&#xa3;" horiz-adv-x="1210" d="M106 86v57q0 84 84 84h43v410h-34q-78 0 -78 82v12q0 84 78 84h34v248q0 90 35 167t96.5 132t146.5 86t187 31q100 0 176 -32t123 -63q35 -23 36 -54.5t-25 -63.5l-39 -52q-27 -33 -56.5 -34.5t-64.5 18.5q-25 14 -62.5 27.5t-80.5 13.5q-92 0 -147.5 -53t-55.5 -131 v-240h276q84 0 84 -84v-12q0 -82 -84 -82h-276v-410h551q86 0 86 -84v-57q0 -86 -86 -86h-863q-84 0 -84 86z" />
<glyph unicode="&#xa5;" horiz-adv-x="1228" d="M78.5 1425.5q17.5 28.5 66.5 28.5h119q72 0 96 -68l166 -321q16 -43 32.5 -84t29.5 -76q14 -39 26 -74h4q12 35 27 74q12 35 27.5 76t34.5 84l163 321q25 68 97 68h116q51 0 68.5 -28.5t-4.5 -71.5l-266 -494h116q84 0 84 -72v-12q0 -72 -84 -71h-196l-51 -99v-67h247 q84 0 84 -72v-12q0 -74 -84 -74h-247v-295q0 -86 -86 -86h-99q-84 0 -84 86v295h-250q-84 0 -84 74v12q0 72 84 72h250v67l-53 99h-197q-84 0 -84 71v12q0 72 74 72h127l-264 494q-23 43 -5.5 71.5z" />
<glyph unicode="&#xa8;" horiz-adv-x="1009" d="M217 1677v68q0 84 86 84h29q86 0 86 -84v-68q0 -86 -86 -86h-29q-86 0 -86 86zM594 1677v68q0 84 84 84h31q84 0 84 -84v-68q0 -86 -84 -86h-31q-84 0 -84 86z" />
<glyph unicode="&#xa9;" horiz-adv-x="1654" d="M92 727q0 156 57.5 293t157 238.5t232.5 160t286 58.5q154 0 288 -58.5t233.5 -160t158 -238.5t58.5 -293t-58.5 -293t-158 -238.5t-233.5 -161t-288 -59.5t-286.5 59.5t-232 161t-157 238.5t-57.5 293zM274 727q0 -123 42 -229.5t117 -186.5t175.5 -125t216.5 -45 q117 0 218.5 45t176 125t117.5 186.5t43 229.5t-43 229.5t-117.5 185.5t-176 124t-218.5 45t-218 -45t-175 -124t-116 -185.5t-42 -229.5zM451 723q0 82 28.5 154.5t79.5 127t123 86t158 31.5q53 0 98 -13t82 -34.5t62.5 -46t41.5 -45.5q20 -29 14.5 -52.5t-22.5 -37.5 l-31 -27q-23 -20 -51 -13t-49 32q-18 20 -52 43.5t-89 23.5q-94 0 -149.5 -65.5t-55.5 -167.5q0 -94 53 -159.5t152 -65.5q63 0 99 25.5t52 47.5q45 49 90 13l29 -25q29 -25 27 -48.5t-19 -45.5q-16 -18 -41.5 -43t-61.5 -45.5t-81 -34.5t-98 -14q-88 0 -160 31.5t-123 86 t-78.5 127t-27.5 154.5z" />
<glyph unicode="&#xab;" horiz-adv-x="1134" d="M100 518q-49 59 0 119l248 313q23 25 46.5 37t58.5 12h51q53 0 68.5 -30.5t-19.5 -73.5l-252 -317l252 -316q35 -43 22.5 -73.5t-63.5 -30.5h-59q-35 0 -58.5 12t-46.5 37zM561 518q-49 59 0 119l248 313q23 25 46.5 37t57.5 12h50q55 0 69.5 -30.5t-20.5 -73.5 l-252 -317l252 -316q35 -43 23.5 -73.5t-62.5 -30.5h-60q-35 0 -58.5 12t-45.5 37z" />
<glyph unicode="&#xad;" horiz-adv-x="854" d="M119 557v57q0 84 86 84h444q86 0 86 -84v-57q0 -86 -86 -86h-444q-86 0 -86 86z" />
<glyph unicode="&#xae;" horiz-adv-x="1654" d="M92 727q0 156 57.5 293t157 238.5t232.5 160t284 58.5q154 0 289 -58.5t235.5 -160t158 -238.5t57.5 -293t-57.5 -293t-158 -238.5t-235.5 -161t-289 -59.5q-152 0 -284.5 59.5t-232 161t-157 238.5t-57.5 293zM274 727q0 -123 42 -229.5t116 -186.5t174.5 -125 t216.5 -45q119 0 220.5 45t176 125t117.5 186.5t43 229.5t-43 229.5t-117.5 185.5t-176 124t-220.5 45q-117 0 -217 -45t-174 -124t-116 -185.5t-42 -229.5zM567 442v578q0 86 86 86h226q113 0 179 -64.5t66 -173.5q0 -43 -13 -76.5t-32.5 -58t-43 -39t-42.5 -20.5v-4 q2 -2 6 -8q4 -4 8.5 -13.5t12.5 -21.5l88 -170q23 -45 10.5 -73t-53.5 -28h-27q-72 0 -98 64l-98 213h-101v-191q0 -86 -79 -86h-15q-80 0 -80 86zM741 756h97q53 0 80.5 29.5t27.5 82.5t-27.5 82t-76.5 29h-101v-223z" />
<glyph unicode="&#xb4;" horiz-adv-x="1009" d="M336 1578q-14 28 8 69l72 122q35 59 100 60h74q55 0 67.5 -31t-22.5 -72l-92 -124q-23 -27 -46.5 -39.5t-58.5 -12.5h-43q-45 0 -59 28z" />
<glyph unicode="&#xb8;" horiz-adv-x="1009" d="M340 -356q0 35 13.5 53t29.5 18q14 0 25.5 -3t25.5 -3q33 0 54.5 14.5t21.5 45.5q0 29 -25.5 42t-66.5 17q-47 4 -31 63l41 150h129l-29 -131q63 -8 106.5 -46t43.5 -110q0 -51 -19.5 -85t-50 -55.5t-70.5 -30.5t-81 -9q-16 0 -37 2t-38 9t-29.5 20.5t-12.5 38.5z" />
<glyph unicode="&#xbb;" horiz-adv-x="1134" d="M98.5 968.5q12.5 30.5 63.5 30.5h59q35 0 58.5 -12t46.5 -37l247 -313q49 -59 0 -119l-247 -311q-23 -25 -46.5 -37t-58.5 -12h-51q-53 0 -68.5 30.5t19.5 73.5l252 316l-252 317q-35 43 -22.5 73.5zM559 968.5q12 30.5 64 30.5h59q35 0 58.5 -12t45.5 -37l246 -313 q49 -59 0 -119l-246 -311q-23 -25 -46 -37t-58 -12h-51q-55 0 -69.5 30.5t20.5 73.5l252 316l-252 317q-35 43 -23 73.5z" />
<glyph unicode="&#xc2;" horiz-adv-x="1298" d="M33 98l454 1286q25 70 97 70h131q76 0 96 -70l455 -1286q16 -45 -3.5 -71.5t-66.5 -26.5h-94q-76 0 -96 70l-103 303h-510l-100 -301q-20 -72 -96 -72h-95q-47 0 -66.5 26.5t-2.5 71.5zM381 1580q-10 30 18 75l82 119q37 55 105 55h127q68 0 104 -55l82 -119 q29 -45 18.5 -75t-55.5 -30h-53q-37 0 -54.5 14.5t-35.5 45.5l-68 106h-4l-69 -106q-16 -31 -35 -45.5t-54 -14.5h-53q-45 0 -55 30zM459 588h379l-129 389q-10 31 -20.5 69.5t-18.5 73.5q-10 39 -19 82h-4q-12 -43 -20 -82q-10 -35 -18.5 -73.5t-18.5 -69.5z" />
<glyph unicode="&#xc7;" horiz-adv-x="1445" d="M84 733q0 158 55.5 294t154.5 236.5t236.5 158t303.5 57.5q88 0 162.5 -15.5t134 -37t104.5 -47t74 -46.5q61 -47 16 -119l-37 -59q-41 -68 -117 -20q-47 31 -131 66.5t-196 35.5q-119 0 -210 -40t-152.5 -108.5t-93.5 -159.5t-32 -192q0 -102 33 -196.5t95.5 -166 t153.5 -114.5t208 -43q61 0 115.5 13.5t99.5 32t81 41t60 40.5q72 53 119 -14l41 -56q49 -66 -12 -118q-29 -25 -74 -53.5t-105.5 -55.5t-135 -46t-163.5 -24l-14 -67q63 -8 106.5 -46t43.5 -110q0 -51 -19.5 -85t-50.5 -55.5t-71 -30.5t-81 -9q-16 0 -36.5 2t-38 9 t-29.5 20.5t-12 38.5q0 35 13 53t30 18q14 0 25.5 -3t25.5 -3q33 0 54.5 14.5t21.5 45.5q0 29 -26 42t-66 17q-47 4 -31 63l24 89q-152 14 -273.5 78.5t-206.5 164t-131 230.5t-46 280z" />
<glyph unicode="&#xce;" horiz-adv-x="598" d="M33 1580q-10 30 18 75l82 119q37 55 105 55h127q68 0 104 -55l82 -119q29 -45 18.5 -75t-55.5 -30h-53q-37 0 -54.5 14.5t-35.5 45.5l-68 106h-4l-70 -106q-16 -31 -34.5 -45.5t-53.5 -14.5h-53q-45 0 -55 30zM168 86v1282q0 86 84 86h94q84 0 84 -86v-1282 q0 -86 -84 -86h-94q-84 0 -84 86z" />
<glyph unicode="&#xd6;" horiz-adv-x="1667" d="M82 737q0 156 55.5 291t155.5 235.5t237.5 158t303.5 57.5t303 -57.5t237.5 -158t155.5 -235.5t55 -291q0 -160 -55 -299t-155.5 -242.5t-238 -162t-302.5 -58.5q-166 0 -303.5 58.5t-237.5 162t-155.5 242.5t-55.5 299zM354 737q0 -111 36 -206t99.5 -164.5 t151.5 -109.5t193 -40q104 0 192 40t151.5 109.5t99.5 165t36 205.5q0 106 -36 197.5t-99.5 159t-151.5 105.5t-192 38t-192.5 -38t-152 -105.5t-99.5 -159t-36 -197.5zM545 1677v68q0 84 86 84h28q86 0 86 -84v-68q0 -86 -86 -86h-28q-86 0 -86 86zM922 1677v68q0 84 84 84 h30q84 0 84 -84v-68q0 -86 -84 -86h-30q-84 0 -84 86z" />
<glyph unicode="&#xdb;" horiz-adv-x="1472" d="M152 522v846q0 86 84 86h92q86 0 86 -86v-844q0 -147 87 -227t234 -80t235.5 80t88.5 227v844q0 86 84 86h94q84 0 84 -86v-846q0 -123 -42 -223t-119 -172t-184.5 -112t-238.5 -40q-133 0 -240.5 40t-184 112t-118.5 172t-42 223zM467 1580q-10 30 18 75l82 119 q37 55 105 55h127q68 0 104 -55l82 -119q29 -45 18.5 -75t-55.5 -30h-53q-37 0 -54.5 14.5t-35.5 45.5l-68 106h-4l-69 -106q-16 -31 -35 -45.5t-54 -14.5h-53q-45 0 -55 30z" />
<glyph unicode="&#xdc;" horiz-adv-x="1472" d="M152 522v846q0 86 84 86h92q86 0 86 -86v-844q0 -147 87 -227t234 -80t235.5 80t88.5 227v844q0 86 84 86h94q84 0 84 -86v-846q0 -123 -42 -223t-119 -172t-184.5 -112t-238.5 -40q-133 0 -240.5 40t-184 112t-118.5 172t-42 223zM449 1677v68q0 84 86 84h28 q86 0 86 -84v-68q0 -86 -86 -86h-28q-86 0 -86 86zM825 1677v68q0 84 84 84h31q84 0 84 -84v-68q0 -86 -84 -86h-31q-84 0 -84 86z" />
<glyph unicode="&#xe2;" horiz-adv-x="1075" d="M49 289q0 76 28.5 132t78 96t112 64.5t130 39t135 19.5t126.5 5h43v25q0 102 -57 143t-137 41q-66 0 -123 -19.5t-94 -39.5q-80 -35 -115 34l-20 39q-39 76 32 115q51 27 138.5 56.5t203.5 29.5q205 0 319 -108.5t114 -307.5v-567q0 -86 -86 -86h-70q-84 0 -84 86v41 q0 25 2 33q0 8 2 12h-4q-31 -55 -78 -98q-41 -37 -102.5 -68t-147.5 -31q-72 0 -134 22.5t-109.5 63.5t-75 98.5t-27.5 129.5zM268.5 1205.5q-10.5 29.5 18.5 74.5l82 119q37 55 104 55h127q68 0 105 -55l81 -119q29 -45 19 -74.5t-55 -29.5h-54q-37 0 -54 14t-36 45 l-67 106h-4l-70 -106q-16 -31 -34.5 -45t-53.5 -14h-53q-45 0 -55.5 29.5zM307 311q0 -53 40 -95t118 -42q55 0 99 24.5t75 64.5t48.5 89t17.5 97v38h-43q-49 0 -111 -6t-116 -24.5t-91 -53.5t-37 -92z" />
<glyph unicode="&#xe7;" horiz-adv-x="1091" d="M66 522q0 111 39.5 210t113.5 174t179.5 119t234.5 44q127 0 211 -36t131 -68q33 -23 36 -52.5t-20 -64.5l-26 -41q-23 -35 -50.5 -38t-64.5 15q-33 23 -84 43.5t-119 20.5q-72 0 -131 -25.5t-100 -69.5t-63.5 -102.5t-22.5 -126.5q0 -66 22.5 -125t64.5 -104 t102.5 -71.5t135.5 -26.5q78 0 137.5 26.5t96.5 52.5q78 43 117 -26l20 -39q39 -72 -22 -115q-45 -35 -131.5 -73.5t-208.5 -45.5l-15 -67q63 -8 106.5 -46t43.5 -110q0 -51 -19.5 -85t-50.5 -55.5t-71 -30.5t-80 -9q-16 0 -37 2t-38.5 9t-29.5 20.5t-12 38.5q0 35 13 53 t30 18q14 0 25.5 -3t25.5 -3q33 0 54.5 14.5t21.5 45.5q0 29 -25.5 42t-66.5 17q-47 4 -31 63l24 93q-109 14 -194.5 62t-146 120t-93 163t-32.5 193z" />
<glyph unicode="&#xee;" horiz-adv-x="516" d="M-8 1205.5q-10 29.5 18 74.5l82 119q37 55 105 55h127q68 0 104 -55l82 -119q29 -45 18.5 -74.5t-55.5 -29.5h-53q-37 0 -54.5 14t-35.5 45l-68 106h-4l-70 -106q-16 -31 -34.5 -45t-53.5 -14h-53q-45 0 -55 29.5zM129 86v872q0 86 84 86h90q84 0 84 -86v-872 q0 -86 -84 -86h-90q-84 0 -84 86z" />
<glyph unicode="&#xf6;" horiz-adv-x="1273" d="M63 522q0 119 45.5 220.5t123 173t182 112.5t223.5 41t223.5 -41t183 -112.5t123.5 -173t45 -220.5q0 -121 -45 -221t-123.5 -173t-183 -113t-223.5 -40t-223.5 40t-182 113t-123 173t-45.5 221zM328 522q0 -74 24.5 -133t66.5 -102t98 -66.5t120 -23.5q63 0 119.5 23.5 t99.5 66.5t67.5 102.5t24.5 132.5q0 72 -24.5 132.5t-67.5 103.5t-99.5 66.5t-119.5 23.5t-119.5 -23.5t-98.5 -66.5t-66.5 -103.5t-24.5 -132.5zM348 1303v67q0 84 86 84h29q86 0 86 -84v-67q0 -86 -86 -86h-29q-86 0 -86 86zM725 1303v67q0 84 84 84h31q84 0 84 -84v-67 q0 -86 -84 -86h-31q-84 0 -84 86z" />
<glyph unicode="&#xfb;" horiz-adv-x="1216" d="M115 373v585q0 86 86 86h88q86 0 86 -86v-532q0 -96 32.5 -154.5t129.5 -58.5q70 0 125 28.5t92 78t56 113t19 132.5v393q0 86 86 86h89q86 0 86 -86v-872q0 -86 -86 -86h-80q-84 0 -84 86v61v18.5t2 14.5q0 8 2 15h-4q-18 -41 -52 -80t-81.5 -70t-104.5 -50.5 t-125 -19.5q-168 0 -265 92.5t-97 305.5zM334 1205.5q-10 29.5 18 74.5l82 119q37 55 105 55h127q68 0 104 -55l82 -119q29 -45 18.5 -74.5t-55.5 -29.5h-53q-37 0 -54.5 14t-35.5 45l-68 106h-4l-70 -106q-16 -31 -34.5 -45t-53.5 -14h-53q-45 0 -55 29.5z" />
<glyph unicode="&#xfc;" horiz-adv-x="1216" d="M115 373v585q0 86 86 86h88q86 0 86 -86v-532q0 -96 32.5 -154.5t129.5 -58.5q70 0 125 28.5t92 78t56 113t19 132.5v393q0 86 86 86h89q86 0 86 -86v-872q0 -86 -86 -86h-80q-84 0 -84 86v61v18.5t2 14.5q0 8 2 15h-4q-18 -41 -52 -80t-81.5 -70t-104.5 -50.5 t-125 -19.5q-168 0 -265 92.5t-97 305.5zM313 1303v67q0 84 86 84h29q86 0 86 -84v-67q0 -86 -86 -86h-29q-86 0 -86 86zM690 1303v67q0 84 84 84h31q84 0 84 -84v-67q0 -86 -84 -86h-31q-84 0 -84 86z" />
<glyph unicode="&#x100;" horiz-adv-x="1298" d="M33 98l454 1286q25 70 97 70h131q76 0 96 -70l455 -1286q16 -45 -3.5 -71.5t-66.5 -26.5h-94q-76 0 -96 70l-103 303h-510l-100 -301q-20 -72 -96 -72h-95q-47 0 -66.5 26.5t-2.5 71.5zM381 1686v14q0 82 84 82h366q86 0 87 -82v-14q0 -82 -87 -82h-366q-84 0 -84 82z M459 588h379l-129 389q-10 31 -20.5 69.5t-18.5 73.5q-10 39 -19 82h-4q-12 -43 -20 -82q-10 -35 -18.5 -73.5t-18.5 -69.5z" />
<glyph unicode="&#x101;" horiz-adv-x="1075" d="M49 289q0 76 28.5 132t78 96t112 64.5t130 39t135 19.5t126.5 5h43v25q0 102 -57 143t-137 41q-66 0 -123 -19.5t-94 -39.5q-80 -35 -115 34l-20 39q-39 76 32 115q51 27 138.5 56.5t203.5 29.5q205 0 319 -108.5t114 -307.5v-567q0 -86 -86 -86h-70q-84 0 -84 86v41 q0 25 2 33q0 8 2 12h-4q-31 -55 -78 -98q-41 -37 -102.5 -68t-147.5 -31q-72 0 -134 22.5t-109.5 63.5t-75 98.5t-27.5 129.5zM268 1311v14q0 82 84 82h367q86 0 86 -82v-14q0 -82 -86 -82h-367q-84 0 -84 82zM307 311q0 -53 40 -95t118 -42q55 0 99 24.5t75 64.5t48.5 89 t17.5 97v38h-43q-49 0 -111 -6t-116 -24.5t-91 -53.5t-37 -92z" />
<glyph unicode="&#x102;" horiz-adv-x="1298" d="M33 98l454 1286q25 70 97 70h131q76 0 96 -70l455 -1286q16 -45 -3.5 -71.5t-66.5 -26.5h-94q-76 0 -96 70l-103 303h-510l-100 -301q-20 -72 -96 -72h-95q-47 0 -66.5 26.5t-2.5 71.5zM348 1778q0 51 72 51h39q39 0 54 -17.5t19 -39.5q10 -49 42 -69t75 -20 q41 0 73 19.5t42 69.5q6 20 20.5 38.5t53.5 18.5h39q41 0 57 -13.5t16 -37.5q0 -53 -26.5 -97.5t-68.5 -75t-96.5 -47t-109.5 -16.5t-108.5 17.5t-96.5 48t-69.5 73.5t-26.5 97zM459 588h379l-129 389q-10 31 -20.5 69.5t-18.5 73.5q-10 39 -19 82h-4q-12 -43 -20 -82 q-10 -35 -18.5 -73.5t-18.5 -69.5z" />
<glyph unicode="&#x103;" horiz-adv-x="1075" d="M49 289q0 76 28.5 132t78 96t112 64.5t130 39t135 19.5t126.5 5h43v25q0 102 -57 143t-137 41q-66 0 -123 -19.5t-94 -39.5q-80 -35 -115 34l-20 39q-39 76 32 115q51 27 138.5 56.5t203.5 29.5q205 0 319 -108.5t114 -307.5v-567q0 -86 -86 -86h-70q-84 0 -84 86v41 q0 25 2 33q0 8 2 12h-4q-31 -55 -78 -98q-41 -37 -102.5 -68t-147.5 -31q-72 0 -134 22.5t-109.5 63.5t-75 98.5t-27.5 129.5zM236 1403q0 51 71 51h39q39 0 54.5 -17.5t19.5 -39.5q10 -49 42 -68.5t75 -19.5q41 0 72.5 19.5t41.5 68.5q6 20 20.5 38.5t53.5 18.5h39 q41 0 57.5 -13.5t16.5 -37.5q0 -53 -27 -97t-69 -75t-96 -47.5t-109 -16.5t-108.5 17.5t-96.5 48.5t-69.5 74t-26.5 96zM307 311q0 -53 40 -95t118 -42q55 0 99 24.5t75 64.5t48.5 89t17.5 97v38h-43q-49 0 -111 -6t-116 -24.5t-91 -53.5t-37 -92z" />
<glyph unicode="&#x104;" horiz-adv-x="1298" d="M33 98l454 1286q25 70 97 70h131q72 0 96 -70l455 -1286q31 -86 -11 -125q-35 -29 -69.5 -61.5t-34.5 -75.5q0 -33 23.5 -47t46.5 -25q41 -16 30 -79l-6 -43q-4 -33 -26.5 -47.5t-51.5 -10.5q-33 4 -71.5 17.5t-71.5 37t-55.5 58.5t-22.5 82q0 37 13.5 70.5t34 62.5 t44 53.5t43.5 42.5q-16 2 -32 10q-14 8 -27.5 21.5t-20.5 40.5l-98 293h-510l-100 -301q-20 -72 -96 -72h-95q-47 0 -66.5 26.5t-2.5 71.5zM459 588h379l-129 389q-10 31 -20.5 69.5t-18.5 73.5q-10 39 -19 82h-4q-12 -43 -20 -82q-10 -35 -18.5 -73.5t-18.5 -69.5z" />
<glyph unicode="&#x105;" horiz-adv-x="1079" d="M49 289q0 76 28.5 132t78 96t112 64.5t130 39t135 19.5t126.5 5h43v25q0 102 -57 143t-137 41q-66 0 -123 -19.5t-94 -39.5q-80 -35 -115 34l-20 39q-39 76 32 115q51 27 138.5 56.5t203.5 29.5q205 0 319 -108.5t114 -307.5v-567q0 -39 -21.5 -66.5t-48.5 -54 t-48.5 -56.5t-21.5 -73q0 -33 23.5 -47t46.5 -25q41 -16 31 -79l-6 -43q-4 -33 -27 -47.5t-51 -10.5q-33 4 -72 17.5t-71.5 37t-55.5 58.5t-23 82q0 39 12.5 73.5t32 65.5t42 56.5t45.5 43.5q-27 18 -27 68v41q0 25 2 33q0 8 2 12h-4q-31 -55 -78 -98q-41 -37 -102.5 -68 t-147.5 -31q-72 0 -134 22.5t-109.5 63.5t-75 98.5t-27.5 129.5zM307 311q0 -53 40 -95t118 -42q55 0 99 24.5t75 64.5t48.5 89t17.5 97v38h-43q-49 0 -111 -6t-116 -24.5t-91 -53.5t-37 -92z" />
<glyph unicode="&#x106;" horiz-adv-x="1441" d="M82 733q0 158 55.5 294t154.5 236.5t236.5 158t302.5 57.5q88 0 163 -15.5t134.5 -37t104.5 -47t74 -46.5q61 -47 16 -119l-37 -59q-41 -68 -117 -20q-47 31 -131 66.5t-196 35.5q-119 0 -210 -40t-152.5 -108.5t-93.5 -159.5t-32 -192q0 -102 33 -196.5t95.5 -166 t153.5 -114.5t208 -43q61 0 115.5 13.5t99.5 32t81 41t60 40.5q72 53 119 -14l41 -56q49 -66 -12 -118q-31 -25 -79 -56.5t-112.5 -59.5t-145.5 -46.5t-177 -18.5q-172 0 -310.5 58.5t-237 160t-151.5 240.5t-53 299zM743.5 1578q-14.5 28 8.5 69l71 122q35 59 101 60h73 q55 0 67.5 -31t-22.5 -72l-92 -124q-23 -27 -46 -39.5t-58 -12.5h-43q-45 0 -59.5 28z" />
<glyph unicode="&#x107;" horiz-adv-x="1085" d="M63 522q0 111 40 210t114 174t179.5 119t234.5 44q127 0 211 -36t131 -68q33 -23 36 -52.5t-20 -64.5l-26 -41q-23 -35 -50.5 -38t-64.5 15q-33 23 -84 43.5t-119 20.5q-72 0 -131 -25.5t-100 -69.5t-63.5 -102.5t-22.5 -126.5q0 -66 22.5 -125t64.5 -104t102.5 -71.5 t135.5 -26.5q78 0 137.5 26.5t96.5 52.5q78 43 117 -26l20 -39q39 -72 -23 -115q-25 -18 -59.5 -38.5t-81.5 -39t-104.5 -31t-124.5 -12.5q-129 0 -234.5 43t-179.5 117t-114 173t-40 214zM520.5 1203.5q-14.5 27.5 7.5 68.5l72 123q35 59 100 59h74q55 0 67.5 -30.5 t-22.5 -71.5l-92 -125q-23 -27 -46.5 -39t-57.5 -12h-43q-45 0 -59.5 27.5z" />
<glyph unicode="&#x108;" horiz-adv-x="1441" d="M82 733q0 158 55.5 294t154.5 236.5t236.5 158t302.5 57.5q88 0 163 -15.5t134.5 -37t104.5 -47t74 -46.5q61 -47 16 -119l-37 -59q-41 -68 -117 -20q-47 31 -131 66.5t-196 35.5q-119 0 -210 -40t-152.5 -108.5t-93.5 -159.5t-32 -192q0 -102 33 -196.5t95.5 -166 t153.5 -114.5t208 -43q61 0 115.5 13.5t99.5 32t81 41t60 40.5q72 53 119 -14l41 -56q49 -66 -12 -118q-31 -25 -79 -56.5t-112.5 -59.5t-145.5 -46.5t-177 -18.5q-172 0 -310.5 58.5t-237 160t-151.5 240.5t-53 299zM545 1580q-10 30 18 75l82 119q37 55 105 55h127 q68 0 104 -55l82 -119q29 -45 18.5 -75t-55.5 -30h-53q-37 0 -54.5 14.5t-35.5 45.5l-68 106h-4l-70 -106q-16 -31 -34.5 -45.5t-53.5 -14.5h-53q-45 0 -55 30z" />
<glyph unicode="&#x109;" horiz-adv-x="1085" d="M63 522q0 111 40 210t114 174t179.5 119t234.5 44q127 0 211 -36t131 -68q33 -23 36 -52.5t-20 -64.5l-26 -41q-23 -35 -50.5 -38t-64.5 15q-33 23 -84 43.5t-119 20.5q-72 0 -131 -25.5t-100 -69.5t-63.5 -102.5t-22.5 -126.5q0 -66 22.5 -125t64.5 -104t102.5 -71.5 t135.5 -26.5q78 0 137.5 26.5t96.5 52.5q78 43 117 -26l20 -39q39 -72 -23 -115q-25 -18 -59.5 -38.5t-81.5 -39t-104.5 -31t-124.5 -12.5q-129 0 -234.5 43t-179.5 117t-114 173t-40 214zM321.5 1205.5q-10.5 29.5 18.5 74.5l82 119q37 55 104 55h127q68 0 105 -55l82 -119 q29 -45 18.5 -74.5t-55.5 -29.5h-53q-37 0 -54.5 14t-36.5 45l-67 106h-4l-70 -106q-16 -31 -34.5 -45t-53.5 -14h-53q-45 0 -55.5 29.5z" />
<glyph unicode="&#x10a;" horiz-adv-x="1441" d="M82 733q0 158 55.5 294t154.5 236.5t236.5 158t302.5 57.5q88 0 163 -15.5t134.5 -37t104.5 -47t74 -46.5q61 -47 16 -119l-37 -59q-41 -68 -117 -20q-47 31 -131 66.5t-196 35.5q-119 0 -210 -40t-152.5 -108.5t-93.5 -159.5t-32 -192q0 -102 33 -196.5t95.5 -166 t153.5 -114.5t208 -43q61 0 115.5 13.5t99.5 32t81 41t60 40.5q72 53 119 -14l41 -56q49 -66 -12 -118q-31 -25 -79 -56.5t-112.5 -59.5t-145.5 -46.5t-177 -18.5q-172 0 -310.5 58.5t-237 160t-151.5 240.5t-53 299zM702 1688v57q0 84 84 84h54q84 0 84 -84v-57 q0 -86 -84 -86h-54q-84 0 -84 86z" />
<glyph unicode="&#x10b;" horiz-adv-x="1085" d="M63 522q0 111 40 210t114 174t179.5 119t234.5 44q127 0 211 -36t131 -68q33 -23 36 -52.5t-20 -64.5l-26 -41q-23 -35 -50.5 -38t-64.5 15q-33 23 -84 43.5t-119 20.5q-72 0 -131 -25.5t-100 -69.5t-63.5 -102.5t-22.5 -126.5q0 -66 22.5 -125t64.5 -104t102.5 -71.5 t135.5 -26.5q78 0 137.5 26.5t96.5 52.5q78 43 117 -26l20 -39q39 -72 -23 -115q-25 -18 -59.5 -38.5t-81.5 -39t-104.5 -31t-124.5 -12.5q-129 0 -234.5 43t-179.5 117t-114 173t-40 214zM481 1313v57q0 84 84 84h53q84 0 84 -84v-57q0 -86 -84 -86h-53q-84 0 -84 86z" />
<glyph unicode="&#x10c;" horiz-adv-x="1441" d="M82 733q0 158 55.5 294t154.5 236.5t236.5 158t302.5 57.5q88 0 163 -15.5t134.5 -37t104.5 -47t74 -46.5q61 -47 16 -119l-37 -59q-41 -68 -117 -20q-47 31 -131 66.5t-196 35.5q-119 0 -210 -40t-152.5 -108.5t-93.5 -159.5t-32 -192q0 -102 33 -196.5t95.5 -166 t153.5 -114.5t208 -43q61 0 115.5 13.5t99.5 32t81 41t60 40.5q72 53 119 -14l41 -56q49 -66 -12 -118q-31 -25 -79 -56.5t-112.5 -59.5t-145.5 -46.5t-177 -18.5q-172 0 -310.5 58.5t-237 160t-151.5 240.5t-53 299zM544.5 1799q10.5 30 55.5 30h53q35 0 53.5 -13.5 t34.5 -43.5l70 -109h4l68 109q18 31 35.5 44t54.5 13h53q45 0 55.5 -30t-18.5 -73l-82 -120q-37 -55 -104 -56h-127q-68 0 -105 56l-82 120q-29 43 -18.5 73z" />
<glyph unicode="&#x10d;" horiz-adv-x="1085" d="M63 522q0 111 40 210t114 174t179.5 119t234.5 44q127 0 211 -36t131 -68q33 -23 36 -52.5t-20 -64.5l-26 -41q-23 -35 -50.5 -38t-64.5 15q-33 23 -84 43.5t-119 20.5q-72 0 -131 -25.5t-100 -69.5t-63.5 -102.5t-22.5 -126.5q0 -66 22.5 -125t64.5 -104t102.5 -71.5 t135.5 -26.5q78 0 137.5 26.5t96.5 52.5q78 43 117 -26l20 -39q39 -72 -23 -115q-25 -18 -59.5 -38.5t-81.5 -39t-104.5 -31t-124.5 -12.5q-129 0 -234.5 43t-179.5 117t-114 173t-40 214zM321.5 1424.5q10.5 29.5 55.5 29.5h53q35 0 53.5 -13.5t34.5 -43.5l70 -109h4 l67 109q18 31 36 44t55 13h53q45 0 55 -29.5t-18 -72.5l-82 -121q-37 -55 -105 -55h-127q-68 0 -104 55l-82 121q-29 43 -18.5 72.5z" />
<glyph unicode="&#x10e;" horiz-adv-x="1490" d="M168 86v1282q0 86 84 86h412q168 0 305 -49t233 -141.5t149.5 -227.5t53.5 -307t-53.5 -307t-149.5 -229.5t-233.5 -143.5t-304.5 -49h-412q-84 0 -84 86zM421.5 1799q10.5 30 55.5 30h53q35 0 53.5 -13.5t34.5 -43.5l70 -109h4l68 109q18 31 35.5 44t54.5 13h53 q45 0 55.5 -30t-18.5 -73l-82 -120q-37 -55 -104 -56h-127q-68 0 -105 56l-82 120q-29 43 -18.5 73zM430 227h219q221 0 352.5 128t131.5 374q0 121 -35 214t-98.5 155.5t-152.5 95.5t-198 33h-219v-1000z" />
<glyph unicode="&#x10f;" horiz-adv-x="1234" d="M68 522q0 125 34.5 225.5t98 172t149.5 110.5t191 39q86 0 144 -23.5t93 -52.5q41 -33 68 -73h4q-2 8 -2 16q-2 8 -2 19.5v23.5v389q0 86 84 86h90q84 0 84 -86v-1282q0 -86 -84 -86h-76q-84 0 -84 78v41q0 20 2 26q0 6 2 11h-4q-29 -51 -74 -90q-39 -35 -101 -63 t-153 -28q-106 0 -192 40t-146.5 112t-93 173t-32.5 222zM330 522q0 -150 71.5 -238.5t188.5 -88.5q51 0 98 19t84 59t58.5 102.5t21.5 148.5q0 61 -16.5 118.5t-48 103t-81 73t-114.5 27.5q-53 0 -100.5 -21.5t-83 -62.5t-57 -101.5t-21.5 -138.5zM1210 1163 q0 27 11.5 54.5t11.5 80.5q0 35 -5 53.5t-5 47.5q0 31 20.5 42t54.5 11h41q59 0 79 -39t20 -86q0 -43 -10.5 -81t-28 -66.5t-41 -46t-49.5 -17.5h-23q-76 0 -76 47z" />
<glyph unicode="&#x110;" horiz-adv-x="1492" d="M51 702v43q0 86 51 86h68v537q0 86 86 86h410q168 0 305 -49t233 -141.5t149.5 -227.5t53.5 -307t-53.5 -307t-149.5 -229.5t-233 -143.5t-305 -49h-410q-86 0 -86 86v530h-33q-86 0 -86 86zM432 227h219q221 0 352.5 128t131.5 374q0 121 -35 214t-98.5 155.5 t-152.5 95.5t-198 33h-219v-396h186q84 0 84 -86v-43q0 -86 -79 -86h-191v-389z" />
<glyph unicode="&#x111;" horiz-adv-x="1234" d="M68 522q0 125 34.5 225.5t98 172t149.5 110.5t191 39q86 0 144 -22.5t93 -51.5q41 -33 66 -71h4q-2 8 -2 16v43v162h-178q-86 0 -86 72v12q0 72 86 71h178v68q0 86 84 86h90q84 0 84 -86v-68h63q84 0 84 -71v-12q0 -72 -55 -72h-92v-1059q0 -86 -84 -86h-76q-84 0 -84 78 v39v24q0 6 2 13h-4q-29 -51 -74 -91q-39 -35 -100 -61.5t-152 -26.5q-106 0 -192 40t-146.5 112t-93 173t-32.5 222zM330 522q0 -150 71.5 -238.5t188.5 -88.5q51 0 98 19t84 59t58.5 102.5t21.5 148.5q0 61 -16.5 118.5t-48 103t-81 73t-114.5 27.5q-53 0 -100.5 -21.5 t-83 -62.5t-57 -101.5t-21.5 -138.5z" />
<glyph unicode="&#x112;" horiz-adv-x="1140" d="M168 86v1282q0 86 84 86h700q86 0 86 -86v-57q0 -84 -86 -84h-522v-381h406q86 0 86 -84v-57q0 -86 -86 -87h-406v-391h555q86 0 86 -84v-57q0 -86 -86 -86h-733q-84 0 -84 86zM354 1686v14q0 82 84 82h367q86 0 86 -82v-14q0 -82 -86 -82h-367q-84 0 -84 82z" />
<glyph unicode="&#x113;" horiz-adv-x="1118" d="M66 522q0 121 38.5 221.5t108.5 173t168 112.5t215 40q111 0 198 -38t145 -103.5t89 -157.5t31 -199q0 -35 -25.5 -61.5t-64.5 -26.5h-637q6 -72 33.5 -125t69.5 -89t96.5 -54t113.5 -18q72 0 130.5 22.5t94.5 44.5q39 18 67 12t48 -40l25 -41q39 -74 -29 -115 q-51 -33 -141 -69t-213 -36q-129 0 -233.5 44t-177.5 119t-111.5 174t-38.5 210zM324 1311v14q0 82 84 82h366q86 0 86 -82v-14q0 -82 -86 -82h-366q-84 0 -84 82zM338 641h463q-4 111 -62.5 171t-148.5 60q-100 0 -167 -63.5t-85 -167.5z" />
<glyph unicode="&#x114;" horiz-adv-x="1140" d="M168 86v1282q0 86 84 86h700q86 0 86 -86v-57q0 -84 -86 -84h-522v-381h406q86 0 86 -84v-57q0 -86 -86 -87h-406v-391h555q86 0 86 -84v-57q0 -86 -86 -86h-733q-84 0 -84 86zM322 1778q0 51 71 51h39q39 0 54.5 -17.5t19.5 -39.5q10 -49 42 -69t75 -20q41 0 72.5 19.5 t41.5 69.5q6 20 20.5 38.5t53.5 18.5h39q41 0 57.5 -13.5t16.5 -37.5q0 -53 -27 -97.5t-69 -75t-96 -47t-109 -16.5t-108.5 17.5t-96.5 48t-69.5 73.5t-26.5 97z" />
<glyph unicode="&#x115;" horiz-adv-x="1118" d="M66 522q0 121 38.5 221.5t108.5 173t168 112.5t215 40q111 0 198 -38t145 -103.5t89 -157.5t31 -199q0 -35 -25.5 -61.5t-64.5 -26.5h-637q6 -72 33.5 -125t69.5 -89t96.5 -54t113.5 -18q72 0 130.5 22.5t94.5 44.5q39 18 67 12t48 -40l25 -41q39 -74 -29 -115 q-51 -33 -141 -69t-213 -36q-129 0 -233.5 44t-177.5 119t-111.5 174t-38.5 210zM291 1403q0 51 71 51h39q39 0 54.5 -17.5t19.5 -39.5q10 -49 42 -68.5t75 -19.5q41 0 72.5 19.5t42.5 68.5q6 20 20 38.5t53 18.5h39q41 0 57.5 -13.5t16.5 -37.5q0 -53 -26.5 -97t-68.5 -75 t-96.5 -47.5t-109.5 -16.5t-108.5 17.5t-96.5 48.5t-69.5 74t-26.5 96zM338 641h463q-4 111 -62.5 171t-148.5 60q-100 0 -167 -63.5t-85 -167.5z" />
<glyph unicode="&#x116;" horiz-adv-x="1140" d="M168 86v1282q0 86 84 86h700q86 0 86 -86v-57q0 -84 -86 -84h-522v-381h406q86 0 86 -84v-57q0 -86 -86 -87h-406v-391h555q86 0 86 -84v-57q0 -86 -86 -86h-733q-84 0 -84 86zM512 1688v57q0 84 84 84h53q84 0 84 -84v-57q0 -86 -84 -86h-53q-84 0 -84 86z" />
<glyph unicode="&#x117;" horiz-adv-x="1118" d="M66 522q0 121 38.5 221.5t108.5 173t168 112.5t215 40q111 0 198 -38t145 -103.5t89 -157.5t31 -199q0 -35 -25.5 -61.5t-64.5 -26.5h-637q6 -72 33.5 -125t69.5 -89t96.5 -54t113.5 -18q72 0 130.5 22.5t94.5 44.5q39 18 67 12t48 -40l25 -41q39 -74 -29 -115 q-51 -33 -141 -69t-213 -36q-129 0 -233.5 44t-177.5 119t-111.5 174t-38.5 210zM338 641h463q-4 111 -62.5 171t-148.5 60q-100 0 -167 -63.5t-85 -167.5zM481 1313v57q0 84 84 84h53q84 0 84 -84v-57q0 -86 -84 -86h-53q-84 0 -84 86z" />
<glyph unicode="&#x118;" horiz-adv-x="1140" d="M168 86v1282q0 86 84 86h700q86 0 86 -86v-57q0 -84 -86 -84h-522v-381h406q86 0 86 -84v-57q0 -86 -86 -87h-406v-391h555q86 0 86 -84v-59q0 -35 -22.5 -62.5t-50 -54t-50 -57.5t-22.5 -74q0 -33 23.5 -47t45.5 -25q43 -16 33 -79l-6 -43q-4 -33 -27.5 -47.5 t-52.5 -10.5q-33 4 -70.5 17.5t-71.5 37t-56.5 58.5t-22.5 82q0 66 38 123t79 98h-586q-84 0 -84 86z" />
<glyph unicode="&#x119;" horiz-adv-x="1122" d="M66 522q0 121 38.5 221.5t108.5 173t168 112.5t215 40q111 0 198 -39t145 -106.5t89 -159.5t31 -199q-2 -31 -25.5 -56.5t-64.5 -25.5h-637q6 -72 33.5 -125t69.5 -89t96.5 -54t113.5 -18q72 0 130.5 22.5t94.5 44.5q80 39 117 -31l21 -38q18 -35 12 -63t-35 -56 q-23 -23 -57.5 -50.5t-66.5 -59.5t-54.5 -64.5t-22.5 -65.5t23.5 -47t46.5 -25q43 -18 33 -79l-6 -43q-4 -33 -28 -46.5t-52 -11.5q-33 2 -72 16.5t-72.5 38t-56 56.5t-22.5 76q0 68 34.5 120t81.5 93q-18 -4 -32.5 -6.5t-34.5 -2.5q-129 0 -233.5 44t-177.5 119t-111.5 174 t-38.5 210zM338 641h459q-4 106 -62.5 166.5t-144.5 60.5q-100 0 -167 -62.5t-85 -164.5z" />
<glyph unicode="&#x11a;" horiz-adv-x="1140" d="M168 86v1282q0 86 84 86h700q86 0 86 -86v-57q0 -84 -86 -84h-522v-381h406q86 0 86 -84v-57q0 -86 -86 -87h-406v-391h555q86 0 86 -84v-57q0 -86 -86 -86h-733q-84 0 -84 86zM352 1799q10 30 56 30h53q35 0 53 -13.5t35 -43.5l69 -109h5l67 109q18 31 35.5 44t54.5 13 h54q45 0 55 -30t-19 -73l-82 -120q-37 -55 -104 -56h-127q-68 0 -104 56l-82 120q-29 43 -19 73z" />
<glyph unicode="&#x11b;" horiz-adv-x="1118" d="M66 522q0 121 38.5 221.5t108.5 173t168 112.5t215 40q111 0 198 -38t145 -103.5t89 -157.5t31 -199q0 -35 -25.5 -61.5t-64.5 -26.5h-637q6 -72 33.5 -125t69.5 -89t96.5 -54t113.5 -18q72 0 130.5 22.5t94.5 44.5q39 18 67 12t48 -40l25 -41q39 -74 -29 -115 q-51 -33 -141 -69t-213 -36q-129 0 -233.5 44t-177.5 119t-111.5 174t-38.5 210zM321.5 1424.5q10.5 29.5 55.5 29.5h53q35 0 53.5 -13.5t34.5 -43.5l70 -109h4l67 109q18 31 36 44t55 13h53q45 0 55 -29.5t-18 -72.5l-82 -121q-37 -55 -105 -55h-127q-68 0 -104 55l-82 121 q-29 43 -18.5 72.5zM338 641h463q-4 111 -62.5 171t-148.5 60q-100 0 -167 -63.5t-85 -167.5z" />
<glyph unicode="&#x11c;" horiz-adv-x="1544" d="M82 721q0 162 56.5 301t156.5 240.5t237.5 159t301.5 57.5q90 0 166.5 -14.5t137 -36t104.5 -44t67 -38.5q63 -49 18 -119l-37 -58q-23 -35 -51.5 -40t-67.5 18q-47 29 -126.5 59.5t-196.5 30.5q-119 0 -211 -40t-154.5 -108.5t-95.5 -160.5t-33 -195q0 -115 38 -210 t103.5 -162.5t153.5 -105.5t191 -38q92 0 160.5 24.5t115.5 55.5q53 35 92 80v162h-139q-86 0 -86 86v55q0 86 86 86h291q84 0 84 -86v-594q0 -86 -84 -86h-51q-41 0 -62.5 19.5t-21.5 50.5v34v25q0 6 2 10h-4q-45 -45 -109 -82q-53 -31 -133 -56.5t-184 -25.5 q-145 0 -274.5 54.5t-227.5 153t-155.5 235.5t-57.5 303zM542.5 1580q-10.5 30 18.5 75l82 119q37 55 105 55h126q68 0 105 -55l82 -119q29 -45 18.5 -75t-55.5 -30h-53q-37 0 -54.5 14.5t-35.5 45.5l-68 106h-4l-70 -106q-16 -31 -34.5 -45.5t-53.5 -14.5h-53 q-45 0 -55.5 30z" />
<glyph unicode="&#x11d;" horiz-adv-x="1218" d="M70 551q0 106 29.5 200.5t89 165t147.5 111.5t205 41q92 0 151.5 -25.5t93.5 -54.5q41 -37 64 -80h4q-2 2 -2 6v21v39q0 29 21.5 49t62.5 20h70q84 0 84 -86v-895q0 -135 -48.5 -228t-125 -152.5t-174 -86t-193.5 -26.5q-88 0 -170 16.5t-135 38.5q-78 33 -45 111l16 47 q16 39 42 50t67 -3q37 -14 88 -26.5t123 -12.5q59 0 113 13.5t94 44t63.5 78.5t23.5 118v78v18.5t2 16.5q0 8 3 18h-5q-43 -74 -112.5 -115t-173.5 -41q-115 0 -203 42t-148.5 115t-91 169t-30.5 205zM323.5 1205.5q-10.5 29.5 18.5 74.5l82 119q37 55 104 55h127 q68 0 105 -55l82 -119q29 -45 18.5 -74.5t-55.5 -29.5h-53q-37 0 -54.5 14t-35.5 45l-68 106h-4l-70 -106q-16 -31 -34.5 -45t-53.5 -14h-53q-45 0 -55.5 29.5zM332 561q0 -141 67.5 -231t194.5 -90q45 0 89 14t78 50t54.5 94.5t20.5 146.5q0 90 -20.5 148.5t-55.5 93 t-81 48t-97 13.5q-123 0 -186.5 -79t-63.5 -208z" />
<glyph unicode="&#x11e;" horiz-adv-x="1544" d="M82 721q0 162 56.5 301t156.5 240.5t237.5 159t301.5 57.5q90 0 166.5 -14.5t137 -36t104.5 -44t67 -38.5q63 -49 18 -119l-37 -58q-23 -35 -51.5 -40t-67.5 18q-47 29 -126.5 59.5t-196.5 30.5q-119 0 -211 -40t-154.5 -108.5t-95.5 -160.5t-33 -195q0 -115 38 -210 t103.5 -162.5t153.5 -105.5t191 -38q92 0 160.5 24.5t115.5 55.5q53 35 92 80v162h-139q-86 0 -86 86v55q0 86 86 86h291q84 0 84 -86v-594q0 -86 -84 -86h-51q-41 0 -62.5 19.5t-21.5 50.5v34v25q0 6 2 10h-4q-45 -45 -109 -82q-53 -31 -133 -56.5t-184 -25.5 q-145 0 -274.5 54.5t-227.5 153t-155.5 235.5t-57.5 303zM510 1778q0 51 72 51h39q39 0 54 -17.5t19 -39.5q10 -49 42 -69t75 -20q41 0 72.5 19.5t42.5 69.5q6 20 20.5 38.5t52.5 18.5h39q41 0 57.5 -13.5t16.5 -37.5q0 -53 -26.5 -97.5t-68.5 -75t-96.5 -47t-109.5 -16.5 t-108.5 17.5t-96.5 48t-69.5 73.5t-26.5 97z" />
<glyph unicode="&#x11f;" horiz-adv-x="1218" d="M70 551q0 106 29.5 200.5t89 165t147.5 111.5t205 41q92 0 151.5 -25.5t93.5 -54.5q41 -37 64 -80h4q-2 2 -2 6v21v39q0 29 21.5 49t62.5 20h70q84 0 84 -86v-895q0 -135 -48.5 -228t-125 -152.5t-174 -86t-193.5 -26.5q-88 0 -170 16.5t-135 38.5q-78 33 -45 111l16 47 q16 39 42 50t67 -3q37 -14 88 -26.5t123 -12.5q59 0 113 13.5t94 44t63.5 78.5t23.5 118v78v18.5t2 16.5q0 8 3 18h-5q-43 -74 -112.5 -115t-173.5 -41q-115 0 -203 42t-148.5 115t-91 169t-30.5 205zM293 1403q0 51 72 51h38q39 0 54.5 -17.5t19.5 -39.5q10 -49 42 -68.5 t75 -19.5q41 0 72.5 19.5t42.5 68.5q6 20 20 38.5t53 18.5h39q41 0 57.5 -13.5t16.5 -37.5q0 -53 -26.5 -97t-68.5 -75t-96.5 -47.5t-109.5 -16.5t-108.5 17.5t-96.5 48.5t-69.5 74t-26.5 96zM332 561q0 -141 67.5 -231t194.5 -90q45 0 89 14t78 50t54.5 94.5t20.5 146.5 q0 90 -20.5 148.5t-55.5 93t-81 48t-97 13.5q-123 0 -186.5 -79t-63.5 -208z" />
<glyph unicode="&#x120;" horiz-adv-x="1544" d="M82 721q0 162 56.5 301t156.5 240.5t237.5 159t301.5 57.5q90 0 166.5 -14.5t137 -36t104.5 -44t67 -38.5q63 -49 18 -119l-37 -58q-23 -35 -51.5 -40t-67.5 18q-47 29 -126.5 59.5t-196.5 30.5q-119 0 -211 -40t-154.5 -108.5t-95.5 -160.5t-33 -195q0 -115 38 -210 t103.5 -162.5t153.5 -105.5t191 -38q92 0 160.5 24.5t115.5 55.5q53 35 92 80v162h-139q-86 0 -86 86v55q0 86 86 86h291q84 0 84 -86v-594q0 -86 -84 -86h-51q-41 0 -62.5 19.5t-21.5 50.5v34v25q0 6 2 10h-4q-45 -45 -109 -82q-53 -31 -133 -56.5t-184 -25.5 q-145 0 -274.5 54.5t-227.5 153t-155.5 235.5t-57.5 303zM700 1688v57q0 84 84 84h54q84 0 84 -84v-57q0 -86 -84 -86h-54q-84 0 -84 86z" />
<glyph unicode="&#x121;" horiz-adv-x="1218" d="M70 551q0 106 29.5 200.5t89 165t147.5 111.5t205 41q92 0 151.5 -25.5t93.5 -54.5q41 -37 64 -80h4q-2 2 -2 6v21v39q0 29 21.5 49t62.5 20h70q84 0 84 -86v-895q0 -135 -48.5 -228t-125 -152.5t-174 -86t-193.5 -26.5q-88 0 -170 16.5t-135 38.5q-78 33 -45 111l16 47 q16 39 42 50t67 -3q37 -14 88 -26.5t123 -12.5q59 0 113 13.5t94 44t63.5 78.5t23.5 118v78v18.5t2 16.5q0 8 3 18h-5q-43 -74 -112.5 -115t-173.5 -41q-115 0 -203 42t-148.5 115t-91 169t-30.5 205zM332 561q0 -141 67.5 -231t194.5 -90q45 0 89 14t78 50t54.5 94.5 t20.5 146.5q0 90 -20.5 148.5t-55.5 93t-81 48t-97 13.5q-123 0 -186.5 -79t-63.5 -208zM483 1313v57q0 84 84 84h54q84 0 84 -84v-57q0 -86 -84 -86h-54q-84 0 -84 86z" />
<glyph unicode="&#x122;" horiz-adv-x="1544" d="M82 721q0 162 56.5 301t156.5 240.5t237.5 159t301.5 57.5q90 0 166.5 -14.5t137 -36t104.5 -44t67 -38.5q63 -49 18 -119l-37 -58q-23 -35 -51.5 -40t-67.5 18q-47 29 -126.5 59.5t-196.5 30.5q-119 0 -211 -40t-154.5 -108.5t-95.5 -160.5t-33 -195q0 -115 38 -210 t103.5 -162.5t153.5 -105.5t191 -38q92 0 160.5 24.5t115.5 55.5q53 35 92 80v162h-139q-86 0 -86 86v55q0 86 86 86h291q84 0 84 -86v-594q0 -86 -84 -86h-51q-41 0 -62.5 19.5t-21.5 50.5v34v25q0 6 2 10h-4q-45 -45 -109 -82q-53 -31 -133 -56.5t-184 -25.5 q-145 0 -274.5 54.5t-227.5 153t-155.5 235.5t-57.5 303zM682 -401q0 27 11.5 54.5t11.5 80.5q0 35 -5.5 53t-5.5 47q0 31 20.5 42t55.5 11h41q59 0 78.5 -38.5t19.5 -86.5q0 -43 -10 -80.5t-27.5 -66.5t-41 -46.5t-50.5 -17.5h-22q-76 0 -76 48z" />
<glyph unicode="&#x123;" horiz-adv-x="1218" d="M70 551q0 106 29.5 200.5t89 165t147.5 111.5t205 41q92 0 151.5 -25.5t93.5 -54.5q41 -37 64 -80h4q-2 2 -2 6v21v39q0 29 21.5 49t62.5 20h70q84 0 84 -86v-895q0 -135 -48.5 -228t-125 -152.5t-174 -86t-193.5 -26.5q-88 0 -170 16.5t-135 38.5q-78 33 -45 111l16 47 q16 39 42 50t67 -3q37 -14 88 -26.5t123 -12.5q59 0 113 13.5t94 44t63.5 78.5t23.5 118v78v18.5t2 16.5q0 8 3 18h-5q-43 -74 -112.5 -115t-173.5 -41q-115 0 -203 42t-148.5 115t-91 169t-30.5 205zM332 561q0 -141 67.5 -231t194.5 -90q45 0 89 14t78 50t54.5 94.5 t20.5 146.5q0 90 -20.5 148.5t-55.5 93t-81 48t-97 13.5q-123 0 -186.5 -79t-63.5 -208zM481 1286q0 43 10.5 81t28 66.5t41 46t49.5 17.5h23q76 0 76 -47q0 -14 -3.5 -26.5t-8.5 -28t-8 -35t-3 -45.5q0 -35 5 -53.5t5 -47.5q0 -31 -20.5 -42t-54.5 -11h-41q-59 0 -79 39 t-20 86z" />
<glyph unicode="&#x124;" horiz-adv-x="1525" d="M168 86v1282q0 86 84 86h94q84 0 84 -86v-530h666v530q0 86 86 86h92q84 0 84 -86v-1282q0 -86 -84 -86h-92q-86 0 -86 86v524h-666v-524q0 -86 -84 -86h-94q-84 0 -84 86zM493.5 1580q-10.5 30 18.5 75l82 119q37 55 104 55h127q68 0 105 -55l82 -119q29 -45 18.5 -75 t-55.5 -30h-53q-37 0 -54.5 14.5t-36.5 45.5l-67 106h-4l-70 -106q-16 -31 -34.5 -45.5t-53.5 -14.5h-53q-45 0 -55.5 30z" />
<glyph unicode="&#x125;" d="M-6 1580q-10 30 18 75l82 119q37 55 105 55h127q68 0 104 -55l82 -119q29 -45 18.5 -75t-55.5 -30h-53q-37 0 -54.5 14.5t-35.5 45.5l-68 106h-4l-70 -106q-16 -31 -34.5 -45.5t-53.5 -14.5h-53q-45 0 -55 30zM129 86v1282q0 86 86 86h88q86 0 86 -86v-422 q0 -20 -1 -35.5t-3 -27.5q-2 -14 -2 -25h4q18 37 52 75t80 68.5t104.5 49t126.5 18.5q174 0 269 -94t95 -303v-586q0 -86 -86 -86h-88q-86 0 -86 86v532q0 96 -33 154.5t-131 58.5q-68 0 -124 -26.5t-95 -72.5t-60.5 -109.5t-21.5 -137.5v-399q0 -86 -86 -86h-88 q-86 0 -86 86z" />
<glyph unicode="&#x126;" horiz-adv-x="1521" d="M39 1135v12q0 78 84 78h49v143q0 86 86 86h98q84 0 84 -72v-157h643v143q0 86 84 86h99q86 0 86 -72v-157h47q86 0 86 -78v-12q0 -80 -86 -80h-47v-969q0 -86 -86 -86h-99q-84 0 -84 86v524h-643v-524q0 -86 -84 -86h-98q-86 0 -86 86v969h-49q-84 0 -84 80zM440 838h643 v217h-643v-217z" />
<glyph unicode="&#x127;" d="M-6 1217v12q0 72 86 71h49v68q0 86 86 86h88q86 0 86 -57v-97h189q86 0 86 -71v-12q0 -72 -86 -72h-189v-195q0 -20 -1 -35.5t-1 -27.5q-2 -14 -2 -25h4q18 37 52 75t80 66.5t103.5 47t125.5 18.5q174 0 269 -94t95 -303v-586q0 -86 -86 -86h-88q-86 0 -86 86v532 q0 96 -33 154.5t-131 58.5q-72 0 -127 -27.5t-94 -74.5t-59.5 -108.5t-20.5 -131.5v-403q0 -86 -86 -86h-88q-86 0 -86 86v1059h-49q-86 0 -86 72z" />
<glyph unicode="&#x128;" horiz-adv-x="598" d="M-61 1630q0 41 15 78t42 64.5t64.5 44t84.5 16.5q57 0 96.5 -20.5t70 -46t56 -46t58.5 -20.5q35 0 51.5 22.5t20.5 57.5q4 47 73 47h21q76 0 76 -70q0 -94 -57.5 -152.5t-149.5 -58.5q-59 0 -98 20.5t-69 46t-55.5 46t-58.5 20.5q-35 0 -54.5 -23.5t-23.5 -58.5 q-6 -45 -69 -45h-21q-74 0 -73 78zM168 86v1282q0 86 84 86h94q84 0 84 -86v-1282q0 -86 -84 -86h-94q-84 0 -84 86z" />
<glyph unicode="&#x129;" horiz-adv-x="516" d="M-104 1255q0 41 15 78t42 64.5t64.5 44t84.5 16.5q57 0 96.5 -20.5t70 -46t56 -46t58.5 -20.5q35 0 51.5 22.5t20.5 57.5q4 47 73 47h21q76 0 76 -70q0 -94 -57.5 -152.5t-149.5 -58.5q-59 0 -98 20.5t-69 46.5t-55.5 46.5t-58.5 20.5q-35 0 -54.5 -24t-23.5 -58 q-6 -45 -69 -45h-21q-74 0 -73 77zM129 86v872q0 86 84 86h90q84 0 84 -86v-872q0 -86 -84 -86h-90q-84 0 -84 86z" />
<glyph unicode="&#x12a;" horiz-adv-x="598" d="M35 1686v14q0 82 84 82h366q86 0 86 -82v-14q0 -82 -86 -82h-366q-84 0 -84 82zM168 86v1282q0 86 84 86h94q84 0 84 -86v-1282q0 -86 -84 -86h-94q-84 0 -84 86z" />
<glyph unicode="&#x12b;" horiz-adv-x="516" d="M-8 1311v14q0 82 84 82h366q86 0 86 -82v-14q0 -82 -86 -82h-366q-84 0 -84 82zM129 86v872q0 86 84 86h90q84 0 84 -86v-872q0 -86 -84 -86h-90q-84 0 -84 86z" />
<glyph unicode="&#x12c;" horiz-adv-x="598" d="M0 1778q0 51 72 51h39q39 0 54 -17.5t19 -39.5q10 -49 42 -69t75 -20q41 0 73 19.5t42 69.5q6 20 20.5 38.5t52.5 18.5h39q41 0 57.5 -13.5t16.5 -37.5q0 -53 -26.5 -97.5t-68.5 -75t-96.5 -47t-109.5 -16.5t-108.5 17.5t-96.5 48t-69.5 73.5t-26.5 97zM168 86v1282 q0 86 84 86h94q84 0 84 -86v-1282q0 -86 -84 -86h-94q-84 0 -84 86z" />
<glyph unicode="&#x12d;" horiz-adv-x="516" d="M-41 1403q0 51 72 51h39q39 0 54 -17.5t19 -39.5q10 -49 42 -68.5t75 -19.5q41 0 73 19.5t42 68.5q6 20 20.5 38.5t53.5 18.5h38q41 0 57.5 -13.5t16.5 -37.5q0 -53 -26.5 -97t-68.5 -75t-96.5 -47.5t-109.5 -16.5t-108.5 17.5t-96.5 48.5t-69.5 74t-26.5 96zM129 86v872 q0 86 84 86h90q84 0 84 -86v-872q0 -86 -84 -86h-90q-84 0 -84 86z" />
<glyph unicode="&#x12e;" horiz-adv-x="598" d="M84 -221q0 35 12.5 67.5t31.5 62.5t43 55.5t44 43.5q-47 14 -47 78v1282q0 86 84 86h94q84 0 84 -86v-1282q0 -35 -22.5 -62.5t-48 -55t-48 -58.5t-22.5 -74q0 -33 23.5 -47t45.5 -25q43 -16 33 -79l-6 -43q-4 -33 -27.5 -47.5t-52.5 -10.5q-33 4 -70.5 17.5t-71.5 37 t-56.5 58.5t-22.5 82z" />
<glyph unicode="&#x12f;" horiz-adv-x="516" d="M43 -221q0 35 12.5 67.5t31.5 62.5t43 55.5t44 43.5q-45 14 -45 78v872q0 86 86 86h88q86 0 86 -86v-872q0 -35 -22.5 -62.5t-48 -55t-48 -58.5t-22.5 -74q0 -33 23.5 -47t45.5 -25q43 -18 33 -79l-6 -43q-4 -33 -27.5 -47.5t-52.5 -10.5q-33 4 -71.5 17.5t-71.5 37 t-55.5 58.5t-22.5 82zM129 1307v61q0 86 84 86h90q86 0 86 -86v-61q0 -84 -86 -84h-90q-84 0 -84 84z" />
<glyph unicode="&#x130;" horiz-adv-x="598" d="M168 86v1282q0 86 84 86h94q84 0 84 -86v-1282q0 -86 -84 -86h-94q-84 0 -84 86zM190 1688v57q0 84 84 84h54q84 0 84 -84v-57q0 -86 -84 -86h-54q-84 0 -84 86z" />
<glyph unicode="&#x131;" horiz-adv-x="516" d="M129 86v872q0 86 84 86h90q84 0 84 -86v-872q0 -86 -84 -86h-90q-84 0 -84 86z" />
<glyph unicode="&#x132;" horiz-adv-x="1284" d="M168 86v1282q0 86 84 86h94q84 0 84 -86v-1282q0 -86 -84 -86h-94q-84 0 -84 86zM600 78v76q0 41 19.5 59t56.5 31q35 8 68.5 24.5t60 48t43 79.5t16.5 120v852q0 86 86 86h97q86 0 86 -86v-868q0 -145 -45.5 -241.5t-113 -155t-145 -83t-143.5 -24.5q-86 0 -86 82z" />
<glyph unicode="&#x133;" horiz-adv-x="1071" d="M129 86v872q0 86 84 86h90q84 0 84 -86v-872q0 -86 -84 -86h-90q-84 0 -84 86zM129 1307v61q0 86 84 86h90q86 0 86 -86v-61q0 -84 -86 -84h-90q-84 0 -84 84zM428 -285q0 49 25.5 64.5t58.5 19.5q27 2 56.5 10.5t55 28t42 56t16.5 96.5v968q0 86 86 86h88q86 0 86 -86 v-985q0 -127 -48 -204.5t-113.5 -120.5t-132 -57.5t-105.5 -14.5h-31q-84 0 -84 86v53zM682 1307v61q0 86 86 86h90q84 0 84 -86v-61q0 -84 -84 -84h-90q-86 0 -86 84z" />
<glyph unicode="&#x134;" horiz-adv-x="1097" d="M39 430q0 84 84 84h96q41 0 59.5 -18.5t22.5 -63.5q6 -88 50 -151.5t141 -63.5q76 0 132 50t56 167v793h-289q-86 0 -86 84v57q0 86 86 86h467q86 0 86 -86v-938q0 -119 -39 -205t-103.5 -141t-145.5 -82t-164 -27q-84 0 -166 28t-145.5 83t-102.5 141t-39 203z M350.5 1580q-10.5 30 18.5 75l82 119q37 55 104 55h127q68 0 104 -55l82 -119q29 -45 19 -75t-56 -30h-53q-37 0 -54 14.5t-36 45.5l-67 106h-5l-69 -106q-16 -31 -34.5 -45.5t-53.5 -14.5h-53q-45 0 -55.5 30z" />
<glyph unicode="&#x135;" horiz-adv-x="518" d="M-125 -285q0 41 21.5 60.5t62.5 23.5q27 2 57.5 10.5t55 29t41 56t16.5 95.5v968q0 86 86 86h88q86 0 86 -86v-985q0 -127 -48 -204.5t-113.5 -120.5t-132 -57.5t-105.5 -14.5h-31q-84 0 -84 86v53zM-11 1203.5q-9 29.5 19 74.5l82 121q37 55 103 55h129q66 0 102 -55 l84 -121q29 -45 18.5 -74.5t-55.5 -29.5h-55q-35 0 -52.5 14t-35.5 45l-68 108h-4l-70 -108q-16 -31 -34.5 -45t-53.5 -14h-53q-47 0 -56 29.5z" />
<glyph unicode="&#x136;" horiz-adv-x="1286" d="M168 86v1282q0 86 84 86h94q84 0 84 -86v-506h191l307 533q33 59 100 59h100q51 0 67.5 -29.5t-7.5 -72.5l-352 -590v-4l378 -656q27 -45 9.5 -73.5t-68.5 -28.5h-113q-68 0 -100 59l-321 576h-191v-549q0 -86 -84 -86h-94q-84 0 -84 86zM547 -401q0 27 11 54.5t11 80.5 q0 35 -5 53t-5 47q0 31 20.5 42t55.5 11h41q59 0 78.5 -38.5t19.5 -86.5q0 -43 -10 -80.5t-27.5 -66.5t-41 -46.5t-50.5 -17.5h-22q-76 0 -76 48z" />
<glyph unicode="&#x137;" horiz-adv-x="1093" d="M129 86v1282q0 86 86 86h88q86 0 86 -86v-692h129l217 311q35 57 103 57h98q53 0 67.5 -30.5t-14.5 -71.5l-260 -364v-5l307 -471q27 -45 11.5 -73.5t-68.5 -28.5h-111q-68 0 -100 59l-244 398h-135v-371q0 -86 -86 -86h-88q-86 0 -86 86zM459 -401q0 27 11 54.5t11 80.5 q0 35 -5 53t-5 47q0 31 20.5 42t55.5 11h41q59 0 78.5 -38.5t19.5 -86.5q0 -43 -10 -80.5t-27.5 -66.5t-41 -46.5t-50.5 -17.5h-22q-76 0 -76 48z" />
<glyph unicode="&#x138;" horiz-adv-x="1087" d="M129 86v872q0 86 84 86h90q84 0 84 -86v-307h127l229 336q18 29 43 43t62 14h98q53 0 68.5 -30.5t-13.5 -71.5l-274 -387v-4l291 -449q29 -45 13.5 -73.5t-68.5 -28.5h-117q-66 0 -101 59l-223 373h-135v-346q0 -86 -84 -86h-90q-84 0 -84 86z" />
<glyph unicode="&#x139;" horiz-adv-x="1067" d="M168 86v1282q0 86 84 86h94q84 0 84 -86v-1141h543q86 0 86 -84v-57q0 -86 -86 -86h-721q-84 0 -84 86zM231.5 1578q-14.5 28 8.5 69l71 122q35 59 101 60h73q55 0 67.5 -31t-22.5 -72l-92 -124q-23 -27 -46 -39.5t-58 -12.5h-43q-45 0 -59.5 28z" />
<glyph unicode="&#x13a;" horiz-adv-x="571" d="M127 326v1042q0 86 84 86h90q84 0 84 -86v-1022q0 -39 7 -62.5t19.5 -37t27 -18.5t28.5 -7q29 -4 46 -21.5t17 -52.5v-69q0 -41 -19 -64.5t-67 -23.5q-53 0 -108 10t-102.5 45t-77 101.5t-29.5 179.5zM190.5 1578q-14.5 28 8.5 69l71 122q35 59 101 60h73q55 0 67.5 -31 t-22.5 -72l-92 -124q-23 -27 -46 -39.5t-58 -12.5h-43q-45 0 -59.5 28z" />
<glyph unicode="&#x13b;" horiz-adv-x="1067" d="M168 86v1282q0 86 84 86h94q84 0 84 -86v-1141h543q86 0 86 -84v-57q0 -86 -86 -86h-721q-84 0 -84 86zM510 -401q0 27 11 54.5t11 80.5q0 35 -5 53t-5 47q0 31 20.5 42t55.5 11h41q59 0 78.5 -38.5t19.5 -86.5q0 -43 -10 -80.5t-27.5 -66.5t-41 -46.5t-50.5 -17.5h-22 q-76 0 -76 48z" />
<glyph unicode="&#x13c;" horiz-adv-x="571" d="M127 326v1042q0 86 84 86h90q84 0 84 -86v-1022q0 -39 7 -62.5t19.5 -37t27 -18.5t28.5 -7q29 -4 46 -21.5t17 -52.5v-69q0 -41 -19 -64.5t-67 -23.5q-53 0 -108 10t-102.5 45t-77 101.5t-29.5 179.5zM219 -401q0 27 11.5 54.5t11.5 80.5q0 35 -5.5 53t-5.5 47 q0 31 20.5 42t55.5 11h41q59 0 78.5 -38.5t19.5 -86.5q0 -43 -10 -80.5t-27.5 -66.5t-41 -46.5t-50.5 -17.5h-22q-76 0 -76 48z" />
<glyph unicode="&#x13d;" horiz-adv-x="1069" d="M168 86v1282q0 86 84 86h94q84 0 84 -86v-1141h543q86 0 86 -84v-57q0 -86 -86 -86h-721q-84 0 -84 86zM590 1163q0 27 11 54.5t11 80.5q0 35 -5 53.5t-5 47.5q0 31 20.5 42t55.5 11h41q59 0 78.5 -39t19.5 -86q0 -43 -10 -81t-27.5 -66.5t-41 -46t-50.5 -17.5h-22 q-76 0 -76 47z" />
<glyph unicode="&#x13e;" horiz-adv-x="571" d="M127 326v1042q0 86 84 86h90q84 0 84 -86v-1022q0 -39 7 -62.5t19.5 -37t27 -18.5t28.5 -7q29 -4 46 -21.5t17 -52.5v-69q0 -41 -19 -64.5t-67 -23.5q-53 0 -108 10t-102.5 45t-77 101.5t-29.5 179.5zM494 1163q0 27 11 54.5t11 80.5q0 35 -5 53.5t-5 47.5q0 31 20.5 42 t55.5 11h41q59 0 78.5 -39t19.5 -86q0 -43 -10.5 -81t-27.5 -66.5t-41 -46t-50 -17.5h-23q-76 0 -75 47z" />
<glyph unicode="&#x13f;" horiz-adv-x="1071" d="M168 86v1282q0 86 84 86h94q84 0 84 -86v-1141h543q86 0 86 -84v-57q0 -86 -86 -86h-721q-84 0 -84 86zM649 741v95q0 84 84 84h84q86 0 86 -84v-95q0 -84 -86 -84h-84q-84 0 -84 84z" />
<glyph unicode="&#x140;" horiz-adv-x="772" d="M127 326v1042q0 86 84 86h90q84 0 84 -86v-1022q0 -39 7 -62.5t19.5 -37t27 -18.5t28.5 -7q29 -4 46 -21.5t17 -52.5v-69q0 -41 -19 -64.5t-67 -23.5q-53 0 -108 10t-102.5 45t-77 101.5t-29.5 179.5zM514 741v95q0 84 84 84h84q86 0 86 -84v-95q0 -84 -86 -84h-84 q-84 0 -84 84z" />
<glyph unicode="&#x141;" horiz-adv-x="1071" d="M53 590v67q0 70 43 95l74 41v575q0 86 86 86h92q84 0 84 -86v-424l117 66q43 27 71.5 10.5t28.5 -70.5v-67q0 -70 -57 -103l-160 -90v-463h545q84 0 84 -84v-57q0 -86 -84 -86h-721q-86 0 -86 86v453l-41 -23q-29 -14 -52.5 4.5t-23.5 69.5z" />
<glyph unicode="&#x142;" horiz-adv-x="593" d="M14 616v68q0 72 43 94l88 49v541q0 86 86 86h88q86 0 87 -86v-391l55 33q45 27 73.5 10.5t28.5 -68.5v-69q0 -37 -13 -60.5t-40 -40.5l-104 -59v-379q0 -37 7 -60.5t18 -37t25.5 -18.5t28.5 -7q63 -6 64 -74v-69q0 -41 -19.5 -64.5t-66.5 -23.5q-53 0 -108.5 10 t-102.5 45t-77 101.5t-30 179.5v247l-53 -28q-33 -18 -55.5 1t-22.5 70z" />
<glyph unicode="&#x143;" horiz-adv-x="1521" d="M168 86v1282q0 86 84 86h110q72 0 103 -57l516 -783q20 -33 43 -71.5t39 -73.5q20 -39 39 -80h4q-4 41 -8 80q-4 35 -5 74t-1 71v754q0 86 86 86h92q86 0 86 -86v-1282q0 -86 -86 -86h-111q-70 0 -100 57l-518 781q-20 33 -42 71.5t-38 73.5q-23 39 -41 80h-4 q2 -41 6 -80q4 -35 6 -74t2 -71v-752q0 -86 -84 -86h-94q-84 0 -84 86zM690.5 1578q-14.5 28 7.5 69l72 122q35 59 100 60h74q55 0 67.5 -31t-22.5 -72l-92 -124q-23 -27 -46.5 -39.5t-57.5 -12.5h-43q-45 0 -59.5 28z" />
<glyph unicode="&#x144;" d="M129 86v872q0 86 84 86h80q84 0 84 -86v-63q0 -10 -1 -18.5t-1 -14.5q-2 -8 -2 -14h4q16 33 47 71.5t76 71.5t106.5 55.5t141.5 22.5q174 0 269 -94t95 -303v-586q0 -86 -86 -86h-88q-86 0 -86 86v532q0 96 -33 154.5t-131 58.5q-70 0 -125 -26.5t-94 -73.5t-60.5 -109.5 t-21.5 -132.5v-403q0 -86 -84 -86h-90q-84 0 -84 86zM563.5 1203.5q-14.5 27.5 7.5 68.5l72 123q35 59 100 59h74q55 0 67.5 -30.5t-22.5 -71.5l-92 -125q-23 -27 -46.5 -39t-57.5 -12h-43q-45 0 -59.5 27.5z" />
<glyph unicode="&#x145;" horiz-adv-x="1521" d="M168 86v1282q0 86 84 86h110q72 0 103 -57l516 -783q20 -33 43 -71.5t39 -73.5q20 -39 39 -80h4q-4 41 -8 80q-4 35 -5 74t-1 71v754q0 86 86 86h92q86 0 86 -86v-1282q0 -86 -86 -86h-111q-70 0 -100 57l-518 781q-20 33 -42 71.5t-38 73.5q-23 39 -41 80h-4 q2 -41 6 -80q4 -35 6 -74t2 -71v-752q0 -86 -84 -86h-94q-84 0 -84 86zM645 -401q0 27 11.5 54.5t11.5 80.5q0 35 -5.5 53t-5.5 47q0 31 20.5 42t55.5 11h41q59 0 78.5 -38.5t19.5 -86.5q0 -43 -10 -80.5t-27.5 -66.5t-41 -46.5t-50.5 -17.5h-22q-76 0 -76 48z" />
<glyph unicode="&#x146;" d="M129 86v872q0 86 84 86h80q84 0 84 -86v-63q0 -10 -1 -18.5t-1 -14.5q-2 -8 -2 -14h4q16 33 47 71.5t76 71.5t106.5 55.5t141.5 22.5q174 0 269 -94t95 -303v-586q0 -86 -86 -86h-88q-86 0 -86 86v532q0 96 -33 154.5t-131 58.5q-70 0 -125 -26.5t-94 -73.5t-60.5 -109.5 t-21.5 -132.5v-403q0 -86 -84 -86h-90q-84 0 -84 86zM500 -401q0 27 11 54.5t11 80.5q0 35 -5 53t-5 47q0 31 20.5 42t55.5 11h41q59 0 78.5 -38.5t19.5 -86.5q0 -43 -10 -80.5t-27.5 -66.5t-41 -46.5t-50.5 -17.5h-23q-76 0 -75 48z" />
<glyph unicode="&#x147;" horiz-adv-x="1521" d="M168 86v1282q0 86 84 86h110q72 0 103 -57l516 -783q20 -33 43 -71.5t39 -73.5q20 -39 39 -80h4q-4 41 -8 80q-4 35 -5 74t-1 71v754q0 86 86 86h92q86 0 86 -86v-1282q0 -86 -86 -86h-111q-70 0 -100 57l-518 781q-20 33 -42 71.5t-38 73.5q-23 39 -41 80h-4 q2 -41 6 -80q4 -35 6 -74t2 -71v-752q0 -86 -84 -86h-94q-84 0 -84 86zM491.5 1799q10.5 30 55.5 30h53q35 0 53.5 -13.5t34.5 -43.5l70 -109h4l67 109q18 31 36 44t55 13h53q45 0 55 -30t-18 -73l-82 -120q-37 -55 -105 -56h-127q-68 0 -104 56l-82 120q-29 43 -18.5 73z " />
<glyph unicode="&#x148;" d="M129 86v872q0 86 84 86h80q84 0 84 -86v-63q0 -10 -1 -18.5t-1 -14.5q-2 -8 -2 -14h4q16 33 47 71.5t76 71.5t106.5 55.5t141.5 22.5q174 0 269 -94t95 -303v-586q0 -86 -86 -86h-88q-86 0 -86 86v532q0 96 -33 154.5t-131 58.5q-70 0 -125 -26.5t-94 -73.5t-60.5 -109.5 t-21.5 -132.5v-403q0 -86 -84 -86h-90q-84 0 -84 86zM364.5 1424.5q10.5 29.5 55.5 29.5h53q35 0 53.5 -13.5t34.5 -43.5l70 -109h4l67 109q18 31 36 44t55 13h53q45 0 55 -29.5t-18 -72.5l-82 -121q-37 -55 -105 -55h-127q-68 0 -104 55l-82 121q-29 43 -18.5 72.5z" />
<glyph unicode="&#x149;" d="M-39 1163q0 27 11.5 54.5t11.5 80.5q0 35 -5.5 53.5t-5.5 47.5q0 31 20.5 42t55.5 11h41q59 0 78.5 -39t19.5 -86q0 -43 -10 -81t-27.5 -66.5t-41 -46t-50.5 -17.5h-22q-76 0 -76 47zM129 86v872q0 86 84 86h80q84 0 84 -86v-63q0 -10 -1 -18.5t-1 -14.5q-2 -8 -2 -14h4 q16 33 47 71.5t76 71.5t106.5 55.5t141.5 22.5q174 0 269 -94t95 -303v-586q0 -86 -86 -86h-88q-86 0 -86 86v532q0 96 -33 154.5t-131 58.5q-70 0 -125 -26.5t-94 -73.5t-60.5 -109.5t-21.5 -132.5v-403q0 -86 -84 -86h-90q-84 0 -84 86z" />
<glyph unicode="&#x14a;" horiz-adv-x="1523" d="M168 86v1282q0 86 84 86h110q72 0 103 -57l516 -783q20 -33 43 -71.5t39 -73.5q20 -39 39 -80h4q-4 41 -8 80q-4 35 -5 74t-1 71v754q0 86 86 86h92q86 0 86 -86v-1382q0 -121 -44 -199t-108.5 -124t-138.5 -65.5t-135 -21.5q-92 0 -92 86v55q0 41 22.5 61.5t63.5 24.5 q72 6 124 50.5t52 148.5l-559 836q-23 33 -44.5 71.5t-37.5 73.5q-20 39 -39 80h-4q2 -41 6 -80q4 -35 6 -74t2 -71v-752q0 -86 -84 -86h-94q-84 0 -84 86z" />
<glyph unicode="&#x14b;" horiz-adv-x="1232" d="M129 86v872q0 86 84 86h80q84 0 84 -86v-63q0 -10 -1 -18.5t-1 -14.5q-2 -8 -2 -14h4q16 33 47 71.5t76 71.5t106.5 55.5t141.5 22.5q174 0 269 -94t95 -303v-699q0 -127 -48 -204.5t-113.5 -120.5t-132 -57.5t-105.5 -14.5h-31q-84 0 -84 86v53q0 41 21.5 60.5 t62.5 23.5q27 2 57.5 10.5t55 29t41 56t16.5 95.5v628q0 96 -33 154.5t-131 58.5q-70 0 -125 -26.5t-94 -73.5t-60.5 -109.5t-21.5 -132.5v-403q0 -86 -84 -86h-90q-84 0 -84 86z" />
<glyph unicode="&#x14c;" horiz-adv-x="1667" d="M82 737q0 156 55.5 291t155.5 235.5t237.5 158t303.5 57.5t303 -57.5t237.5 -158t155.5 -235.5t55 -291q0 -160 -55 -299t-155.5 -242.5t-238 -162t-302.5 -58.5q-166 0 -303.5 58.5t-237.5 162t-155.5 242.5t-55.5 299zM354 737q0 -111 36 -206t99.5 -164.5 t151.5 -109.5t193 -40q104 0 192 40t151.5 109.5t99.5 165t36 205.5q0 106 -36 197.5t-99.5 159t-151.5 105.5t-192 38t-192.5 -38t-152 -105.5t-99.5 -159t-36 -197.5zM565 1686v14q0 82 84 82h367q86 0 86 -82v-14q0 -82 -86 -82h-367q-84 0 -84 82z" />
<glyph unicode="&#x14d;" horiz-adv-x="1273" d="M63 522q0 119 45.5 220.5t123 173t182 112.5t223.5 41t223.5 -41t183 -112.5t123.5 -173t45 -220.5q0 -121 -45 -221t-123.5 -173t-183 -113t-223.5 -40t-223.5 40t-182 113t-123 173t-45.5 221zM328 522q0 -74 24.5 -133t66.5 -102t98 -66.5t120 -23.5q63 0 119.5 23.5 t99.5 66.5t67.5 102.5t24.5 132.5q0 72 -24.5 132.5t-67.5 103.5t-99.5 66.5t-119.5 23.5t-119.5 -23.5t-98.5 -66.5t-66.5 -103.5t-24.5 -132.5zM369 1311v14q0 82 84 82h366q86 0 86 -82v-14q0 -82 -86 -82h-366q-84 0 -84 82z" />
<glyph unicode="&#x14e;" horiz-adv-x="1667" d="M82 737q0 156 55.5 291t155.5 235.5t237.5 158t303.5 57.5t303 -57.5t237.5 -158t155.5 -235.5t55 -291q0 -160 -55 -299t-155.5 -242.5t-238 -162t-302.5 -58.5q-166 0 -303.5 58.5t-237.5 162t-155.5 242.5t-55.5 299zM354 737q0 -111 36 -206t99.5 -164.5 t151.5 -109.5t193 -40q104 0 192 40t151.5 109.5t99.5 165t36 205.5q0 106 -36 197.5t-99.5 159t-151.5 105.5t-192 38t-192.5 -38t-152 -105.5t-99.5 -159t-36 -197.5zM532 1778q0 51 72 51h39q39 0 54.5 -17.5t19.5 -39.5q10 -49 42 -69t75 -20q41 0 72.5 19.5t41.5 69.5 q6 20 20.5 38.5t53.5 18.5h39q41 0 57.5 -13.5t16.5 -37.5q0 -53 -27 -97.5t-69 -75t-96 -47t-109 -16.5t-108.5 17.5t-96.5 48t-70 73.5t-27 97z" />
<glyph unicode="&#x14f;" horiz-adv-x="1273" d="M63 522q0 119 45.5 220.5t123 173t182 112.5t223.5 41t223.5 -41t183 -112.5t123.5 -173t45 -220.5q0 -121 -45 -221t-123.5 -173t-183 -113t-223.5 -40t-223.5 40t-182 113t-123 173t-45.5 221zM328 522q0 -74 24.5 -133t66.5 -102t98 -66.5t120 -23.5q63 0 119.5 23.5 t99.5 66.5t67.5 102.5t24.5 132.5q0 72 -24.5 132.5t-67.5 103.5t-99.5 66.5t-119.5 23.5t-119.5 -23.5t-98.5 -66.5t-66.5 -103.5t-24.5 -132.5zM336 1403q0 51 72 51h38q39 0 54.5 -17.5t19.5 -39.5q10 -49 42 -68.5t75 -19.5q41 0 72.5 19.5t42.5 68.5q6 20 20 38.5 t53 18.5h39q41 0 57.5 -13.5t16.5 -37.5q0 -53 -26.5 -97t-68.5 -75t-96.5 -47.5t-109.5 -16.5t-108.5 17.5t-96.5 48.5t-69.5 74t-26.5 96z" />
<glyph unicode="&#x150;" horiz-adv-x="1667" d="M82 737q0 156 55.5 291t155.5 235.5t237.5 158t303.5 57.5t303 -57.5t237.5 -158t155.5 -235.5t55 -291q0 -160 -55 -299t-155.5 -242.5t-238 -162t-302.5 -58.5q-166 0 -303.5 58.5t-237.5 162t-155.5 242.5t-55.5 299zM354 737q0 -111 36 -206t99.5 -164.5 t151.5 -109.5t193 -40q104 0 192 40t151.5 109.5t99.5 165t36 205.5q0 106 -36 197.5t-99.5 159t-151.5 105.5t-192 38t-192.5 -38t-152 -105.5t-99.5 -159t-36 -197.5zM565.5 1579q-14.5 29 7.5 72l64 116q29 61 100 62h43q49 0 63.5 -27.5t-9.5 -72.5l-64 -117 q-35 -61 -100 -62h-39q-51 0 -65.5 29zM925.5 1579q-12.5 29 10.5 74l68 116q35 59 100 60h63q55 0 66.5 -31t-21.5 -72l-92 -124q-23 -27 -46 -39.5t-58 -12.5h-27q-51 0 -63.5 29z" />
<glyph unicode="&#x151;" horiz-adv-x="1273" d="M63 522q0 119 45.5 220.5t123 173t182 112.5t223.5 41t223.5 -41t183 -112.5t123.5 -173t45 -220.5q0 -121 -45 -221t-123.5 -173t-183 -113t-223.5 -40t-223.5 40t-182 113t-123 173t-45.5 221zM328 522q0 -74 24.5 -133t66.5 -102t98 -66.5t120 -23.5q63 0 119.5 23.5 t99.5 66.5t67.5 102.5t24.5 132.5q0 72 -24.5 132.5t-67.5 103.5t-99.5 66.5t-119.5 23.5t-119.5 -23.5t-98.5 -66.5t-66.5 -103.5t-24.5 -132.5zM368.5 1204.5q-14.5 28.5 8.5 71.5l63 117q29 61 101 61h43q49 0 63.5 -27.5t-10.5 -72.5l-64 -117q-35 -61 -100 -61h-39 q-51 0 -65.5 28.5zM729.5 1204.5q-12.5 28.5 9.5 73.5l68 117q35 59 100 59h64q55 0 66.5 -30.5t-21.5 -71.5l-92 -125q-23 -27 -46.5 -39t-58.5 -12h-26q-51 0 -63.5 28.5z" />
<glyph unicode="&#x152;" horiz-adv-x="1961" d="M78 729q0 156 58.5 292t161.5 235.5t242.5 156.5t301.5 57q86 0 142 -8t116 -8h672q86 0 86 -86v-57q0 -84 -86 -84h-523v-381h406q86 0 86 -84v-57q0 -86 -86 -87h-406v-391h557q84 0 84 -84v-57q0 -86 -84 -86h-706q-29 0 -56.5 -3t-58.5 -6t-65.5 -6t-77.5 -3 q-162 0 -301.5 58t-242.5 158.5t-161.5 236.5t-58.5 294zM350 729q0 -109 37 -204t102.5 -165.5t155.5 -110.5t197 -40q31 0 57.5 2t46.5 6q23 4 41 8v1004q-18 4 -41 8q-20 4 -47 6t-57 2q-106 0 -196.5 -40t-156 -110.5t-102.5 -165t-37 -200.5z" />
<glyph unicode="&#x153;" horiz-adv-x="2000" d="M63 520q0 123 44.5 224.5t121 173t180 111.5t220.5 40q154 0 258 -58.5t174 -156.5h4q61 98 160.5 156.5t251.5 58.5q111 0 197.5 -38t145 -103.5t89 -157.5t30.5 -199q0 -35 -24.5 -61.5t-65.5 -26.5h-635q16 -141 105.5 -213.5t206.5 -72.5q72 0 130 22.5t97 44.5 q76 39 115 -28l22 -41q39 -76 -28 -115q-49 -33 -140.5 -69t-214.5 -36q-164 0 -268 61.5t-168 160.5h-4q-70 -98 -176.5 -160t-261.5 -62q-117 0 -220.5 39t-180 110t-121 172t-44.5 224zM326 520q0 -74 24.5 -134t67.5 -102t99 -64.5t120 -22.5q63 0 119.5 22.5t98.5 64.5 t66.5 102t24.5 136q0 74 -24.5 134.5t-67.5 103.5t-99.5 65.5t-117.5 22.5q-63 0 -119.5 -23.5t-99.5 -66.5t-67.5 -103.5t-24.5 -134.5zM1221 641h456q-4 104 -60 165.5t-142 61.5q-102 0 -169 -62.5t-85 -164.5z" />
<glyph unicode="&#x154;" horiz-adv-x="1282" d="M168 86v1282q0 86 84 86h393q109 0 169 -9t108 -30q111 -47 177 -148.5t66 -248.5q0 -66 -16 -127.5t-47 -113.5t-76 -93t-102 -63v-5l12 -18q6 -10 15.5 -23.5t19.5 -33.5l239 -439q27 -45 9.5 -73.5t-68.5 -28.5h-111q-68 0 -100 59l-256 484h-254v-457q0 -86 -84 -86 h-94q-84 0 -84 86zM430 772h238q106 0 167.5 61.5t61.5 170.5q0 70 -27.5 122t-87.5 76q-27 12 -62.5 18.5t-94.5 6.5h-195v-455zM555 1578q-14 28 8 69l72 122q35 59 100 60h74q55 0 67.5 -31t-22.5 -72l-92 -124q-23 -27 -46.5 -39.5t-58.5 -12.5h-43q-45 0 -59 28z" />
<glyph unicode="&#x155;" horiz-adv-x="768" d="M129 86v872q0 86 84 86h80q86 0 86 -86v-98q0 -16 -1 -28.5t-3 -22.5t-2 -21h4q14 47 43 94.5t68.5 85.5t88 61.5t103.5 23.5q43 0 60.5 -21.5t17.5 -64.5v-80q0 -86 -88 -86q-72 0 -125 -33t-88 -86t-52.5 -120.5t-17.5 -139.5v-336q0 -86 -84 -86h-90q-84 0 -84 86z M397.5 1201.5q-14.5 27.5 8.5 68.5l71 123q35 59 101 59h73q55 0 67.5 -30.5t-22.5 -71.5l-92 -125q-23 -27 -46 -39t-58 -12h-43q-45 0 -59.5 27.5z" />
<glyph unicode="&#x156;" horiz-adv-x="1282" d="M168 86v1282q0 86 84 86h393q109 0 169 -9t108 -30q111 -47 177 -148.5t66 -248.5q0 -66 -16 -127.5t-47 -113.5t-76 -93t-102 -63v-5l12 -18q6 -10 15.5 -23.5t19.5 -33.5l239 -439q27 -45 9.5 -73.5t-68.5 -28.5h-111q-68 0 -100 59l-256 484h-254v-457q0 -86 -84 -86 h-94q-84 0 -84 86zM430 772h238q106 0 167.5 61.5t61.5 170.5q0 70 -27.5 122t-87.5 76q-27 12 -62.5 18.5t-94.5 6.5h-195v-455zM553 -401q0 27 11 54.5t11 80.5q0 35 -5 53t-5 47q0 31 20.5 42t55.5 11h41q59 0 78.5 -38.5t19.5 -86.5q0 -43 -10 -80.5t-27.5 -66.5 t-41 -46.5t-50.5 -17.5h-22q-76 0 -76 48z" />
<glyph unicode="&#x157;" horiz-adv-x="768" d="M129 86v872q0 86 84 86h80q86 0 86 -86v-98q0 -16 -1 -28.5t-3 -22.5t-2 -21h4q14 47 43 94.5t68.5 85.5t88 61.5t103.5 23.5q43 0 60.5 -21.5t17.5 -64.5v-80q0 -86 -88 -86q-72 0 -125 -33t-88 -86t-52.5 -120.5t-17.5 -139.5v-336q0 -86 -84 -86h-90q-84 0 -84 86z M147 -401q0 27 11.5 54.5t11.5 80.5q0 35 -5 53t-5 47q0 31 20.5 42t55.5 11h40q59 0 79 -38.5t20 -86.5q0 -43 -10.5 -80.5t-28 -66.5t-41 -46.5t-49.5 -17.5h-23q-76 0 -76 48z" />
<glyph unicode="&#x158;" horiz-adv-x="1282" d="M168 86v1282q0 86 84 86h393q109 0 169 -9t108 -30q111 -47 177 -148.5t66 -248.5q0 -66 -16 -127.5t-47 -113.5t-76 -93t-102 -63v-5l12 -18q6 -10 15.5 -23.5t19.5 -33.5l239 -439q27 -45 9.5 -73.5t-68.5 -28.5h-111q-68 0 -100 59l-256 484h-254v-457q0 -86 -84 -86 h-94q-84 0 -84 86zM356.5 1799q10.5 30 55.5 30h53q35 0 53.5 -13.5t34.5 -43.5l70 -109h4l67 109q18 31 36 44t54 13h54q45 0 55 -30t-19 -73l-81 -120q-37 -55 -105 -56h-127q-68 0 -104 56l-82 120q-29 43 -18.5 73zM430 772h238q106 0 167.5 61.5t61.5 170.5 q0 70 -27.5 122t-87.5 76q-27 12 -62.5 18.5t-94.5 6.5h-195v-455z" />
<glyph unicode="&#x159;" horiz-adv-x="768" d="M129 86v872q0 86 84 86h80q86 0 86 -86v-98q0 -16 -1 -28.5t-3 -22.5t-2 -21h4q14 47 43 94.5t68.5 85.5t88 61.5t103.5 23.5q43 0 60.5 -21.5t17.5 -64.5v-80q0 -86 -88 -86q-72 0 -125 -33t-88 -86t-52.5 -120.5t-17.5 -139.5v-336q0 -86 -84 -86h-90q-84 0 -84 86z M200.5 1422.5q10.5 29.5 55.5 29.5h53q35 0 53.5 -13.5t34.5 -43.5l70 -109h4l68 109q18 31 35.5 44t54.5 13h53q45 0 55.5 -29.5t-18.5 -72.5l-82 -121q-37 -55 -105 -55h-126q-68 0 -105 55l-82 121q-29 43 -18.5 72.5z" />
<glyph unicode="&#x15a;" horiz-adv-x="1124" d="M83 173.5q-9 27.5 21 68.5l46 65q25 35 52 38t66 -19q18 -12 46 -31t66 -35t84 -28.5t99 -12.5q102 0 159.5 46t57.5 120q0 70 -50 115t-126 81.5t-163 73.5t-162.5 88.5t-126 126t-50.5 187.5q0 96 38 174t103.5 133t154.5 85t194 30q63 0 121.5 -11.5t106.5 -28t86 -36 t61 -35.5q66 -47 26 -117l-37 -67q-23 -45 -53.5 -45t-62.5 16q-45 27 -105.5 53.5t-146.5 26.5q-102 0 -161.5 -45t-59.5 -119q0 -68 50 -112t125.5 -78.5t163 -70.5t163 -87t125.5 -127t50 -190q0 -88 -32.5 -167t-94 -137.5t-150.5 -92.5t-204 -34q-78 0 -147.5 15.5 t-127 38t-101 48.5t-70.5 46q-25 23 -34 50.5zM493.5 1578q-14.5 28 8.5 69l71 122q35 59 101 60h74q55 0 67 -31t-22 -72l-93 -124q-23 -27 -46 -39.5t-58 -12.5h-43q-45 0 -59.5 28z" />
<glyph unicode="&#x15b;" horiz-adv-x="915" d="M65 133q-4 31 19 66l25 37q23 33 50 36.5t66 -16.5q37 -20 95.5 -46t138.5 -26q68 0 106.5 29t38.5 78q0 43 -38 68.5t-96 47t-124.5 46t-125 61.5t-96.5 94.5t-38 147.5q0 76 32 135t86 98t126.5 59.5t154.5 20.5q104 0 177 -26.5t114 -49.5q35 -18 41 -49t-10 -65 l-21 -37q-18 -37 -46.5 -43t-67.5 10q-35 16 -84 33.5t-115 17.5q-68 0 -104.5 -26.5t-36.5 -75.5q0 -43 38 -69.5t96 -47t124.5 -44.5t125 -60.5t96.5 -94t38 -145.5q0 -70 -27.5 -128t-80 -101t-126 -68t-163.5 -25q-127 0 -214.5 37t-134.5 70q-35 20 -39 51zM381 1203.5 q-14 27.5 8 68.5l72 123q35 59 100 59h74q55 0 67.5 -30.5t-22.5 -71.5l-92 -125q-23 -27 -46.5 -39t-58.5 -12h-43q-45 0 -59 27.5z" />
<glyph unicode="&#x15c;" horiz-adv-x="1124" d="M83 173.5q-9 27.5 21 68.5l46 65q25 35 52 38t66 -19q18 -12 46 -31t66 -35t84 -28.5t99 -12.5q102 0 159.5 46t57.5 120q0 70 -50 115t-126 81.5t-163 73.5t-162.5 88.5t-126 126t-50.5 187.5q0 96 38 174t103.5 133t154.5 85t194 30q63 0 121.5 -11.5t106.5 -28t86 -36 t61 -35.5q66 -47 26 -117l-37 -67q-23 -45 -53.5 -45t-62.5 16q-45 27 -105.5 53.5t-146.5 26.5q-102 0 -161.5 -45t-59.5 -119q0 -68 50 -112t125.5 -78.5t163 -70.5t163 -87t125.5 -127t50 -190q0 -88 -32.5 -167t-94 -137.5t-150.5 -92.5t-204 -34q-78 0 -147.5 15.5 t-127 38t-101 48.5t-70.5 46q-25 23 -34 50.5zM295 1580q-10 30 18 75l82 119q37 55 105 55h127q68 0 104 -55l82 -119q29 -45 18.5 -75t-55.5 -30h-53q-37 0 -54.5 14.5t-35.5 45.5l-68 106h-4l-69 -106q-16 -31 -35 -45.5t-54 -14.5h-53q-45 0 -55 30z" />
<glyph unicode="&#x15d;" horiz-adv-x="915" d="M65 133q-4 31 19 66l25 37q23 33 50 36.5t66 -16.5q37 -20 95.5 -46t138.5 -26q68 0 106.5 29t38.5 78q0 43 -38 68.5t-96 47t-124.5 46t-125 61.5t-96.5 94.5t-38 147.5q0 76 32 135t86 98t126.5 59.5t154.5 20.5q104 0 177 -26.5t114 -49.5q35 -18 41 -49t-10 -65 l-21 -37q-18 -37 -46.5 -43t-67.5 10q-35 16 -84 33.5t-115 17.5q-68 0 -104.5 -26.5t-36.5 -75.5q0 -43 38 -69.5t96 -47t124.5 -44.5t125 -60.5t96.5 -94t38 -145.5q0 -70 -27.5 -128t-80 -101t-126 -68t-163.5 -25q-127 0 -214.5 37t-134.5 70q-35 20 -39 51z M186.5 1205.5q-10.5 29.5 18.5 74.5l82 119q37 55 104 55h127q68 0 105 -55l82 -119q29 -45 18.5 -74.5t-55.5 -29.5h-54q-37 0 -54 14t-36 45l-67 106h-4l-70 -106q-16 -31 -34.5 -45t-53.5 -14h-53q-45 0 -55.5 29.5z" />
<glyph unicode="&#x15e;" horiz-adv-x="1126" d="M83 173.5q-9 27.5 21 68.5l46 65q25 35 52 38t66 -19q18 -12 46 -31t66 -35t84 -28.5t99 -12.5q102 0 159.5 46t57.5 120q0 70 -50 115t-126 81.5t-163 73.5t-162.5 88.5t-126 126t-50.5 187.5q0 96 38 174t103.5 133t154.5 85t194 30q63 0 121.5 -11.5t106.5 -28t86 -36 t61 -35.5q66 -47 26 -117l-37 -67q-23 -45 -53.5 -45t-62.5 16q-45 27 -105.5 53.5t-146.5 26.5q-102 0 -161.5 -45t-59.5 -119q0 -68 50 -112t125.5 -78.5t163 -70.5t163 -87t125.5 -127t50 -190q0 -82 -27.5 -156t-80.5 -130.5t-131 -94t-178 -45.5l-15 -70 q63 -8 106.5 -46t43.5 -110q0 -51 -19.5 -85t-50 -55.5t-70.5 -30.5t-81 -9q-16 0 -37 2t-38 9t-29.5 20.5t-12.5 38.5q0 35 13.5 53t29.5 18q14 0 25.5 -3t25.5 -3q33 0 54.5 14.5t21.5 45.5q0 29 -25.5 42t-66.5 17q-47 4 -31 63l23 89q-66 6 -124.5 22t-106.5 36.5 t-85 43t-61 41.5q-25 23 -34 50.5z" />
<glyph unicode="&#x15f;" horiz-adv-x="919" d="M65 133q-4 31 19 66l25 37q23 33 50 36.5t66 -16.5q37 -20 95.5 -46t138.5 -26q68 0 106.5 29t38.5 78q0 43 -38 68.5t-96 47t-124.5 46t-125 61.5t-96.5 94.5t-38 147.5q0 76 32 135t86 98t126.5 59.5t154.5 20.5q104 0 177 -26.5t114 -49.5q35 -18 41 -49t-10 -65 l-21 -37q-18 -37 -46.5 -43t-67.5 10q-35 16 -84 33.5t-115 17.5q-68 0 -104.5 -26.5t-36.5 -75.5q0 -43 38 -69.5t96 -47t124.5 -44.5t125 -60.5t96.5 -94t38 -145.5q0 -129 -93 -217t-251 -103l-14 -67q63 -8 106 -46t43 -110q0 -51 -19.5 -85t-50 -55.5t-70.5 -30.5 t-81 -9q-16 0 -37 2t-38 9t-29.5 20.5t-12.5 38.5q0 35 13.5 53t29.5 18q14 0 25.5 -3t25.5 -3q33 0 54.5 14.5t21.5 45.5q0 29 -25.5 42t-66.5 17q-47 4 -31 63l25 91q-96 10 -163 40.5t-108 59.5q-35 20 -39 51z" />
<glyph unicode="&#x160;" horiz-adv-x="1124" d="M83 173.5q-9 27.5 21 68.5l46 65q25 35 52 38t66 -19q18 -12 46 -31t66 -35t84 -28.5t99 -12.5q102 0 159.5 46t57.5 120q0 70 -50 115t-126 81.5t-163 73.5t-162.5 88.5t-126 126t-50.5 187.5q0 96 38 174t103.5 133t154.5 85t194 30q63 0 121.5 -11.5t106.5 -28t86 -36 t61 -35.5q66 -47 26 -117l-37 -67q-23 -45 -53.5 -45t-62.5 16q-45 27 -105.5 53.5t-146.5 26.5q-102 0 -161.5 -45t-59.5 -119q0 -68 50 -112t125.5 -78.5t163 -70.5t163 -87t125.5 -127t50 -190q0 -88 -32.5 -167t-94 -137.5t-150.5 -92.5t-204 -34q-78 0 -147.5 15.5 t-127 38t-101 48.5t-70.5 46q-25 23 -34 50.5zM294.5 1799q10.5 30 55.5 30h53q35 0 53.5 -13.5t35.5 -43.5l69 -109h4l68 109q18 31 35.5 44t54.5 13h53q45 0 55.5 -30t-18.5 -73l-82 -120q-37 -55 -104 -56h-127q-68 0 -105 56l-82 120q-29 43 -18.5 73z" />
<glyph unicode="&#x161;" horiz-adv-x="915" d="M65 133q-4 31 19 66l25 37q23 33 50 36.5t66 -16.5q37 -20 95.5 -46t138.5 -26q68 0 106.5 29t38.5 78q0 43 -38 68.5t-96 47t-124.5 46t-125 61.5t-96.5 94.5t-38 147.5q0 76 32 135t86 98t126.5 59.5t154.5 20.5q104 0 177 -26.5t114 -49.5q35 -18 41 -49t-10 -65 l-21 -37q-18 -37 -46.5 -43t-67.5 10q-35 16 -84 33.5t-115 17.5q-68 0 -104.5 -26.5t-36.5 -75.5q0 -43 38 -69.5t96 -47t124.5 -44.5t125 -60.5t96.5 -94t38 -145.5q0 -70 -27.5 -128t-80 -101t-126 -68t-163.5 -25q-127 0 -214.5 37t-134.5 70q-35 20 -39 51z M186.5 1424.5q10.5 29.5 55.5 29.5h53q35 0 53.5 -13.5t34.5 -43.5l70 -109h4l67 109q18 31 36 44t54 13h54q45 0 55 -29.5t-18 -72.5l-82 -121q-37 -55 -105 -55h-127q-68 0 -104 55l-82 121q-29 43 -18.5 72.5z" />
<glyph unicode="&#x162;" horiz-adv-x="1239" d="M12 1311v57q0 86 86 86h1045q84 0 84 -86v-57q0 -84 -84 -84h-391v-1141q0 -80 -74 -86l-19 -90q63 -8 106.5 -46t43.5 -110q0 -51 -19.5 -85t-50 -55.5t-70.5 -30.5t-81 -9q-16 0 -37 2t-38 9t-29.5 20.5t-12.5 38.5q0 35 13.5 53t29.5 18q14 0 25.5 -3t25.5 -3 q33 0 54.5 14.5t21.5 45.5q0 29 -25.5 42t-66.5 17q-47 4 -31 63l31 111q-59 12 -60 84v1141h-391q-86 0 -86 84z" />
<glyph unicode="&#x163;" horiz-adv-x="749" d="M49 909v35q0 86 86 86h60v213q0 86 86 86h81q86 0 87 -86v-213h151q86 0 86 -86v-35q0 -86 -84 -86h-153v-405q0 -59 16 -95t40.5 -57.5t54.5 -31t56 -11.5q47 -4 66.5 -22.5t19.5 -61.5v-63q0 -47 -26.5 -66.5t-79.5 -19.5q-25 0 -49.5 3t-50.5 7l-19 -90 q63 -8 106.5 -46t43.5 -110q0 -51 -19.5 -85t-50.5 -55.5t-71 -30.5t-80 -9q-16 0 -37 2t-38.5 9t-29.5 20.5t-12 38.5q0 35 13 53t30 18q14 0 25.5 -3t25.5 -3q33 0 54.5 14.5t21.5 45.5q0 29 -25.5 42t-66.5 17q-47 4 -31 63l41 150q-80 41 -134.5 122t-54.5 210v450h-55 q-84 0 -84 86z" />
<glyph unicode="&#x164;" horiz-adv-x="1239" d="M12 1311v57q0 86 86 86h1045q84 0 84 -86v-57q0 -84 -84 -84h-391v-1141q0 -86 -86 -86h-93q-84 0 -84 86v1141h-391q-86 0 -86 84zM350 1799q10 30 56 30h53q35 0 53 -13.5t35 -43.5l69 -109h5l67 109q18 31 35.5 44t54.5 13h53q45 0 55.5 -30t-18.5 -73l-82 -120 q-37 -55 -104 -56h-127q-68 0 -104 56l-82 120q-29 43 -19 73z" />
<glyph unicode="&#x165;" horiz-adv-x="745" d="M47 909v35q0 86 86 86h60v213q0 86 86 86h81q86 0 86 -86v-213h152q86 0 86 -86v-35q0 -86 -84 -86h-154v-405q0 -59 16.5 -95t41 -57.5t54.5 -31t56 -11.5q47 -4 66.5 -22.5t19.5 -61.5v-63q0 -47 -26.5 -66.5t-79.5 -19.5q-70 0 -142.5 20.5t-131 65.5t-96.5 117.5 t-38 179.5v450h-55q-84 0 -84 86zM551 1159q0 27 11 54.5t11 80.5q0 35 -5 53.5t-5 47.5q0 31 20.5 42t55.5 11h41q59 0 78.5 -39t19.5 -86q0 -43 -10 -81t-27.5 -66.5t-41 -46t-50.5 -17.5h-22q-76 0 -76 47z" />
<glyph unicode="&#x166;" horiz-adv-x="1243" d="M12 1311v57q0 86 86 86h1045q86 0 86 -86v-57q0 -84 -86 -84h-391v-426h233q86 0 86 -84v-27q0 -86 -86 -86h-233v-518q0 -86 -84 -86h-95q-84 0 -84 86v518h-223q-86 0 -86 86v27q0 84 86 84h223v426h-391q-86 0 -86 84z" />
<glyph unicode="&#x167;" horiz-adv-x="749" d="M49 582v24q0 86 84 86h55v146h-55q-84 0 -84 84v22q0 86 84 86h62v213q0 86 84 86h83q84 0 84 -86v-213h154q84 0 84 -86v-22q0 -84 -82 -84h-156v-146h154q84 0 84 -86v-24q0 -84 -82 -84h-156v-92q0 -55 16.5 -89t41 -54.5t54.5 -29t56 -10.5q47 -4 67.5 -22.5 t20.5 -61.5v-63q0 -47 -26.5 -66.5t-79.5 -19.5q-70 0 -142.5 20.5t-131 65.5t-96.5 117.5t-38 179.5v125h-55q-84 0 -84 84z" />
<glyph unicode="&#x168;" horiz-adv-x="1472" d="M152 522v846q0 86 84 86h92q86 0 86 -86v-844q0 -147 87 -227t234 -80t235.5 80t88.5 227v844q0 86 84 86h94q84 0 84 -86v-846q0 -123 -42 -223t-119 -172t-184.5 -112t-238.5 -40q-133 0 -240.5 40t-184 112t-118.5 172t-42 223zM373 1630q0 41 15 78t42 64.5t64.5 44 t85.5 16.5q57 0 96 -20.5t69.5 -46t56 -46t58.5 -20.5q35 0 51.5 22.5t20.5 57.5q4 47 74 47h20q76 0 76 -70q0 -94 -57.5 -152.5t-149.5 -58.5q-59 0 -98 20.5t-69 46t-55.5 46t-58.5 20.5q-35 0 -54 -23.5t-23 -58.5q-6 -45 -70 -45h-21q-74 0 -73 78z" />
<glyph unicode="&#x169;" horiz-adv-x="1216" d="M115 373v585q0 86 86 86h88q86 0 86 -86v-532q0 -96 32.5 -154.5t129.5 -58.5q70 0 125 28.5t92 78t56 113t19 132.5v393q0 86 86 86h89q86 0 86 -86v-872q0 -86 -86 -86h-80q-84 0 -84 86v61v18.5t2 14.5q0 8 2 15h-4q-18 -41 -52 -80t-81.5 -70t-104.5 -50.5 t-125 -19.5q-168 0 -265 92.5t-97 305.5zM238 1255q0 41 15 78t42 64.5t64.5 44t84.5 16.5q57 0 96.5 -20.5t70 -46t56 -46t58.5 -20.5q35 0 51.5 22.5t20.5 57.5q4 47 73 47h21q76 0 76 -70q0 -94 -57.5 -152.5t-149.5 -58.5q-59 0 -98 20.5t-69 46.5t-55.5 46.5 t-58.5 20.5q-35 0 -54 -24t-24 -58q-6 -45 -69 -45h-21q-74 0 -73 77z" />
<glyph unicode="&#x16a;" horiz-adv-x="1472" d="M152 522v846q0 86 84 86h92q86 0 86 -86v-844q0 -147 87 -227t234 -80t235.5 80t88.5 227v844q0 86 84 86h94q84 0 84 -86v-846q0 -123 -42 -223t-119 -172t-184.5 -112t-238.5 -40q-133 0 -240.5 40t-184 112t-118.5 172t-42 223zM469 1686v14q0 82 84 82h367 q86 0 86 -82v-14q0 -82 -86 -82h-367q-84 0 -84 82z" />
<glyph unicode="&#x16b;" horiz-adv-x="1216" d="M115 373v585q0 86 86 86h88q86 0 86 -86v-532q0 -96 32.5 -154.5t129.5 -58.5q70 0 125 28.5t92 78t56 113t19 132.5v393q0 86 86 86h89q86 0 86 -86v-872q0 -86 -86 -86h-80q-84 0 -84 86v61v18.5t2 14.5q0 8 2 15h-4q-18 -41 -52 -80t-81.5 -70t-104.5 -50.5 t-125 -19.5q-168 0 -265 92.5t-97 305.5zM334 1311v14q0 82 84 82h366q86 0 86 -82v-14q0 -82 -86 -82h-366q-84 0 -84 82z" />
<glyph unicode="&#x16c;" horiz-adv-x="1472" d="M152 522v846q0 86 84 86h92q86 0 86 -86v-844q0 -147 87 -227t234 -80t235.5 80t88.5 227v844q0 86 84 86h94q84 0 84 -86v-846q0 -123 -42 -223t-119 -172t-184.5 -112t-238.5 -40q-133 0 -240.5 40t-184 112t-118.5 172t-42 223zM434 1778q0 51 72 51h39q39 0 54 -17.5 t19 -39.5q10 -49 42 -69t75 -20q41 0 73 19.5t42 69.5q6 20 20.5 38.5t53.5 18.5h39q41 0 57 -13.5t16 -37.5q0 -53 -26.5 -97.5t-68.5 -75t-96.5 -47t-109.5 -16.5t-108.5 17.5t-96.5 48t-69.5 73.5t-26.5 97z" />
<glyph unicode="&#x16d;" horiz-adv-x="1216" d="M115 373v585q0 86 86 86h88q86 0 86 -86v-532q0 -96 32.5 -154.5t129.5 -58.5q70 0 125 28.5t92 78t56 113t19 132.5v393q0 86 86 86h89q86 0 86 -86v-872q0 -86 -86 -86h-80q-84 0 -84 86v61v18.5t2 14.5q0 8 2 15h-4q-18 -41 -52 -80t-81.5 -70t-104.5 -50.5 t-125 -19.5q-168 0 -265 92.5t-97 305.5zM301 1403q0 51 72 51h39q39 0 54 -17.5t19 -39.5q10 -49 42 -68.5t75 -19.5q41 0 73 19.5t42 68.5q6 20 20.5 38.5t53.5 18.5h38q41 0 57.5 -13.5t16.5 -37.5q0 -53 -26.5 -97t-68.5 -75t-96.5 -47.5t-109.5 -16.5t-108.5 17.5 t-96.5 48.5t-69.5 74t-26.5 96z" />
<glyph unicode="&#x16e;" horiz-adv-x="1472" d="M152 522v846q0 86 84 86h92q86 0 86 -86v-844q0 -147 87 -227t234 -80t235.5 80t88.5 227v844q0 86 84 86h94q84 0 84 -86v-846q0 -123 -42 -223t-119 -172t-184.5 -112t-238.5 -40q-133 0 -240.5 40t-184 112t-118.5 172t-42 223zM541 1686q0 39 16 69.5t44 51 t62.5 30.5t71.5 10t71 -10t61.5 -30.5t44 -51.5t16.5 -69q0 -39 -16.5 -69t-44 -50.5t-61.5 -30.5t-71 -10t-71.5 10t-62.5 30.5t-44 50.5t-16 69zM666 1686q0 -31 18 -50.5t51 -19.5q31 0 50.5 19.5t19.5 50.5q0 33 -19.5 52t-50.5 19t-50 -19.5t-19 -51.5z" />
<glyph unicode="&#x16f;" horiz-adv-x="1216" d="M115 373v585q0 86 86 86h88q86 0 86 -86v-532q0 -96 32.5 -154.5t129.5 -58.5q70 0 125 28.5t92 78t56 113t19 132.5v393q0 86 86 86h89q86 0 86 -86v-872q0 -86 -86 -86h-80q-84 0 -84 86v61v18.5t2 14.5q0 8 2 15h-4q-18 -41 -52 -80t-81.5 -70t-104.5 -50.5 t-125 -19.5q-168 0 -265 92.5t-97 305.5zM408 1311q0 39 16 69.5t44 51t62.5 31t71.5 10.5t71 -10.5t61.5 -31t44 -51t16.5 -69.5t-16.5 -69t-44 -50.5t-61.5 -30.5t-71 -10t-71.5 10t-62.5 30.5t-44 50.5t-16 69zM532 1311q0 -31 18.5 -50.5t51.5 -19.5q31 0 50.5 19.5 t19.5 50.5q0 33 -19.5 52t-50.5 19t-50.5 -19.5t-19.5 -51.5z" />
<glyph unicode="&#x170;" horiz-adv-x="1472" d="M152 522v846q0 86 84 86h92q86 0 86 -86v-844q0 -147 87 -227t234 -80t235.5 80t88.5 227v844q0 86 84 86h94q84 0 84 -86v-846q0 -123 -42 -223t-119 -172t-184.5 -112t-238.5 -40q-133 0 -240.5 40t-184 112t-118.5 172t-42 223zM467 1579q-14 29 8 72l64 116 q29 61 100 62h43q49 0 63.5 -27.5t-10.5 -72.5l-63 -117q-35 -61 -101 -62h-39q-51 0 -65 29zM827.5 1579q-12.5 29 10.5 74l67 116q35 59 101 60h63q55 0 66.5 -31t-21.5 -72l-92 -124q-23 -27 -46.5 -39.5t-57.5 -12.5h-27q-51 0 -63.5 29z" />
<glyph unicode="&#x171;" horiz-adv-x="1216" d="M115 373v585q0 86 86 86h88q86 0 86 -86v-532q0 -96 32.5 -154.5t129.5 -58.5q70 0 125 28.5t92 78t56 113t19 132.5v393q0 86 86 86h89q86 0 86 -86v-872q0 -86 -86 -86h-80q-84 0 -84 86v61v18.5t2 14.5q0 8 2 15h-4q-18 -41 -52 -80t-81.5 -70t-104.5 -50.5 t-125 -19.5q-168 0 -265 92.5t-97 305.5zM333.5 1204.5q-14.5 28.5 8.5 71.5l64 117q29 61 100 61h43q49 0 63.5 -27.5t-10.5 -72.5l-63 -117q-35 -61 -101 -61h-39q-51 0 -65.5 28.5zM694.5 1204.5q-12.5 28.5 10.5 73.5l67 117q35 59 100 59h64q55 0 66.5 -30.5 t-21.5 -71.5l-92 -125q-23 -27 -46.5 -39t-58.5 -12h-26q-51 0 -63.5 28.5z" />
<glyph unicode="&#x172;" horiz-adv-x="1472" d="M152 522v846q0 86 84 86h92q86 0 86 -86v-844q0 -147 87 -227t234 -80t235.5 80t88.5 227v844q0 86 84 86h94q84 0 84 -86v-846q0 -94 -21.5 -164.5t-56.5 -125t-81 -95.5t-95 -78q-25 -16 -62.5 -42.5t-71.5 -57.5t-58.5 -63.5t-24.5 -59.5q0 -33 24.5 -47t47.5 -25 q41 -16 30 -79l-6 -43q-4 -33 -26.5 -47.5t-51.5 -10.5q-33 4 -71.5 17.5t-72.5 37t-56.5 58.5t-22.5 82q0 59 33 109.5t74 86.5q-133 -2 -244 36t-189.5 111t-122.5 174t-44 226z" />
<glyph unicode="&#x173;" horiz-adv-x="1216" d="M115 373v585q0 86 86 86h88q86 0 86 -86v-532q0 -96 32.5 -154.5t129.5 -58.5q70 0 125 28.5t92 78t56 113t19 132.5v393q0 86 86 86h89q86 0 86 -86v-872q0 -39 -23 -66.5t-48.5 -54t-48 -56.5t-22.5 -73q0 -33 24.5 -47t47.5 -25q41 -16 31 -79l-7 -43 q-4 -33 -27.5 -47.5t-51.5 -10.5q-33 4 -71 17.5t-72 37t-56.5 58.5t-22.5 82q0 37 12.5 70.5t32 64.5t43 56.5t43.5 43.5q-35 20 -34 72v61v18.5t2 14.5q0 8 2 15h-4q-18 -41 -52 -80t-81.5 -70t-104.5 -50.5t-125 -19.5q-168 0 -265 92.5t-97 305.5z" />
<glyph unicode="&#x174;" horiz-adv-x="1966" d="M72 1360q-10 43 8 68.5t65 25.5h103q74 0 92 -76l211 -929q6 -31 10 -59t8 -50q4 -25 4 -45h5q2 20 6 45q6 45 24 109l242 931q20 74 96 74h70q76 0 92 -74l240 -931q8 -33 14 -60t10 -49q4 -25 6 -45h4q2 20 7 45q4 23 7 50.5t11 58.5l223 929q14 76 94 76h97 q47 0 66.5 -25.5t8.5 -68.5l-333 -1288q-20 -72 -97 -72h-145q-76 0 -94 74l-207 786q-18 72 -29 131q-6 31 -10 60h-6q-4 -29 -10 -60q-4 -29 -11.5 -62.5t-15.5 -68.5l-209 -786q-18 -74 -94 -74h-148q-76 0 -94 74zM717 1580q-10 30 18 75l82 119q37 55 105 55h127 q68 0 104 -55l82 -119q29 -45 18.5 -75t-55.5 -30h-53q-37 0 -54.5 14.5t-35.5 45.5l-68 106h-4l-70 -106q-16 -31 -34.5 -45.5t-53.5 -14.5h-53q-45 0 -55 30z" />
<glyph unicode="&#x175;" horiz-adv-x="1658" d="M45 948q-12 43 7.5 69.5t64.5 26.5h98q78 0 92 -75l168 -611q4 -23 7 -41t7 -34q4 -18 7 -35h4q2 16 6 35q4 16 7 34.5t9 40.5l176 611q14 74 95 73h77q76 0 95 -73l174 -611q6 -23 9 -41t7 -34q4 -18 6 -35h4q2 16 6 35q4 16 7.5 34.5t9.5 40.5l166 611q18 76 94 75h94 q47 0 65.5 -26.5t6.5 -69.5l-268 -876q-20 -72 -97 -72h-137q-78 0 -96 74l-158 522q-6 20 -10 40.5t-8 37.5q-4 18 -6 35h-5q-4 -16 -8 -35q-4 -16 -8 -37t-10 -41l-158 -522q-18 -74 -94 -74h-141q-74 0 -95 72zM561 1205.5q-10 29.5 19 74.5l82 119q37 55 104 55h127 q68 0 104 -55l82 -119q29 -45 18.5 -74.5t-55.5 -29.5h-53q-37 0 -54 14t-36 45l-68 106h-4l-69 -106q-16 -31 -34.5 -45t-53.5 -14h-54q-45 0 -55 29.5z" />
<glyph unicode="&#x176;" horiz-adv-x="1187" d="M27.5 1424.5q17.5 29.5 66.5 29.5h115q68 0 98 -63l197 -365q16 -35 32.5 -68.5t28.5 -62.5q14 -33 27 -64h4q12 31 27 64q12 29 28.5 62.5t32.5 68.5l197 365q31 63 98 63h115q51 0 67.5 -29.5t-8.5 -72.5l-428 -744v-522q0 -86 -84 -86h-92q-86 0 -86 86v522l-426 744 q-27 43 -9.5 72.5zM325.5 1580q-10.5 30 18.5 75l82 119q37 55 104 55h127q68 0 105 -55l82 -119q29 -45 18.5 -75t-55.5 -30h-53q-37 0 -54.5 14.5t-35.5 45.5l-68 106h-4l-70 -106q-16 -31 -34.5 -45.5t-53.5 -14.5h-53q-45 0 -55.5 30z" />
<glyph unicode="&#x177;" horiz-adv-x="1052" d="M21 1016.5q18 27.5 67 27.5h111q72 0 96 -69l197 -533q6 -23 13 -46t13 -46q8 -25 12 -49h5q4 25 10 47q4 20 11 44t13 46l185 535q20 72 96 71h102q47 0 66.5 -26.5t3.5 -71.5l-430 -1102q-27 -72 -68 -123t-90 -84.5t-105.5 -50t-113.5 -16.5q-43 0 -80 10t-65 21 q-37 14 -46.5 44.5t7.5 65.5l18 45q16 35 41 44.5t51 2.5q14 -6 33 -12t41 -6q57 0 100 42t66 97l39 92l-397 928q-20 45 -2 72.5zM264 1203.5q-10 29.5 19 74.5l82 119q37 55 104 55h127q68 0 104 -55l82 -119q29 -45 19 -74.5t-56 -29.5h-53q-37 0 -54 14t-36 45l-67 106 h-5l-69 -106q-16 -31 -34.5 -45t-53.5 -14h-54q-45 0 -55 29.5z" />
<glyph unicode="&#x178;" horiz-adv-x="1187" d="M27.5 1424.5q17.5 29.5 66.5 29.5h115q68 0 98 -63l197 -365q16 -35 32.5 -68.5t28.5 -62.5q14 -33 27 -64h4q12 31 27 64q12 29 28.5 62.5t32.5 68.5l197 365q31 63 98 63h115q51 0 67.5 -29.5t-8.5 -72.5l-428 -744v-522q0 -86 -84 -86h-92q-86 0 -86 86v522l-426 744 q-27 43 -9.5 72.5zM303 1677v68q0 84 86 84h29q86 0 86 -84v-68q0 -86 -86 -86h-29q-86 0 -86 86zM680 1677v68q0 84 84 84h31q84 0 84 -84v-68q0 -86 -84 -86h-31q-84 0 -84 86z" />
<glyph unicode="&#x179;" horiz-adv-x="1230" d="M63 86v25q0 59 35 108l611 877q47 66 73 96q16 20 33 35v4q-12 -2 -29 -2q-14 -2 -34.5 -2h-44.5h-525q-86 0 -86 84v57q0 86 86 86h881q84 0 84 -84v-24q0 -33 -7 -57.5t-26 -51.5l-612 -879q-23 -33 -42.5 -56t-33.5 -40q-18 -20 -31 -35v-4q12 0 29 2q14 0 33.5 1 t46.5 1h567q86 0 86 -84v-57q0 -86 -86 -86h-921q-86 0 -87 86zM567.5 1578q-14.5 28 7.5 69l72 122q35 59 101 60h73q55 0 67.5 -31t-22.5 -72l-92 -124q-23 -27 -46 -39.5t-58 -12.5h-43q-45 0 -59.5 28z" />
<glyph unicode="&#x17a;" horiz-adv-x="1044" d="M57 70v20q0 33 8.5 52.5t28.5 43.5l432 541q18 23 33.5 40t28.5 30l26 26v4q-8 -2 -22 -2q-12 -2 -30.5 -2h-43.5h-354q-86 0 -86 86v49q0 86 86 86h717q86 0 86 -69v-21q0 -33 -8.5 -52t-28.5 -44l-432 -543q-18 -23 -35 -40l-29 -29l-26 -27v-4q10 0 24 2q12 2 29.5 3 t44.5 1h389q86 0 86 -86v-49q0 -86 -86 -86h-752q-86 0 -86 70zM442.5 1203.5q-14.5 27.5 8.5 68.5l71 123q35 59 101 59h73q55 0 67.5 -30.5t-22.5 -71.5l-92 -125q-23 -27 -46 -39t-58 -12h-43q-45 0 -59.5 27.5z" />
<glyph unicode="&#x17b;" horiz-adv-x="1230" d="M63 86v25q0 59 35 108l611 877q47 66 73 96q16 20 33 35v4q-12 -2 -29 -2q-14 -2 -34.5 -2h-44.5h-525q-86 0 -86 84v57q0 86 86 86h881q84 0 84 -84v-24q0 -33 -7 -57.5t-26 -51.5l-612 -879q-23 -33 -42.5 -56t-33.5 -40q-18 -20 -31 -35v-4q12 0 29 2q14 0 33.5 1 t46.5 1h567q86 0 86 -84v-57q0 -86 -86 -86h-921q-86 0 -87 86zM526 1688v57q0 84 84 84h54q84 0 84 -84v-57q0 -86 -84 -86h-54q-84 0 -84 86z" />
<glyph unicode="&#x17c;" horiz-adv-x="1044" d="M57 70v20q0 33 8.5 52.5t28.5 43.5l432 541q18 23 33.5 40t28.5 30l26 26v4q-8 -2 -22 -2q-12 -2 -30.5 -2h-43.5h-354q-86 0 -86 86v49q0 86 86 86h717q86 0 86 -69v-21q0 -33 -8.5 -52t-28.5 -44l-432 -543q-18 -23 -35 -40l-29 -29l-26 -27v-4q10 0 24 2q12 2 29.5 3 t44.5 1h389q86 0 86 -86v-49q0 -86 -86 -86h-752q-86 0 -86 70zM403 1313v57q0 84 84 84h54q84 0 84 -84v-57q0 -86 -84 -86h-54q-84 0 -84 86z" />
<glyph unicode="&#x17d;" horiz-adv-x="1230" d="M63 86v25q0 59 35 108l611 877q47 66 73 96q16 20 33 35v4q-12 -2 -29 -2q-14 -2 -34.5 -2h-44.5h-525q-86 0 -86 84v57q0 86 86 86h881q84 0 84 -84v-24q0 -33 -7 -57.5t-26 -51.5l-612 -879q-23 -33 -42.5 -56t-33.5 -40q-18 -20 -31 -35v-4q12 0 29 2q14 0 33.5 1 t46.5 1h567q86 0 86 -84v-57q0 -86 -86 -86h-921q-86 0 -87 86zM368.5 1799q10.5 30 55.5 30h53q35 0 53.5 -13.5t34.5 -43.5l70 -109h4l68 109q18 31 35.5 44t54.5 13h53q45 0 55 -30t-18 -73l-82 -120q-37 -55 -105 -56h-127q-68 0 -104 56l-82 120q-29 43 -18.5 73z" />
<glyph unicode="&#x17e;" horiz-adv-x="1044" d="M57 70v20q0 33 8.5 52.5t28.5 43.5l432 541q18 23 33.5 40t28.5 30l26 26v4q-8 -2 -22 -2q-12 -2 -30.5 -2h-43.5h-354q-86 0 -86 86v49q0 86 86 86h717q86 0 86 -69v-21q0 -33 -8.5 -52t-28.5 -44l-432 -543q-18 -23 -35 -40l-29 -29l-26 -27v-4q10 0 24 2q12 2 29.5 3 t44.5 1h389q86 0 86 -86v-49q0 -86 -86 -86h-752q-86 0 -86 70zM243.5 1424.5q10.5 29.5 55.5 29.5h53q35 0 53.5 -13.5t34.5 -43.5l70 -109h4l68 109q18 31 35.5 44t54.5 13h53q45 0 55.5 -29.5t-18.5 -72.5l-82 -121q-37 -55 -105 -55h-126q-68 0 -105 55l-82 121 q-29 43 -18.5 72.5z" />
<glyph unicode="&#x17f;" horiz-adv-x="573" d="M49 909v35q0 86 84 86h51v49q0 125 47.5 200t113 116t132 54t107.5 13h30q84 0 84 -86v-53q0 -78 -88 -84q-25 -2 -53.5 -7t-53 -22.5t-42 -50.5t-17.5 -90v-983q0 -86 -86 -86h-90q-84 0 -84 86v737h-51q-84 0 -84 86z" />
<glyph unicode="&#x192;" horiz-adv-x="825" d="M-94 -94q0 90 78 80q14 0 28.5 -1t30.5 -1q27 0 62.5 6t67.5 25.5t56.5 57.5t30.5 99l43 512h-65q-86 0 -86 86v35q0 86 86 86h84l18 199q12 129 65.5 205.5t122 117.5t143 53.5t130.5 12.5q25 0 49 -2t47 -4q80 -10 80 -91v-51q0 -90 -64 -84q-23 4 -49 6t-47 2 q-29 0 -64.5 -6t-67.5 -26.5t-56.5 -58.5t-30.5 -99l-16 -174h137q84 0 84 -86v-35q0 -86 -82 -86h-158l-47 -537q-12 -129 -64.5 -205.5t-121 -116.5t-142 -52.5t-129.5 -12.5q-20 0 -38.5 1t-34.5 3q-80 6 -80 91v51z" />
<glyph unicode="&#x218;" horiz-adv-x="1124" d="M83 173.5q-9 27.5 21 68.5l46 65q25 35 52 38t66 -19q18 -12 46 -31t66 -35t84 -28.5t99 -12.5q102 0 159.5 46t57.5 120q0 70 -50 115t-126 81.5t-163 73.5t-162.5 88.5t-126 126t-50.5 187.5q0 96 38 174t103.5 133t154.5 85t194 30q63 0 121.5 -11.5t106.5 -28t86 -36 t61 -35.5q66 -47 26 -117l-37 -67q-23 -45 -53.5 -45t-62.5 16q-45 27 -105.5 53.5t-146.5 26.5q-102 0 -161.5 -45t-59.5 -119q0 -68 50 -112t125.5 -78.5t163 -70.5t163 -87t125.5 -127t50 -190q0 -88 -32.5 -167t-94 -137.5t-150.5 -92.5t-204 -34q-78 0 -147.5 15.5 t-127 38t-101 48.5t-70.5 46q-25 23 -34 50.5zM434 -401q0 27 11.5 54.5t11.5 80.5q0 35 -5.5 53t-5.5 47q0 31 20.5 42t55.5 11h41q59 0 79 -38.5t20 -86.5q0 -43 -10.5 -80.5t-28 -66.5t-41 -46.5t-50.5 -17.5h-22q-76 0 -76 48z" />
<glyph unicode="&#x219;" horiz-adv-x="915" d="M65 133q-4 31 19 66l25 37q23 33 50 36.5t66 -16.5q37 -20 95.5 -46t138.5 -26q68 0 106.5 29t38.5 78q0 43 -38 68.5t-96 47t-124.5 46t-125 61.5t-96.5 94.5t-38 147.5q0 76 32 135t86 98t126.5 59.5t154.5 20.5q104 0 177 -26.5t114 -49.5q35 -18 41 -49t-10 -65 l-21 -37q-18 -37 -46.5 -43t-67.5 10q-35 16 -84 33.5t-115 17.5q-68 0 -104.5 -26.5t-36.5 -75.5q0 -43 38 -69.5t96 -47t124.5 -44.5t125 -60.5t96.5 -94t38 -145.5q0 -70 -27.5 -128t-80 -101t-126 -68t-163.5 -25q-127 0 -214.5 37t-134.5 70q-35 20 -39 51zM330 -401 q0 27 11 54.5t11 80.5q0 35 -5 53t-5 47q0 31 20.5 42t55.5 11h41q59 0 78.5 -38.5t19.5 -86.5q0 -43 -10 -80.5t-27.5 -66.5t-41 -46.5t-50.5 -17.5h-22q-76 0 -76 48z" />
<glyph unicode="&#x21a;" horiz-adv-x="1241" d="M12 1311v57q0 86 86 86h1045q84 0 84 -86v-57q0 -84 -84 -84h-391v-1141q0 -86 -86 -86h-93q-84 0 -84 86v1141h-391q-86 0 -86 84zM504 -401q0 27 11 54.5t11 80.5q0 35 -5 53t-5 47q0 31 20.5 42t55.5 11h41q59 0 78.5 -38.5t19.5 -86.5q0 -43 -10 -80.5t-27.5 -66.5 t-41 -46.5t-50.5 -17.5h-22q-76 0 -76 48z" />
<glyph unicode="&#x21b;" horiz-adv-x="745" d="M47 909v35q0 86 86 86h60v213q0 86 86 86h81q86 0 86 -86v-213h152q86 0 86 -86v-35q0 -86 -84 -86h-154v-405q0 -59 16.5 -95t41 -57.5t54.5 -31t56 -11.5q47 -4 66.5 -22.5t19.5 -61.5v-63q0 -47 -26.5 -66.5t-79.5 -19.5q-70 0 -142.5 20.5t-131 65.5t-96.5 117.5 t-38 179.5v450h-55q-84 0 -84 86zM291 -401q0 27 11 54.5t11 80.5q0 35 -5 53t-5 47q0 31 20.5 42t55.5 11h41q59 0 78.5 -38.5t19.5 -86.5q0 -43 -10 -80.5t-27.5 -66.5t-41 -46.5t-50.5 -17.5h-22q-76 0 -76 48z" />
<glyph unicode="&#x2c6;" horiz-adv-x="1011" d="M237.5 1580q-10.5 30 18.5 75l82 119q37 55 104 55h127q68 0 105 -55l82 -119q29 -45 18.5 -75t-55.5 -30h-53q-37 0 -54.5 14.5t-36.5 45.5l-67 106h-4l-70 -106q-16 -31 -34.5 -45.5t-53.5 -14.5h-53q-45 0 -55.5 30z" />
<glyph unicode="&#x2da;" horiz-adv-x="1011" d="M311 1686q0 39 16.5 69.5t44 51t62.5 30.5t72 10t70.5 -10t61.5 -30.5t44 -51.5t16 -69q0 -39 -16 -69t-44 -50.5t-61.5 -30.5t-70.5 -10t-72 10t-62.5 30.5t-44 50.5t-16.5 69zM436 1686q0 -31 18.5 -50.5t51.5 -19.5q31 0 50 19.5t19 50.5q0 33 -19 52t-50 19 t-50.5 -19.5t-19.5 -51.5z" />
<glyph unicode="&#x2dc;" horiz-adv-x="1009" d="M141 1630q0 41 15.5 78t42 64.5t64.5 44t85 16.5q57 0 96 -20.5t70 -46t56.5 -46t58.5 -20.5q35 0 51 22.5t20 57.5q4 47 74 47h21q76 0 75 -70q0 -94 -57 -152.5t-149 -58.5q-59 0 -98.5 20.5t-69 46t-55 46t-58.5 20.5q-35 0 -54.5 -23.5t-23.5 -58.5q-6 -45 -69 -45 h-21q-74 0 -74 78z" />
<glyph unicode="&#x2000;" horiz-adv-x="923" />
<glyph unicode="&#x2001;" horiz-adv-x="1847" />
<glyph unicode="&#x2002;" horiz-adv-x="923" />
<glyph unicode="&#x2003;" horiz-adv-x="1847" />
<glyph unicode="&#x2004;" horiz-adv-x="615" />
<glyph unicode="&#x2005;" horiz-adv-x="461" />
<glyph unicode="&#x2006;" horiz-adv-x="307" />
<glyph unicode="&#x2007;" horiz-adv-x="307" />
<glyph unicode="&#x2008;" horiz-adv-x="230" />
<glyph unicode="&#x2009;" horiz-adv-x="369" />
<glyph unicode="&#x200a;" horiz-adv-x="102" />
<glyph unicode="&#x2010;" horiz-adv-x="854" d="M119 557v57q0 84 86 84h444q86 0 86 -84v-57q0 -86 -86 -86h-444q-86 0 -86 86z" />
<glyph unicode="&#x2011;" horiz-adv-x="854" d="M119 557v57q0 84 86 84h444q86 0 86 -84v-57q0 -86 -86 -86h-444q-86 0 -86 86z" />
<glyph unicode="&#x2012;" horiz-adv-x="854" d="M119 557v57q0 84 86 84h444q86 0 86 -84v-57q0 -86 -86 -86h-444q-86 0 -86 86z" />
<glyph unicode="&#x2013;" horiz-adv-x="1374" d="M121 569v31q0 86 84 86h964q84 0 84 -86v-31q0 -86 -84 -86h-964q-84 0 -84 86z" />
<glyph unicode="&#x2014;" horiz-adv-x="1783" d="M121 569v31q0 86 84 86h1374q84 0 84 -86v-31q0 -86 -84 -86h-1374q-84 0 -84 86z" />
<glyph unicode="&#x2018;" horiz-adv-x="444" d="M82 1100l102 311q27 68 99 68h20q47 0 63.5 -24.5t6.5 -68.5l-70 -307q-14 -76 -92 -75h-59q-47 0 -66.5 25.5t-3.5 70.5z" />
<glyph unicode="&#x2019;" horiz-adv-x="440" d="M86 1096l70 307q14 76 92 76h57q47 0 66.5 -26t5.5 -71l-105 -311q-25 -68 -96 -67h-20q-47 0 -63.5 24.5t-6.5 67.5z" />
<glyph unicode="&#x201a;" horiz-adv-x="473" d="M68 -119l69 307q14 76 92 76h60q47 0 66.5 -26.5t2.5 -71.5l-102 -309q-27 -68 -98 -68h-21q-47 0 -63.5 24.5t-5.5 67.5z" />
<glyph unicode="&#x201c;" horiz-adv-x="786" d="M82 1100l102 311q27 68 99 68h22q45 0 61.5 -24.5t8.5 -68.5l-70 -307q-18 -76 -92 -75h-61q-47 0 -66.5 25.5t-3.5 70.5zM424 1100l102 311q27 68 99 68h22q45 0 61.5 -24.5t6.5 -68.5l-68 -307q-18 -76 -94 -75h-59q-47 0 -66.5 25.5t-3.5 70.5z" />
<glyph unicode="&#x201d;" horiz-adv-x="782" d="M86 1096l70 307q14 76 92 76h59q47 0 66.5 -26t3.5 -71l-103 -311q-25 -68 -98 -67h-20q-47 0 -63.5 24.5t-6.5 67.5zM428 1096l70 307q14 76 92 76h59q47 0 66.5 -26t3.5 -71l-103 -311q-25 -68 -98 -67h-20q-47 0 -63.5 24.5t-6.5 67.5z" />
<glyph unicode="&#x201e;" horiz-adv-x="815" d="M68 -119l69 307q14 76 92 76h60q47 0 66.5 -26.5t2.5 -71.5l-102 -309q-23 -68 -96 -68h-23q-47 0 -63.5 24.5t-5.5 67.5zM410 -119l69 307q14 76 92 76h60q47 0 66.5 -26.5t2.5 -71.5l-102 -309q-23 -68 -96 -68h-23q-47 0 -63.5 24.5t-5.5 67.5z" />
<glyph unicode="&#x2026;" horiz-adv-x="1644" d="M113 86v92q0 84 86 84h82q86 0 86 -84v-92q0 -86 -86 -86h-82q-86 0 -86 86zM696 86v92q0 84 84 84h84q86 0 86 -84v-92q0 -86 -86 -86h-84q-84 0 -84 86zM1280 86v92q0 84 84 84h84q84 0 84 -84v-92q0 -86 -84 -86h-84q-84 0 -84 86z" />
<glyph unicode="&#x202f;" horiz-adv-x="369" />
<glyph unicode="&#x2039;" horiz-adv-x="673" d="M100 518q-49 59 0 119l248 313q23 25 46.5 37t58.5 12h51q53 0 68.5 -30.5t-19.5 -73.5l-252 -317l252 -316q35 -43 22.5 -73.5t-63.5 -30.5h-59q-35 0 -58.5 12t-46.5 37z" />
<glyph unicode="&#x203a;" horiz-adv-x="673" d="M98.5 968.5q12.5 30.5 63.5 30.5h59q35 0 58.5 -12t46.5 -37l247 -313q49 -59 0 -119l-247 -311q-23 -25 -46.5 -37t-58.5 -12h-51q-53 0 -68.5 30.5t19.5 73.5l252 316l-252 317q-35 43 -22.5 73.5z" />
<glyph unicode="&#x205f;" horiz-adv-x="461" />
<glyph unicode="&#x20ac;" horiz-adv-x="1234" d="M76 590q0 39 16.5 58.5t61.5 19.5h36q-4 25 -5 60.5t3 66.5h-32q-43 0 -61.5 20.5t-18.5 58.5q0 39 17.5 58.5t62.5 19.5h61q33 115 99.5 212.5t157.5 167t204 108.5t240 39q37 0 70.5 -3t60.5 -8q43 -6 59 -33.5t6 -68.5l-20 -76q-20 -76 -86 -65q-18 4 -44 6t-53 2 q-147 0 -255.5 -76t-155.5 -205h426q51 0 69.5 -19.5t10.5 -60.5t-29 -59t-66 -18h-448q-10 -61 0 -127h407q96 0 80 -80q-10 -41 -29.5 -58.5t-64.5 -17.5h-346q49 -131 158.5 -209t253.5 -78q31 0 57.5 2t48.5 6q41 6 66.5 -8t31.5 -55l17 -78q8 -39 -8.5 -65.5 t-57.5 -34.5q-29 -6 -70.5 -11.5t-88.5 -5.5q-133 0 -247 39t-204 110t-154.5 170t-95.5 218h-63q-45 0 -61.5 19.5t-16.5 58.5z" />
<glyph unicode="&#x2122;" horiz-adv-x="2000" d="M80 1362v12q0 80 84 80h631q86 0 86 -80v-12q0 -80 -86 -80h-217v-651q0 -84 -84 -84h-25q-86 0 -86 84v651h-219q-84 0 -84 80zM942 635l59 737q6 82 89 82h28q72 0 99 -65l159 -363q4 -14 9.5 -28.5t9.5 -26.5q4 -14 8 -31h4q2 16 8 31q4 12 9.5 26.5t11.5 28.5 l159 363q27 66 99 65h28q82 0 88 -82l58 -737q4 -88 -82 -88h-27q-80 0 -86 82l-28 385q-2 10 -1 21.5t1 21.5t2 20h-5l-133 -299q-27 -66 -98 -65h-12q-70 0 -96 65l-134 299h-4q2 -10 2 -20v-43l-30 -385q-6 -82 -88 -82h-25q-88 0 -82 88z" />
<glyph unicode="&#x25fc;" horiz-adv-x="1044" d="M0 0v1044h1044v-1044h-1044z" />
</font>
</defs>
</svg>
