<?xml version="1.0" standalone="no"?>
<!DOCTYPE svg PUBLIC "-//W3C//DTD SVG 1.1//EN" "http://www.w3.org/Graphics/SVG/1.1/DTD/svg11.dtd" >
<svg xmlns="http://www.w3.org/2000/svg">
<metadata></metadata>
<defs>
<font id="museosansroundedw03-1000Rg" horiz-adv-x="657" >
<font-face units-per-em="2048" ascent="1638" descent="-410" />
<missing-glyph horiz-adv-x="512" />
<glyph horiz-adv-x="0" />
<glyph unicode="&#xd;" horiz-adv-x="681" />
<glyph unicode=" "  horiz-adv-x="512" />
<glyph unicode="&#x09;" horiz-adv-x="512" />
<glyph unicode="&#xa0;" horiz-adv-x="512" />
<glyph unicode="!" horiz-adv-x="589" d="M78 1335q-4 59 30.5 98.5t100.5 39.5h172q59 0 97 -35t34 -103l-31 -725q-6 -131 -135 -131h-100q-129 0 -135 131zM106 133v90q0 133 134 133h110q135 0 135 -133v-90q0 -133 -135 -133h-110q-133 0 -134 133z" />
<glyph unicode="&#x22;" horiz-adv-x="858" d="M61 1122v250q0 135 136 135h26q133 0 133 -135v-250q0 -135 -133 -135h-26q-135 0 -136 135zM502 1122v250q0 135 133 135h27q135 0 135 -135v-250q0 -135 -135 -135h-27q-133 0 -133 135z" />
<glyph unicode="#" horiz-adv-x="1384" d="M59 502l4 24q18 123 144 123h55l23 123h-29q-70 0 -100.5 38t-20.5 105l4 27q18 121 142 121h51l51 289q23 121 145 121h56q70 0 101.5 -38t19.5 -106l-48 -266h177l49 289q23 121 147 121h55q70 0 102 -38t19 -106l-47 -266h45q70 0 100.5 -38t20.5 -105l-4 -25 q-18 -123 -143 -123h-68l-23 -123h41q70 0 101 -38t20 -107l-4 -25q-18 -121 -143 -121h-62l-41 -235q-23 -123 -145 -123h-55q-70 0 -101.5 38t-19.5 105l37 215h-176l-39 -235q-23 -123 -146 -123h-57q-70 0 -100.5 38t-20.5 105l37 215h-33q-70 0 -100.5 38t-20.5 106z M588 649h174l24 123h-176z" />
<glyph unicode="$" horiz-adv-x="1191" d="M63 1030q0 170 105.5 292t290.5 161v57q0 135 127 135h10q123 0 123 -108v-76q100 -14 177 -44t112 -52q51 -33 61 -80t-18 -103l-62 -116q-20 -41 -42.5 -57.5t-46 -17.5t-47.5 7t-44 19q-51 23 -97 39t-106 16q-51 0 -81.5 -14.5t-30.5 -47.5q0 -41 48 -67.5t119.5 -54 t154.5 -60.5t154.5 -84t120 -129t48.5 -192q0 -80 -27 -157t-79 -139.5t-131 -107.5t-183 -63v-52q0 -135 -123 -135h-10q-127 0 -127 109v78q-53 8 -102.5 23.5t-92.5 33.5t-77 37t-54 33q-102 76 -27 186l74 109q25 37 51.5 50t51 13t47 -10t39.5 -19q55 -29 109 -50 t116 -21q51 0 83 16t32 49q0 39 -48.5 66.5t-120 55.5t-154.5 61.5t-154.5 86t-120 130t-48.5 194.5z" />
<glyph unicode="%" horiz-adv-x="1835" d="M51 1120q0 76 31 144.5t85 121t127 82t157 29.5q82 0 154.5 -29.5t125.5 -82t85 -121t32 -144.5q0 -80 -32 -148.5t-85 -118.5t-125.5 -80t-154.5 -30q-84 0 -157 30t-127 80t-85 118.5t-31 148.5zM252.5 48q-23.5 48 30.5 116l954 1229q33 41 71 60.5t93 19.5h57 q86 0 109.5 -47.5t-29.5 -114.5l-954 -1231q-33 -41 -71 -60.5t-93 -19.5h-58q-86 0 -109.5 48zM354 1122q0 -39 29 -63.5t68 -24.5q37 0 65.5 24.5t28.5 63.5q0 35 -29 59.5t-65 24.5q-39 0 -68 -24.5t-29 -59.5zM987 350q0 76 31 145.5t85 121t127 82t156 30.5 q82 0 155 -30.5t126 -82t85 -121t32 -145.5q0 -78 -32 -146.5t-85 -119.5t-126 -80t-155 -29q-84 0 -156.5 29t-126.5 80t-85 119.5t-31 146.5zM1292 354q0 -39 28 -63.5t66 -24.5q37 0 66 24.5t29 63.5q0 35 -29 59.5t-66 24.5q-39 0 -66.5 -24.5t-27.5 -59.5z" />
<glyph unicode="&#x26;" horiz-adv-x="1382" d="M47 432q0 111 63.5 204t159.5 138v4q-45 27 -82 70q-31 37 -55 96.5t-24 147.5q0 115 45 192.5t115.5 124.5t159.5 67.5t179 20.5h66q133 0 133 -133v-88q0 -133 -133 -133h-25q-33 0 -53.5 -12.5t-31.5 -30t-15 -38t-4 -38.5q0 -51 31.5 -76.5t62.5 -25.5h135v39 q0 133 135 133h156q133 0 133 -105v-67h45q133 0 133 -134v-100q0 -135 -133 -135h-45v-117q0 -88 -38 -171t-111.5 -147.5t-183 -103.5t-253.5 -39q-131 0 -235.5 36t-178 98.5t-112.5 145.5t-39 177zM487 461q0 -39 39 -66.5t86 -27.5q86 0 124 38.5t38 98.5v49h-166 q-16 0 -36.5 -2t-39 -11.5t-32 -27.5t-13.5 -51z" />
<glyph unicode="'" horiz-adv-x="423" d="M61 1100v272q0 135 134 135h34q133 0 133 -135v-272q0 -133 -133 -133h-34q-133 0 -134 133z" />
<glyph unicode="(" horiz-adv-x="643" d="M51 717q0 199 53.5 384t151.5 359q29 49 67.5 69.5t94.5 20.5h59q80 0 105.5 -43t-9.5 -114q-72 -162 -109.5 -332t-37.5 -342q0 -193 40 -381t118 -375q31 -72 5 -115t-104 -43h-67q-55 0 -91 18.5t-61 61.5q-102 180 -158.5 388t-56.5 444z" />
<glyph unicode=")" horiz-adv-x="641" d="M55 -150q-25 45 8 121q72 184 112 371.5t40 376.5q0 172 -37 342t-110 332q-35 72 -12.5 114.5t100.5 42.5h67q55 0 94 -20.5t68 -69.5q100 -174 152.5 -359.5t52.5 -383.5q0 -233 -54.5 -439t-152.5 -382q-53 -90 -158 -91h-67q-78 0 -103 45z" />
<glyph unicode="*" horiz-adv-x="940" d="M59 1145l25 80q47 133 168 80l55 -33l-10 59q-8 68 25.5 105t101.5 37h86q68 0 101.5 -36t25.5 -102l-14 -63l53 31q61 29 106 10t66 -84l29 -82q41 -133 -91 -160l-69 -8v-4l49 -39q47 -49 41 -98.5t-62 -89.5l-67 -52q-55 -41 -102.5 -30.5t-79.5 67.5l-27 60h-4 l-23 -54q-35 -61 -82 -72.5t-102 29.5l-68 49q-115 82 -22 185l47 43v4l-59 4q-66 16 -92.5 57t-4.5 107z" />
<glyph unicode="+" horiz-adv-x="1306" d="M86 565v49q0 133 133 134h268v301q0 133 136 133h61q135 0 135 -133v-301h268q133 0 134 -134v-49q0 -133 -134 -133h-268v-299q0 -133 -135 -133h-61q-135 0 -136 133v299h-268q-133 0 -133 133z" />
<glyph unicode="," horiz-adv-x="536" d="M18 -63l86 348q27 115 152 114h111q76 0 104.5 -43t-0.5 -112l-143 -355q-41 -104 -154 -104h-41q-72 0 -103.5 40t-11.5 112z" />
<glyph unicode="-" horiz-adv-x="811" d="M74 539v102q0 133 133 133h397q133 0 133 -133v-102q0 -133 -133 -133h-397q-133 0 -133 133z" />
<glyph unicode="." horiz-adv-x="528" d="M68 133v125q0 133 133 133h125q135 0 135 -133v-125q0 -133 -135 -133h-125q-133 0 -133 133z" />
<glyph unicode="/" horiz-adv-x="888" d="M55 66l441 1366q37 111 153 110h74q72 0 102.5 -41t8.5 -112l-441 -1366q-35 -109 -153 -109h-72q-74 0 -104.5 40t-8.5 112z" />
<glyph unicode="0" horiz-adv-x="1265" d="M63 739q0 158 29 296.5t95.5 240.5t176 161.5t269.5 59.5q162 0 270.5 -59.5t175 -161.5t95 -240.5t28.5 -296.5t-28.5 -297t-95 -242.5t-175 -164t-270.5 -60.5q-160 0 -269.5 60.5t-176 164t-95.5 243t-29 296.5zM508 739q0 -76 6 -143.5t20.5 -117.5t38 -79.5 t60.5 -29.5t61.5 29.5t39 79.5t20.5 118t6 143q0 76 -6 142.5t-20.5 116t-39 78t-61.5 28.5t-60.5 -28.5t-38 -78t-20.5 -116t-6 -142.5z" />
<glyph unicode="1" horiz-adv-x="1112" d="M54 1084.5q3 48.5 50 93.5l250 229q39 35 76 50.5t90 15.5h139q135 0 136 -134v-970h178q133 0 133 -133v-103q0 -133 -133 -133h-774q-133 0 -133 133v103q0 133 133 133h174v458v44.5t2 37.5q2 20 4 39h-4l-13 -16q-10 -16 -20 -27q-39 -37 -87 -36t-93 49l-64 71 q-47 47 -44 95.5z" />
<glyph unicode="2" horiz-adv-x="1193" d="M57 133v47q0 137 44 240.5t111 181.5t143.5 134.5t143 100.5t110.5 79.5t44 72.5q0 31 -11 51.5t-28.5 31.5t-36 15.5t-32.5 4.5q-29 0 -56.5 -10.5t-54.5 -34.5q-45 -43 -92 -56.5t-96 27.5l-101 80q-51 41 -61 86t29 94q29 39 71.5 78t100 70.5t132.5 51t169 19.5 q86 0 177 -24.5t168 -80t126 -143.5t49 -215q0 -113 -41 -196.5t-102.5 -147t-133 -111t-135 -84t-107.5 -66.5t-50 -60h456q135 0 135 -133v-103q0 -133 -135 -133h-794q-61 0 -101.5 34t-40.5 99z" />
<glyph unicode="3" horiz-adv-x="1142" d="M43 171q-6 48 27 101l65 109q35 59 80 65.5t102 -28.5q86 -37 168 -37q90 0 129 27.5t39 68.5q0 59 -47 83t-139 24h-55q-53 0 -85 20.5t-59 71.5l-12 22q-23 41 -12.5 85t45.5 89l65 82q29 37 55.5 66t47.5 49q23 23 41 43v4q-14 -4 -37 -6q-37 -6 -111 -6h-151 q-133 0 -133 133v102q0 133 133 134h684q133 0 133 -134v-39q0 -51 -13.5 -88.5t-46.5 -76.5l-204 -236q86 -23 149.5 -65.5t104.5 -98t61 -118t20 -125.5q0 -94 -32.5 -186.5t-101 -166t-176 -119t-257.5 -45.5q-147 0 -249.5 35t-170.5 76q-51 37 -57 85z" />
<glyph unicode="4" horiz-adv-x="1267" d="M6 473v37q0 47 11.5 85t35.5 79l414 710q29 47 66.5 68t93.5 21h297q133 0 133 -134v-645h30q133 0 134 -133v-88q0 -133 -131 -133h-33v-207q0 -133 -133 -133h-160q-133 0 -133 133v207h-492q-133 0 -133 133zM436 694h195v236q0 70 6 119q4 29 8 53h-4 q-12 -29 -23 -58q-10 -25 -22 -54t-27 -54l-133 -238v-4z" />
<glyph unicode="5" horiz-adv-x="1165" d="M65.5 170q-6.5 47 24.5 100l68 111q33 59 78 66.5t104 -27.5q41 -18 87 -28.5t87 -10.5q23 0 49.5 6t50 21.5t39 40t15.5 61.5q0 66 -52.5 99.5t-134.5 33.5q-47 0 -86 -8q-51 -12 -92 -16.5t-88 14.5l-27 10q-109 43 -100 158l35 542q8 129 139 130h598q133 0 133 -134 v-102q0 -133 -133 -133h-352l-4 -66q-2 -10 -2 -19t-2 -18q-2 -8 -2 -18h4q12 0 24 2q10 2 23.5 3t25.5 1q137 0 238.5 -38t168.5 -102.5t98.5 -150.5t31.5 -184q0 -119 -40 -217t-113.5 -170t-177 -112t-228.5 -40q-143 0 -251.5 35t-176.5 78q-53 35 -59.5 82z" />
<glyph unicode="6" horiz-adv-x="1241" d="M55 670q0 164 49.5 314.5t142.5 264t228 181t309 67.5q51 0 114 -6t101 -16q63 -18 83 -63.5t1 -104.5l-36 -117q-23 -72 -60 -85t-94 -7q-27 4 -41 5t-37 1q-111 0 -173 -41t-103 -125h4q23 10 51 18q25 8 59.5 14.5t77.5 6.5q113 0 198 -41t143 -107.5t88 -150.5 t30 -168q0 -90 -33 -184.5t-97.5 -172t-160.5 -128t-225 -50.5q-109 0 -218.5 40t-198.5 124t-145.5 216.5t-56.5 314.5zM498 567q0 -43 14 -82t36.5 -66.5t53.5 -44t62 -16.5q47 0 75.5 34t28.5 93q0 18 -5 46t-24.5 52.5t-56.5 42t-100 17.5q-41 0 -62.5 -13.5 t-21.5 -62.5z" />
<glyph unicode="7" horiz-adv-x="1118" d="M23 1237v102q0 133 135 134h821q133 0 133 -136v-77q0 -47 -8 -85t-31 -81l-508 -996q-27 -53 -64.5 -75.5t-92.5 -22.5h-166q-78 0 -104.5 44t7.5 114l416 815q20 41 37.5 65.5t28.5 40.5q12 18 22 27v4q-8 -2 -18 -4t-24.5 -2h-35.5h-413q-135 0 -135 133z" />
<glyph unicode="8" horiz-adv-x="1243" d="M53 418q0 68 23.5 124t57.5 102t70 79t60 51q-72 55 -112.5 123t-40.5 164q0 80 29.5 157.5t92 139t157.5 100.5t224 39q109 0 205 -28.5t169 -82t116 -130t43 -175.5q0 -59 -15.5 -109t-39 -92t-50 -75t-49.5 -57q86 -53 140.5 -133t54.5 -187q0 -80 -34 -161 t-103.5 -145.5t-176 -105.5t-251.5 -41q-147 0 -255 41t-177.5 105.5t-103.5 142.5t-34 154zM475 479q0 -61 36 -103t114 -42q66 0 98.5 31.5t32.5 78.5q0 20 -9.5 38t-34 36.5t-68.5 40t-114 49.5q-33 -33 -44 -66.5t-11 -62.5zM520 1051q0 -53 41 -86t133 -68 q20 27 33.5 54.5t13.5 66.5q0 57 -28.5 89t-89.5 32q-59 0 -81 -27t-22 -61z" />
<glyph unicode="9" horiz-adv-x="1241" d="M51 963q0 90 32 184t96.5 172t161.5 128t226 50q109 0 218.5 -40t198.5 -125t145.5 -216t56.5 -313q0 -164 -49.5 -314.5t-142.5 -264t-228 -181.5t-309 -68q-51 0 -113.5 6.5t-101.5 16.5q-63 18 -83 63t-1 105l37 117q23 72 58.5 86t94.5 6q27 -4 41 -5t37 -1 q111 0 173.5 41t102.5 125h-4q-23 -12 -51 -21q-25 -8 -59.5 -13t-77.5 -5q-113 0 -198 41t-143 107.5t-88 150.5t-30 168zM473 987q0 -18 5 -46t24.5 -52.5t56.5 -42t100 -17.5q41 0 62.5 13.5t21.5 62.5q0 43 -14 82t-36.5 66.5t-53.5 44t-61 16.5q-47 0 -76 -34t-29 -93z " />
<glyph unicode=":" horiz-adv-x="583" d="M94 133v127q0 135 135 135h127q133 0 133 -135v-127q0 -133 -133 -133h-127q-135 0 -135 133zM94 803v127q0 133 135 133h127q133 0 133 -133v-127q0 -133 -133 -133h-127q-135 0 -135 133z" />
<glyph unicode=";" horiz-adv-x="610" d="M51 -66l78 347q29 119 145 118h119q74 0 103.5 -42t3.5 -111l-131 -352q-23 -55 -59 -82t-95 -27h-45q-70 0 -102.5 39t-16.5 110zM172 805v125q0 133 135 133h109q135 0 135 -133v-125q0 -133 -135 -133h-109q-135 0 -135 133z" />
<glyph unicode="&#x3c;" horiz-adv-x="1306" d="M100 573v35q0 59 25 96t78 60l811 358q70 31 112.5 3.5t42.5 -103.5v-70q0 -113 -104 -151l-545 -209v-4l545 -205q104 -41 104 -154v-67q0 -78 -43 -105.5t-112 2.5l-811 359q-102 43 -103 155z" />
<glyph unicode="=" horiz-adv-x="1306" d="M121 311v47q0 135 135 136h797q133 0 133 -136v-47q0 -135 -133 -135h-797q-135 0 -135 135zM121 821v49q0 133 135 134h797q133 0 133 -134v-49q0 -135 -133 -135h-797q-135 0 -135 135z" />
<glyph unicode="&#x3e;" horiz-adv-x="1306" d="M137 162v67q0 113 105 154l544 205v4l-544 209q-104 39 -105 151v70q0 78 43 105.5t113 -3.5l811 -360q53 -23 77.5 -59.5t24.5 -96.5v-35q0 -59 -24.5 -96t-77.5 -59l-811 -357q-70 -31 -113 -3t-43 104z" />
<glyph unicode="?" horiz-adv-x="1017" d="M51 1320q2 44 55 79q59 39 147.5 72.5t209.5 33.5q86 0 174 -25.5t160.5 -76.5t119 -129t46.5 -184q0 -115 -46.5 -191t-105.5 -132t-115.5 -99t-74.5 -88l-7 -17q-14 -49 -41.5 -66.5t-85.5 -17.5h-143q-133 0 -133 133v11q0 70 48 126t106.5 105t106.5 93t48 91 q0 41 -28.5 61.5t-67.5 20.5q-14 0 -35.5 -4t-44.5 -14q-57 -29 -110.5 -25t-88.5 56l-61 90q-35 53 -33 97zM225 133v90q0 133 133 133h113q133 0 133 -133v-90q0 -133 -133 -133h-113q-133 0 -133 133z" />
<glyph unicode="@" horiz-adv-x="1753" d="M66 487q0 164 60 305.5t172 246t271.5 165t356.5 60.5q164 0 281.5 -42t192.5 -114t109.5 -167t34.5 -204v-325h21q133 0 133 -133v-21q0 -133 -133 -133h-457q-123 0 -214 31.5t-151.5 84t-89 118t-28.5 130.5q0 63 27.5 127t87 113t150.5 80t218 31h45q0 27 -24.5 47 t-58.5 32.5t-73 18.5t-65 6q-113 0 -201 -42t-147.5 -108.5t-91 -150.5t-31.5 -168q0 -147 94 -260t283 -160q23 -6 45 -13t40.5 -21.5t31 -40t12.5 -64.5v-51q0 -78 -39 -103.5t-101 -23.5q-63 2 -144 20.5t-166 57.5t-166 98t-144.5 142t-102 189.5t-38.5 241.5zM1034 500 q0 -35 23.5 -61.5t75.5 -26.5h20v178h-16q-53 0 -78 -27.5t-25 -62.5z" />
<glyph unicode="A" horiz-adv-x="1374" d="M25 154l399 1210q37 109 151 109h224q115 0 151 -109l400 -1210q11 -31 11 -57q0 -32 -17 -55q-31 -42 -103 -42h-166q-115 0 -151 113l-31 143h-416l-31 -143q-31 -113 -147 -113h-166q-73 0 -103 42q-17 23 -16 55q0 25 11 57zM575 598h220l-45 205q-10 37 -20.5 85 t-20.5 89q-10 49 -21 98h-4l-20 -98q-10 -41 -19.5 -89t-19.5 -85z" />
<glyph unicode="B" horiz-adv-x="1300" d="M113 133v1206q0 133 135 134h420q119 0 217 -25t168.5 -73t109.5 -120.5t39 -171.5q0 -86 -41 -174t-125 -137v-4q66 -20 109 -57t69.5 -81t37 -92.5t10.5 -91.5q0 -127 -50.5 -213t-134.5 -138t-192.5 -73.5t-222.5 -21.5h-414q-135 0 -135 133zM545 348h153 q66 0 98.5 38t32.5 81q0 41 -31.5 78t-97.5 37h-155v-234zM545 926h129q53 0 75.5 34.5t22.5 65.5q0 37 -23.5 67.5t-82.5 30.5h-121v-198z" />
<glyph unicode="C" horiz-adv-x="1419" d="M49 737q0 160 57.5 299.5t161 241.5t247.5 160.5t319 58.5q162 0 277.5 -43t186.5 -90q52 -37 58 -85q1 -8 1 -15q0 -41 -30 -86l-61 -103q-40 -66 -99 -66q-38 0 -84 27q-53 29 -111.5 48.5t-117.5 19.5q-102 0 -171 -32t-111 -83t-59 -114.5t-17 -126.5 q0 -66 19.5 -133.5t62.5 -122t110.5 -89t163.5 -34.5q70 0 136.5 25.5t119.5 62.5q49 33 92 33h10q47 -4 84 -60l72 -98q31 -46 31 -90v-10q-4 -50 -56 -87q-37 -29 -88 -59.5t-114.5 -55t-140 -40t-167.5 -15.5q-180 0 -325.5 57.5t-246.5 159t-155.5 241.5t-54.5 304z" />
<glyph unicode="D" horiz-adv-x="1472" d="M113 133v1206q0 133 135 134h403q176 0 318.5 -49.5t242 -143.5t153.5 -230.5t54 -310.5q0 -172 -54 -309t-153.5 -232.5t-242 -146.5t-318.5 -51h-403q-135 0 -135 133zM545 369h92q160 0 248 93t88 277t-91 274.5t-245 90.5h-92v-735z" />
<glyph unicode="E" horiz-adv-x="1138" d="M113 133v1206q0 133 135 134h686q133 0 133 -134v-102q0 -133 -133 -133h-389v-178h278q135 0 135 -133v-103q0 -133 -135 -133h-278v-188h413q135 0 136 -133v-103q0 -133 -136 -133h-710q-135 0 -135 133z" />
<glyph unicode="F" horiz-adv-x="1079" d="M113 133v1206q0 133 135 134h676q133 0 133 -134v-102q0 -133 -133 -133h-379v-227h284q135 0 136 -136v-100q0 -133 -136 -133h-284v-375q0 -133 -133 -133h-164q-135 0 -135 133z" />
<glyph unicode="G" horiz-adv-x="1556" d="M49 725q0 170 58.5 312.5t163 244.5t249 158.5t316.5 56.5q86 0 162.5 -13.5t138 -33.5t106.5 -42t68 -38q55 -41 62 -83q1 -7 1 -15q0 -37 -28 -86l-64 -103q-35 -55 -80 -61q-7 -1 -15 -1q-40 0 -91 26q-53 25 -103.5 41t-128.5 16q-102 0 -172.5 -30t-113.5 -79 t-62.5 -112.5t-19.5 -130.5q0 -92 30.5 -163t80.5 -120t115.5 -74.5t137.5 -25.5q68 0 116 13t77 30q35 20 55 45v51h-59q-133 0 -134 135v98q0 133 134 133h305q135 0 135 -133v-608q0 -133 -135 -133h-80q-66 0 -99.5 30.5t-33.5 71.5v-18v6q0 2 2 2h-4q-37 -35 -90 -59 q-45 -23 -113 -40.5t-160 -17.5q-139 0 -270 50.5t-232.5 146.5t-163 235.5t-61.5 317.5z" />
<glyph unicode="H" horiz-adv-x="1519" d="M113 133v1206q0 133 135 134h164q133 0 133 -134v-428h430v428q0 133 133 134h166q133 0 133 -134v-1206q0 -133 -133 -133h-166q-133 0 -133 133v412h-430v-412q0 -133 -133 -133h-164q-135 0 -135 133z" />
<glyph unicode="I" d="M113 133v1206q0 133 135 134h164q133 0 133 -134v-1206q0 -133 -133 -133h-164q-135 0 -135 133z" />
<glyph unicode="J" horiz-adv-x="1153" d="M12 438q0 78 31 115t102 37h168q39 0 61.5 -8.5t35 -23.5t17.5 -38.5t11 -52.5q8 -39 32 -68.5t67 -29.5q41 0 61 28.5t20 79.5v627h-272q-133 0 -133 133v102q0 133 133 134h572q133 0 133 -134v-872q0 -123 -45 -215t-117 -153.5t-165 -92.5t-187 -31q-100 0 -194.5 33 t-168.5 94.5t-118 146.5t-44 189z" />
<glyph unicode="K" horiz-adv-x="1392" d="M113 133v1206q0 133 135 134h164q133 0 133 -134v-411h114l224 448q53 96 159 97h168q80 1 106 -45q11 -19 12 -43q0 -32 -21 -72l-295 -547v-4l317 -600q23 -43 23 -76q0 -23 -10 -41q-26 -45 -107 -45h-193q-106 0 -159 96l-224 465h-114v-428q0 -133 -133 -133h-164 q-135 0 -135 133z" />
<glyph unicode="L" horiz-adv-x="1128" d="M113 133v1206q0 133 135 134h164q133 0 133 -134v-970h440q135 0 135 -133v-103q0 -133 -135 -133h-737q-135 0 -135 133z" />
<glyph unicode="M" horiz-adv-x="1775" d="M74 139l98 1204q12 129 139 130h236q119 0 149 -111l115 -430q10 -41 23.5 -92.5t25.5 -98.5q12 -53 27 -110h4q14 57 27 112q10 47 23 98.5t24 90.5l114 430q31 111 150 111h235q129 0 140 -130l98 -1204q1 -10 1 -19q0 -52 -29 -84q-34 -36 -99 -36h-158 q-133 0 -139 129l-23 412q-4 47 -4 104t2 109q2 59 4 120h-4q-16 -66 -32 -129q-14 -53 -27.5 -110t-24.5 -94l-53 -209q-39 -106 -153 -107h-150q-113 0 -151 107l-54 209q-10 39 -23.5 95t-27.5 109q-16 61 -33 127h-4q2 -61 4 -120q2 -51 2 -107.5t-4 -103.5l-24 -412 q-10 -129 -138 -129h-161q-67 0 -99 37q-27 31 -27 82q0 10 1 20z" />
<glyph unicode="N" horiz-adv-x="1501" d="M113 133v1206q0 133 135 134h196q57 0 95.5 -21.5t64.5 -69.5l242 -473q23 -41 44 -88t40 -88q23 -49 41 -94h4q-6 49 -10 98q-4 41 -6.5 88t-2.5 84v430q0 133 134 134h163q135 0 136 -134v-1206q0 -133 -136 -133h-196q-55 0 -93 21.5t-65 68.5l-244 471q-23 39 -44 86 t-40 88q-23 47 -41 94h-4q4 -49 9 -98q4 -41 7 -87t3 -83v-428q0 -133 -133 -133h-164q-135 0 -135 133z" />
<glyph unicode="O" horiz-adv-x="1652" d="M49 745q0 158 55.5 295.5t158 238.5t244.5 159.5t318 58.5q174 0 318.5 -58.5t246 -159.5t158 -238.5t56.5 -295.5q0 -162 -56.5 -302t-158 -244.5t-246 -164t-318.5 -59.5q-176 0 -318 59.5t-244.5 164t-158 244.5t-55.5 302zM496 745q0 -80 24.5 -149.5t67.5 -119.5 t103.5 -78.5t133.5 -28.5q74 0 135.5 28.5t104.5 78.5t67.5 120t24.5 149q0 76 -24.5 142.5t-67.5 114t-104.5 75t-135.5 27.5t-134 -27.5t-103 -75t-67.5 -114t-24.5 -142.5z" />
<glyph unicode="P" horiz-adv-x="1269" d="M113 133v1206q0 133 135 134h510q111 0 201 -40t154.5 -110t99 -167t34.5 -210q0 -115 -34.5 -212t-99 -168.5t-155 -111.5t-200.5 -40h-213v-281q0 -133 -133 -133h-164q-135 0 -135 133zM545 782h121q78 0 110.5 48.5t32.5 115.5q0 68 -32 113t-103 45h-129v-322z" />
<glyph unicode="Q" horiz-adv-x="1652" d="M49 741q0 160 56.5 298.5t158 239.5t244.5 159.5t317 58.5t317.5 -58.5t246 -158.5t159 -236.5t56.5 -289.5q0 -129 -37 -227.5t-94 -190.5l34 -27q53 -41 59 -89v-10q0 -43 -40 -87l-64 -72q-47 -53 -89 -53h-3q-43 2 -84 37l-53 45q-88 -51 -188.5 -78t-217.5 -27 q-174 0 -317 59.5t-245.5 163t-159 243.5t-56.5 300zM496 743q0 -80 25.5 -148.5t71.5 -120.5t112.5 -82t148.5 -30q41 0 68 11l-33 26q-41 35 -55 87q-4 12 -4 25q0 38 32 73l64 69q41 47 83 48h2q41 0 87 -39l51 -44q4 29 7 64t3 55q0 82 -25.5 149.5t-69.5 116t-105.5 75 t-133.5 26.5q-74 0 -134 -27.5t-103 -76t-67.5 -114t-24.5 -143.5z" />
<glyph unicode="R" horiz-adv-x="1316" d="M113 133v1206q0 133 135 134h399q102 0 173 -7.5t120 -23.5q61 -20 114.5 -61.5t92.5 -98.5t60.5 -129t21.5 -154q0 -55 -12.5 -114.5t-37 -114.5t-63.5 -102t-92 -80v-4q10 -12 20 -27q10 -12 21.5 -28.5t24.5 -39.5l184 -327q25 -45 25 -78q0 -24 -13 -42 q-31 -42 -104 -42h-191q-47 0 -88 20.5t-69 73.5l-187 361h-102v-322q0 -133 -133 -133h-164q-135 0 -135 133zM545 823h92q78 0 116 36t38 120q0 29 -10.5 59.5t-55.5 48.5q-25 10 -52.5 13.5t-62.5 3.5h-65v-281z" />
<glyph unicode="S" horiz-adv-x="1183" d="M54 190q-5 12 -4 26q0 36 34 87l78 113q37 53 81 59q7 1 14 1q39 0 89 -27q18 -6 42 -20.5t54.5 -29t67.5 -24.5t80 -10q63 0 85.5 19t22.5 46q0 39 -46 65.5t-115.5 53t-149.5 60.5t-149.5 87.5t-115.5 132t-46 197.5q0 106 41 193.5t114.5 149t174 95t217.5 33.5 q63 0 124.5 -9t114.5 -24.5t97.5 -35t72.5 -37.5q54 -39 62 -85q2 -11 2 -22q0 -36 -21 -78l-59 -116q-18 -37 -40 -53.5t-44.5 -19.5t-48 5t-49.5 20q-55 25 -103.5 45.5t-114.5 20.5q-61 0 -85.5 -19.5t-24.5 -48.5q0 -43 46 -69.5t115.5 -52t150.5 -57.5t150.5 -83 t115.5 -129t46 -196q0 -96 -35.5 -182.5t-104 -152t-169 -104.5t-231.5 -39q-76 0 -148.5 13.5t-136 34t-113.5 46t-81 50.5q-39 29 -57 71z" />
<glyph unicode="T" horiz-adv-x="1292" d="M10 1237v102q0 133 133 134h1006q133 0 133 -134v-102q0 -133 -133 -133h-287v-971q0 -133 -133 -133h-166q-133 0 -133 133v971h-287q-133 0 -133 133z" />
<glyph unicode="U" horiz-adv-x="1466" d="M100 551v788q0 133 133 134h166q133 0 133 -134v-788q0 -92 54.5 -137t146.5 -45t147.5 44t55.5 136v790q0 133 133 134h164q133 0 133 -134v-788q0 -125 -45 -230.5t-127 -182.5t-198.5 -120t-260.5 -43q-145 0 -262 43t-200 120t-128 182.5t-45 230.5z" />
<glyph unicode="V" horiz-adv-x="1394" d="M14 1319q-11 32 -11 58q0 31 16 54q30 42 104 42h190q119 0 150 -113l178 -633q10 -37 20.5 -81t18.5 -83q8 -45 16 -88h4q8 43 17 88q8 39 17 83t22 81l180 633q33 113 151 113h183q74 0 104 -42q16 -23 15 -54q0 -26 -11 -58l-417 -1213q-39 -106 -154 -106h-219 q-115 0 -154 106z" />
<glyph unicode="W" horiz-adv-x="2045" d="M45 1325q-6 24 -6 45q1 39 21 64q30 39 102 39h178q121 0 147 -119l127 -727q4 -29 7.5 -55.5t5.5 -49.5q2 -25 2 -49h4q2 25 4 49q2 23 5 49.5t11 55.5l168 729q31 117 150 117h102q121 0 146 -117l161 -729q6 -29 9.5 -56.5t7.5 -50.5q2 -25 4 -47h4q0 25 2 49 q2 23 4 49.5t8 55.5l144 729q25 117 149 117h172q72 0 102 -39q20 -26 21 -64q0 -20 -6 -45l-301 -1210q-31 -115 -150 -115h-239q-121 0 -148 117l-123 530q-6 29 -10 55.5t-8 49.5q-4 25 -4 51h-2q-2 -27 -4 -51q-2 -23 -6.5 -49.5t-10.5 -55.5l-125 -530 q-29 -117 -147 -117h-244q-119 0 -149 117z" />
<glyph unicode="X" horiz-adv-x="1353" d="M48 1428q26 45 106 45h194q106 0 160 -97l78 -162q18 -37 34.5 -71.5t28.5 -63.5q14 -33 25 -61h4q10 27 24 59q12 29 29 64t37 73l80 162q53 96 158 97h196q80 1 106 -45q10 -17 9 -39q0 -34 -25 -76l-360 -594l342 -557q27 -45 27 -80q1 -20 -9 -37q-26 -45 -108 -45 h-185q-104 0 -157 96l-72 146q-20 37 -36.5 70.5t-28.5 60.5q-14 31 -25 59h-4q-10 -27 -25 -57q-12 -27 -28.5 -61.5t-36.5 -69.5l-74 -148q-53 -96 -160 -96h-178q-84 0 -110 45q-10 17 -9 38q0 34 25 79l342 557l-359 594q-25 43 -25 76q0 22 10 39z" />
<glyph unicode="Y" horiz-adv-x="1267" d="M12 1428q27 45 105 45h200q109 0 156 -101l80 -194q16 -41 31.5 -84t25.5 -78q12 -41 23 -80h4q10 39 22 80q10 35 25.5 78t32.5 84l80 194q45 100 153 101h201q78 0 105 -45q12 -19 12 -41q0 -33 -25 -74l-393 -719v-461q0 -133 -133 -133h-166q-133 0 -133 133v461 l-393 719q-25 42 -25 75q0 22 12 40z" />
<glyph unicode="Z" horiz-adv-x="1282" d="M47 133v43q0 49 12.5 87t40.5 79l451 631q25 35 46 60.5t38 41.5q18 18 33 31v4q-14 -2 -33 -4q-16 -2 -38 -2h-44h-350q-133 0 -133 133v102q0 133 133 134h880q133 0 134 -132v-38q0 -49 -12.5 -88t-41.5 -80l-452 -635q-53 -72 -84 -103q-18 -20 -33 -30v-5q14 0 33 3 q16 2 36.5 3t45.5 1h387q133 0 133 -133v-103q0 -133 -133 -133h-916q-133 0 -133 133z" />
<glyph unicode="[" horiz-adv-x="712" d="M98 -61v1476q0 135 135 135h314q133 0 133 -135v-22q0 -133 -123 -133h-106v-1164h96q133 0 133 -135v-22q0 -133 -133 -134h-314q-135 0 -135 134z" />
<glyph unicode="\" horiz-adv-x="890" d="M55 1389q-23 72 8 112.5t105 40.5h74q117 0 151 -110l443 -1366q23 -72 -8 -112t-105 -40h-74q-117 0 -153 109z" />
<glyph unicode="]" horiz-adv-x="712" d="M33 -39q0 135 135 135h94v1164h-94q-135 0 -135 133v22q0 135 135 135h311q135 0 135 -135v-1476q0 -133 -135 -134h-311q-135 0 -135 134v22z" />
<glyph unicode="^" horiz-adv-x="1306" d="M173 530q-28 43 1 113l309 727q23 53 60 78t96 25h37q59 0 96 -25t59 -78l312 -727q29 -70 0 -113t-107 -43h-65q-117 0 -154 107l-160 459l-159 -459q-37 -106 -152 -107h-67q-78 0 -106 43z" />
<glyph unicode="_" horiz-adv-x="1251" d="M-12 -133q0 133 135 133h1007q133 0 134 -133v-49q0 -133 -134 -133h-1007q-135 0 -135 133v49z" />
<glyph unicode="`" horiz-adv-x="976" d="M288 1845.5q17 48.5 103 48.5h111q55 0 92 -23.5t65 -72.5l48 -88q29 -53 17.5 -99t-77.5 -46h-90q-53 0 -90 19.5t-72 60.5l-71 86q-53 66 -36 114.5z" />
<glyph unicode="a" horiz-adv-x="1120" d="M23 303q0 94 52 158.5t135 105.5t187.5 59.5t210.5 18.5h21v35q0 39 -37 52t-78 13q-39 0 -84 -11t-86 -27q-40 -18 -73 -18q-18 -1 -33 5q-45 14 -74 74l-29 61q-18 39 -18 73q-1 16 3 32q12 48 70 74q68 31 160 55t205 24q115 0 207 -30.5t157.5 -88t100.5 -139 t35 -184.5v-512q0 -133 -133 -133h-121q-123 0 -133 141h-4q-43 -66 -112 -116t-187 -50q-80 0 -143.5 27t-107.5 72t-67.5 104t-23.5 125zM410 340q0 -23 18 -46.5t66 -23.5q59 0 99 40t40 100v20h-23q-88 0 -144 -23.5t-56 -66.5z" />
<glyph unicode="b" horiz-adv-x="1290" d="M82 133v1206q0 133 135 134h160q133 0 133 -134v-266q0 -27 -1 -46t-1 -36q-2 -18 -2 -30h4q27 35 63 63q33 23 84.5 43t122.5 20q104 0 191.5 -40.5t150 -113.5t98 -173.5t35.5 -220.5q0 -129 -38.5 -233.5t-105.5 -177.5t-156 -113t-191 -40q-37 0 -79 6.5t-81 22.5 t-72.5 45t-54.5 72h-4q-4 -53 -38 -87t-95 -34h-123q-135 0 -135 133zM498 537q0 -90 41 -150.5t118 -60.5q72 0 121 50t49 148q0 92 -46 149.5t-117 57.5q-66 0 -116 -50t-50 -144z" />
<glyph unicode="c" horiz-adv-x="1083" d="M31 532q0 102 36.5 202t112.5 178.5t189.5 126.5t265.5 48q117 0 201 -25.5t137 -60.5q53 -33 58 -81q1 -6 1 -13q0 -42 -28 -88l-41 -63q-35 -54 -78 -62q-9 -2 -18 -2q-37 0 -85 23q-29 12 -59.5 16t-58.5 4q-55 0 -94.5 -18.5t-63 -48t-33.5 -64.5t-10 -65 q0 -31 11 -68t37 -68.5t66.5 -53t100.5 -21.5q35 0 76 11t82 32q46 25 83 25q12 0 23 -2q45 -10 76 -70l31 -62q22 -43 22 -81q1 -11 -1 -22q-8 -48 -58 -81q-59 -37 -154.5 -70t-222.5 -33q-152 0 -264.5 47.5t-188.5 126t-113.5 179t-37.5 204.5z" />
<glyph unicode="d" horiz-adv-x="1290" d="M35 535q0 121 33.5 222t98 175t158 114.5t210.5 40.5q74 0 119.5 -14t74.5 -31q33 -20 49 -45h4q-2 8 -2 17v41v284q0 133 135 134h160q133 0 133 -134v-1206q0 -133 -133 -133h-131q-125 0 -135 129h-2q-43 -82 -123 -118t-174 -36q-104 0 -191.5 41t-151 115t-98 176.5 t-34.5 227.5zM463 530q0 -92 46 -148t120 -56q66 0 115 49t49 151q0 88 -42 146.5t-120 58.5q-70 0 -119 -51.5t-49 -149.5z" />
<glyph unicode="e" horiz-adv-x="1134" d="M33 532q0 113 36.5 214.5t108.5 177t177.5 119.5t240.5 44q123 0 217 -39.5t158.5 -107.5t97.5 -158t33 -192q0 -25 -10.5 -49.5t-29 -44t-45 -32.5t-56.5 -13h-496q27 -70 83 -96.5t116 -26.5q39 0 81.5 8t83.5 26q43 20 79 20q14 0 26 -3q46 -10 76 -70l32 -63 q22 -44 22 -81q0 -13 -3 -25q-10 -48 -66 -79q-63 -33 -155 -59.5t-213 -26.5q-152 0 -263.5 49.5t-185.5 129t-109.5 179t-35.5 199.5zM469 666h221q1 7 1 14q1 41 -21 77q-24 42 -78 42q-35 0 -57.5 -12.5t-37 -31t-20.5 -42t-8 -47.5z" />
<glyph unicode="f" horiz-adv-x="790" d="M27 844v63q0 133 133 133h8v54q0 127 58.5 203.5t137 117.5t157.5 53.5t122 12.5h39q133 0 133 -135v-93q0 -66 -32.5 -95.5t-98.5 -37.5q-27 -4 -57.5 -11t-30.5 -40v-29h37q133 0 133 -133v-63q0 -133 -133 -133h-37v-578q0 -133 -135 -133h-160q-133 0 -133 133v578 h-8q-133 0 -133 133z" />
<glyph unicode="g" horiz-adv-x="1271" d="M37 569q0 96 28.5 189.5t89 166t151.5 117.5t214 45q90 0 145.5 -21.5t86.5 -47.5q37 -31 51 -70h2q4 49 38 82t97 33h117q133 0 133 -133v-809q0 -152 -56.5 -257.5t-145.5 -171t-199.5 -94t-217.5 -28.5q-43 0 -90 4t-89 11t-77.5 15.5t-56.5 16.5q-66 25 -80 71 q-6 19 -6 39q0 30 12 62l27 74q29 72 65 84q16 5 38 5q28 0 67 -9q45 -10 71.5 -16.5t79.5 -6.5q49 0 92.5 6t74 24.5t48 50.5t17.5 83v82h-4q-35 -63 -92.5 -95t-153.5 -32q-121 0 -211 47t-149.5 122t-88 170t-28.5 191zM465 578q0 -31 7 -64t25.5 -60.5t49.5 -45 t78 -17.5q25 0 51 7.5t47.5 25.5t36 52t14.5 89q0 53 -14.5 87t-36 52.5t-49 24.5t-53.5 6q-88 0 -122 -46t-34 -111z" />
<glyph unicode="h" horiz-adv-x="1257" d="M82 133v1206q0 133 135 134h160q133 0 133 -134v-305q0 -23 -1 -39t-1 -28q-2 -14 -2 -25h4q51 78 130 111.5t165 33.5q72 0 141.5 -17t123.5 -62t88 -121t34 -193v-561q0 -133 -133 -133h-160q-135 0 -135 133v469q0 57 -24.5 78.5t-69.5 21.5q-49 0 -81 -20t-49.5 -54 t-23.5 -76t-6 -83v-336q0 -133 -133 -133h-160q-135 0 -135 133z" />
<glyph unicode="i" horiz-adv-x="583" d="M78 133v797q0 133 133 133h160q135 0 135 -133v-797q0 -133 -135 -133h-160q-133 0 -133 133zM86 1296v43q0 133 133 134h146q133 0 133 -134v-43q0 -135 -133 -135h-146q-133 0 -133 135z" />
<glyph unicode="j" horiz-adv-x="591" d="M-137 -207q0 41 12 65.5t30.5 38t42 19.5t48.5 10q37 6 61.5 28.5t24.5 68.5v907q0 133 135 133h160q133 0 133 -133v-942q0 -86 -27.5 -150.5t-70.5 -110.5t-96.5 -76t-105.5 -47.5t-98 -24.5t-73 -7h-43q-133 0 -133 135v86zM90 1296v43q0 133 133 134h146 q133 0 133 -134v-43q0 -135 -133 -135h-146q-133 0 -133 135z" />
<glyph unicode="k" horiz-adv-x="1216" d="M82 133v1206q0 133 135 134h160q133 0 133 -134v-610h78l123 244q27 47 64.5 68.5t92.5 21.5h164q82 0 106 -46q9 -17 9 -36q0 -34 -27 -78l-190 -330v-4l239 -409q26 -44 26 -78q1 -20 -9 -37q-24 -45 -107 -45h-188q-104 0 -158 96l-133 279h-90v-242q0 -133 -133 -133 h-160q-135 0 -135 133z" />
<glyph unicode="l" horiz-adv-x="659" d="M78 438v901q0 133 135 134h160q133 0 133 -134v-886q0 -47 10 -66.5t33 -24.5q43 -4 68.5 -31.5t25.5 -80.5v-125q0 -61 -31.5 -98t-103.5 -37q-80 0 -158 14t-138 61.5t-97 135.5t-37 237z" />
<glyph unicode="m" horiz-adv-x="1800" d="M78 133v797q0 133 133 133h141q55 0 93 -36t38 -114h4q18 31 43 62t60 55.5t81 40.5t109 16q86 0 166 -38.5t121 -133.5h4q35 70 122 121t202 51q66 0 127 -18t109 -64.5t77 -122t29 -188.5v-561q0 -133 -133 -133h-160q-135 0 -135 133v494q0 39 -17.5 56t-46.5 17 q-45 0 -70.5 -24.5t-38 -64.5t-14.5 -88t-2 -93v-297q0 -133 -133 -133h-160q-133 0 -133 133v494q0 39 -17.5 56t-45.5 17q-45 0 -70.5 -24.5t-38 -64.5t-14.5 -88t-2 -93v-297q0 -133 -135 -133h-160q-133 0 -133 133z" />
<glyph unicode="n" horiz-adv-x="1253" d="M78 133v797q0 133 133 133h141q131 0 131 -150h4q43 80 115 127t201 47q72 0 140.5 -17t122.5 -62t88 -121t34 -193v-561q0 -133 -135 -133h-160q-133 0 -133 133v469q0 57 -24.5 78.5t-69.5 21.5q-49 0 -81 -20t-49.5 -54t-23.5 -76t-6 -83v-336q0 -133 -135 -133h-160 q-133 0 -133 133z" />
<glyph unicode="o" horiz-adv-x="1294" d="M31 526q0 127 48 230.5t131 177.5t195.5 113.5t239.5 39.5q129 0 241.5 -39.5t196.5 -113.5t132.5 -177.5t48.5 -230.5t-48.5 -228t-132.5 -173t-195.5 -111t-240.5 -39t-240.5 39t-195.5 111t-132 173t-48 228zM463 526q0 -98 55 -148t129 -50t130.5 50t56.5 148 q0 100 -56.5 154.5t-130.5 54.5t-129 -54.5t-55 -154.5z" />
<glyph unicode="p" horiz-adv-x="1290" d="M82 -276v1206q0 133 135 133h113q66 0 99.5 -31t33.5 -78v-28h4q27 43 68 80q35 31 93 56t144 25q109 0 198 -40.5t152.5 -114.5t98 -176.5t34.5 -225.5q0 -127 -37.5 -229t-105.5 -174t-159 -112t-197 -40q-72 0 -119 16.5t-76 39.5q-35 23 -51 55h-4q0 -14 2 -31 q0 -16 1 -35.5t1 -44.5v-251q0 -133 -133 -134h-160q-135 0 -135 134zM498 522q0 -37 10 -72.5t29.5 -63.5t51.5 -44t75 -16q66 0 114.5 50t48.5 146q0 94 -46 151.5t-119 57.5q-63 0 -113.5 -50t-50.5 -159z" />
<glyph unicode="q" horiz-adv-x="1290" d="M35 532q0 125 37 228.5t102.5 175.5t156.5 111.5t199 39.5q88 0 144.5 -22.5t89.5 -50.5q37 -33 57 -74h4v33q0 33 33 61.5t98 28.5h119q133 0 133 -133v-1206q0 -133 -133 -134h-160q-135 0 -135 134v272v44t2 36q0 16 2 30h-4q-16 -37 -53 -65q-31 -25 -83 -45.5 t-138 -20.5q-102 0 -188.5 41t-149 115t-98 176t-35.5 225zM463 532q0 -94 46 -150t120 -56q33 0 62.5 12t52 36.5t36 63.5t13.5 94q0 37 -10.5 73t-31 63.5t-51 45t-73.5 17.5q-66 0 -115 -50.5t-49 -148.5z" />
<glyph unicode="r" horiz-adv-x="866" d="M78 133v797q0 133 133 133h141q135 0 135 -133v-41q0 -12 -1 -22.5t-1 -18.5q-2 -8 -2 -19h4q12 35 37 78t61 80t78 62.5t89 25.5q63 0 86.5 -34.5t23.5 -100.5v-139q0 -135 -131 -135q-115 0 -170 -74t-55 -191v-268q0 -133 -135 -133h-160q-133 0 -133 133z" />
<glyph unicode="s" horiz-adv-x="956" d="M41 146q-1 7 -1 15q0 42 30 89l34 55q35 53 77 61q10 2 21 1q37 0 87 -19q16 -6 65 -25.5t109 -19.5q35 0 48 12.5t13 28.5q0 23 -34.5 34t-88 23.5t-115 30t-114.5 52t-88 93t-35 152.5q0 88 36 155.5t99.5 112.5t146.5 67.5t179 22.5q98 0 184 -19t129 -42 q55 -29 67 -77q3 -14 3 -28q0 -36 -21 -75l-28 -58q-6 -14 -17.5 -31.5t-30 -29.5t-48.5 -15h-11q-28 0 -67 13q-41 12 -82 24.5t-86 12.5q-57 0 -58 -39q0 -20 35 -31.5t88.5 -23t114.5 -28.5t114.5 -51t88.5 -91.5t35 -149.5q0 -80 -31 -148.5t-89.5 -117.5t-143.5 -78 t-191 -29q-61 0 -117.5 9.5t-103.5 22.5t-83.5 28.5t-56.5 27.5q-57 35 -63 83z" />
<glyph unicode="t" horiz-adv-x="856" d="M27 844v63q0 133 131 133h26v174q0 133 133 134h146q135 0 135 -134v-174h74q135 0 135 -133v-63q0 -133 -131 -133h-78v-254q0 -84 88 -97q37 -6 61.5 -12t40 -19.5t22.5 -35t7 -55.5v-115q0 -76 -44 -104.5t-130 -28.5q-49 0 -130 13t-156.5 54t-131 117t-55.5 203v334 h-12q-131 0 -131 133z" />
<glyph unicode="u" horiz-adv-x="1245" d="M68 369v561q0 133 135 133h159q133 0 134 -133v-467q0 -57 24.5 -79t69.5 -22q47 0 75.5 20.5t45 54.5t22.5 76t6 83v334q0 133 135 133h160q133 0 133 -133v-797q0 -133 -133 -133h-141q-66 0 -98.5 31.5t-32.5 85.5v33h-4q-23 -51 -55.5 -85t-72.5 -53.5t-86 -28 t-93 -8.5q-72 0 -141.5 18.5t-123 63.5t-86 121t-32.5 191z" />
<glyph unicode="v" horiz-adv-x="1185" d="M31 909q-11 32 -11 58q0 31 16 54q30 42 103 42h170q117 0 148 -113l92 -383q6 -29 13 -62.5t13 -64.5q8 -37 15 -73h4q4 35 12 71q6 31 12.5 66t14.5 63l88 383q33 113 149 113h174q74 0 104 -42q17 -24 17 -57q0 -25 -10 -55l-260 -798q-37 -111 -152 -111h-297 q-115 0 -151 111z" />
<glyph unicode="w" horiz-adv-x="1685" d="M33 911q-6 25 -6 47q-1 39 19 65q30 40 101 40h172q121 0 146 -119l67 -455q4 -18 5.5 -37.5t1.5 -35.5v-37h4q2 16 4 37q2 16 4 35.5t6 37.5l82 457q25 119 145 119h121q121 0 146 -119l84 -457q4 -18 5 -37.5t3 -35.5q2 -20 2 -37h4q-2 16 0 37q0 16 2 35.5t6 37.5 l68 455q27 119 145 119h168q72 0 102 -40q19 -26 19 -65q0 -21 -6 -47l-207 -796q-31 -115 -148 -115h-241q-121 0 -148 117l-45 286q-4 18 -7 38t-5 36q-4 20 -4 39h-4q-4 -18 -6 -39q-4 -16 -5.5 -35.5t-5.5 -38.5l-47 -286q-29 -117 -147 -117h-246q-117 0 -147 115z" />
<glyph unicode="x" horiz-adv-x="1103" d="M42 1017q26 46 108 46h178q61 0 99 -25.5t56 -72.5l39 -101q6 -16 10.5 -31.5t8.5 -25.5q4 -14 8 -25h4q2 12 8 25q4 10 9 25.5t12 31.5l36 99q23 55 62 77.5t94 22.5h178q82 0 108 -46q9 -17 9 -37q0 -34 -27 -77l-239 -364l231 -379q27 -43 27 -77q1 -20 -9 -37 q-26 -46 -108 -46h-168q-66 0 -100.5 26.5t-50.5 69.5l-43 111q-4 10 -9.5 26.5t-9.5 30.5q-6 16 -10 35h-4q-4 -18 -8 -35q-4 -14 -9.5 -30.5t-9.5 -26.5l-43 -111q-16 -43 -51 -69.5t-100 -26.5h-166q-84 0 -110 46q-9 17 -9 36q0 34 29 78l229 379l-242 364 q-27 42 -27 76q0 21 10 38z" />
<glyph unicode="y" horiz-adv-x="1120" d="M1 1020q28 43 105 43h199q59 0 99 -26.5t55 -84.5l73 -293q6 -23 12.5 -56.5t10.5 -65.5q6 -37 10 -80h4q6 43 13 80q4 33 10 67.5l10 57.5l51 286q10 59 50 87t100 28h184q74 0 103 -42q17 -23 17 -55q0 -26 -11 -57l-353 -989q-37 -102 -92 -169.5t-120.5 -107.5 t-137 -56.5t-139.5 -16.5q-41 0 -78 6t-72 16q-59 20 -76 68q-6 19 -6 39q0 33 17 70l31 71q27 57 62 72q24 10 50 10q10 0 21 -2q10 -2 23.5 -4t31.5 -2q41 0 77 27.5t50 66.5l6 17l-387 882q-16 37 -16 66q0 27 13 47z" />
<glyph unicode="z" horiz-adv-x="1097" d="M45 102v31q0 49 13.5 78t43.5 70l267 329q23 27 39 44.5t28 29.5q14 12 27 23v4q-8 -2 -21 -2q-10 -2 -26.5 -2h-40.5h-182q-135 0 -136 135v88q0 133 136 133h714q135 0 135 -102v-31q0 -49 -14 -78t-45 -70l-262 -331q-23 -27 -39 -44.5t-31 -29.5q-16 -14 -28 -23v-4 q8 0 20 2q10 2 27.5 3t44.5 1h200q133 0 134 -133v-90q0 -133 -134 -133h-737q-133 0 -133 102z" />
<glyph unicode="{" horiz-adv-x="800" d="M31 612v142q0 59 28.5 87.5t77.5 59.5q31 20 49.5 59t18.5 99v184q0 94 42 156.5t101.5 98.5t123 50.5t106.5 14.5h43q135 0 135 -133v-50q0 -133 -135 -133q-29 0 -46.5 -12t-17.5 -47v-240q0 -80 -27.5 -130t-60.5 -79q-39 -35 -88 -51v-4q49 -14 88 -47 q33 -29 60.5 -79t27.5 -132v-258q0 -35 17.5 -47t46.5 -12q135 0 135 -134v-49q0 -133 -135 -133h-43q-43 0 -106.5 14.5t-123 50.5t-101.5 97t-42 158v202q0 57 -17.5 93t-46.5 59q-53 31 -81.5 58.5t-28.5 86.5z" />
<glyph unicode="|" horiz-adv-x="544" d="M96 -209v1727q0 135 135 135h82q135 0 136 -135v-1727q0 -135 -136 -135h-82q-135 0 -135 135z" />
<glyph unicode="}" horiz-adv-x="798" d="M45 -25q0 133 133 134q29 0 47.5 12t18.5 47v258q0 82 26.5 132t59.5 79q37 33 88 47v4q-51 16 -88 51q-33 29 -59.5 79t-26.5 130v240q0 35 -18.5 47t-47.5 12q-133 0 -133 133v50q0 133 133 133h45q43 0 106.5 -14.5t122 -50.5t100.5 -98.5t42 -156.5v-184 q0 -59 18.5 -98t49.5 -60q49 -31 77.5 -59.5t28.5 -87.5v-142q0 -29 -8 -49t-21.5 -36.5t-34 -30t-45.5 -29.5q-66 -43 -65 -152v-202q0 -96 -42 -157.5t-100.5 -97.5t-122 -50.5t-106.5 -14.5h-45q-133 0 -133 133v49z" />
<glyph unicode="~" horiz-adv-x="1226" d="M51 500q0 70 27.5 129t76 103t112 69.5t136.5 25.5q80 0 131.5 -23.5t89.5 -51t69.5 -50t72.5 -22.5q39 0 58.5 16.5t29.5 32.5q29 47 50.5 68.5t76.5 21.5h68q129 0 129 -119q0 -68 -28 -128t-75 -105t-111.5 -70.5t-138.5 -25.5q-80 0 -132 22.5t-90 50t-69.5 51 t-72.5 23.5q-35 0 -53.5 -13t-28.5 -30q-31 -53 -54.5 -74.5t-76.5 -21.5h-70q-127 0 -127 121z" />
<glyph unicode="&#xa2;" horiz-adv-x="1177" d="M53 737q0 109 37 204t97.5 171t139.5 129t165 78v41q0 135 126 135h11q127 0 127 -100v-76q53 -12 107.5 -40t101.5 -62.5t82.5 -71.5t52.5 -70q29 -59 11.5 -103t-85.5 -69l-135 -53q-37 -14 -60.5 -14t-39 8t-27.5 22.5t-25 28.5q-16 16 -37.5 27.5t-60.5 11.5 q-23 0 -50.5 -12.5t-52 -38t-41 -64.5t-16.5 -92q0 -47 14.5 -83t38 -58.5t51 -33.5t52.5 -11q47 0 71.5 15t43.5 38q23 29 51 43t88 -8l135 -54q63 -25 82.5 -69.5t-12.5 -104.5q-12 -29 -46 -67.5t-81 -76.5t-102.5 -66.5t-110.5 -34.5v-45q0 -135 -127 -136h-11 q-127 0 -126 136v45q-86 25 -165 77t-139.5 127.5t-97.5 172t-37 204.5z" />
<glyph unicode="&#xa3;" horiz-adv-x="1263" d="M76 723v12q0 66 27.5 96.5t93.5 30.5h10v170q0 104 40 190.5t109.5 147t165.5 94t211 33.5q104 0 186 -32.5t140 -71.5q53 -35 55 -84t-39 -103l-67 -86q-39 -51 -84 -53t-103 27q-23 10 -40 14t-33 4q-33 0 -66 -21.5t-33 -68.5v-160h187q133 0 133 -127v-12 q0 -129 -133 -129h-187v-225h426q135 0 135 -133v-103q0 -133 -135 -133h-854q-133 0 -133 133v103q0 66 32 99.5t87 33.5v225h-10q-66 0 -93.5 31.5t-27.5 97.5z" />
<glyph unicode="&#xa5;" horiz-adv-x="1275" d="M75.5 1430q26.5 43 104.5 43h207q123 0 148 -109l26 -109q10 -47 24.5 -104t24.5 -109q12 -59 27 -120h4q14 59 29 118q12 51 25.5 108.5t23.5 106.5l24 109q8 55 46 82t100 27h205q78 0 106.5 -43.5t-6.5 -114.5l-180 -397h49q133 0 133 -109v-12q0 -106 -133 -107h-158 l-47 -102v-49h205q133 0 133 -107v-12q0 -109 -133 -109h-205v-178q0 -133 -135 -133h-174q-133 0 -133 133v178h-201q-133 0 -133 109v12q0 106 133 107h201v49l-47 102h-154q-133 0 -133 107v12q0 109 111 109h67l-178 397q-33 72 -6.5 115z" />
<glyph unicode="&#xa8;" horiz-adv-x="978" d="M104 1704v55q0 135 134 135h34q135 0 136 -135v-55q0 -135 -136 -135h-34q-133 0 -134 135zM573 1704v55q0 135 134 135h34q133 0 133 -135v-55q0 -135 -133 -135h-34q-133 0 -134 135z" />
<glyph unicode="&#xa9;" horiz-adv-x="1605" d="M59 737q0 158 58.5 296t159 240.5t236.5 162t290 59.5t289 -59.5t236.5 -162t159.5 -240.5t58 -296t-58 -296t-158.5 -241.5t-237 -164t-289.5 -60.5q-156 0 -291 60.5t-235.5 164t-159 241.5t-58.5 296zM330 737q0 -109 35.5 -202t99 -163.5t150.5 -110.5t188 -40 q100 0 187 40t151.5 110.5t101.5 164t37 201.5q0 106 -37 199.5t-101.5 163t-152.5 109.5t-188 40q-102 0 -188.5 -40t-149 -109.5t-98 -163t-35.5 -199.5zM469 731q0 82 27.5 149.5t76 117t110.5 76t130 26.5q88 0 154.5 -39t97.5 -86q29 -47 19.5 -81t-31.5 -52l-45 -37 q-27 -20 -56 -21q-23 0 -37 10.5t-28.5 22.5t-28.5 22.5t-35 10.5q-35 0 -59.5 -34t-24.5 -95q0 -66 26 -89.5t58 -23.5q27 0 42.5 10.5t28.5 22.5t26.5 22.5t33.5 10.5q27 0 54 -21l43 -37q43 -37 37.5 -71.5t-27.5 -65.5q-31 -41 -93.5 -80t-154.5 -39q-68 0 -130 27 t-110.5 76t-76 117.5t-27.5 150.5z" />
<glyph unicode="&#xab;" horiz-adv-x="1302" d="M98 483q-76 94 0 189l197 250q33 41 72 59t92 18h73q86 0 109 -49t-31 -114l-204 -258l204 -256q53 -66 35 -115t-96 -49h-90q-53 0 -92 18.5t-72 59.5zM686 483q-76 94 0 189l197 250q33 41 71.5 59t92.5 18h73q86 0 108.5 -49t-30.5 -114l-205 -258l205 -256 q53 -66 34.5 -115t-95.5 -49h-90q-53 0 -92.5 18.5t-71.5 59.5z" />
<glyph unicode="&#xad;" horiz-adv-x="811" d="M74 539v102q0 133 133 133h397q133 0 133 -133v-102q0 -133 -133 -133h-397q-133 0 -133 133z" />
<glyph unicode="&#xae;" horiz-adv-x="1605" d="M59 737q0 158 58.5 296t159 240.5t235.5 162t287 59.5q156 0 292 -59.5t237.5 -162t159.5 -240.5t58 -296t-58 -296t-159.5 -241.5t-238 -164t-291.5 -60.5q-152 0 -287 60.5t-235.5 164t-159 241.5t-58.5 296zM330 737q0 -109 35.5 -202t99 -163.5t149.5 -110.5t185 -40 q102 0 190 40t152.5 110.5t101.5 164t37 201.5q0 106 -37 199.5t-101.5 163t-152.5 109.5t-190 40q-98 0 -184.5 -40t-150 -109.5t-99 -163t-35.5 -199.5zM526 537v413q0 135 133 135h218q115 0 178 -62t63 -163q0 -43 -12 -75.5t-28.5 -55t-33 -36t-22.5 -15.5v-4 q2 -6 8 -12q4 -6 9 -12.5t10 -16.5l36 -72q35 -70 18.5 -114t-77.5 -44h-37q-113 0 -145 103l-37 112h-25v-81q0 -133 -123 -134h-10q-66 0 -94.5 34t-28.5 100zM782 784h23q33 0 53.5 16.5t20.5 49.5q0 35 -19.5 49t-48.5 14h-29v-129z" />
<glyph unicode="&#xb4;" horiz-adv-x="976" d="M256.5 1609q-23.5 44 11.5 103l47 86q53 96 158 96h111q86 0 103.5 -49t-36.5 -114l-71 -86q-35 -41 -72 -60.5t-90 -19.5h-72q-66 0 -89.5 44z" />
<glyph unicode="&#xb8;" horiz-adv-x="976" d="M299 -338q0 55 19.5 77.5t35.5 22.5t29.5 -1t19.5 -1q23 0 32 12.5t9 28.5q0 23 -21.5 31t-55.5 10q-29 2 -34 23.5t7 58.5l43 125h182l-26 -108q61 -6 109 -45t48 -127q0 -59 -22.5 -98.5t-59 -62t-82 -32.5t-90.5 -10q-25 0 -49 3t-45.5 14t-35 29.5t-13.5 49.5z" />
<glyph unicode="&#xbb;" horiz-adv-x="1304" d="M70.5 951.5q17.5 47.5 95.5 47.5h92q53 0 91 -18t71 -59l198 -250q74 -94 0 -189l-198 -247q-33 -41 -71 -59.5t-91 -18.5h-74q-86 0 -108.5 49t30.5 115l205 256l-205 258q-53 68 -35.5 115.5zM658.5 951.5q17.5 47.5 95.5 47.5h92q53 0 91 -18t71 -59l198 -250 q76 -94 0 -189l-198 -247q-33 -41 -71 -59.5t-91 -18.5h-74q-86 0 -108.5 49t30.5 115l205 256l-205 258q-53 68 -35.5 115.5z" />
<glyph unicode="&#xc2;" horiz-adv-x="1374" d="M25 154l399 1210q37 109 151 109h224q115 0 151 -109l400 -1210q25 -70 -6 -112t-103 -42h-166q-115 0 -151 113l-31 143h-416l-31 -143q-31 -113 -147 -113h-166q-72 0 -102.5 42t-5.5 112zM344 1611q-16 46 31 118l49 77q57 88 162 88h200q104 0 162 -88l49 -77 q47 -72 31 -118t-86 -46h-82q-59 0 -84.5 23.5t-48.5 68.5l-39 78h-4l-39 -78q-23 -45 -48.5 -68.5t-84.5 -23.5h-84q-68 0 -84 46zM575 598h220l-45 205q-10 37 -20.5 85t-20.5 89q-10 49 -21 98h-4l-20 -98q-10 -41 -19.5 -89t-19.5 -85z" />
<glyph unicode="&#xc7;" horiz-adv-x="1419" d="M49 737q0 160 57.5 299.5t161 241.5t247.5 160.5t319 58.5q162 0 277.5 -43t186.5 -90q51 -37 57.5 -85t-28.5 -101l-61 -103q-66 -109 -183 -39q-53 29 -111.5 48.5t-117.5 19.5q-102 0 -171 -32t-111 -83t-59 -114.5t-17 -126.5q0 -66 19.5 -133.5t62.5 -122t110.5 -89 t163.5 -34.5q70 0 136.5 25.5t119.5 62.5q55 37 102 32.5t84 -59.5l72 -98q35 -51 31 -100.5t-56 -86.5q-35 -27 -79.5 -54.5t-102 -51t-125 -40.5t-145.5 -22l-8 -36q61 -6 109 -45t48 -127q0 -59 -22.5 -98.5t-59 -62t-82 -32.5t-90.5 -10q-25 0 -49 3t-45.5 14t-35 29.5 t-13.5 49.5q0 55 19.5 77.5t35.5 22.5t29.5 -1t19.5 -1q23 0 32 12.5t9 28.5q0 23 -21.5 31t-55.5 10q-29 2 -34 23.5t7 58.5l20 60q-152 18 -273.5 82.5t-205.5 164t-129 228.5t-45 278z" />
<glyph unicode="&#xce;" d="M-10.5 1611q-16.5 46 30.5 118l50 77q57 88 161 88h201q104 0 162 -88l49 -77q47 -72 30.5 -118t-85.5 -46h-82q-59 0 -85 23.5t-48 68.5l-39 78h-4l-39 -78q-23 -45 -48.5 -68.5t-84.5 -23.5h-84q-68 0 -84.5 46zM113 133v1206q0 133 135 134h164q133 0 133 -134v-1206 q0 -133 -133 -133h-164q-135 0 -135 133z" />
<glyph unicode="&#xd6;" horiz-adv-x="1652" d="M49 745q0 158 55.5 295.5t158 238.5t244.5 159.5t318 58.5q174 0 318.5 -58.5t246 -159.5t158 -238.5t56.5 -295.5q0 -162 -56.5 -302t-158 -244.5t-246 -164t-318.5 -59.5q-176 0 -318 59.5t-244.5 164t-158 244.5t-55.5 302zM440 1704v55q0 135 133 135h35 q135 0 135 -135v-55q0 -135 -135 -135h-35q-133 0 -133 135zM496 745q0 -80 24.5 -149.5t67.5 -119.5t103.5 -78.5t133.5 -28.5q74 0 135.5 28.5t104.5 78.5t67.5 120t24.5 149q0 76 -24.5 142.5t-67.5 114t-104.5 75t-135.5 27.5t-134 -27.5t-103 -75t-67.5 -114 t-24.5 -142.5zM909 1704v55q0 135 133 135h35q133 0 133 -135v-55q0 -135 -133 -135h-35q-133 0 -133 135z" />
<glyph unicode="&#xdb;" horiz-adv-x="1466" d="M100 551v788q0 133 133 134h166q133 0 133 -134v-788q0 -92 54.5 -137t146.5 -45t147.5 44t55.5 136v790q0 133 133 134h164q133 0 133 -134v-788q0 -125 -45 -230.5t-127 -182.5t-198.5 -120t-260.5 -43q-145 0 -262 43t-200 120t-128 182.5t-45 230.5zM391 1611 q-16 46 31 118l49 77q57 88 162 88h201q104 0 161 -88l49 -77q47 -72 31 -118t-86 -46h-82q-59 0 -84.5 23.5t-48.5 68.5l-39 78h-4l-39 -78q-23 -45 -48.5 -68.5t-84.5 -23.5h-84q-68 0 -84 46z" />
<glyph unicode="&#xdc;" horiz-adv-x="1466" d="M100 551v788q0 133 133 134h166q133 0 133 -134v-788q0 -92 54.5 -137t146.5 -45t147.5 44t55.5 136v790q0 133 133 134h164q133 0 133 -134v-788q0 -125 -45 -230.5t-127 -182.5t-198.5 -120t-260.5 -43q-145 0 -262 43t-200 120t-128 182.5t-45 230.5zM348 1704v55 q0 135 133 135h35q135 0 135 -135v-55q0 -135 -135 -135h-35q-133 0 -133 135zM817 1704v55q0 135 133 135h35q133 0 133 -135v-55q0 -135 -133 -135h-35q-133 0 -133 135z" />
<glyph unicode="&#xe2;" horiz-adv-x="1120" d="M23 303q0 94 52 158.5t135 105.5t187.5 59.5t210.5 18.5h21v35q0 39 -37 52t-78 13q-39 0 -84 -11t-86 -27q-61 -27 -106 -12.5t-74 73.5l-29 61q-27 57 -14.5 104.5t69.5 74.5q68 31 160 55t205 24q115 0 207 -30.5t157.5 -88t100.5 -139t35 -184.5v-512 q0 -133 -133 -133h-121q-123 0 -133 141h-4q-43 -66 -112 -116t-187 -50q-80 0 -143.5 27t-107.5 72t-67.5 104t-23.5 125zM225 1191q-16 46 31 118l49 77q57 88 162 89h201q104 0 161 -89l50 -77q47 -72 30.5 -118t-86.5 -46h-82q-59 0 -84.5 23.5t-48.5 68.5l-39 78h-4 l-39 -78q-23 -45 -48 -68.5t-85 -23.5h-84q-68 0 -84 46zM410 340q0 -23 18 -46.5t66 -23.5q59 0 99 40t40 100v20h-23q-88 0 -144 -23.5t-56 -66.5z" />
<glyph unicode="&#xe7;" horiz-adv-x="1087" d="M33 532q0 102 36.5 202t112.5 178.5t189.5 126.5t265.5 48q117 0 201 -25.5t137 -60.5q53 -33 58 -81t-27 -101l-41 -63q-35 -55 -78 -62.5t-103 21.5q-29 12 -59.5 16t-58.5 4q-55 0 -94.5 -18.5t-63 -48t-33.5 -64.5t-10 -65q0 -31 11 -68t37 -68.5t67 -53t100 -21.5 q35 0 76 11t82 32q61 33 106 22.5t76 -69.5l31 -62q29 -55 20.5 -103t-57.5 -81q-53 -35 -135 -64.5t-191 -36.5l-8 -36q61 -6 109.5 -45t48.5 -127q0 -59 -22.5 -98.5t-59.5 -62t-82 -32.5t-90 -10q-25 0 -49.5 3t-46 14t-35 29.5t-13.5 49.5q0 55 19.5 77.5t36.5 22.5 q16 0 29.5 -1t19.5 -1q23 0 32 12.5t9 28.5q0 23 -21.5 31t-56.5 10q-29 2 -34 23.5t7 58.5l21 64q-117 20 -205 72.5t-146.5 126t-88 163.5t-29.5 182z" />
<glyph unicode="&#xee;" horiz-adv-x="583" d="M-51.5 1191q-16.5 46 31.5 118l49 77q57 88 161 89h201q104 0 162 -89l49 -77q47 -72 30.5 -118t-85.5 -46h-82q-59 0 -85 23.5t-48 68.5l-39 78h-4l-39 -78q-23 -45 -48.5 -68.5t-84.5 -23.5h-84q-68 0 -84.5 46zM78 133v797q0 133 133 133h160q135 0 135 -133v-797 q0 -133 -135 -133h-160q-133 0 -133 133z" />
<glyph unicode="&#xf6;" horiz-adv-x="1294" d="M31 526q0 127 48 230.5t131 177.5t195.5 113.5t239.5 39.5q129 0 241.5 -39.5t196.5 -113.5t132.5 -177.5t48.5 -230.5t-48.5 -228t-132.5 -173t-195.5 -111t-240.5 -39t-240.5 39t-195.5 111t-132 173t-48 228zM262 1284v55q0 135 133 136h35q135 0 135 -136v-55 q0 -135 -135 -135h-35q-133 0 -133 135zM463 526q0 -98 55 -148t129 -50t130.5 50t56.5 148q0 100 -56.5 154.5t-130.5 54.5t-129 -54.5t-55 -154.5zM731 1284v55q0 135 133 136h35q133 0 133 -136v-55q0 -135 -133 -135h-35q-133 0 -133 135z" />
<glyph unicode="&#xfb;" horiz-adv-x="1247" d="M70 369v561q0 133 135 133h160q133 0 133 -133v-467q0 -57 24.5 -79t69.5 -22q47 0 75.5 20.5t45 54.5t22.5 76t6 83v334q0 133 136 133h159q133 0 133 -133v-797q0 -133 -133 -133h-141q-66 0 -98.5 31.5t-32.5 85.5v33h-4q-23 -51 -55.5 -85t-72.5 -53.5t-86 -28 t-93 -8.5q-72 0 -141.5 18.5t-123 63.5t-86 121t-32.5 191zM276 1191q-16 46 31 118l49 77q57 88 162 89h201q104 0 162 -89l49 -77q47 -72 30.5 -118t-86.5 -46h-81q-59 0 -85 23.5t-49 68.5l-38 78h-5l-38 -78q-23 -45 -48.5 -68.5t-85.5 -23.5h-84q-68 0 -84 46z" />
<glyph unicode="&#xfc;" horiz-adv-x="1247" d="M70 369v561q0 133 135 133h160q133 0 133 -133v-467q0 -57 24.5 -79t69.5 -22q47 0 75.5 20.5t45 54.5t22.5 76t6 83v334q0 133 136 133h159q133 0 133 -133v-797q0 -133 -133 -133h-141q-66 0 -98.5 31.5t-32.5 85.5v33h-4q-23 -51 -55.5 -85t-72.5 -53.5t-86 -28 t-93 -8.5q-72 0 -141.5 18.5t-123 63.5t-86 121t-32.5 191zM233 1284v55q0 135 134 136h34q135 0 136 -136v-55q0 -135 -136 -135h-34q-133 0 -134 135zM702 1284v55q0 135 134 136h34q133 0 134 -136v-55q0 -135 -134 -135h-34q-133 0 -134 135z" />
<glyph unicode="&#x100;" horiz-adv-x="1374" d="M25 154l399 1210q37 109 151 109h224q115 0 151 -109l400 -1210q25 -70 -6 -112t-103 -42h-166q-115 0 -151 113l-31 143h-416l-31 -143q-31 -113 -147 -113h-166q-72 0 -102.5 42t-5.5 112zM395 1724v19q0 127 133 127h316q135 0 135 -127v-19q0 -125 -135 -125h-316 q-133 0 -133 125zM575 598h220l-45 205q-10 37 -20.5 85t-20.5 89q-10 49 -21 98h-4l-20 -98q-10 -41 -19.5 -89t-19.5 -85z" />
<glyph unicode="&#x101;" horiz-adv-x="1120" d="M23 303q0 94 52 158.5t135 105.5t187.5 59.5t210.5 18.5h21v35q0 39 -37 52t-78 13q-39 0 -84 -11t-86 -27q-61 -27 -106 -12.5t-74 73.5l-29 61q-27 57 -14.5 104.5t69.5 74.5q68 31 160 55t205 24q115 0 207 -30.5t157.5 -88t100.5 -139t35 -184.5v-512 q0 -133 -133 -133h-121q-123 0 -133 141h-4q-43 -66 -112 -116t-187 -50q-80 0 -143.5 27t-107.5 72t-67.5 104t-23.5 125zM276 1305v18q0 127 134 127h315q135 0 135 -127v-18q0 -125 -135 -125h-315q-133 0 -134 125zM410 340q0 -23 18 -46.5t66 -23.5q59 0 99 40t40 100 v20h-23q-88 0 -144 -23.5t-56 -66.5z" />
<glyph unicode="&#x102;" horiz-adv-x="1374" d="M25 154l399 1210q37 109 151 109h224q115 0 151 -109l400 -1210q25 -70 -6 -112t-103 -42h-166q-115 0 -151 113l-31 143h-416l-31 -143q-31 -113 -147 -113h-166q-72 0 -102.5 42t-5.5 112zM291 1819q0 29 17.5 44t60.5 21l86 10q29 2 47 -4t30.5 -17t18.5 -25.5 t12 -28.5q10 -27 39 -47.5t82 -20.5t82 20.5t39 47.5q6 14 12 28.5t18.5 25.5t31 17t46.5 4l86 -10q43 -6 60.5 -21.5t17.5 -43.5q0 -68 -38 -118t-96 -83t-127 -49.5t-130 -16.5t-131 16.5t-128 49.5t-97 83t-39 118zM575 598h220l-45 205q-10 37 -20.5 85t-20.5 89 q-10 49 -21 98h-4l-20 -98q-10 -41 -19.5 -89t-19.5 -85z" />
<glyph unicode="&#x103;" horiz-adv-x="1120" d="M23 303q0 94 52 158.5t135 105.5t187.5 59.5t210.5 18.5h21v35q0 39 -37 52t-78 13q-39 0 -84 -11t-86 -27q-61 -27 -106 -12.5t-74 73.5l-29 61q-27 57 -14.5 104.5t69.5 74.5q68 31 160 55t205 24q115 0 207 -30.5t157.5 -88t100.5 -139t35 -184.5v-512 q0 -133 -133 -133h-121q-123 0 -133 141h-4q-43 -66 -112 -116t-187 -50q-80 0 -143.5 27t-107.5 72t-67.5 104t-23.5 125zM172 1399q0 29 17.5 44t60.5 21l86 11q29 2 47 -4.5t30.5 -17.5t18.5 -25.5t12 -28.5q10 -27 39 -47.5t82 -20.5t82 20.5t39 47.5q6 14 12.5 28.5 t18.5 25.5t30.5 17.5t47.5 4.5l86 -11q43 -6 60 -21.5t17 -43.5q0 -68 -37.5 -118t-96 -83t-127.5 -49t-130 -16t-130.5 16t-128 49t-97.5 83t-39 118zM410 340q0 -23 18 -46.5t66 -23.5q59 0 99 40t40 100v20h-23q-88 0 -144 -23.5t-56 -66.5z" />
<glyph unicode="&#x104;" horiz-adv-x="1376" d="M25 154l399 1210q16 53 51 81t100 28h224q115 0 151 -109l400 -1210q18 -59 18 -97q0 -33 -9 -55t-24 -37q-23 -23 -46 -34t-23 -35q0 -16 13 -22.5t24 -14.5q23 -16 33 -43t3 -76l-10 -74q-6 -47 -36.5 -64.5t-80.5 -17.5q-37 0 -83 14.5t-84.5 40t-65.5 63.5t-27 87 q0 57 34 111.5t75 93.5q-33 0 -60 12q-23 10 -44 32.5t-31 65.5l-33 152h-416l-33 -143q-27 -113 -145 -113h-166q-72 0 -102.5 42t-5.5 112zM575 598h220l-47 205q-4 14 -13.5 58t-19.5 91q-12 55 -27 123h-4q-6 -33 -14 -74q-8 -35 -18.5 -86t-26.5 -112z" />
<glyph unicode="&#x105;" horiz-adv-x="1120" d="M23 303q0 94 52 158.5t135 105.5t187.5 59.5t210.5 18.5h21v35q0 39 -37 52t-78 13q-39 0 -84 -11t-86 -27q-61 -27 -106 -12.5t-74 73.5l-29 61q-27 57 -14.5 104.5t69.5 74.5q68 31 160 55t205 24q115 0 207 -30.5t157.5 -88t100.5 -139t35 -184.5v-512 q0 -49 -18.5 -78.5t-40 -53.5t-40 -47.5t-18.5 -59.5q0 -12 10 -18.5t27 -16.5q29 -16 35 -45t2 -74l-11 -74q-4 -47 -38.5 -66.5t-75.5 -15.5q-43 2 -89 17.5t-85 42t-63.5 62.5t-24.5 81q0 76 25.5 132t66.5 106q-43 33 -49 116h-4q-43 -66 -112 -116t-187 -50 q-80 0 -143.5 27t-107.5 72t-67.5 104t-23.5 125zM410 340q0 -23 18 -46.5t66 -23.5q59 0 99 40t40 100v20h-23q-88 0 -144 -23.5t-56 -66.5z" />
<glyph unicode="&#x106;" horiz-adv-x="1419" d="M49 737q0 160 57.5 299.5t161 241.5t247.5 160.5t319 58.5q162 0 277.5 -43t186.5 -90q51 -37 57.5 -85t-28.5 -101l-61 -103q-66 -109 -183 -39q-53 29 -111.5 48.5t-117.5 19.5q-102 0 -171 -32t-111 -83t-59 -114.5t-17 -126.5q0 -66 19.5 -133.5t62.5 -122t110.5 -89 t163.5 -34.5q70 0 136.5 25.5t119.5 62.5q55 37 102 32.5t84 -59.5l72 -98q35 -51 31 -100.5t-56 -86.5q-37 -29 -88 -59.5t-114.5 -55t-140 -40t-167.5 -15.5q-180 0 -325.5 57.5t-246.5 159t-155.5 241.5t-54.5 304zM699 1609q-23 44 12 103l47 86q53 96 157 96h111 q86 0 103.5 -49t-35.5 -114l-72 -86q-35 -41 -72 -60.5t-90 -19.5h-72q-66 0 -89 44z" />
<glyph unicode="&#x107;" horiz-adv-x="1083" d="M31 532q0 102 36.5 202t112.5 178.5t189.5 126.5t265.5 48q117 0 201 -25.5t137 -60.5q53 -33 58 -81t-27 -101l-41 -63q-35 -55 -78 -62.5t-103 21.5q-29 12 -59.5 16t-58.5 4q-55 0 -94.5 -18.5t-63 -48t-33.5 -64.5t-10 -65q0 -31 11 -68t37 -68.5t66.5 -53 t100.5 -21.5q35 0 76 11t82 32q61 33 106 22.5t76 -69.5l31 -62q29 -55 20.5 -103t-57.5 -81q-59 -37 -154.5 -70t-222.5 -33q-152 0 -264.5 47.5t-188.5 126t-113.5 179t-37.5 204.5zM480 1189q-23 44 12 103l47 86q53 96 157 97h111q86 0 103.5 -49.5t-36.5 -114.5 l-71 -86q-35 -41 -72 -60.5t-90 -19.5h-72q-66 0 -89 44z" />
<glyph unicode="&#x108;" horiz-adv-x="1419" d="M49 737q0 160 57.5 299.5t161 241.5t247.5 160.5t319 58.5q162 0 277.5 -43t186.5 -90q51 -37 57.5 -85t-28.5 -101l-61 -103q-66 -109 -183 -39q-53 29 -111.5 48.5t-117.5 19.5q-102 0 -171 -32t-111 -83t-59 -114.5t-17 -126.5q0 -66 19.5 -133.5t62.5 -122t110.5 -89 t163.5 -34.5q70 0 136.5 25.5t119.5 62.5q55 37 102 32.5t84 -59.5l72 -98q35 -51 31 -100.5t-56 -86.5q-37 -29 -88 -59.5t-114.5 -55t-140 -40t-167.5 -15.5q-180 0 -325.5 57.5t-246.5 159t-155.5 241.5t-54.5 304zM467 1611q-16 46 31 118l49 77q57 88 162 88h200 q104 0 162 -88l49 -77q47 -72 31 -118t-86 -46h-82q-59 0 -85 23.5t-48 68.5l-39 78h-4l-39 -78q-23 -45 -48.5 -68.5t-84.5 -23.5h-84q-68 0 -84 46z" />
<glyph unicode="&#x109;" horiz-adv-x="1083" d="M31 532q0 102 36.5 202t112.5 178.5t189.5 126.5t265.5 48q117 0 201 -25.5t137 -60.5q53 -33 58 -81t-27 -101l-41 -63q-35 -55 -78 -62.5t-103 21.5q-29 12 -59.5 16t-58.5 4q-55 0 -94.5 -18.5t-63 -48t-33.5 -64.5t-10 -65q0 -31 11 -68t37 -68.5t66.5 -53 t100.5 -21.5q35 0 76 11t82 32q61 33 106 22.5t76 -69.5l31 -62q29 -55 20.5 -103t-57.5 -81q-59 -37 -154.5 -70t-222.5 -33q-152 0 -264.5 47.5t-188.5 126t-113.5 179t-37.5 204.5zM249.5 1191q-16.5 46 31.5 118l49 77q57 88 162 89h200q104 0 162 -89l49 -77 q47 -72 31 -118t-86 -46h-82q-59 0 -85 23.5t-48 68.5l-39 78h-4l-39 -78q-23 -45 -48.5 -68.5t-84.5 -23.5h-84q-68 0 -84.5 46z" />
<glyph unicode="&#x10a;" horiz-adv-x="1419" d="M49 737q0 160 57.5 299.5t161 241.5t247.5 160.5t319 58.5q162 0 277.5 -43t186.5 -90q51 -37 57.5 -85t-28.5 -101l-61 -103q-66 -109 -183 -39q-53 29 -111.5 48.5t-117.5 19.5q-102 0 -171 -32t-111 -83t-59 -114.5t-17 -126.5q0 -66 19.5 -133.5t62.5 -122t110.5 -89 t163.5 -34.5q70 0 136.5 25.5t119.5 62.5q55 37 102 32.5t84 -59.5l72 -98q35 -51 31 -100.5t-56 -86.5q-37 -29 -88 -59.5t-114.5 -55t-140 -40t-167.5 -15.5q-180 0 -325.5 57.5t-246.5 159t-155.5 241.5t-54.5 304zM637 1724v35q0 135 135 135h78q135 0 135 -135v-35 q0 -133 -135 -133h-78q-135 0 -135 133z" />
<glyph unicode="&#x10b;" horiz-adv-x="1083" d="M31 532q0 102 36.5 202t112.5 178.5t189.5 126.5t265.5 48q117 0 201 -25.5t137 -60.5q53 -33 58 -81t-27 -101l-41 -63q-35 -55 -78 -62.5t-103 21.5q-29 12 -59.5 16t-58.5 4q-55 0 -94.5 -18.5t-63 -48t-33.5 -64.5t-10 -65q0 -31 11 -68t37 -68.5t66.5 -53 t100.5 -21.5q35 0 76 11t82 32q61 33 106 22.5t76 -69.5l31 -62q29 -55 20.5 -103t-57.5 -81q-59 -37 -154.5 -70t-222.5 -33q-152 0 -264.5 47.5t-188.5 126t-113.5 179t-37.5 204.5zM418 1305v34q0 135 135 136h78q135 0 135 -136v-34q0 -133 -135 -134h-78 q-135 0 -135 134z" />
<glyph unicode="&#x10c;" horiz-adv-x="1419" d="M49 737q0 160 57.5 299.5t161 241.5t247.5 160.5t319 58.5q162 0 277.5 -43t186.5 -90q51 -37 57.5 -85t-28.5 -101l-61 -103q-66 -109 -183 -39q-53 29 -111.5 48.5t-117.5 19.5q-102 0 -171 -32t-111 -83t-59 -114.5t-17 -126.5q0 -66 19.5 -133.5t62.5 -122t110.5 -89 t163.5 -34.5q70 0 136.5 25.5t119.5 62.5q55 37 102 32.5t84 -59.5l72 -98q35 -51 31 -100.5t-56 -86.5q-37 -29 -88 -59.5t-114.5 -55t-140 -40t-167.5 -15.5q-180 0 -325.5 57.5t-246.5 159t-155.5 241.5t-54.5 304zM467 1847.5q16 46.5 84 46.5h84q57 0 81.5 -23.5 t53.5 -70.5l37 -76h4l37 76q29 47 53.5 70.5t81.5 23.5h84q68 0 84 -47t-31 -116l-49 -78q-59 -88 -162 -88h-200q-102 0 -162 88l-49 78q-47 70 -31 116.5z" />
<glyph unicode="&#x10d;" horiz-adv-x="1083" d="M31 532q0 102 36.5 202t112.5 178.5t189.5 126.5t265.5 48q117 0 201 -25.5t137 -60.5q53 -33 58 -81t-27 -101l-41 -63q-35 -55 -78 -62.5t-103 21.5q-29 12 -59.5 16t-58.5 4q-55 0 -94.5 -18.5t-63 -48t-33.5 -64.5t-10 -65q0 -31 11 -68t37 -68.5t66.5 -53 t100.5 -21.5q35 0 76 11t82 32q61 33 106 22.5t76 -69.5l31 -62q29 -55 20.5 -103t-57.5 -81q-59 -37 -154.5 -70t-222.5 -33q-152 0 -264.5 47.5t-188.5 126t-113.5 179t-37.5 204.5zM250 1428q16 47 84 47h84q57 0 81.5 -24t53.5 -71l37 -75h4l37 75q29 47 53.5 71 t81.5 24h84q68 0 84 -47.5t-31 -116.5l-49 -78q-59 -88 -162 -88h-200q-102 0 -162 88l-49 78q-47 70 -31 117z" />
<glyph unicode="&#x10e;" horiz-adv-x="1472" d="M113 133v1206q0 133 135 134h403q176 0 318.5 -49.5t242 -143.5t153.5 -230.5t54 -310.5q0 -172 -54 -309t-153.5 -232.5t-242 -146.5t-318.5 -51h-403q-135 0 -135 133zM338 1847.5q16 46.5 84 46.5h84q57 0 81.5 -23.5t53.5 -70.5l37 -76h4l37 76q29 47 53.5 70.5 t81.5 23.5h84q68 0 84 -47t-31 -116l-49 -78q-59 -88 -162 -88h-200q-102 0 -162 88l-49 78q-47 70 -31 116.5zM545 369h92q160 0 248 93t88 277t-91 274.5t-245 90.5h-92v-735z" />
<glyph unicode="&#x10f;" horiz-adv-x="1290" d="M35 535q0 121 33.5 222t98 175t158 114.5t210.5 40.5q74 0 119.5 -14t74.5 -31q33 -20 49 -45h4q-2 8 -2 17v41v284q0 133 135 134h160q133 0 133 -134v-1206q0 -133 -133 -133h-131q-125 0 -135 129h-2q-43 -82 -123 -118t-174 -36q-104 0 -191.5 41t-151 115t-98 176.5 t-34.5 227.5zM463 530q0 -92 46 -148t120 -56q66 0 115 49t49 151q0 88 -42 146.5t-120 58.5q-70 0 -119 -51.5t-49 -149.5zM1298 1147q0 39 11.5 69.5t11.5 69.5q0 18 -5 50t-5 57q0 47 32.5 63.5t86.5 16.5h53q90 0 121.5 -44.5t31.5 -109.5q0 -66 -16 -112t-43 -74.5 t-59.5 -43t-65.5 -14.5h-37q-117 0 -117 72z" />
<glyph unicode="&#x110;" horiz-adv-x="1480" d="M8 688v76q0 66 35 99.5t80 33.5v442q0 133 133 134h406q176 0 318 -49.5t241.5 -143.5t152.5 -230.5t53 -310.5q0 -172 -53 -309t-152.5 -232.5t-241.5 -146.5t-318 -51h-406q-133 0 -133 133v422q-45 0 -80 34t-35 99zM555 369h92q160 0 247 93t87 277t-90 274.5 t-244 90.5h-92v-207h39q129 0 129 -133v-76q0 -133 -129 -133h-39v-186z" />
<glyph unicode="&#x111;" horiz-adv-x="1290" d="M35 535q0 121 33.5 222t98 175t158 114.5t210.5 40.5q74 0 119.5 -14t74.5 -31q33 -20 49 -45h4q-2 8 -2 17v41v71h-118q-135 0 -136 109v12q0 104 136 105h118q6 121 135 121h160q127 0 133 -121q125 0 125 -105v-12q0 -109 -125 -109v-993q0 -133 -133 -133h-131 q-125 0 -135 129h-2q-43 -82 -123 -118t-174 -36q-104 0 -191.5 41t-151 115t-98 176.5t-34.5 227.5zM463 530q0 -92 46 -148t120 -56q66 0 115 49t49 151q0 88 -42 146.5t-120 58.5q-70 0 -119 -51.5t-49 -149.5z" />
<glyph unicode="&#x112;" horiz-adv-x="1138" d="M113 133v1206q0 133 135 134h686q133 0 133 -134v-102q0 -133 -133 -133h-389v-178h278q135 0 135 -133v-103q0 -133 -135 -133h-278v-188h413q135 0 136 -133v-103q0 -133 -136 -133h-710q-135 0 -135 133zM313 1724v19q0 127 133 127h316q135 0 135 -127v-19 q0 -125 -135 -125h-316q-133 0 -133 125z" />
<glyph unicode="&#x113;" horiz-adv-x="1134" d="M33 532q0 113 36.5 214.5t108.5 177t177.5 119.5t240.5 44q123 0 217 -39.5t158.5 -107.5t97.5 -158t33 -192q0 -25 -10.5 -49.5t-29 -44t-45 -32.5t-56.5 -13h-496q27 -70 83 -96.5t116 -26.5q39 0 81.5 8t83.5 26q59 27 104.5 17t76.5 -70l32 -63q29 -59 19 -106.5 t-66 -78.5q-63 -33 -155 -59.5t-213 -26.5q-152 0 -263.5 49.5t-185.5 129t-109.5 179t-35.5 199.5zM293 1305v18q0 127 133 127h315q135 0 136 -127v-18q0 -125 -136 -125h-315q-133 0 -133 125zM469 666h221q4 49 -20.5 91t-77.5 42q-35 0 -57.5 -12.5t-37 -31t-20.5 -42 t-8 -47.5z" />
<glyph unicode="&#x114;" horiz-adv-x="1138" d="M113 133v1206q0 133 135 134h686q133 0 133 -134v-102q0 -133 -133 -133h-389v-178h278q135 0 135 -133v-103q0 -133 -135 -133h-278v-188h413q135 0 136 -133v-103q0 -133 -136 -133h-710q-135 0 -135 133zM209 1819q0 29 17.5 44t60.5 21l86 10q29 2 47 -4t30.5 -17 t18.5 -25.5t12 -28.5q10 -27 39 -47.5t82 -20.5t82 20.5t39 47.5q6 14 12 28.5t18.5 25.5t31 17t46.5 4l87 -10q43 -6 60 -21.5t17 -43.5q0 -68 -37.5 -118t-96 -83t-127.5 -49.5t-130 -16.5t-131 16.5t-128 49.5t-97 83t-39 118z" />
<glyph unicode="&#x115;" horiz-adv-x="1134" d="M33 532q0 113 36.5 214.5t108.5 177t177.5 119.5t240.5 44q123 0 217 -39.5t158.5 -107.5t97.5 -158t33 -192q0 -25 -10.5 -49.5t-29 -44t-45 -32.5t-56.5 -13h-496q27 -70 83 -96.5t116 -26.5q39 0 81.5 8t83.5 26q59 27 104.5 17t76.5 -70l32 -63q29 -59 19 -106.5 t-66 -78.5q-63 -33 -155 -59.5t-213 -26.5q-152 0 -263.5 49.5t-185.5 129t-109.5 179t-35.5 199.5zM188 1399q0 29 17.5 44t60.5 21l86 11q29 2 47.5 -4.5t30.5 -17.5t18.5 -25.5t12.5 -28.5q10 -27 38.5 -47.5t82.5 -20.5q53 0 81.5 20.5t38.5 47.5q6 14 12.5 28.5 t18.5 25.5t30.5 17.5t47.5 4.5l86 -11q43 -6 60.5 -21.5t17.5 -43.5q0 -68 -38 -118t-96.5 -83t-127 -49t-129.5 -16t-131 16t-128.5 49t-97.5 83t-39 118zM469 666h221q4 49 -20.5 91t-77.5 42q-35 0 -57.5 -12.5t-37 -31t-20.5 -42t-8 -47.5z" />
<glyph unicode="&#x116;" horiz-adv-x="1138" d="M113 133v1206q0 133 135 134h686q133 0 133 -134v-102q0 -133 -133 -133h-389v-178h278q135 0 135 -133v-103q0 -133 -135 -133h-278v-188h413q135 0 136 -133v-103q0 -133 -136 -133h-710q-135 0 -135 133zM430 1724v35q0 135 135 135h78q135 0 135 -135v-35 q0 -133 -135 -133h-78q-135 0 -135 133z" />
<glyph unicode="&#x117;" horiz-adv-x="1134" d="M33 532q0 113 36.5 214.5t108.5 177t177.5 119.5t240.5 44q123 0 217 -39.5t158.5 -107.5t97.5 -158t33 -192q0 -25 -10.5 -49.5t-29 -44t-45 -32.5t-56.5 -13h-496q27 -70 83 -96.5t116 -26.5q39 0 81.5 8t83.5 26q59 27 104.5 17t76.5 -70l32 -63q29 -59 19 -106.5 t-66 -78.5q-63 -33 -155 -59.5t-213 -26.5q-152 0 -263.5 49.5t-185.5 129t-109.5 179t-35.5 199.5zM410 1305v34q0 135 135 136h78q135 0 135 -136v-34q0 -133 -135 -134h-78q-135 0 -135 134zM469 666h221q4 49 -20.5 91t-77.5 42q-35 0 -57.5 -12.5t-37 -31t-20.5 -42 t-8 -47.5z" />
<glyph unicode="&#x118;" horiz-adv-x="1138" d="M113 133v1206q0 133 135 134h686q133 0 133 -134v-102q0 -133 -133 -133h-389v-178h278q135 0 135 -133v-103q0 -133 -135 -133h-278v-188h413q135 0 136 -133v-101q0 -49 -18.5 -79.5t-41 -54.5t-41 -47.5t-18.5 -59.5q0 -12 10 -18.5t27 -16.5q29 -16 36 -45t1 -74 l-11 -74q-4 -47 -38.5 -66.5t-75.5 -15.5q-43 2 -89.5 17.5t-85 42t-63 62.5t-24.5 81q0 57 27.5 111.5t66.5 101.5h-508q-135 0 -135 133z" />
<glyph unicode="&#x119;" horiz-adv-x="1134" d="M33 532q0 113 36.5 214.5t108.5 177t177.5 119.5t240.5 44q123 0 217 -39.5t158.5 -107.5t97.5 -158t33 -192q0 -25 -10.5 -49.5t-29 -44t-45 -32.5t-56.5 -13h-496q27 -70 83 -96.5t116 -26.5q39 0 81.5 8t83.5 26q59 27 105.5 17t75.5 -70l32 -67q27 -53 16 -96.5 t-52 -88.5q-10 -12 -30 -34.5t-39 -47t-33.5 -47t-14.5 -34.5t10 -18.5t27 -16.5q27 -16 34 -45t3 -74l-11 -74q-4 -47 -38.5 -65.5t-77.5 -16.5q-41 2 -87.5 18.5t-85 42t-64.5 59.5t-26 71q0 68 35 118t82 91q-18 -4 -29 -6.5t-34 -2.5q-152 0 -263.5 49.5t-185.5 129 t-109.5 179t-35.5 199.5zM469 666h221q4 49 -20.5 91t-77.5 42q-35 0 -57.5 -12.5t-37 -31t-20.5 -42t-8 -47.5z" />
<glyph unicode="&#x11a;" horiz-adv-x="1138" d="M113 133v1206q0 133 135 134h686q133 0 133 -134v-102q0 -133 -133 -133h-389v-178h278q135 0 135 -133v-103q0 -133 -135 -133h-278v-188h413q135 0 136 -133v-103q0 -133 -136 -133h-710q-135 0 -135 133zM260 1847.5q16 46.5 84 46.5h84q57 0 82 -23.5t53 -70.5 l37 -76h4l37 76q29 47 53.5 70.5t81.5 23.5h84q68 0 84.5 -47t-31.5 -116l-49 -78q-59 -88 -162 -88h-200q-102 0 -162 88l-49 78q-47 70 -31 116.5z" />
<glyph unicode="&#x11b;" horiz-adv-x="1134" d="M33 532q0 113 36.5 214.5t108.5 177t177.5 119.5t240.5 44q123 0 217 -39.5t158.5 -107.5t97.5 -158t33 -192q0 -25 -10.5 -49.5t-29 -44t-45 -32.5t-56.5 -13h-496q27 -70 83 -96.5t116 -26.5q39 0 81.5 8t83.5 26q59 27 104.5 17t76.5 -70l32 -63q29 -59 19 -106.5 t-66 -78.5q-63 -33 -155 -59.5t-213 -26.5q-152 0 -263.5 49.5t-185.5 129t-109.5 179t-35.5 199.5zM241.5 1428q16.5 47 84.5 47h84q57 0 81.5 -24t53.5 -71l37 -75h4l37 75q29 47 53 71t82 24h84q68 0 84 -47.5t-31 -116.5l-49 -78q-59 -88 -162 -88h-201q-102 0 -161 88 l-50 78q-47 70 -30.5 117zM469 666h221q4 49 -20.5 91t-77.5 42q-35 0 -57.5 -12.5t-37 -31t-20.5 -42t-8 -47.5z" />
<glyph unicode="&#x11c;" horiz-adv-x="1556" d="M49 725q0 170 58.5 312.5t163 244.5t249 158.5t316.5 56.5q86 0 162.5 -13.5t138 -33.5t106.5 -42t68 -38q55 -41 62 -83t-27 -101l-64 -103q-35 -55 -80 -61t-106 25q-53 25 -103.5 41t-128.5 16q-102 0 -172.5 -30t-113.5 -79t-62.5 -112.5t-19.5 -130.5 q0 -92 30.5 -163t80.5 -120t115.5 -74.5t137.5 -25.5q68 0 116 13t77 30q35 20 55 45v51h-59q-133 0 -134 135v98q0 133 134 133h305q135 0 135 -133v-608q0 -133 -135 -133h-80q-66 0 -99.5 30.5t-33.5 71.5v-18v6q0 2 2 2h-4q-37 -35 -90 -59q-45 -23 -113 -40.5 t-160 -17.5q-139 0 -270 50.5t-232.5 146.5t-163 235.5t-61.5 317.5zM469 1611q-16 46 31 118l49 77q57 88 162 88h200q104 0 162 -88l49 -77q47 -72 31 -118t-86 -46h-82q-59 0 -85 23.5t-48 68.5l-39 78h-4l-39 -78q-23 -45 -48.5 -68.5t-84.5 -23.5h-84q-68 0 -84 46z " />
<glyph unicode="&#x11d;" horiz-adv-x="1271" d="M37 569q0 96 28.5 189.5t89 166t151.5 117.5t214 45q90 0 145.5 -21.5t86.5 -47.5q37 -31 51 -70h2q4 49 38 82t97 33h117q133 0 133 -133v-809q0 -152 -56.5 -257.5t-145.5 -171t-199.5 -94t-217.5 -28.5q-43 0 -90 4t-89 11t-77.5 15.5t-56.5 16.5q-66 25 -80 71t6 101 l27 74q29 72 65.5 84t104.5 -4q45 -10 71.5 -16.5t79.5 -6.5q49 0 92.5 6t74 24.5t48 50.5t17.5 83v82h-4q-35 -63 -92.5 -95t-153.5 -32q-121 0 -211 47t-149.5 122t-88 170t-28.5 191zM276 1191q-16 46 31 118l49 77q57 88 162 89h201q104 0 162 -89l49 -77 q47 -72 30.5 -118t-86.5 -46h-81q-59 0 -85 23.5t-49 68.5l-38 78h-5l-38 -78q-23 -45 -48.5 -68.5t-85.5 -23.5h-84q-68 0 -84 46zM465 578q0 -31 7 -64t25.5 -60.5t49.5 -45t78 -17.5q25 0 51 7.5t47.5 25.5t36 52t14.5 89q0 53 -14.5 87t-36 52.5t-49 24.5t-53.5 6 q-88 0 -122 -46t-34 -111z" />
<glyph unicode="&#x11e;" horiz-adv-x="1556" d="M49 725q0 170 58.5 312.5t163 244.5t249 158.5t316.5 56.5q86 0 162.5 -13.5t138 -33.5t106.5 -42t68 -38q55 -41 62 -83t-27 -101l-64 -103q-35 -55 -80 -61t-106 25q-53 25 -103.5 41t-128.5 16q-102 0 -172.5 -30t-113.5 -79t-62.5 -112.5t-19.5 -130.5 q0 -92 30.5 -163t80.5 -120t115.5 -74.5t137.5 -25.5q68 0 116 13t77 30q35 20 55 45v51h-59q-133 0 -134 135v98q0 133 134 133h305q135 0 135 -133v-608q0 -133 -135 -133h-80q-66 0 -99.5 30.5t-33.5 71.5v-18v6q0 2 2 2h-4q-37 -35 -90 -59q-45 -23 -113 -40.5 t-160 -17.5q-139 0 -270 50.5t-232.5 146.5t-163 235.5t-61.5 317.5zM418 1819q0 29 17.5 44t60.5 21l86 10q29 2 47 -4t30.5 -17t18.5 -25.5t12 -28.5q10 -27 39 -47.5t82 -20.5t82 20.5t39 47.5q6 14 12 28.5t18.5 25.5t31 17t46.5 4l86 -10q43 -6 60.5 -21.5t17.5 -43.5 q0 -68 -38 -118t-96 -83t-127 -49.5t-130 -16.5t-131 16.5t-128 49.5t-97 83t-39 118z" />
<glyph unicode="&#x11f;" horiz-adv-x="1271" d="M37 569q0 96 28.5 189.5t89 166t151.5 117.5t214 45q90 0 145.5 -21.5t86.5 -47.5q37 -31 51 -70h2q4 49 38 82t97 33h117q133 0 133 -133v-809q0 -152 -56.5 -257.5t-145.5 -171t-199.5 -94t-217.5 -28.5q-43 0 -90 4t-89 11t-77.5 15.5t-56.5 16.5q-66 25 -80 71t6 101 l27 74q29 72 65.5 84t104.5 -4q45 -10 71.5 -16.5t79.5 -6.5q49 0 92.5 6t74 24.5t48 50.5t17.5 83v82h-4q-35 -63 -92.5 -95t-153.5 -32q-121 0 -211 47t-149.5 122t-88 170t-28.5 191zM225 1399q0 29 17.5 44t60.5 21l86 11q29 2 47.5 -4.5t30.5 -17.5t18.5 -25.5 t12.5 -28.5q10 -27 38.5 -47.5t81.5 -20.5t82 20.5t39 47.5q6 14 12.5 28.5t18.5 25.5t30.5 17.5t47.5 4.5l86 -11q43 -6 60.5 -21.5t17.5 -43.5q0 -68 -38 -118t-96.5 -83t-127 -49t-129.5 -16t-131 16t-128.5 49t-97.5 83t-39 118zM465 578q0 -31 7 -64t25.5 -60.5 t49.5 -45t78 -17.5q25 0 51 7.5t47.5 25.5t36 52t14.5 89q0 53 -14.5 87t-36 52.5t-49 24.5t-53.5 6q-88 0 -122 -46t-34 -111z" />
<glyph unicode="&#x120;" horiz-adv-x="1556" d="M49 725q0 170 58.5 312.5t163 244.5t249 158.5t316.5 56.5q86 0 162.5 -13.5t138 -33.5t106.5 -42t68 -38q55 -41 62 -83t-27 -101l-64 -103q-35 -55 -80 -61t-106 25q-53 25 -103.5 41t-128.5 16q-102 0 -172.5 -30t-113.5 -79t-62.5 -112.5t-19.5 -130.5 q0 -92 30.5 -163t80.5 -120t115.5 -74.5t137.5 -25.5q68 0 116 13t77 30q35 20 55 45v51h-59q-133 0 -134 135v98q0 133 134 133h305q135 0 135 -133v-608q0 -133 -135 -133h-80q-66 0 -99.5 30.5t-33.5 71.5v-18v6q0 2 2 2h-4q-37 -35 -90 -59q-45 -23 -113 -40.5 t-160 -17.5q-139 0 -270 50.5t-232.5 146.5t-163 235.5t-61.5 317.5zM639 1724v35q0 135 135 135h78q135 0 135 -135v-35q0 -133 -135 -133h-78q-135 0 -135 133z" />
<glyph unicode="&#x121;" horiz-adv-x="1271" d="M37 569q0 96 28.5 189.5t89 166t151.5 117.5t214 45q90 0 145.5 -21.5t86.5 -47.5q37 -31 51 -70h2q4 49 38 82t97 33h117q133 0 133 -133v-809q0 -152 -56.5 -257.5t-145.5 -171t-199.5 -94t-217.5 -28.5q-43 0 -90 4t-89 11t-77.5 15.5t-56.5 16.5q-66 25 -80 71t6 101 l27 74q29 72 65.5 84t104.5 -4q45 -10 71.5 -16.5t79.5 -6.5q49 0 92.5 6t74 24.5t48 50.5t17.5 83v82h-4q-35 -63 -92.5 -95t-153.5 -32q-121 0 -211 47t-149.5 122t-88 170t-28.5 191zM446 1305v34q0 135 136 136h77q135 0 136 -136v-34q0 -133 -136 -134h-77 q-135 0 -136 134zM465 578q0 -31 7 -64t25.5 -60.5t49.5 -45t78 -17.5q25 0 51 7.5t47.5 25.5t36 52t14.5 89q0 53 -14.5 87t-36 52.5t-49 24.5t-53.5 6q-88 0 -122 -46t-34 -111z" />
<glyph unicode="&#x122;" horiz-adv-x="1556" d="M49 725q0 170 58.5 312.5t163 244.5t249 158.5t316.5 56.5q86 0 162.5 -13.5t138 -33.5t106.5 -42t68 -38q55 -41 62 -83t-27 -101l-64 -103q-35 -55 -80 -61t-106 25q-53 25 -103.5 41t-128.5 16q-102 0 -172.5 -30t-113.5 -79t-62.5 -112.5t-19.5 -130.5 q0 -92 30.5 -163t80.5 -120t115.5 -74.5t137.5 -25.5q68 0 116 13t77 30q35 20 55 45v51h-59q-133 0 -134 135v98q0 133 134 133h305q135 0 135 -133v-608q0 -133 -135 -133h-80q-66 0 -99.5 30.5t-33.5 71.5v-18v6q0 2 2 2h-4q-37 -35 -90 -59q-45 -23 -113 -40.5 t-160 -17.5q-139 0 -270 50.5t-232.5 146.5t-163 235.5t-61.5 317.5zM608 -416q0 39 11.5 70t11.5 70q0 18 -5 49.5t-5 56.5q0 47 32.5 63.5t85.5 16.5h54q90 0 121.5 -44t31.5 -110t-16.5 -111.5t-43 -74.5t-59 -43t-65.5 -14h-37q-117 0 -117 71z" />
<glyph unicode="&#x123;" horiz-adv-x="1271" d="M37 569q0 96 28.5 189.5t89 166t151.5 117.5t214 45q90 0 145.5 -21.5t86.5 -47.5q37 -31 51 -70h2q4 49 38 82t97 33h117q133 0 133 -133v-809q0 -152 -56.5 -257.5t-145.5 -171t-199.5 -94t-217.5 -28.5q-43 0 -90 4t-89 11t-77.5 15.5t-56.5 16.5q-66 25 -80 71t6 101 l27 74q29 72 65.5 84t104.5 -4q45 -10 71.5 -16.5t79.5 -6.5q49 0 92.5 6t74 24.5t48 50.5t17.5 83v82h-4q-35 -63 -92.5 -95t-153.5 -32q-121 0 -211 47t-149.5 122t-88 170t-28.5 191zM446 1319q0 63 16.5 110.5t43 76t59.5 43t66 14.5h37q117 0 116 -72q0 -39 -11 -69.5 t-11 -69.5q0 -18 5 -50t5 -57q0 -47 -32.5 -63.5t-86.5 -16.5h-53q-90 0 -122 44t-32 110zM465 578q0 -31 7 -64t25.5 -60.5t49.5 -45t78 -17.5q25 0 51 7.5t47.5 25.5t36 52t14.5 89q0 53 -14.5 87t-36 52.5t-49 24.5t-53.5 6q-88 0 -122 -46t-34 -111z" />
<glyph unicode="&#x124;" horiz-adv-x="1519" d="M113 133v1206q0 133 135 134h164q133 0 133 -134v-428h430v428q0 133 133 134h166q133 0 133 -134v-1206q0 -133 -133 -133h-166q-133 0 -133 133v412h-430v-412q0 -133 -133 -133h-164q-135 0 -135 133zM417.5 1611q-16.5 46 31.5 118l49 77q57 88 161 88h201 q104 0 162 -88l49 -77q47 -72 30.5 -118t-85.5 -46h-82q-59 0 -85 23.5t-48 68.5l-39 78h-4l-39 -78q-23 -45 -48.5 -68.5t-84.5 -23.5h-84q-68 0 -84.5 46z" />
<glyph unicode="&#x125;" horiz-adv-x="1257" d="M-45 1611q-16 46 31 118l49 77q57 88 162 88h200q104 0 162 -88l49 -77q47 -72 31 -118t-86 -46h-82q-59 0 -85 23.5t-48 68.5l-39 78h-4l-39 -78q-23 -45 -48.5 -68.5t-84.5 -23.5h-84q-68 0 -84 46zM82 133v1206q0 133 135 134h160q133 0 133 -134v-305q0 -23 -1 -39 t-1 -28q-2 -14 -2 -25h4q51 78 130 111.5t165 33.5q72 0 141.5 -17t123.5 -62t88 -121t34 -193v-561q0 -133 -133 -133h-160q-135 0 -135 133v469q0 57 -24.5 78.5t-69.5 21.5q-49 0 -81 -20t-49.5 -54t-23.5 -76t-6 -83v-336q0 -133 -133 -133h-160q-135 0 -135 133z" />
<glyph unicode="&#x126;" horiz-adv-x="1527" d="M-4 1186v12q0 61 35 91t100 30v20q0 133 135 134h174q133 0 133 -109v-45h383v20q0 133 136 134h174q133 0 133 -109v-45q133 0 133 -121v-12q0 -66 -34 -94.5t-99 -28.5v-930q0 -133 -133 -133h-174q-135 0 -136 133v412h-383v-412q0 -133 -133 -133h-174 q-135 0 -135 133v930q-66 0 -100.5 28.5t-34.5 94.5zM573 911h383v152h-383v-152z" />
<glyph unicode="&#x127;" horiz-adv-x="1257" d="M-23 1235v12q0 92 105 105q6 121 135 121h160q133 0 133 -76v-45h141q133 0 133 -105v-12q0 -109 -133 -109h-141v-84q0 -27 -1 -46t-1 -35q-2 -18 -2 -31h4q49 92 128 124.5t173 32.5q70 0 137.5 -17t121.5 -62t88 -121t34 -193v-561q0 -133 -133 -133h-160 q-135 0 -135 133v475q0 59 -28.5 76.5t-65.5 17.5q-47 0 -78 -19t-49.5 -52t-25.5 -75t-7 -87v-336q0 -133 -133 -133h-160q-135 0 -135 133v993q-104 8 -105 109z" />
<glyph unicode="&#x128;" d="M-100 1671q0 43 18.5 85t51 74t77.5 51.5t98 19.5q63 0 107.5 -18.5t78.5 -40t60.5 -39t54.5 -17.5q25 0 41.5 9t22.5 38q4 29 32.5 45t78.5 16h26q59 0 88 -23.5t29 -76.5q0 -104 -66.5 -171t-177.5 -67q-63 0 -108 17.5t-79 39t-60.5 40t-53.5 18.5q-57 0 -72 -51 q-6 -29 -33.5 -43t-68.5 -14h-29q-53 0 -84.5 26.5t-31.5 81.5zM113 133v1206q0 133 135 134h164q133 0 133 -134v-1206q0 -133 -133 -133h-164q-135 0 -135 133z" />
<glyph unicode="&#x129;" horiz-adv-x="583" d="M-141 1251q0 43 18.5 85t51 74t77.5 51.5t98 19.5q63 0 107.5 -18.5t78.5 -40t60.5 -39t55.5 -17.5q25 0 41 9t22 38q4 29 32.5 45.5t78.5 16.5h26q59 0 88 -24t29 -77q0 -104 -66.5 -170.5t-177.5 -66.5q-63 0 -108 17t-79 38.5t-60.5 40t-53.5 18.5q-57 0 -72 -51 q-6 -29 -33.5 -43t-68.5 -14h-29q-53 0 -84.5 26.5t-31.5 81.5zM78 133v797q0 133 133 133h160q135 0 135 -133v-797q0 -133 -135 -133h-160q-133 0 -133 133z" />
<glyph unicode="&#x12a;" d="M41 1724v19q0 127 133 127h315q135 0 136 -127v-19q0 -125 -136 -125h-315q-133 0 -133 125zM113 133v1206q0 133 135 134h164q133 0 133 -134v-1206q0 -133 -133 -133h-164q-135 0 -135 133z" />
<glyph unicode="&#x12b;" horiz-adv-x="583" d="M0 1305v18q0 127 133 127h316q135 0 135 -127v-18q0 -125 -135 -125h-316q-133 0 -133 125zM78 133v797q0 133 133 133h160q135 0 135 -133v-797q0 -133 -135 -133h-160q-133 0 -133 133z" />
<glyph unicode="&#x12c;" d="M-63 1819q0 29 17 44t60 21l86 10q29 2 47.5 -4t30.5 -17t18.5 -25.5t12.5 -28.5q10 -27 38.5 -47.5t82.5 -20.5q53 0 81.5 20.5t39.5 47.5q6 14 12 28.5t18.5 25.5t30.5 17t47 4l86 -10q43 -6 60.5 -21.5t17.5 -43.5q0 -68 -38 -118t-96.5 -83t-127 -49.5t-129.5 -16.5 t-131 16.5t-128.5 49.5t-97 83t-38.5 118zM113 133v1206q0 133 135 134h164q133 0 133 -134v-1206q0 -133 -133 -133h-164q-135 0 -135 133z" />
<glyph unicode="&#x12d;" horiz-adv-x="583" d="M-104 1399q0 29 17 44t60 21l86 11q29 2 47.5 -4.5t31 -17.5t18.5 -25.5t12 -28.5q10 -27 39 -47.5t82 -20.5t81.5 20.5t39.5 47.5q6 14 12 28.5t18.5 25.5t30.5 17.5t47 4.5l86 -11q43 -6 60.5 -21.5t17.5 -43.5q0 -68 -38 -118t-96.5 -83t-127 -49t-129.5 -16t-131 16 t-128.5 49t-97 83t-38.5 118zM78 133v797q0 133 133 133h160q135 0 135 -133v-797q0 -133 -135 -133h-160q-133 0 -133 133z" />
<glyph unicode="&#x12e;" d="M113 133v1206q0 133 135 134h164q133 0 133 -134v-1206q0 -41 -18.5 -70.5t-41 -55t-41 -51.5t-18.5 -62q0 -12 10 -18.5t27 -16.5q27 -16 34 -45t3 -74l-11 -74q-4 -47 -38.5 -64.5t-77.5 -17.5q-41 0 -87 14.5t-85 41t-63.5 64.5t-24.5 83q0 57 25.5 112.5t64.5 102.5 q-90 25 -90 131z" />
<glyph unicode="&#x12f;" horiz-adv-x="585" d="M74 -213q0 57 25.5 112.5t64.5 102.5q-84 25 -84 131v797q0 133 133 133h160q133 0 133 -133v-797q0 -41 -18.5 -70.5t-41 -55t-41 -51.5t-18.5 -62q0 -12 10.5 -18.5t26.5 -16.5q27 -16 34 -45t3 -74l-10 -74q-4 -47 -39 -64.5t-78 -17.5q-41 0 -87 14.5t-85 41 t-63.5 64.5t-24.5 83zM86 1296v43q0 133 135 134h144q135 0 135 -134v-43q0 -135 -135 -135h-144q-135 0 -135 135z" />
<glyph unicode="&#x130;" d="M113 133v1206q0 133 135 134h164q133 0 133 -134v-1206q0 -133 -133 -133h-164q-135 0 -135 133zM158 1724v35q0 135 135 135h78q135 0 135 -135v-35q0 -133 -135 -133h-78q-135 0 -135 133z" />
<glyph unicode="&#x131;" horiz-adv-x="583" d="M78 133v797q0 133 133 133h160q135 0 135 -133v-797q0 -133 -135 -133h-160q-133 0 -133 133z" />
<glyph unicode="&#x132;" horiz-adv-x="1423" d="M113 133v1206q0 133 135 134h164q133 0 133 -134v-1206q0 -133 -133 -133h-164q-135 0 -135 133zM662 129v131q0 61 29.5 91t84.5 52q41 27 72 73t31 106v757q0 133 133 134h174q135 0 135 -134v-788q0 -156 -57.5 -261.5t-139.5 -170t-172 -92t-153 -27.5 q-137 0 -137 129z" />
<glyph unicode="&#x133;" horiz-adv-x="1251" d="M78 133v797q0 133 133 133h160q135 0 135 -133v-797q0 -133 -135 -133h-160q-133 0 -133 133zM86 1296v43q0 133 133 134h146q133 0 133 -134v-43q0 -135 -133 -135h-146q-133 0 -133 135zM522 -207q0 41 12.5 65.5t31 38t42 19.5t47.5 10q37 6 61.5 28.5t24.5 68.5v907 q0 133 136 133h159q133 0 133 -133v-942q0 -86 -27.5 -150.5t-70.5 -110.5t-96 -76t-105.5 -47.5t-98.5 -24.5t-73 -7h-43q-133 0 -133 135v86zM750 1296v43q0 133 133 134h145q133 0 133 -134v-43q0 -135 -133 -135h-145q-133 0 -133 135z" />
<glyph unicode="&#x134;" horiz-adv-x="1153" d="M12 438q0 78 31 115t102 37h168q39 0 61.5 -8.5t35 -23.5t17.5 -38.5t11 -52.5q8 -39 32 -68.5t67 -29.5q41 0 61 28.5t20 79.5v627h-272q-133 0 -133 133v102q0 133 133 134h572q133 0 133 -134v-872q0 -123 -45 -215t-117 -153.5t-165 -92.5t-187 -31q-100 0 -194.5 33 t-168.5 94.5t-118 146.5t-44 189zM276 1611q-16 46 31 118l49 77q57 88 162 88h201q104 0 162 -88l49 -77q47 -72 30.5 -118t-86.5 -46h-81q-59 0 -85 23.5t-49 68.5l-38 78h-5l-38 -78q-23 -45 -48.5 -68.5t-85.5 -23.5h-84q-68 0 -84 46z" />
<glyph unicode="&#x135;" horiz-adv-x="591" d="M-137 -207q0 41 11 64.5t29.5 38t43 20.5t49.5 10q41 8 63.5 26.5t22.5 59.5v918q0 133 135 133h160q133 0 133 -133v-942q0 -86 -27.5 -150.5t-70.5 -110.5t-96.5 -76t-105.5 -47.5t-98 -24.5t-73 -7h-43q-133 0 -133 135v86zM-42 1192q-11 49 30 115l49 77 q31 47 70.5 68t93.5 21h198q57 0 95 -23t67 -66l49 -77q47 -72 31 -118t-84 -46h-82q-47 0 -76.5 19.5t-58.5 74.5l-39 76h-4l-37 -76q-31 -59 -62.5 -76.5t-72.5 -17.5h-82q-74 0 -85 49z" />
<glyph unicode="&#x136;" horiz-adv-x="1392" d="M113 133v1206q0 133 135 134h164q133 0 133 -134v-411h114l224 448q53 96 159 97h168q80 0 106.5 -45.5t-9.5 -114.5l-295 -547v-4l317 -600q39 -72 12.5 -117t-106.5 -45h-193q-106 0 -159 96l-224 465h-114v-428q0 -133 -133 -133h-164q-135 0 -135 133zM537 -416 q0 39 11 70t11 70q0 18 -5 49.5t-5 56.5q0 47 32.5 63.5t86.5 16.5h53q90 0 121.5 -44t31.5 -110t-16 -111.5t-43 -74.5t-59.5 -43t-65.5 -14h-37q-117 0 -116 71z" />
<glyph unicode="&#x137;" horiz-adv-x="1216" d="M82 133v1206q0 133 135 134h160q133 0 133 -134v-610h78l123 244q27 47 64.5 68.5t92.5 21.5h164q82 0 106.5 -46t-18.5 -114l-190 -330v-4l239 -409q41 -70 16.5 -115t-106.5 -45h-188q-104 0 -158 96l-133 279h-90v-242q0 -133 -133 -133h-160q-135 0 -135 133z M469 -416q0 39 11.5 70t11.5 70q0 18 -5.5 49.5t-5.5 56.5q0 47 33 63.5t86 16.5h53q90 0 122 -44t32 -110t-16.5 -111.5t-43 -74.5t-59.5 -43t-65 -14h-37q-117 0 -117 71z" />
<glyph unicode="&#x138;" horiz-adv-x="1206" d="M78 133v797q0 133 133 133h160q135 0 135 -133v-217h80l125 256q27 53 66.5 73.5t92.5 20.5h162q47 0 72.5 -15.5t35 -39t4.5 -51t-20 -54.5l-198 -348v-4l227 -391q45 -78 16.5 -119t-106.5 -41h-193q-53 0 -92 21.5t-63 74.5l-117 260h-92v-223q0 -133 -135 -133h-160 q-133 0 -133 133z" />
<glyph unicode="&#x139;" horiz-adv-x="1128" d="M113 133v1206q0 133 135 134h164q133 0 133 -134v-970h440q135 0 135 -133v-103q0 -133 -135 -133h-737q-135 0 -135 133zM220 1609q-23 44 11 103l48 86q53 96 157 96h111q86 0 103.5 -49t-36.5 -114l-71 -86q-35 -41 -72 -60.5t-90 -19.5h-72q-66 0 -89 44z" />
<glyph unicode="&#x13a;" horiz-adv-x="659" d="M78 438v901q0 133 135 134h160q133 0 133 -134v-886q0 -47 10 -66.5t33 -24.5q43 -4 68.5 -31.5t25.5 -80.5v-125q0 -61 -31.5 -98t-103.5 -37q-80 0 -158 14t-138 61.5t-97 135.5t-37 237zM183 1609q-23 44 12 103l47 86q53 96 157 96h111q86 0 103.5 -49t-35.5 -114 l-72 -86q-35 -41 -72 -60.5t-90 -19.5h-72q-66 0 -89 44z" />
<glyph unicode="&#x13b;" horiz-adv-x="1128" d="M113 133v1206q0 133 135 134h164q133 0 133 -134v-970h440q135 0 135 -133v-103q0 -133 -135 -133h-737q-135 0 -135 133zM461 -416q0 39 11 70t11 70q0 18 -5 49.5t-5 56.5q0 47 33 63.5t86 16.5h53q90 0 122 -44t32 -110t-16.5 -111.5t-43 -74.5t-59.5 -43t-66 -14h-36 q-117 0 -117 71z" />
<glyph unicode="&#x13c;" d="M76 438v901q0 133 135 134h160q133 0 133 -134v-886q0 -47 10 -66.5t33 -24.5q43 -4 68.5 -31.5t25.5 -80.5v-125q0 -61 -31.5 -98t-103.5 -37q-80 0 -158 14t-138 61.5t-97 135.5t-37 237zM213 -416q0 39 11.5 70t11.5 70q0 18 -5.5 49.5t-5.5 56.5q0 47 33 63.5 t86 16.5h53q90 0 122 -44t32 -110t-16.5 -111.5t-43 -74.5t-59.5 -43t-65 -14h-37q-117 0 -117 71z" />
<glyph unicode="&#x13d;" horiz-adv-x="1132" d="M113 133v1206q0 133 135 134h164q133 0 133 -134v-970h440q135 0 135 -133v-103q0 -133 -135 -133h-737q-135 0 -135 133zM680 1147q0 39 11 69.5t11 69.5q0 18 -5 50t-5 57q0 47 33 63.5t86 16.5h53q90 0 122 -44.5t32 -109.5q0 -66 -16.5 -112t-43 -74.5t-59.5 -43 t-65 -14.5h-37q-117 0 -117 72z" />
<glyph unicode="&#x13e;" horiz-adv-x="659" d="M78 438v901q0 133 135 134h160q133 0 133 -134v-886q0 -47 10 -66.5t33 -24.5q43 -4 68.5 -31.5t25.5 -80.5v-125q0 -61 -31.5 -98t-103.5 -37q-80 0 -158 14t-138 61.5t-97 135.5t-37 237zM598 1147q0 39 11.5 69.5t11.5 69.5q0 18 -5.5 50t-5.5 57q0 47 33 63.5 t86 16.5h53q90 0 122 -44.5t32 -109.5q0 -66 -16.5 -112t-43 -74.5t-59.5 -43t-65 -14.5h-37q-117 0 -117 72z" />
<glyph unicode="&#x13f;" horiz-adv-x="1140" d="M113 133v1206q0 133 135 134h164q133 0 133 -134v-970h440q135 0 135 -133v-103q0 -133 -135 -133h-737q-135 0 -135 133zM713 768v125q0 133 135 133h108q135 0 136 -133v-125q0 -133 -136 -133h-108q-135 0 -135 133z" />
<glyph unicode="&#x140;" horiz-adv-x="999" d="M78 438v901q0 133 135 134h160q133 0 133 -134v-886q0 -47 10 -66.5t33 -24.5q43 -4 68.5 -31.5t25.5 -80.5v-125q0 -61 -31.5 -98t-103.5 -37q-80 0 -158 14t-138 61.5t-97 135.5t-37 237zM608 768v125q0 133 135 133h109q135 0 135 -133v-125q0 -133 -135 -133h-109 q-135 0 -135 133z" />
<glyph unicode="&#x141;" horiz-adv-x="1136" d="M20 455v114q0 109 62 144l39 20v606q0 133 133 134h164q135 0 135 -134v-358l37 20q72 41 117 14.5t45 -106.5v-112q0 -109 -93 -162l-106 -60v-206h440q133 0 133 -133v-103q0 -133 -133 -133h-739q-133 0 -133 133v197q-35 -14 -68 15.5t-33 109.5z" />
<glyph unicode="&#x142;" horiz-adv-x="673" d="M10 528v95q0 55 13.5 90t46.5 51l22 12v563q0 133 133 134h160q133 0 133 -134v-323q57 23 93 -7t36 -100v-112q0 -57 -20.5 -94t-61.5 -62l-47 -27v-161q0 -47 10.5 -66.5t32.5 -24.5q43 -4 69.5 -31.5t26.5 -80.5v-125q0 -61 -31.5 -98t-103.5 -37q-82 0 -158.5 14 t-137 61.5t-97.5 135.5t-37 237q-35 -14 -58.5 11.5t-23.5 78.5z" />
<glyph unicode="&#x143;" horiz-adv-x="1501" d="M113 133v1206q0 133 135 134h196q57 0 95.5 -21.5t64.5 -69.5l242 -473q23 -41 44 -88t40 -88q23 -49 41 -94h4q-6 49 -10 98q-4 41 -6.5 88t-2.5 84v430q0 133 134 134h163q135 0 136 -134v-1206q0 -133 -136 -133h-196q-55 0 -93 21.5t-65 68.5l-244 471q-23 39 -44 86 t-40 88q-23 47 -41 94h-4q4 -49 9 -98q4 -41 7 -87t3 -83v-428q0 -133 -133 -133h-164q-135 0 -135 133zM639.5 1609q-23.5 44 11.5 103l47 86q53 96 158 96h111q86 0 103 -49t-36 -114l-71 -86q-35 -41 -72 -60.5t-90 -19.5h-72q-66 0 -89.5 44z" />
<glyph unicode="&#x144;" horiz-adv-x="1253" d="M78 133v797q0 133 133 133h141q131 0 131 -150h4q43 80 115 127t201 47q72 0 140.5 -17t122.5 -62t88 -121t34 -193v-561q0 -133 -135 -133h-160q-133 0 -133 133v469q0 57 -24.5 78.5t-69.5 21.5q-49 0 -81 -20t-49.5 -54t-23.5 -76t-6 -83v-336q0 -133 -135 -133h-160 q-133 0 -133 133zM523 1189q-23 44 12 103l47 86q53 96 157 97h111q86 0 103.5 -49.5t-35.5 -114.5l-72 -86q-35 -41 -72 -60.5t-90 -19.5h-72q-66 0 -89 44z" />
<glyph unicode="&#x145;" horiz-adv-x="1501" d="M113 133v1206q0 133 135 134h196q57 0 95.5 -21.5t64.5 -69.5l242 -473q23 -41 44 -88t40 -88q23 -49 41 -94h4q-6 49 -10 98q-4 41 -6.5 88t-2.5 84v430q0 133 134 134h163q135 0 136 -134v-1206q0 -133 -136 -133h-196q-55 0 -93 21.5t-65 68.5l-244 471q-23 39 -44 86 t-40 88q-23 47 -41 94h-4q4 -49 9 -98q4 -41 7 -87t3 -83v-428q0 -133 -133 -133h-164q-135 0 -135 133zM588 -416q0 39 11 70t11 70q0 18 -5 49.5t-5 56.5q0 47 33 63.5t86 16.5h53q90 0 122 -44t32 -110t-16.5 -111.5t-43 -74.5t-59.5 -43t-66 -14h-36q-117 0 -117 71z " />
<glyph unicode="&#x146;" horiz-adv-x="1253" d="M78 133v797q0 133 133 133h141q131 0 131 -150h4q43 80 115 127t201 47q72 0 140.5 -17t122.5 -62t88 -121t34 -193v-561q0 -133 -135 -133h-160q-133 0 -133 133v469q0 57 -24.5 78.5t-69.5 21.5q-49 0 -81 -20t-49.5 -54t-23.5 -76t-6 -83v-336q0 -133 -135 -133h-160 q-133 0 -133 133zM459 -416q0 39 11 70t11 70q0 18 -5 49.5t-5 56.5q0 47 33 63.5t86 16.5h53q90 0 122 -44t32 -110t-16.5 -111.5t-43 -74.5t-59.5 -43t-66 -14h-37q-117 0 -116 71z" />
<glyph unicode="&#x147;" horiz-adv-x="1501" d="M113 133v1206q0 133 135 134h196q57 0 95.5 -21.5t64.5 -69.5l242 -473q23 -41 44 -88t40 -88q23 -49 41 -94h4q-6 49 -10 98q-4 41 -6.5 88t-2.5 84v430q0 133 134 134h163q135 0 136 -134v-1206q0 -133 -136 -133h-196q-55 0 -93 21.5t-65 68.5l-244 471q-23 39 -44 86 t-40 88q-23 47 -41 94h-4q4 -49 9 -98q4 -41 7 -87t3 -83v-428q0 -133 -133 -133h-164q-135 0 -135 133zM407.5 1847.5q16.5 46.5 84.5 46.5h83q57 0 82 -23.5t54 -70.5l37 -76h4l36 76q29 47 53.5 70.5t82.5 23.5h84q68 0 84 -47t-31 -116l-49 -78q-59 -88 -162 -88h-201 q-102 0 -162 88l-49 78q-47 70 -30.5 116.5z" />
<glyph unicode="&#x148;" horiz-adv-x="1253" d="M78 133v797q0 133 133 133h141q131 0 131 -150h4q43 80 115 127t201 47q72 0 140.5 -17t122.5 -62t88 -121t34 -193v-561q0 -133 -135 -133h-160q-133 0 -133 133v469q0 57 -24.5 78.5t-69.5 21.5q-49 0 -81 -20t-49.5 -54t-23.5 -76t-6 -83v-336q0 -133 -135 -133h-160 q-133 0 -133 133zM293 1428q16 47 84 47h84q57 0 81.5 -24t53.5 -71l37 -75h4l37 75q29 47 53.5 71t81.5 24h84q68 0 84 -47.5t-31 -116.5l-49 -78q-59 -88 -162 -88h-200q-102 0 -162 88l-49 78q-47 70 -31 117z" />
<glyph unicode="&#x149;" horiz-adv-x="1253" d="M-127 1147q0 39 11.5 69.5t11.5 69.5q0 18 -5.5 50t-5.5 57q0 47 33 63.5t86 16.5h53q90 0 122 -44.5t32 -109.5q0 -66 -16.5 -112t-43 -74.5t-59.5 -43t-65 -14.5h-37q-117 0 -117 72zM78 133v797q0 133 133 133h141q131 0 131 -150h4q43 80 115 127t201 47 q72 0 140.5 -17t122.5 -62t88 -121t34 -193v-561q0 -133 -135 -133h-160q-133 0 -133 133v469q0 57 -24.5 78.5t-69.5 21.5q-49 0 -81 -20t-49.5 -54t-23.5 -76t-6 -83v-336q0 -133 -135 -133h-160q-133 0 -133 133z" />
<glyph unicode="&#x14a;" horiz-adv-x="1503" d="M113 133v1206q0 133 135 134h196q61 0 99.5 -24t60.5 -67l244 -473q18 -39 39.5 -85t40.5 -87q23 -49 43 -98h4q-6 49 -10 98q-4 41 -6.5 88t-2.5 84v430q0 133 134 134h163q135 0 136 -134v-1362q0 -133 -60.5 -213.5t-141.5 -123.5t-162 -56.5t-124 -13.5 q-86 0 -123 36t-37 101v94q0 41 12.5 65.5t32 38t44 19.5t47.5 10q12 2 28.5 6.5t30.5 11.5t24.5 17.5t10.5 26.5l-318 565q-23 39 -45 85t-39 87q-23 47 -39 96h-4q4 -49 9 -98q4 -41 7 -87t3 -83v-428q0 -133 -133 -133h-164q-135 0 -135 133z" />
<glyph unicode="&#x14b;" horiz-adv-x="1265" d="M78 133v797q0 133 133 133h141q131 0 131 -150h4q43 80 115 127t201 47q72 0 140.5 -17t122.5 -62t88 -121t34 -193v-706q0 -86 -27.5 -150.5t-70.5 -110.5t-96.5 -76t-106.5 -47.5t-99.5 -24.5t-72.5 -7h-41q-135 0 -135 135v96q0 66 34.5 95.5t100.5 38.5 q37 4 61.5 25.5t24.5 60.5v579q0 57 -24.5 78.5t-69.5 21.5q-49 0 -81 -20t-49.5 -54t-23.5 -76t-6 -83v-336q0 -133 -135 -133h-160q-133 0 -133 133z" />
<glyph unicode="&#x14c;" horiz-adv-x="1652" d="M49 745q0 158 55.5 295.5t158 238.5t244.5 159.5t318 58.5q174 0 318.5 -58.5t246 -159.5t158 -238.5t56.5 -295.5q0 -162 -56.5 -302t-158 -244.5t-246 -164t-318.5 -59.5q-176 0 -318 59.5t-244.5 164t-158 244.5t-55.5 302zM496 745q0 -80 24.5 -149.5t67.5 -119.5 t103.5 -78.5t133.5 -28.5q74 0 135.5 28.5t104.5 78.5t67.5 120t24.5 149q0 76 -24.5 142.5t-67.5 114t-104.5 75t-135.5 27.5t-134 -27.5t-103 -75t-67.5 -114t-24.5 -142.5zM535 1724v19q0 127 133 127h315q135 0 135 -127v-19q0 -125 -135 -125h-315q-133 0 -133 125z " />
<glyph unicode="&#x14d;" horiz-adv-x="1294" d="M31 526q0 127 48 230.5t131 177.5t195.5 113.5t239.5 39.5q129 0 241.5 -39.5t196.5 -113.5t132.5 -177.5t48.5 -230.5t-48.5 -228t-132.5 -173t-195.5 -111t-240.5 -39t-240.5 39t-195.5 111t-132 173t-48 228zM356 1305v18q0 127 133 127h316q135 0 135 -127v-18 q0 -125 -135 -125h-316q-133 0 -133 125zM463 526q0 -98 55 -148t129 -50t130.5 50t56.5 148q0 100 -56.5 154.5t-130.5 54.5t-129 -54.5t-55 -154.5z" />
<glyph unicode="&#x14e;" horiz-adv-x="1652" d="M49 745q0 158 55.5 295.5t158 238.5t244.5 159.5t318 58.5q174 0 318.5 -58.5t246 -159.5t158 -238.5t56.5 -295.5q0 -162 -56.5 -302t-158 -244.5t-246 -164t-318.5 -59.5q-176 0 -318 59.5t-244.5 164t-158 244.5t-55.5 302zM430 1819q0 29 17.5 44t60.5 21l86 10 q29 2 47 -4t30.5 -17t18.5 -25.5t12 -28.5q10 -27 39 -47.5t82 -20.5t82 20.5t39 47.5q6 14 12.5 28.5t18.5 25.5t30.5 17t47.5 4l86 -10q43 -6 60.5 -21.5t17.5 -43.5q0 -68 -38 -118t-96.5 -83t-127.5 -49.5t-130 -16.5t-130.5 16.5t-128 49.5t-97.5 83t-39 118zM496 745 q0 -80 24.5 -149.5t67.5 -119.5t103.5 -78.5t133.5 -28.5q74 0 135.5 28.5t104.5 78.5t67.5 120t24.5 149q0 76 -24.5 142.5t-67.5 114t-104.5 75t-135.5 27.5t-134 -27.5t-103 -75t-67.5 -114t-24.5 -142.5z" />
<glyph unicode="&#x14f;" horiz-adv-x="1294" d="M31 526q0 127 48 230.5t131 177.5t195.5 113.5t239.5 39.5q129 0 241.5 -39.5t196.5 -113.5t132.5 -177.5t48.5 -230.5t-48.5 -228t-132.5 -173t-195.5 -111t-240.5 -39t-240.5 39t-195.5 111t-132 173t-48 228zM252 1399q0 29 17.5 44t60.5 21l86 11q29 2 47 -4.5 t30.5 -17.5t18.5 -25.5t12 -28.5q10 -27 39 -47.5t82 -20.5t82 20.5t39 47.5q6 14 12 28.5t18.5 25.5t31 17.5t46.5 4.5l87 -11q43 -6 60 -21.5t17 -43.5q0 -68 -37.5 -118t-96 -83t-127.5 -49t-130 -16t-131 16t-128 49t-97 83t-39 118zM463 526q0 -98 55 -148t129 -50 t130.5 50t56.5 148q0 100 -56.5 154.5t-130.5 54.5t-129 -54.5t-55 -154.5z" />
<glyph unicode="&#x150;" horiz-adv-x="1652" d="M49 745q0 158 55.5 295.5t158 238.5t244.5 159.5t318 58.5q174 0 318.5 -58.5t246 -159.5t158 -238.5t56.5 -295.5q0 -162 -56.5 -302t-158 -244.5t-246 -164t-318.5 -59.5q-176 0 -318 59.5t-244.5 164t-158 244.5t-55.5 302zM470 1607q-21 42 13 115l35 74 q47 98 158 98h57q78 0 99.5 -44t-13.5 -115l-37 -76q-25 -49 -66.5 -71.5t-92.5 -22.5h-54q-78 0 -99 42zM496 745q0 -80 24.5 -149.5t67.5 -119.5t103.5 -78.5t133.5 -28.5q74 0 135.5 28.5t104.5 78.5t67.5 120t24.5 149q0 76 -24.5 142.5t-67.5 114t-104.5 75 t-135.5 27.5t-134 -27.5t-103 -75t-67.5 -114t-24.5 -142.5zM943 1669q5 29 22 57l39 72q53 96 157 96h90q45 0 71 -14t33 -37.5t-2.5 -53.5t-33.5 -58l-72 -86q-35 -43 -71.5 -61.5t-90.5 -18.5h-41q-43 0 -67.5 14t-31.5 37.5t-2 52.5z" />
<glyph unicode="&#x151;" horiz-adv-x="1294" d="M31 526q0 127 48 230.5t131 177.5t195.5 113.5t239.5 39.5q129 0 241.5 -39.5t196.5 -113.5t132.5 -177.5t48.5 -230.5t-48.5 -228t-132.5 -173t-195.5 -111t-240.5 -39t-240.5 39t-195.5 111t-132 173t-48 228zM291.5 1187q-21.5 42 13.5 116l35 73q47 98 158 99h57 q78 0 99.5 -44.5t-13.5 -115.5l-37 -76q-25 -49 -66.5 -71.5t-93.5 -22.5h-53q-78 0 -99.5 42zM463 526q0 -98 55 -148t129 -50t130.5 50t56.5 148q0 100 -56.5 154.5t-130.5 54.5t-129 -54.5t-55 -154.5zM765 1249.5q5 28.5 21 57.5l39 71q53 96 158 97h90q45 0 70.5 -14.5 t33 -38t-2 -53.5t-33.5 -58l-72 -86q-35 -43 -71.5 -61.5t-90.5 -18.5h-41q-43 0 -67.5 14.5t-31.5 38t-2 52z" />
<glyph unicode="&#x152;" horiz-adv-x="2023" d="M43 739q0 158 64.5 295t174 238.5t255 159t309.5 57.5q59 0 97 -3t66.5 -6t54.5 -5t62 -2h689q135 0 135 -134v-102q0 -133 -135 -133h-388v-178h279q133 0 133 -133v-103q0 -133 -133 -133h-279v-188h416q135 0 135 -133v-103q0 -133 -135 -133h-719q-37 0 -62.5 -2 t-53 -5t-65.5 -5t-97 -2q-164 0 -309.5 58t-255 160.5t-174 239.5t-64.5 295zM489 739q0 -80 29 -150.5t78 -123.5t113.5 -84t136.5 -31q70 0 110 6q23 4 39 9v743q-16 2 -39 6q-20 4 -47.5 6t-62.5 2q-72 0 -136.5 -29.5t-113.5 -82t-78 -122t-29 -149.5z" />
<glyph unicode="&#x153;" horiz-adv-x="1931" d="M31 528q0 125 46 228.5t127 177.5t190.5 113.5t234.5 39.5q74 0 130 -11t101 -29.5t83 -43t75 -51.5h4q31 27 63.5 51.5t75.5 43t98.5 29.5t133.5 11q123 0 217 -39.5t158.5 -109.5t97 -162t32.5 -196q0 -45 -38.5 -87t-102.5 -42h-497q25 -59 77 -91t123 -32q41 0 83 8 t83 26q61 27 105.5 17t74.5 -70l33 -63q29 -57 18.5 -105.5t-65.5 -79.5q-61 -33 -154.5 -59.5t-214.5 -26.5q-82 0 -141 13.5t-104 34t-79 47t-67 53.5h-4q-37 -29 -75 -55.5t-84 -47t-103 -33t-133 -12.5q-127 0 -236.5 40t-191.5 113t-128 174t-46 226zM459 528 q0 -96 56 -148t130 -52t129 52t55 146q0 98 -54 153.5t-130 55.5q-74 0 -130 -54.5t-56 -152.5zM1266 666h221q4 49 -20.5 91t-77.5 42q-35 0 -57.5 -12.5t-37 -31t-20.5 -42t-8 -47.5z" />
<glyph unicode="&#x154;" horiz-adv-x="1316" d="M113 133v1206q0 133 135 134h399q102 0 173 -7.5t120 -23.5q61 -20 114.5 -61.5t92.5 -98.5t60.5 -129t21.5 -154q0 -55 -12.5 -114.5t-37 -114.5t-63.5 -102t-92 -80v-4q10 -12 20 -27q10 -12 21.5 -28.5t24.5 -39.5l184 -327q43 -78 12 -120t-104 -42h-191 q-47 0 -88 20.5t-69 73.5l-187 361h-102v-322q0 -133 -133 -133h-164q-135 0 -135 133zM525 1609q-23 44 12 103l47 86q53 96 157 96h111q86 0 103.5 -49t-35.5 -114l-72 -86q-35 -41 -72 -60.5t-90 -19.5h-72q-66 0 -89 44zM545 823h92q78 0 116 36t38 120q0 29 -10.5 59.5 t-55.5 48.5q-25 10 -52.5 13.5t-62.5 3.5h-65v-281z" />
<glyph unicode="&#x155;" horiz-adv-x="866" d="M78 133v797q0 133 133 133h141q135 0 135 -133v-41q0 -12 -1 -22.5t-1 -18.5q-2 -8 -2 -19h4q12 35 37 78t61 80t78 62.5t89 25.5q63 0 86.5 -34.5t23.5 -100.5v-139q0 -135 -131 -135q-115 0 -170 -74t-55 -191v-268q0 -133 -135 -133h-160q-133 0 -133 133zM400 1187 q-23 44 12 103l47 86q53 96 157 97h111q86 0 103.5 -49.5t-35.5 -114.5l-72 -86q-35 -41 -72 -60.5t-90 -19.5h-72q-66 0 -89 44z" />
<glyph unicode="&#x156;" horiz-adv-x="1316" d="M113 133v1206q0 133 135 134h399q102 0 173 -7.5t120 -23.5q61 -20 114.5 -61.5t92.5 -98.5t60.5 -129t21.5 -154q0 -55 -12.5 -114.5t-37 -114.5t-63.5 -102t-92 -80v-4q10 -12 20 -27q10 -12 21.5 -28.5t24.5 -39.5l184 -327q43 -78 12 -120t-104 -42h-191 q-47 0 -88 20.5t-69 73.5l-187 361h-102v-322q0 -133 -133 -133h-164q-135 0 -135 133zM518 -416q0 39 11.5 70t11.5 70q0 18 -5.5 49.5t-5.5 56.5q0 47 33 63.5t86 16.5h53q90 0 122 -44t32 -110t-16.5 -111.5t-43 -74.5t-59 -43t-65.5 -14h-37q-117 0 -117 71zM545 823h92 q78 0 116 36t38 120q0 29 -10.5 59.5t-55.5 48.5q-25 10 -52.5 13.5t-62.5 3.5h-65v-281z" />
<glyph unicode="&#x157;" horiz-adv-x="866" d="M78 133v797q0 133 133 133h141q135 0 135 -133v-41q0 -12 -1 -22.5t-1 -18.5q-2 -8 -2 -19h4q12 35 37 78t61 80t78 62.5t89 25.5q63 0 86.5 -34.5t23.5 -100.5v-139q0 -135 -131 -135q-115 0 -170 -74t-55 -191v-268q0 -133 -135 -133h-160q-133 0 -133 133zM129 -416 q0 39 11.5 70t11.5 70q0 18 -5.5 49.5t-5.5 56.5q0 47 33 63.5t86 16.5h53q90 0 122 -44t32 -110t-16.5 -111.5t-43 -74.5t-59.5 -43t-65 -14h-37q-117 0 -117 71z" />
<glyph unicode="&#x158;" horiz-adv-x="1316" d="M113 133v1206q0 133 135 134h399q102 0 173 -7.5t120 -23.5q61 -20 114.5 -61.5t92.5 -98.5t60.5 -129t21.5 -154q0 -55 -12.5 -114.5t-37 -114.5t-63.5 -102t-92 -80v-4q10 -12 20 -27q10 -12 21.5 -28.5t24.5 -39.5l184 -327q43 -78 12 -120t-104 -42h-191 q-47 0 -88 20.5t-69 73.5l-187 361h-102v-322q0 -133 -133 -133h-164q-135 0 -135 133zM295 1847.5q16 46.5 84 46.5h84q57 0 81.5 -23.5t53.5 -70.5l37 -76h4l37 76q29 47 53.5 70.5t81.5 23.5h84q68 0 84 -47t-31 -116l-49 -78q-59 -88 -162 -88h-200q-102 0 -162 88 l-49 78q-47 70 -31 116.5zM545 823h92q78 0 116 36t38 120q0 29 -10.5 59.5t-55.5 48.5q-25 10 -52.5 13.5t-62.5 3.5h-65v-281z" />
<glyph unicode="&#x159;" horiz-adv-x="866" d="M78 133v797q0 133 133 133h141q135 0 135 -133v-41q0 -12 -1 -22.5t-1 -18.5q-2 -8 -2 -19h4q12 35 37 78t61 80t78 62.5t89 25.5q63 0 86.5 -34.5t23.5 -100.5v-139q0 -135 -131 -135q-115 0 -170 -74t-55 -191v-268q0 -133 -135 -133h-160q-133 0 -133 133zM170 1426 q16 47 84 47h84q57 0 81.5 -24t53.5 -71l37 -75h4l37 75q29 47 53.5 71t81.5 24h84q68 0 84 -47.5t-31 -116.5l-49 -78q-59 -88 -162 -88h-200q-102 0 -162 88l-49 78q-47 70 -31 117z" />
<glyph unicode="&#x15a;" horiz-adv-x="1183" d="M54.5 190.5q-17.5 42.5 29.5 112.5l78 113q37 53 81 59t103 -26q18 -6 42 -20.5t54.5 -29t67.5 -24.5t80 -10q63 0 85.5 19t22.5 46q0 39 -46 65.5t-115.5 53t-149.5 60.5t-149.5 87.5t-115.5 132t-46 197.5q0 106 41 193.5t114.5 149t174 95t217.5 33.5q63 0 124.5 -9 t114.5 -24.5t97.5 -35t72.5 -37.5q53 -39 61.5 -85t-18.5 -100l-59 -116q-18 -37 -40 -53.5t-44.5 -19.5t-48 5t-49.5 20q-55 25 -103.5 45.5t-114.5 20.5q-61 0 -85.5 -19.5t-24.5 -48.5q0 -43 46 -69.5t115.5 -52t150.5 -57.5t150.5 -83t115.5 -129t46 -196 q0 -96 -35.5 -182.5t-104 -152t-169 -104.5t-231.5 -39q-76 0 -148.5 13.5t-136 34t-113.5 46t-81 50.5q-39 29 -56.5 71.5zM478 1609q-23 44 11 103l48 86q53 96 157 96h111q86 0 103.5 -49t-36.5 -114l-71 -86q-35 -41 -72 -60.5t-90 -19.5h-72q-66 0 -89 44z" />
<glyph unicode="&#x15b;" horiz-adv-x="956" d="M41 146.5q-6 48.5 29 103.5l34 55q35 53 77 60.5t108 -17.5q16 -6 65 -25.5t109 -19.5q35 0 48 12.5t13 28.5q0 23 -34.5 34t-88 23.5t-115 30t-114.5 52t-88 93t-35 152.5q0 88 36 155.5t99.5 112.5t146.5 67.5t179 22.5q98 0 184 -19t129 -42q55 -29 66.5 -77 t-17.5 -103l-28 -58q-6 -14 -17.5 -31.5t-30 -29.5t-49 -15t-77.5 13q-41 12 -82 24.5t-86 12.5q-57 0 -58 -39q0 -20 35 -31.5t88.5 -23t114.5 -28.5t114.5 -51t88.5 -91.5t35 -149.5q0 -80 -31 -148.5t-89.5 -117.5t-143.5 -78t-191 -29q-61 0 -117.5 9.5t-103.5 22.5 t-83.5 28.5t-56.5 27.5q-57 35 -63 83.5zM345 1189q-23 44 11 103l47 86q53 96 158 97h111q86 0 103.5 -49.5t-36.5 -114.5l-71 -86q-35 -41 -72 -60.5t-90 -19.5h-72q-66 0 -89 44z" />
<glyph unicode="&#x15c;" horiz-adv-x="1183" d="M54.5 190.5q-17.5 42.5 29.5 112.5l78 113q37 53 81 59t103 -26q18 -6 42 -20.5t54.5 -29t67.5 -24.5t80 -10q63 0 85.5 19t22.5 46q0 39 -46 65.5t-115.5 53t-149.5 60.5t-149.5 87.5t-115.5 132t-46 197.5q0 106 41 193.5t114.5 149t174 95t217.5 33.5q63 0 124.5 -9 t114.5 -24.5t97.5 -35t72.5 -37.5q53 -39 61.5 -85t-18.5 -100l-59 -116q-18 -37 -40 -53.5t-44.5 -19.5t-48 5t-49.5 20q-55 25 -103.5 45.5t-114.5 20.5q-61 0 -85.5 -19.5t-24.5 -48.5q0 -43 46 -69.5t115.5 -52t150.5 -57.5t150.5 -83t115.5 -129t46 -196 q0 -96 -35.5 -182.5t-104 -152t-169 -104.5t-231.5 -39q-76 0 -148.5 13.5t-136 34t-113.5 46t-81 50.5q-39 29 -56.5 71.5zM245.5 1611q-16.5 46 30.5 118l50 77q57 88 161 88h201q104 0 162 -88l49 -77q47 -72 30.5 -118t-85.5 -46h-82q-59 0 -85 23.5t-48 68.5l-39 78h-4 l-39 -78q-23 -45 -48.5 -68.5t-84.5 -23.5h-84q-68 0 -84.5 46z" />
<glyph unicode="&#x15d;" horiz-adv-x="956" d="M41 146.5q-6 48.5 29 103.5l34 55q35 53 77 60.5t108 -17.5q16 -6 65 -25.5t109 -19.5q35 0 48 12.5t13 28.5q0 23 -34.5 34t-88 23.5t-115 30t-114.5 52t-88 93t-35 152.5q0 88 36 155.5t99.5 112.5t146.5 67.5t179 22.5q98 0 184 -19t129 -42q55 -29 66.5 -77 t-17.5 -103l-28 -58q-6 -14 -17.5 -31.5t-30 -29.5t-49 -15t-77.5 13q-41 12 -82 24.5t-86 12.5q-57 0 -58 -39q0 -20 35 -31.5t88.5 -23t114.5 -28.5t114.5 -51t88.5 -91.5t35 -149.5q0 -80 -31 -148.5t-89.5 -117.5t-143.5 -78t-191 -29q-61 0 -117.5 9.5t-103.5 22.5 t-83.5 28.5t-56.5 27.5q-57 35 -63 83.5zM118.5 1191q-16.5 46 31.5 118l49 77q57 88 161 89h201q104 0 162 -89l49 -77q47 -72 30.5 -118t-85.5 -46h-82q-59 0 -85 23.5t-48 68.5l-39 78h-4l-39 -78q-23 -45 -48.5 -68.5t-84.5 -23.5h-84q-68 0 -84.5 46z" />
<glyph unicode="&#x15e;" horiz-adv-x="1185" d="M54.5 190.5q-17.5 42.5 29.5 112.5l78 113q37 53 81 59t103 -26q18 -6 42 -20.5t54.5 -29t67.5 -24.5t80 -10q63 0 85.5 19t22.5 46q0 39 -46 65.5t-115.5 53t-149.5 60.5t-149.5 87.5t-115.5 132t-46 197.5q0 106 41 193.5t114.5 149t174 95t217.5 33.5q63 0 124.5 -9 t114.5 -24.5t97.5 -35t72.5 -37.5q53 -39 61.5 -85t-18.5 -100l-59 -116q-18 -37 -40 -53.5t-44.5 -19.5t-48 5t-49.5 20q-55 25 -103.5 45.5t-114.5 20.5q-61 0 -85.5 -19.5t-24.5 -48.5q0 -43 46 -69.5t115.5 -52t150.5 -57.5t150.5 -83t115.5 -129t46 -196 q0 -86 -29.5 -166t-86 -143.5t-140 -106.5t-192.5 -55l-10 -41q61 -6 109 -45t48 -127q0 -59 -22.5 -98.5t-59 -62t-81.5 -32.5t-91 -10q-25 0 -49 3t-45.5 14t-35 29.5t-13.5 49.5q0 55 19.5 77.5t35.5 22.5t29.5 -1t20.5 -1q23 0 32 12.5t9 28.5q0 23 -21.5 31t-56.5 10 q-29 2 -34 23.5t7 58.5l19 58q-123 14 -225.5 55t-155.5 82q-39 29 -56.5 71.5z" />
<glyph unicode="&#x15f;" horiz-adv-x="960" d="M43 146.5q-6 48.5 29 103.5l34 55q35 53 77 60.5t108 -17.5q16 -6 65.5 -25.5t108.5 -19.5q35 0 48 12.5t13 28.5q0 23 -34.5 34t-88 23.5t-115 30t-114.5 52t-88 93t-35 152.5q0 88 36 155.5t99.5 112.5t146.5 67.5t179 22.5q98 0 184 -19t129 -42q55 -29 66.5 -77 t-17.5 -103l-28 -58q-6 -14 -17.5 -31.5t-30 -29.5t-49 -15t-77.5 13q-41 12 -82 24.5t-86 12.5q-57 0 -58 -39q0 -20 35 -31.5t88.5 -23t114.5 -28.5t114.5 -51t88.5 -91.5t35 -149.5q0 -74 -27 -137.5t-76 -112.5t-121.5 -79.5t-165.5 -38.5l-8 -39q61 -6 109.5 -45 t48.5 -127q0 -59 -22.5 -98.5t-59.5 -62t-82 -32.5t-90 -10q-25 0 -49.5 3t-46 14t-34.5 29.5t-13 49.5q0 55 19.5 77.5t35.5 22.5t29.5 -1t19.5 -1q23 0 32 12.5t9 28.5q0 23 -21.5 31t-56.5 10q-29 2 -34 23.5t8 58.5l20 62q-84 10 -146.5 33.5t-93.5 43.5 q-57 35 -63 83.5z" />
<glyph unicode="&#x160;" horiz-adv-x="1183" d="M54.5 190.5q-17.5 42.5 29.5 112.5l78 113q37 53 81 59t103 -26q18 -6 42 -20.5t54.5 -29t67.5 -24.5t80 -10q63 0 85.5 19t22.5 46q0 39 -46 65.5t-115.5 53t-149.5 60.5t-149.5 87.5t-115.5 132t-46 197.5q0 106 41 193.5t114.5 149t174 95t217.5 33.5q63 0 124.5 -9 t114.5 -24.5t97.5 -35t72.5 -37.5q53 -39 61.5 -85t-18.5 -100l-59 -116q-18 -37 -40 -53.5t-44.5 -19.5t-48 5t-49.5 20q-55 25 -103.5 45.5t-114.5 20.5q-61 0 -85.5 -19.5t-24.5 -48.5q0 -43 46 -69.5t115.5 -52t150.5 -57.5t150.5 -83t115.5 -129t46 -196 q0 -96 -35.5 -182.5t-104 -152t-169 -104.5t-231.5 -39q-76 0 -148.5 13.5t-136 34t-113.5 46t-81 50.5q-39 29 -56.5 71.5zM245.5 1847.5q16.5 46.5 84.5 46.5h84q57 0 81.5 -23.5t53.5 -70.5l37 -76h4l37 76q29 47 53.5 70.5t81.5 23.5h84q68 0 84 -47t-31 -116l-49 -78 q-59 -88 -162 -88h-201q-102 0 -161 88l-50 78q-47 70 -30.5 116.5z" />
<glyph unicode="&#x161;" horiz-adv-x="956" d="M41 146.5q-6 48.5 29 103.5l34 55q35 53 77 60.5t108 -17.5q16 -6 65 -25.5t109 -19.5q35 0 48 12.5t13 28.5q0 23 -34.5 34t-88 23.5t-115 30t-114.5 52t-88 93t-35 152.5q0 88 36 155.5t99.5 112.5t146.5 67.5t179 22.5q98 0 184 -19t129 -42q55 -29 66.5 -77 t-17.5 -103l-28 -58q-6 -14 -17.5 -31.5t-30 -29.5t-49 -15t-77.5 13q-41 12 -82 24.5t-86 12.5q-57 0 -58 -39q0 -20 35 -31.5t88.5 -23t114.5 -28.5t114.5 -51t88.5 -91.5t35 -149.5q0 -80 -31 -148.5t-89.5 -117.5t-143.5 -78t-191 -29q-61 0 -117.5 9.5t-103.5 22.5 t-83.5 28.5t-56.5 27.5q-57 35 -63 83.5zM119 1428q16 47 84 47h84q57 0 81.5 -24t53.5 -71l37 -75h4l37 75q29 47 53.5 71t81.5 24h84q68 0 84 -47.5t-31 -116.5l-49 -78q-59 -88 -162 -88h-201q-102 0 -161 88l-49 78q-47 70 -31 117z" />
<glyph unicode="&#x162;" horiz-adv-x="1292" d="M10 1237v102q0 133 133 134h1006q133 0 133 -134v-102q0 -133 -133 -133h-287v-971q0 -133 -131 -133l-14 -59q61 -6 109 -45t48 -127q0 -59 -22.5 -98.5t-59 -62t-81.5 -32.5t-90 -10q-25 0 -49.5 3t-46 14t-35 29.5t-13.5 49.5q0 55 19.5 77.5t35.5 22.5t29.5 -1 t20.5 -1q23 0 32 12.5t9 28.5q0 23 -21.5 31t-56.5 10q-29 2 -34 23.5t7 58.5l27 76q-115 10 -115 133v971h-287q-133 0 -133 133z" />
<glyph unicode="&#x163;" horiz-adv-x="860" d="M31 844v63q0 133 131 133h26v174q0 133 134 134h145q135 0 135 -134v-174h74q135 0 135 -133v-63q0 -133 -131 -133h-78v-254q0 -84 88 -97q37 -6 61.5 -12t40 -19.5t22.5 -35t7 -55.5v-115q0 -76 -44 -104.5t-130 -28.5q-35 0 -84 6l-12 -55q61 -6 109.5 -45t48.5 -127 q0 -59 -22.5 -98.5t-59.5 -62t-82 -32.5t-90 -10q-25 0 -49.5 3t-46 14t-35 29.5t-13.5 49.5q0 55 19.5 77.5t36.5 22.5q16 0 29.5 -1t19.5 -1q23 0 32 12.5t9 28.5q0 23 -21.5 31t-56.5 10q-29 2 -34 23.5t7 58.5l39 117q-43 18 -82 47t-69.5 70t-48 95t-17.5 124v334h-12 q-131 0 -131 133z" />
<glyph unicode="&#x164;" horiz-adv-x="1292" d="M10 1237v102q0 133 133 134h1006q133 0 133 -134v-102q0 -133 -133 -133h-287v-971q0 -133 -133 -133h-166q-133 0 -133 133v971h-287q-133 0 -133 133zM301 1847.5q16 46.5 84 46.5h84q57 0 81.5 -23.5t53.5 -70.5l37 -76h4l37 76q29 47 53.5 70.5t81.5 23.5h84 q68 0 84 -47t-31 -116l-49 -78q-59 -88 -162 -88h-200q-102 0 -162 88l-49 78q-47 70 -31 116.5z" />
<glyph unicode="&#x165;" horiz-adv-x="856" d="M27 844v63q0 133 131 133h26v174q0 133 133 134h146q135 0 135 -134v-174h74q135 0 135 -133v-63q0 -133 -131 -133h-78v-254q0 -84 88 -97q37 -6 61.5 -12t40 -19.5t22.5 -35t7 -55.5v-115q0 -76 -44 -104.5t-130 -28.5q-49 0 -130 13t-156.5 54t-131 117t-55.5 203v334 h-12q-131 0 -131 133zM674 1139q0 39 11 69.5t11 69.5q0 18 -5 49.5t-5 56.5q0 47 33 63.5t86 16.5h53q90 0 122 -44t32 -109q0 -66 -16.5 -112t-43 -74.5t-59.5 -43t-66 -14.5h-36q-117 0 -117 72z" />
<glyph unicode="&#x166;" horiz-adv-x="1292" d="M10 1237v102q0 133 133 134h1004q135 0 135 -134v-102q0 -133 -135 -133h-285v-275h156q135 0 135 -133v-41q0 -135 -135 -135h-156v-387q0 -133 -135 -133h-164q-133 0 -133 133v387h-143q-135 0 -135 135v41q0 133 135 133h143v275h-287q-133 0 -133 133z" />
<glyph unicode="&#x167;" horiz-adv-x="858" d="M29 578v6q0 123 133 123h8v81h-10q-131 0 -131 123v7q0 123 133 122h22v174q0 133 133 134h148q133 0 133 -134v-174h76q133 0 133 -122v-7q0 -123 -131 -123h-78v-81h76q133 0 133 -123v-6q0 -123 -131 -123h-78v-23q0 -18 22.5 -36.5t65.5 -24.5q72 -10 102.5 -37 t30.5 -96v-115q0 -76 -45 -104.5t-131 -28.5q-49 0 -130 13t-156.5 54t-131 117t-55.5 203v78h-10q-131 0 -131 123z" />
<glyph unicode="&#x168;" horiz-adv-x="1466" d="M100 551v788q0 133 133 134h166q133 0 133 -134v-788q0 -92 54.5 -137t146.5 -45t147.5 44t55.5 136v790q0 133 133 134h164q133 0 133 -134v-788q0 -125 -45 -230.5t-127 -182.5t-198.5 -120t-260.5 -43q-145 0 -262 43t-200 120t-128 182.5t-45 230.5zM301 1671 q0 43 18.5 85t51 74t78 51.5t98.5 19.5q63 0 107 -18.5t78 -40t60.5 -39t55.5 -17.5q25 0 41 9t22 38q4 29 33 45t78 16h27q59 0 87.5 -23.5t28.5 -76.5q0 -104 -66.5 -171t-176.5 -67q-63 0 -108.5 17.5t-79.5 39t-60.5 40t-52.5 18.5q-57 0 -72 -51q-6 -29 -34 -43 t-69 -14h-28q-53 0 -85 26.5t-32 81.5z" />
<glyph unicode="&#x169;" horiz-adv-x="1247" d="M70 369v561q0 133 135 133h160q133 0 133 -133v-467q0 -57 24.5 -79t69.5 -22q47 0 75.5 20.5t45 54.5t22.5 76t6 83v334q0 133 136 133h159q133 0 133 -133v-797q0 -133 -133 -133h-141q-66 0 -98.5 31.5t-32.5 85.5v33h-4q-23 -51 -55.5 -85t-72.5 -53.5t-86 -28 t-93 -8.5q-72 0 -141.5 18.5t-123 63.5t-86 121t-32.5 191zM186 1251q0 43 18.5 85t51.5 74t78 51.5t98 19.5q63 0 107.5 -18.5t78 -40t60.5 -39t55 -17.5q25 0 41.5 9t22.5 38q4 29 32.5 45.5t77.5 16.5h27q59 0 88 -24t29 -77q0 -104 -66.5 -170.5t-177.5 -66.5 q-63 0 -108.5 17t-79 38.5t-60.5 40t-53 18.5q-57 0 -72 -51q-6 -29 -33.5 -43t-68.5 -14h-29q-53 0 -85 26.5t-32 81.5z" />
<glyph unicode="&#x16a;" horiz-adv-x="1466" d="M100 551v788q0 133 133 134h166q133 0 133 -134v-788q0 -92 54.5 -137t146.5 -45t147.5 44t55.5 136v790q0 133 133 134h164q133 0 133 -134v-788q0 -125 -45 -230.5t-127 -182.5t-198.5 -120t-260.5 -43q-145 0 -262 43t-200 120t-128 182.5t-45 230.5zM442 1724v19 q0 127 133 127h316q135 0 135 -127v-19q0 -125 -135 -125h-316q-133 0 -133 125z" />
<glyph unicode="&#x16b;" horiz-adv-x="1247" d="M70 369v561q0 133 135 133h160q133 0 133 -133v-467q0 -57 24.5 -79t69.5 -22q47 0 75.5 20.5t45 54.5t22.5 76t6 83v334q0 133 136 133h159q133 0 133 -133v-797q0 -133 -133 -133h-141q-66 0 -98.5 31.5t-32.5 85.5v33h-4q-23 -51 -55.5 -85t-72.5 -53.5t-86 -28 t-93 -8.5q-72 0 -141.5 18.5t-123 63.5t-86 121t-32.5 191zM328 1305v18q0 127 133 127h315q135 0 135 -127v-18q0 -125 -135 -125h-315q-133 0 -133 125z" />
<glyph unicode="&#x16c;" horiz-adv-x="1466" d="M100 551v788q0 133 133 134h166q133 0 133 -134v-788q0 -92 54.5 -137t146.5 -45t147.5 44t55.5 136v790q0 133 133 134h164q133 0 133 -134v-788q0 -125 -45 -230.5t-127 -182.5t-198.5 -120t-260.5 -43q-145 0 -262 43t-200 120t-128 182.5t-45 230.5zM338 1819 q0 29 17.5 44t60.5 21l86 10q29 2 47 -4t30.5 -17t18.5 -25.5t12 -28.5q10 -27 39 -47.5t82 -20.5t82 20.5t39 47.5q6 14 12 28.5t18.5 25.5t31 17t47.5 4l86 -10q43 -6 60 -21.5t17 -43.5q0 -68 -37.5 -118t-96 -83t-127.5 -49.5t-130 -16.5t-131 16.5t-128 49.5t-97 83 t-39 118z" />
<glyph unicode="&#x16d;" horiz-adv-x="1247" d="M70 369v561q0 133 135 133h160q133 0 133 -133v-467q0 -57 24.5 -79t69.5 -22q47 0 75.5 20.5t45 54.5t22.5 76t6 83v334q0 133 136 133h159q133 0 133 -133v-797q0 -133 -133 -133h-141q-66 0 -98.5 31.5t-32.5 85.5v33h-4q-23 -51 -55.5 -85t-72.5 -53.5t-86 -28 t-93 -8.5q-72 0 -141.5 18.5t-123 63.5t-86 121t-32.5 191zM225 1399q0 29 17.5 44t60.5 21l86 11q29 2 47.5 -4.5t30.5 -17.5t18.5 -25.5t12.5 -28.5q10 -27 38.5 -47.5t81.5 -20.5t82 20.5t39 47.5q6 14 12.5 28.5t18.5 25.5t30.5 17.5t47.5 4.5l86 -11q43 -6 60.5 -21.5 t17.5 -43.5q0 -68 -38 -118t-96.5 -83t-127 -49t-129.5 -16t-131 16t-128.5 49t-97.5 83t-39 118z" />
<glyph unicode="&#x16e;" horiz-adv-x="1466" d="M100 551v788q0 133 133 134h166q133 0 133 -134v-788q0 -92 54.5 -137t146.5 -45t147.5 44t55.5 136v790q0 133 133 134h164q133 0 133 -134v-788q0 -125 -45 -230.5t-127 -182.5t-198.5 -120t-260.5 -43q-145 0 -262 43t-200 120t-128 182.5t-45 230.5zM485 1718 q0 49 21.5 85t57.5 58.5t80 33t87 10.5q45 0 89 -10.5t80 -33t58.5 -58.5t22.5 -85t-22.5 -85t-58.5 -57.5t-80 -31.5t-89 -10q-43 0 -87 10t-80 31.5t-57.5 57.5t-21.5 85zM662 1718q0 -35 18 -54t51 -19q35 0 54.5 19t19.5 54t-19.5 55.5t-54.5 20.5q-31 0 -50 -20.5 t-19 -55.5z" />
<glyph unicode="&#x16f;" horiz-adv-x="1247" d="M70 369v561q0 133 135 133h160q133 0 133 -133v-467q0 -57 24.5 -79t69.5 -22q47 0 75.5 20.5t45 54.5t22.5 76t6 83v334q0 133 136 133h159q133 0 133 -133v-797q0 -133 -133 -133h-141q-66 0 -98.5 31.5t-32.5 85.5v33h-4q-23 -51 -55.5 -85t-72.5 -53.5t-86 -28 t-93 -8.5q-72 0 -141.5 18.5t-123 63.5t-86 121t-32.5 191zM373 1298q0 49 21.5 85t57 58.5t79.5 33t87 10.5q45 0 89.5 -10.5t80 -33t58 -58t22.5 -85.5q0 -49 -22.5 -84.5t-58 -57t-80 -32t-89.5 -10.5q-43 0 -87 10.5t-79.5 32t-57 57t-21.5 84.5zM549 1298q0 -35 18 -54 t51 -19q35 0 54.5 19.5t19.5 53.5q0 35 -19.5 55.5t-54.5 20.5q-31 0 -50 -20.5t-19 -55.5z" />
<glyph unicode="&#x170;" horiz-adv-x="1466" d="M100 551v788q0 133 133 134h166q133 0 133 -134v-788q0 -92 54.5 -137t146.5 -45t147.5 44t55.5 136v790q0 133 133 134h164q133 0 133 -134v-788q0 -125 -45 -230.5t-127 -182.5t-198.5 -120t-260.5 -43q-145 0 -262 43t-200 120t-128 182.5t-45 230.5zM379.5 1607 q-21.5 42 13.5 115l35 74q47 98 158 98h57q78 0 99.5 -44t-13.5 -115l-37 -76q-25 -49 -66.5 -71.5t-93.5 -22.5h-53q-78 0 -99.5 42zM853 1669q5 29 21 57l39 72q53 96 158 96h90q45 0 70.5 -14t33 -37.5t-2 -53.5t-33.5 -58l-72 -86q-35 -43 -71.5 -61.5t-90.5 -18.5h-41 q-43 0 -67.5 14t-31.5 37.5t-2 52.5z" />
<glyph unicode="&#x171;" horiz-adv-x="1247" d="M70 369v561q0 133 135 133h160q133 0 133 -133v-467q0 -57 24.5 -79t69.5 -22q47 0 75.5 20.5t45 54.5t22.5 76t6 83v334q0 133 136 133h159q133 0 133 -133v-797q0 -133 -133 -133h-141q-66 0 -98.5 31.5t-32.5 85.5v33h-4q-23 -51 -55.5 -85t-72.5 -53.5t-86 -28 t-93 -8.5q-72 0 -141.5 18.5t-123 63.5t-86 121t-32.5 191zM265.5 1187q-21.5 42 13.5 116l34 73q47 98 158 99h57q78 0 99.5 -44.5t-13.5 -115.5l-36 -76q-25 -49 -67 -71.5t-93 -22.5h-53q-78 0 -99.5 42zM738 1249.5q5 28.5 22 57.5l39 71q53 96 157 97h91 q45 0 70.5 -14.5t32.5 -38t-2 -53.5t-34 -58l-72 -86q-35 -43 -71.5 -61.5t-89.5 -18.5h-41q-43 0 -67.5 14.5t-32 38t-2.5 52z" />
<glyph unicode="&#x172;" horiz-adv-x="1468" d="M100 551v788q0 133 133 134h166q133 0 133 -134v-788q0 -92 54.5 -137t146.5 -45t147.5 44t55.5 136v790q0 133 133 134h164q133 0 133 -134v-788q0 -113 -33 -197t-82 -147.5t-107.5 -108.5t-107.5 -79.5t-81.5 -62.5t-32.5 -56q0 -20 36 -41q27 -14 34 -44t3 -75 l-10 -74q-4 -47 -39 -64.5t-78 -17.5q-37 0 -83 14.5t-86 41t-66.5 64.5t-26.5 83q0 53 32 102.5t69 85.5q-141 4 -253 49.5t-191 122t-121 180t-42 224.5z" />
<glyph unicode="&#x173;" horiz-adv-x="1245" d="M68 369v561q0 133 135 133h159q133 0 134 -133v-467q0 -57 24.5 -79t69.5 -22q47 0 75.5 20.5t45 54.5t22.5 76t6 83v334q0 133 135 133h160q133 0 133 -133v-797q0 -49 -18.5 -78.5t-40 -53.5t-39.5 -47.5t-18 -59.5q0 -12 10 -18.5t26 -16.5q49 -29 37 -119l-10 -74 q-6 -47 -40 -64.5t-77 -17.5q-37 0 -83 14.5t-84.5 41t-65.5 64.5t-27 83q0 61 24.5 120.5t63.5 106.5q-29 14 -46 43t-17 76v17h-4q-23 -51 -55.5 -85t-72.5 -53.5t-86 -28t-93 -8.5q-72 0 -141.5 18.5t-123 63.5t-86 121t-32.5 191z" />
<glyph unicode="&#x174;" horiz-adv-x="2045" d="M45 1325q-16 70 14.5 109t102.5 39h178q121 0 147 -119l127 -727q4 -29 7.5 -55.5t5.5 -49.5q2 -25 2 -49h4q2 25 4 49q2 23 5 49.5t11 55.5l168 729q31 117 150 117h102q121 0 146 -117l161 -729q6 -29 9.5 -56.5t7.5 -50.5q2 -25 4 -47h4q0 25 2 49q2 23 4 49.5t8 55.5 l144 729q25 117 149 117h172q72 0 102.5 -39t14.5 -109l-301 -1210q-31 -115 -150 -115h-239q-121 0 -148 117l-123 530q-6 29 -10 55.5t-8 49.5q-4 25 -4 51h-2q-2 -27 -4 -51q-2 -23 -6.5 -49.5t-10.5 -55.5l-125 -530q-29 -117 -147 -117h-244q-119 0 -149 117z M665.5 1611q-16.5 46 30.5 118l49 77q57 88 162 88h201q104 0 162 -88l49 -77q47 -72 30.5 -118t-85.5 -46h-82q-59 0 -85 23.5t-48 68.5l-39 78h-4l-39 -78q-23 -45 -48.5 -68.5t-84.5 -23.5h-84q-68 0 -84.5 46z" />
<glyph unicode="&#x175;" horiz-adv-x="1685" d="M33 911q-16 72 13.5 112t100.5 40h172q121 0 146 -119l67 -455q4 -18 5.5 -37.5t1.5 -35.5v-37h4q2 16 4 37q2 16 4 35.5t6 37.5l82 457q25 119 145 119h121q121 0 146 -119l84 -457q4 -18 5 -37.5t3 -35.5q2 -20 2 -37h4q-2 16 0 37q0 16 2 35.5t6 37.5l68 455 q27 119 145 119h168q72 0 101.5 -40t13.5 -112l-207 -796q-31 -115 -148 -115h-241q-121 0 -148 117l-45 286q-4 18 -7 38t-5 36q-4 20 -4 39h-4q-4 -18 -6 -39q-4 -16 -5.5 -35.5t-5.5 -38.5l-47 -286q-29 -117 -147 -117h-246q-117 0 -147 115zM501.5 1191 q-16.5 46 30.5 118l50 77q57 88 161 89h201q104 0 162 -89l49 -77q47 -72 30.5 -118t-85.5 -46h-82q-59 0 -85 23.5t-48 68.5l-39 78h-4l-39 -78q-23 -45 -48.5 -68.5t-84.5 -23.5h-84q-68 0 -84.5 46z" />
<glyph unicode="&#x176;" horiz-adv-x="1267" d="M11.5 1428q27.5 45 105.5 45h200q109 0 156 -101l80 -194q16 -41 31.5 -84t25.5 -78q12 -41 23 -80h4q10 39 22 80q10 35 25.5 78t32.5 84l80 194q45 100 153 101h201q78 0 105.5 -45.5t-13.5 -114.5l-393 -719v-461q0 -133 -133 -133h-166q-133 0 -133 133v461l-393 719 q-41 70 -13.5 115zM292.5 1611q-16.5 46 31.5 118l49 77q57 88 162 88h200q104 0 162 -88l49 -77q47 -72 31 -118t-86 -46h-82q-59 0 -85 23.5t-48 68.5l-39 78h-4l-39 -78q-23 -45 -48.5 -68.5t-84.5 -23.5h-84q-68 0 -84.5 46z" />
<glyph unicode="&#x177;" horiz-adv-x="1120" d="M1 1020q28 43 105 43h199q59 0 99 -26.5t55 -84.5l73 -293q6 -23 12.5 -56.5t10.5 -65.5q6 -37 10 -80h4q6 43 13 80q4 33 10 67.5l10 57.5l51 286q10 59 50 87t100 28h184q74 0 103.5 -42t5.5 -112l-353 -989q-37 -102 -92 -169.5t-120.5 -107.5t-137 -56.5 t-139.5 -16.5q-41 0 -78 6t-72 16q-59 20 -75.5 68.5t10.5 108.5l31 71q27 57 61.5 71.5t71.5 8.5q10 -2 23.5 -4t31.5 -2q41 0 77 27.5t50 66.5l6 17l-387 882q-31 70 -3 113zM225 1189q-16 46 31 118l49 77q57 88 162 89h201q104 0 161 -89l50 -77q47 -72 30.5 -118 t-86.5 -46h-82q-59 0 -84.5 23.5t-48.5 68.5l-39 78h-4l-39 -78q-23 -45 -48 -68.5t-85 -23.5h-84q-68 0 -84 46z" />
<glyph unicode="&#x178;" horiz-adv-x="1267" d="M11.5 1428q27.5 45 105.5 45h200q109 0 156 -101l80 -194q16 -41 31.5 -84t25.5 -78q12 -41 23 -80h4q10 39 22 80q10 35 25.5 78t32.5 84l80 194q45 100 153 101h201q78 0 105.5 -45.5t-13.5 -114.5l-393 -719v-461q0 -133 -133 -133h-166q-133 0 -133 133v461l-393 719 q-41 70 -13.5 115zM254 1704v55q0 135 133 135h35q135 0 135 -135v-55q0 -135 -135 -135h-35q-133 0 -133 135zM723 1704v55q0 135 133 135h35q133 0 133 -135v-55q0 -135 -133 -135h-35q-133 0 -133 135z" />
<glyph unicode="&#x179;" horiz-adv-x="1282" d="M47 133v43q0 49 12.5 87t40.5 79l451 631q25 35 46 60.5t38 41.5q18 18 33 31v4q-14 -2 -33 -4q-16 -2 -38 -2h-44h-350q-133 0 -133 133v102q0 133 133 134h880q133 0 134 -132v-38q0 -49 -12.5 -88t-41.5 -80l-452 -635q-53 -72 -84 -103q-18 -20 -33 -30v-5q14 0 33 3 q16 2 36.5 3t45.5 1h387q133 0 133 -133v-103q0 -133 -133 -133h-916q-133 0 -133 133zM549.5 1609q-23.5 44 11.5 103l47 86q53 96 158 96h111q86 0 103 -49t-36 -114l-72 -86q-35 -41 -71.5 -60.5t-89.5 -19.5h-72q-66 0 -89.5 44z" />
<glyph unicode="&#x17a;" horiz-adv-x="1097" d="M45 102v31q0 49 13.5 78t43.5 70l267 329q23 27 39 44.5t28 29.5q14 12 27 23v4q-8 -2 -21 -2q-10 -2 -26.5 -2h-40.5h-182q-135 0 -136 135v88q0 133 136 133h714q135 0 135 -102v-31q0 -49 -14 -78t-45 -70l-262 -331q-23 -27 -39 -44.5t-31 -29.5q-16 -14 -28 -23v-4 q8 0 20 2q10 2 27.5 3t44.5 1h200q133 0 134 -133v-90q0 -133 -134 -133h-737q-133 0 -133 102zM422.5 1189q-23.5 44 11.5 103l47 86q53 96 158 97h111q86 0 103 -49.5t-36 -114.5l-72 -86q-35 -41 -71.5 -60.5t-89.5 -19.5h-72q-66 0 -89.5 44z" />
<glyph unicode="&#x17b;" horiz-adv-x="1282" d="M47 133v43q0 49 12.5 87t40.5 79l451 631q25 35 46 60.5t38 41.5q18 18 33 31v4q-14 -2 -33 -4q-16 -2 -38 -2h-44h-350q-133 0 -133 133v102q0 133 133 134h880q133 0 134 -132v-38q0 -49 -12.5 -88t-41.5 -80l-452 -635q-53 -72 -84 -103q-18 -20 -33 -30v-5q14 0 33 3 q16 2 36.5 3t45.5 1h387q133 0 133 -133v-103q0 -133 -133 -133h-916q-133 0 -133 133zM487 1724v35q0 135 136 135h77q135 0 136 -135v-35q0 -133 -136 -133h-77q-135 0 -136 133z" />
<glyph unicode="&#x17c;" horiz-adv-x="1097" d="M45 102v31q0 49 13.5 78t43.5 70l267 329q23 27 39 44.5t28 29.5q14 12 27 23v4q-8 -2 -21 -2q-10 -2 -26.5 -2h-40.5h-182q-135 0 -136 135v88q0 133 136 133h714q135 0 135 -102v-31q0 -49 -14 -78t-45 -70l-262 -331q-23 -27 -39 -44.5t-31 -29.5q-16 -14 -28 -23v-4 q8 0 20 2q10 2 27.5 3t44.5 1h200q133 0 134 -133v-90q0 -133 -134 -133h-737q-133 0 -133 102zM360 1305v34q0 135 136 136h77q135 0 136 -136v-34q0 -133 -136 -134h-77q-135 0 -136 134z" />
<glyph unicode="&#x17d;" horiz-adv-x="1282" d="M47 133v43q0 49 12.5 87t40.5 79l451 631q25 35 46 60.5t38 41.5q18 18 33 31v4q-14 -2 -33 -4q-16 -2 -38 -2h-44h-350q-133 0 -133 133v102q0 133 133 134h880q133 0 134 -132v-38q0 -49 -12.5 -88t-41.5 -80l-452 -635q-53 -72 -84 -103q-18 -20 -33 -30v-5q14 0 33 3 q16 2 36.5 3t45.5 1h387q133 0 133 -133v-103q0 -133 -133 -133h-916q-133 0 -133 133zM317.5 1847.5q16.5 46.5 83.5 46.5h84q57 0 82 -23.5t54 -70.5l36 -76h5l36 76q29 47 53.5 70.5t82.5 23.5h84q68 0 84 -47t-31 -116l-49 -78q-59 -88 -162 -88h-201q-102 0 -162 88 l-49 78q-47 70 -30.5 116.5z" />
<glyph unicode="&#x17e;" horiz-adv-x="1097" d="M45 102v31q0 49 13.5 78t43.5 70l267 329q23 27 39 44.5t28 29.5q14 12 27 23v4q-8 -2 -21 -2q-10 -2 -26.5 -2h-40.5h-182q-135 0 -136 135v88q0 133 136 133h714q135 0 135 -102v-31q0 -49 -14 -78t-45 -70l-262 -331q-23 -27 -39 -44.5t-31 -29.5q-16 -14 -28 -23v-4 q8 0 20 2q10 2 27.5 3t44.5 1h200q133 0 134 -133v-90q0 -133 -134 -133h-737q-133 0 -133 102zM223.5 1428q16.5 47 83.5 47h84q57 0 82 -24t53 -71l37 -75h4l37 75q29 47 53.5 71t81.5 24h84q68 0 84.5 -47.5t-30.5 -116.5l-50 -78q-59 -88 -161 -88h-201q-102 0 -162 88 l-49 78q-47 70 -30.5 117z" />
<glyph unicode="&#x17f;" horiz-adv-x="677" d="M27 844v63q0 133 133 133h8v54q0 127 58.5 203.5t137 117.5t157.5 53.5t122 12.5h39q133 0 133 -135v-93q0 -66 -32.5 -96.5t-98.5 -36.5q-12 -2 -26.5 -4t-29 -7t-23.5 -14.5t-9 -25.5v-936q0 -133 -135 -133h-160q-133 0 -133 133v578h-8q-133 0 -133 133z" />
<glyph unicode="&#x192;" horiz-adv-x="952" d="M-41 -37q0 131 119 131q16 0 39.5 -2t46.5 -2q41 0 73.5 15.5t36.5 70.5l35 422q-47 0 -76.5 34t-29.5 99v64q0 133 137 133l18 172q14 131 76 208.5t145 119.5t174 55.5t162 13.5h24.5t33.5 -2q66 -6 96.5 -43t30.5 -98v-90q0 -131 -88 -131q-16 0 -42 2t-55 2 q-47 0 -89 -16.5t-48 -69.5l-12 -123h41q133 0 133 -133v-64q0 -66 -34 -99.5t-95 -33.5h-74l-41 -473q-12 -131 -73.5 -209t-145.5 -120t-176 -55t-162 -13q-37 0 -69.5 6t-57 22.5t-39 44t-14.5 72.5v90z" />
<glyph unicode="&#x218;" horiz-adv-x="1183" d="M54.5 190.5q-17.5 42.5 29.5 112.5l78 113q37 53 81 59t103 -26q18 -6 42 -20.5t54.5 -29t67.5 -24.5t80 -10q63 0 85.5 19t22.5 46q0 39 -46 65.5t-115.5 53t-149.5 60.5t-149.5 87.5t-115.5 132t-46 197.5q0 106 41 193.5t114.5 149t174 95t217.5 33.5q63 0 124.5 -9 t114.5 -24.5t97.5 -35t72.5 -37.5q53 -39 61.5 -85t-18.5 -100l-59 -116q-18 -37 -40 -53.5t-44.5 -19.5t-48 5t-49.5 20q-55 25 -103.5 45.5t-114.5 20.5q-61 0 -85.5 -19.5t-24.5 -48.5q0 -43 46 -69.5t115.5 -52t150.5 -57.5t150.5 -83t115.5 -129t46 -196 q0 -96 -35.5 -182.5t-104 -152t-169 -104.5t-231.5 -39q-76 0 -148.5 13.5t-136 34t-113.5 46t-81 50.5q-39 29 -56.5 71.5zM403 -416q0 39 11.5 70t11.5 70q0 18 -5 49.5t-5 56.5q0 47 32.5 63.5t86.5 16.5h53q90 0 121.5 -44t31.5 -110t-16 -111.5t-43 -74.5t-59.5 -43 t-65.5 -14h-37q-117 0 -117 71z" />
<glyph unicode="&#x219;" horiz-adv-x="956" d="M41 146.5q-6 48.5 29 103.5l34 55q35 53 77 60.5t108 -17.5q16 -6 65 -25.5t109 -19.5q35 0 48 12.5t13 28.5q0 23 -34.5 34t-88 23.5t-115 30t-114.5 52t-88 93t-35 152.5q0 88 36 155.5t99.5 112.5t146.5 67.5t179 22.5q98 0 184 -19t129 -42q55 -29 66.5 -77 t-17.5 -103l-28 -58q-6 -14 -17.5 -31.5t-30 -29.5t-49 -15t-77.5 13q-41 12 -82 24.5t-86 12.5q-57 0 -58 -39q0 -20 35 -31.5t88.5 -23t114.5 -28.5t114.5 -51t88.5 -91.5t35 -149.5q0 -80 -31 -148.5t-89.5 -117.5t-143.5 -78t-191 -29q-61 0 -117.5 9.5t-103.5 22.5 t-83.5 28.5t-56.5 27.5q-57 35 -63 83.5zM283 -416q0 39 11 70t11 70q0 18 -5 49.5t-5 56.5q0 47 32.5 63.5t86.5 16.5h53q90 0 122 -44t32 -110t-16.5 -111.5t-43 -74.5t-59.5 -43t-66 -14h-37q-117 0 -116 71z" />
<glyph unicode="&#x21a;" horiz-adv-x="1292" d="M10 1237v102q0 133 133 134h1006q133 0 133 -134v-102q0 -133 -133 -133h-287v-971q0 -133 -133 -133h-166q-133 0 -133 133v971h-287q-133 0 -133 133zM477 -416q0 39 11.5 70t11.5 70q0 18 -5.5 49.5t-5.5 56.5q0 47 33 63.5t86 16.5h54q90 0 121.5 -44t31.5 -110 t-16.5 -111.5t-43 -74.5t-59 -43t-65.5 -14h-37q-117 0 -117 71z" />
<glyph unicode="&#x21b;" horiz-adv-x="856" d="M27 844v63q0 133 131 133h26v174q0 133 133 134h146q135 0 135 -134v-174h74q135 0 135 -133v-63q0 -133 -131 -133h-78v-254q0 -84 88 -97q37 -6 61.5 -12t40 -19.5t22.5 -35t7 -55.5v-115q0 -76 -44 -104.5t-130 -28.5q-49 0 -130 13t-156.5 54t-131 117t-55.5 203v334 h-12q-131 0 -131 133zM311 -416q0 39 11.5 70t11.5 70q0 18 -5 49.5t-5 56.5q0 47 32.5 63.5t85.5 16.5h54q90 0 121.5 -44t31.5 -110t-16.5 -111.5t-43 -74.5t-59 -43t-65.5 -14h-37q-117 0 -117 71z" />
<glyph unicode="&#x2c6;" horiz-adv-x="983" d="M149 1611q-16 46 31 118l49 77q57 88 162 88h201q104 0 162 -88l49 -77q47 -72 30.5 -118t-85.5 -46h-82q-59 0 -85 23.5t-49 68.5l-38 78h-5l-38 -78q-23 -45 -48.5 -68.5t-85.5 -23.5h-84q-68 0 -84 46z" />
<glyph unicode="&#x2da;" horiz-adv-x="978" d="M242 1718q0 49 21.5 85t57 58.5t79.5 33t87 10.5q45 0 89.5 -10.5t80 -33t58 -58.5t22.5 -85t-22.5 -85t-58 -57.5t-80 -31.5t-89.5 -10q-43 0 -87 10t-79.5 31.5t-57 57.5t-21.5 85zM418 1718q0 -35 18 -54t51 -19q35 0 54.5 19t19.5 54t-19.5 55.5t-54.5 20.5 q-31 0 -50 -20.5t-19 -55.5z" />
<glyph unicode="&#x2dc;" horiz-adv-x="978" d="M57 1671q0 43 18.5 85t51.5 74t78 51.5t98 19.5q63 0 107.5 -18.5t78 -40t60 -39t55.5 -17.5q25 0 41.5 9t22.5 38q4 29 32.5 45t77.5 16h27q59 0 88 -23.5t29 -76.5q0 -104 -67 -171t-177 -67q-63 0 -108.5 17.5t-79 39t-60.5 40t-53 18.5q-57 0 -72 -51 q-6 -29 -33.5 -43t-68.5 -14h-29q-53 0 -85 26.5t-32 81.5z" />
<glyph unicode="&#x2000;" horiz-adv-x="952" />
<glyph unicode="&#x2001;" horiz-adv-x="1905" />
<glyph unicode="&#x2002;" horiz-adv-x="952" />
<glyph unicode="&#x2003;" horiz-adv-x="1905" />
<glyph unicode="&#x2004;" horiz-adv-x="635" />
<glyph unicode="&#x2005;" horiz-adv-x="476" />
<glyph unicode="&#x2006;" horiz-adv-x="317" />
<glyph unicode="&#x2007;" horiz-adv-x="317" />
<glyph unicode="&#x2008;" horiz-adv-x="238" />
<glyph unicode="&#x2009;" horiz-adv-x="381" />
<glyph unicode="&#x200a;" horiz-adv-x="105" />
<glyph unicode="&#x2010;" horiz-adv-x="811" d="M74 539v102q0 133 133 133h397q133 0 133 -133v-102q0 -133 -133 -133h-397q-133 0 -133 133z" />
<glyph unicode="&#x2011;" horiz-adv-x="811" d="M74 539v102q0 133 133 133h397q133 0 133 -133v-102q0 -133 -133 -133h-397q-133 0 -133 133z" />
<glyph unicode="&#x2012;" horiz-adv-x="811" d="M74 539v102q0 133 133 133h397q133 0 133 -133v-102q0 -133 -133 -133h-397q-133 0 -133 133z" />
<glyph unicode="&#x2013;" horiz-adv-x="1427" d="M70 565v49q0 133 135 134h1020q133 0 133 -134v-49q0 -133 -133 -133h-1020q-135 0 -135 133z" />
<glyph unicode="&#x2014;" horiz-adv-x="1837" d="M70 565v49q0 133 135 134h1429q133 0 133 -134v-49q0 -133 -133 -133h-1429q-135 0 -135 133z" />
<glyph unicode="&#x2018;" horiz-adv-x="483" d="M47 1104l105 297q18 51 55 78.5t98 27.5h33q72 0 96.5 -38.5t9.5 -106.5l-59 -293q-25 -119 -147 -119h-82q-76 0 -104.5 41t-4.5 113z" />
<glyph unicode="&#x2019;" horiz-adv-x="477" d="M49 1096l60 293q25 119 145 118h82q72 0 103.5 -41t6.5 -112l-106 -297q-39 -106 -154 -107h-30q-72 0 -96.5 39t-10.5 107z" />
<glyph unicode="&#x201a;" horiz-adv-x="495" d="M35 -14l59 293q25 121 146 120h82q76 0 104.5 -42t3.5 -111l-104 -299q-39 -106 -154 -107h-31q-72 0 -97.5 40t-8.5 106z" />
<glyph unicode="&#x201c;" horiz-adv-x="940" d="M47 1104l105 297q18 51 55 78.5t98 27.5h35q72 0 96.5 -38.5t9.5 -106.5l-59 -293q-25 -119 -145 -119h-86q-76 0 -104.5 41t-4.5 113zM502 1104l104 297q18 51 55 78.5t99 27.5h35q72 0 96 -38.5t10 -106.5l-59 -293q-25 -119 -148 -119h-84q-76 0 -104.5 41t-3.5 113z " />
<glyph unicode="&#x201d;" horiz-adv-x="933" d="M49 1096l60 293q25 119 145 118h86q76 0 104.5 -42t4.5 -111l-105 -297q-18 -51 -55 -79t-99 -28h-34q-72 0 -96.5 39t-10.5 107zM504 1096l59 293q25 119 146 118h86q72 0 102.5 -41t5.5 -112l-106 -297q-39 -106 -154 -107h-33q-72 0 -96.5 39t-9.5 107z" />
<glyph unicode="&#x201e;" horiz-adv-x="952" d="M35 -14l59 293q25 121 146 120h84q72 0 103.5 -41t6.5 -112l-106 -299q-39 -106 -154 -107h-33q-72 0 -97.5 40t-8.5 106zM489 -14l60 293q25 121 145 120h84q72 0 103.5 -41t7.5 -112l-107 -299q-39 -106 -153 -107h-33q-72 0 -97.5 40t-9.5 106z" />
<glyph unicode="&#x2026;" horiz-adv-x="1961" d="M68 133v125q0 133 133 133h110q133 0 133 -133v-125q0 -133 -133 -133h-110q-133 0 -133 133zM793 133v125q0 133 133 133h110q133 0 133 -133v-125q0 -133 -133 -133h-110q-133 0 -133 133zM1518 133v125q0 133 133 133h110q133 0 133 -133v-125q0 -133 -133 -133h-110 q-133 0 -133 133z" />
<glyph unicode="&#x202f;" horiz-adv-x="381" />
<glyph unicode="&#x2039;" horiz-adv-x="714" d="M98 483q-76 94 0 189l197 250q33 41 72 59t92 18h73q86 0 109 -49t-31 -114l-204 -258l204 -256q53 -66 35 -115t-96 -49h-90q-53 0 -92 18.5t-72 59.5z" />
<glyph unicode="&#x203a;" horiz-adv-x="716" d="M69.5 950.5q18.5 48.5 96.5 48.5h92q53 0 91 -18t71 -59l198 -250q74 -94 0 -189l-198 -247q-33 -41 -71 -59.5t-91 -18.5h-74q-86 0 -108.5 49t30.5 115l205 256l-205 258q-55 66 -36.5 114.5z" />
<glyph unicode="&#x205f;" horiz-adv-x="476" />
<glyph unicode="&#x20ac;" horiz-adv-x="1251" d="M53 580q0 53 26.5 82.5t92.5 29.5q-2 20 -3 38t1 38q-117 0 -117 115q0 55 29 84.5t96 29.5h31q37 111 106.5 203t163.5 157.5t208 102.5t241 37q57 0 116 -6q68 -10 94.5 -52t8.5 -108l-35 -131q-31 -106 -108 -106q-16 0 -35 2t-54 2q-156 0 -241 -101h229 q82 0 109.5 -28.5t17.5 -85.5q-10 -59 -42 -87t-103 -28h-267q-2 -37 7 -76h213q82 0 109.5 -28.5t17.5 -83.5q-12 -63 -43 -89t-103 -26h-114q51 -43 111.5 -63.5t119.5 -20.5q23 0 46.5 3t53.5 3q49 0 81 -25.5t40 -82.5l27 -134q12 -61 -13.5 -104t-91.5 -53 q-68 -12 -151 -13q-133 0 -246 35t-204 99.5t-156.5 154.5t-104.5 201h-43q-66 0 -93.5 29.5t-27.5 85.5z" />
<glyph unicode="&#x2122;" horiz-adv-x="2045" d="M66 1335v15q0 123 133 123h594q135 0 135 -123v-15q0 -66 -35 -95.5t-100 -29.5h-142v-526q0 -133 -133 -133h-39q-133 0 -133 133v526h-147q-66 0 -99.5 30t-33.5 95zM965 690l51 653q8 129 139 130h47q59 0 97 -24t59 -79l76 -203q4 -10 8 -26.5t8 -30.5q6 -18 10 -35 h4q4 16 9 35q4 14 8 30.5t8 26.5l78 203q41 102 155 103h45q129 0 140 -130l47 -653q10 -139 -129 -139h-41q-66 0 -100.5 31.5t-36.5 97.5l-2 141v62q0 18 2 37h-5l-32 -99q-18 -57 -52 -80.5t-90 -23.5h-12q-57 0 -91 23.5t-52 80.5l-31 99h-4q2 -18 2 -37v-62l-6 -141 q-6 -129 -139 -129h-43q-66 0 -98.5 36t-28.5 103z" />
<glyph unicode="&#x25fc;" horiz-adv-x="1064" d="M0 0v1065h1065v-1065h-1065z" />
</font>
</defs>
</svg>
