<?xml version="1.0" standalone="no"?>
<!DOCTYPE svg PUBLIC "-//W3C//DTD SVG 1.1//EN" "http://www.w3.org/Graphics/SVG/1.1/DTD/svg11.dtd" >
<svg xmlns="http://www.w3.org/2000/svg">
<metadata></metadata>
<defs>
<font id="museosansroundedw03-300Rg" horiz-adv-x="542" >
<font-face units-per-em="2048" ascent="1638" descent="-410" />
<missing-glyph horiz-adv-x="512" />
<glyph horiz-adv-x="0" />
<glyph unicode="&#xd;" horiz-adv-x="681" />
<glyph unicode=" "  horiz-adv-x="512" />
<glyph unicode="&#x09;" horiz-adv-x="512" />
<glyph unicode="&#xa0;" horiz-adv-x="512" />
<glyph unicode="!" horiz-adv-x="509" d="M176 51v60q0 51 49 51h62q49 0 49 -51v-60q0 -51 -49 -51h-62q-49 0 -49 51zM182 1389q0 51 51 51h43q49 0 50 -51l-7 -963q0 -49 -49 -49h-30q-51 0 -52 49z" />
<glyph unicode="&#x22;" horiz-adv-x="624" d="M127 1100v311q0 49 51 49h21q49 0 49 -49v-311q0 -51 -49 -51h-21q-51 0 -51 51zM377 1100v311q0 49 49 49h20q49 0 50 -49v-311q0 -51 -50 -51h-20q-49 0 -49 51z" />
<glyph unicode="#" horiz-adv-x="1449" d="M88 453l2 16q8 45 55 45h244l72 401h-236q-53 0 -47 54l4 16q6 45 54 45h243l64 365q8 45 55 45h23q57 0 47 -54l-64 -356h354l64 365q8 45 55 45h23q57 0 47 -54l-64 -356h232q57 0 47 -53l-2 -16q-8 -45 -55 -46h-240l-72 -401h232q55 0 45 -53l-2 -17q-6 -45 -56 -45 h-239l-62 -354q-6 -45 -55 -45h-22q-53 0 -48 53l62 346h-354l-62 -354q-6 -45 -55 -45h-23q-53 0 -47 53l62 346h-234q-57 0 -47 54zM514 514h354l72 401h-354z" />
<glyph unicode="$" horiz-adv-x="1071" d="M111 1077q0 70 26.5 134.5t75.5 115.5t118.5 86t155.5 45v144q0 51 50 51h16q49 0 49 -47v-144q57 -4 105.5 -15t87.5 -27.5t66.5 -34t45.5 -31.5q39 -25 13 -70l-19 -33q-25 -41 -70 -12q-37 27 -106.5 58.5t-165.5 31.5q-70 0 -126 -20.5t-95 -55t-60.5 -80 t-21.5 -92.5q0 -82 53 -135t134 -94t175.5 -79t175 -90t134 -127t53.5 -191q0 -74 -25.5 -140.5t-75 -118t-120 -85t-158.5 -41.5v-140q0 -51 -49 -51h-16q-49 0 -50 47v144q-70 6 -128 22t-104 38.5t-79 45.5t-53 41q-37 31 -6 70l24 30q29 37 70 9q20 -16 53 -38t76 -41.5 t95 -32.5t114 -13q59 0 111.5 17t91.5 49t61.5 78t22.5 105q0 88 -53.5 144.5t-134.5 99.5t-175 82t-175 89t-134 121t-53 181z" />
<glyph unicode="%" horiz-adv-x="1470" d="M100 1180q0 57 22.5 109t61.5 91t92.5 61.5t112.5 22.5t111.5 -22.5t91.5 -61.5t61.5 -91t22.5 -109q0 -59 -22.5 -111.5t-61.5 -90.5t-91.5 -60.5t-111.5 -22.5t-112.5 22.5t-92.5 60.5t-61.5 90t-22.5 112zM150 17.5q-9 17.5 12 43.5l1026 1348q23 31 61 31h31 q33 0 42 -17.5t-11 -44.5l-1026 -1347q-23 -31 -62 -31h-33q-31 0 -40 17.5zM223 1180q0 -72 47 -121t119 -49t119 49t47 121q0 70 -47 120t-119 50t-119 -50.5t-47 -119.5zM793 258q0 59 22.5 111.5t61 91.5t92 61.5t112.5 22.5t111.5 -22.5t92.5 -61.5t62.5 -91.5 t22.5 -111.5t-22.5 -110.5t-62.5 -89.5t-92 -60.5t-112 -22.5q-59 0 -112.5 22.5t-92 60.5t-61 89.5t-22.5 110.5zM915 260q0 -72 47.5 -121t118.5 -49q72 0 119 49t47 121q0 70 -47 120t-119 50t-119 -50t-47 -120z" />
<glyph unicode="&#x26;" horiz-adv-x="1304" d="M104 397q0 61 17.5 122t51.5 111t82 89t112 57v4q-57 23 -101 64q-37 35 -67.5 96t-30.5 160q0 82 30.5 149.5t86 115.5t135.5 73.5t178 25.5h102q49 0 50 -51v-22q0 -51 -50 -52h-100q-125 0 -206 -67.5t-81 -179.5q0 -37 10.5 -82t43 -85t94 -67t162.5 -27h303v154 q0 49 51 49h39q51 0 51 -45v-158h145q49 0 50 -49v-26q0 -51 -50 -51h-145v-211q0 -258 -130 -388.5t-347 -130.5q-109 0 -198 32t-153.5 89.5t-99.5 134t-35 166.5zM250 406q0 -61 23.5 -115.5t66.5 -94.5t106.5 -63.5t143.5 -23.5q76 0 138.5 21.5t106.5 68.5t67.5 120.5 t23.5 178.5v207h-303q-188 0 -280.5 -82t-92.5 -217z" />
<glyph unicode="'" horiz-adv-x="370" d="M125 1165v246q0 49 49 49h23q49 0 49 -49v-246q0 -49 -49 -49h-23q-49 0 -49 49z" />
<glyph unicode="(" d="M115 690q0 213 54 404.5t157 365.5q10 20 24.5 27.5t34.5 7.5h23q29 0 39 -16.5t-5 -42.5q-96 -174 -147 -360.5t-51 -385.5q0 -215 49 -422t151 -403q12 -27 4 -43.5t-36 -16.5h-25q-43 0 -59 31q-98 180 -155.5 400.5t-57.5 453.5z" />
<glyph unicode=")" d="M92 1479q8 16 37 16h27q20 0 34.5 -7t24.5 -28q102 -174 156.5 -365.5t54.5 -404.5q0 -233 -56.5 -451.5t-154.5 -398.5q-20 -35 -61 -35h-23q-29 0 -38 17.5t3 44.5q102 195 151.5 402.5t49.5 420.5q0 199 -51 385.5t-148 360.5q-14 27 -6 43z" />
<glyph unicode="*" horiz-adv-x="976" d="M109 1153l8 29q16 49 63 30l248 -88l-8 265q-6 51 47 51h37q53 0 47 -51l-8 -265l250 88q47 20 63 -30l8 -29q18 -49 -33 -61l-251 -74v-4l159 -205q31 -43 -10 -72l-22 -16q-43 -31 -72 10l-148 217h-4l-145 -215q-31 -41 -72 -12l-24 16q-20 14 -22.5 32.5t13.5 37.5 l160 207v4l-252 74q-49 12 -32 61z" />
<glyph unicode="+" horiz-adv-x="1241" d="M86 571v19q0 51 51 51h422v471q0 51 49 51h27q49 0 49 -51v-471h420q51 0 51 -51v-19q0 -49 -51 -49h-420v-471q0 -51 -49 -51h-27q-49 0 -49 51v471h-422q-51 0 -51 49z" />
<glyph unicode="," horiz-adv-x="471" d="M59 -209l111 334q12 43 59 43h50q29 0 40 -16.5t-2 -42.5l-137 -334q-16 -39 -59 -39h-19q-29 0 -40 15.5t-3 39.5z" />
<glyph unicode="-" horiz-adv-x="866" d="M143 567v27q0 51 50 51h481q49 0 49 -51v-27q0 -49 -49 -49h-481q-49 0 -50 49z" />
<glyph unicode="." horiz-adv-x="448" d="M141 51v70q0 49 49 49h68q49 0 49 -49v-70q0 -51 -49 -51h-68q-49 0 -49 51z" />
<glyph unicode="/" horiz-adv-x="788" d="M88 -29l487 1508q14 41 58 41h29q27 0 39 -15.5t1 -42.5l-487 -1507q-14 -41 -57 -41h-29q-27 0 -39 15.5t-2 41.5z" />
<glyph unicode="0" horiz-adv-x="1269" d="M137 721q0 156 24.5 291t83 235.5t154 158.5t236.5 58t236.5 -58t153.5 -158.5t83 -235.5t25 -291q0 -158 -25 -293t-83 -236.5t-153.5 -159t-236.5 -57.5t-236.5 57.5t-154 159t-83 236.5t-24.5 293zM285 721q0 -129 16 -241.5t56 -194.5t108 -129t170 -47t169.5 47 t107.5 129t56.5 194.5t16.5 241.5t-16.5 239.5t-56.5 193.5t-107.5 130t-169.5 47t-170 -47t-108 -130t-56 -193.5t-16 -239.5z" />
<glyph unicode="1" horiz-adv-x="915" d="M94 51v25q0 51 51 51h273v1057v55q0 12 2 25h-4q-6 -10 -15 -23q-16 -23 -55 -61l-121 -119q-33 -37 -69 0l-19 20q-39 33 -2 70l264 262q27 27 62 27h47q49 0 49 -51v-1262h266q51 0 51 -51v-25q0 -51 -51 -51h-678q-51 0 -51 51z" />
<glyph unicode="2" horiz-adv-x="1128" d="M106 51v41q0 127 54.5 220.5t136.5 167t178 136t178 127t136.5 138t54.5 172.5q0 119 -81 197.5t-218 78.5q-57 0 -105.5 -16.5t-85.5 -41t-62.5 -51t-39.5 -46.5q-16 -18 -33.5 -23.5t-38.5 10.5l-22 19q-39 29 -13 67q18 27 52 65t85.5 71.5t118 57t152.5 23.5 q102 0 184 -31.5t138.5 -86t87 -128t30.5 -157.5q0 -121 -54 -210t-135 -162t-176.5 -133t-176 -123.5t-136 -136.5t-55.5 -169h705q51 0 51 -51v-25q0 -51 -51 -51h-803q-25 0 -40.5 13.5t-15.5 37.5z" />
<glyph unicode="3" horiz-adv-x="1130" d="M104 211l25 31q29 35 70 4q18 -16 50 -40t74 -45.5t94 -35.5t111 -14q63 0 124 22.5t106 63.5t72.5 98t27.5 127q0 76 -29.5 133t-81 96t-117 58.5t-134.5 19.5h-58q-41 0 -55 37l-6 10q-14 35 12 68l334 391q27 33 51 57q12 12 25 23v4q-12 -2 -31 -4q-16 -2 -36.5 -2 h-49.5h-489q-51 0 -52 51v25q0 51 52 51h739q51 0 51 -47v-11q0 -39 -22 -63l-408 -469q68 -4 146.5 -26.5t146 -72t113 -129t45.5 -196.5q0 -92 -36 -174t-98.5 -143.5t-149.5 -97.5t-190 -36q-80 0 -146.5 18.5t-119.5 44t-91.5 53.5t-63.5 48q-35 33 -5 72z" />
<glyph unicode="4" horiz-adv-x="1204" d="M55 449v8q0 37 19 61l667 891q12 16 25.5 23.5t36.5 7.5h63q49 0 49 -51v-867h156q49 0 49 -49v-24q0 -49 -45 -50h-160v-348q0 -51 -49 -51h-41q-51 0 -51 51v348h-670q-49 0 -49 50zM225 522h549v604q0 23 1 47.5t3 45.5q2 23 4 45h-4q-12 -18 -22 -37l-22.5 -36 t-26.5 -38l-482 -627v-4z" />
<glyph unicode="5" horiz-adv-x="1120" d="M111 178q0 19 16 35l25 29q35 35 69 0q16 -18 42 -41t61.5 -42.5t82 -33.5t105.5 -14q74 0 139.5 25.5t114.5 69.5t76.5 106.5t27.5 136.5t-28.5 136t-77.5 107t-115.5 70.5t-142.5 25.5q-80 0 -139.5 -22.5t-90.5 -38.5q-35 -18 -67 -6l-14 4q-41 16 -37 59l67 609 q6 47 54 47h598q51 0 51 -51v-25q0 -51 -51 -51h-523l-41 -369q-4 -20 -6 -34.5t-4 -24.5q-2 -12 -4 -23h4q27 14 62 27q29 10 68.5 19.5t88.5 9.5q109 0 200 -37t156.5 -100.5t102.5 -148.5t37 -183q0 -100 -39 -186.5t-106.5 -150t-158.5 -100.5t-196 -37 q-80 0 -143.5 18.5t-111.5 45.5t-82 55.5t-54 48.5q-16 16 -16 35z" />
<glyph unicode="6" horiz-adv-x="1198" d="M123 649q0 137 37 281.5t113.5 263.5t196.5 194.5t286 75.5q72 0 129 -13t88 -26q47 -18 28 -65l-14 -33q-10 -25 -26.5 -30t-38.5 1q-27 10 -69 21.5t-95 11.5q-115 0 -200 -51t-144.5 -134t-93 -186.5t-44.5 -209.5h5q53 78 151 125t219 47q98 0 179 -34t140.5 -94.5 t92.5 -145.5t33 -187q0 -113 -35 -203t-96.5 -152.5t-144.5 -96.5t-177 -34q-117 0 -213 51.5t-164.5 141.5t-105.5 213t-37 268zM276 545q0 -68 27 -144.5t74 -141t114.5 -107.5t149.5 -43q74 0 131 25.5t97 71.5t61.5 110.5t21.5 140.5q0 154 -89 246t-240 92 q-72 0 -135.5 -22.5t-110.5 -57.5t-74 -80t-27 -90z" />
<glyph unicode="7" horiz-adv-x="1030" d="M59 1364v25q0 51 52 51h833q51 0 51 -47v-19q0 -33 -14 -63l-635 -1274q-18 -37 -59 -37h-41q-29 0 -39 16.5t2 42.5l553 1121q14 29 28.5 53t24.5 43q12 20 25 37v4q-10 -2 -27 -2q-14 -2 -33.5 -2h-46.5h-622q-51 0 -52 51z" />
<glyph unicode="8" horiz-adv-x="1214" d="M121 406q0 92 32.5 162.5t73.5 120.5t81 80t52 38q-78 51 -130 119.5t-52 173.5q0 70 26.5 136.5t81 116.5t136.5 80.5t192 30.5q100 0 181.5 -26.5t138.5 -75.5t89 -117.5t32 -150.5q0 -80 -24.5 -147.5t-56.5 -120t-60.5 -85t-36.5 -41.5q92 -51 151 -123.5t59 -187.5 q0 -84 -35.5 -158.5t-98 -132t-150.5 -90.5t-193 -33q-98 0 -187 31t-155.5 87.5t-106.5 135.5t-40 177zM266 416q0 -72 29 -129.5t77 -97t109.5 -62.5t126.5 -23q63 0 123 21.5t107 58.5t75.5 88.5t28.5 112.5q0 74 -39 123t-104.5 88t-150.5 71.5t-175 75.5 q-16 -10 -50 -35.5t-69 -66.5t-61.5 -97t-26.5 -128zM322 1100q0 -72 38.5 -121t101 -88t141.5 -69.5t157 -65.5q8 8 33.5 36.5t52 71.5t47 98.5t20.5 116.5q0 123 -82.5 189.5t-216.5 66.5q-70 0 -124 -18.5t-92 -51t-57 -74.5t-19 -91z" />
<glyph unicode="9" horiz-adv-x="1198" d="M102 981q0 113 35 202t96.5 151.5t144.5 96t177 33.5q117 0 213 -51t164.5 -141t105.5 -214t37 -267q0 -90 -16.5 -186.5t-49 -186.5t-84 -171t-122 -141.5t-160.5 -95.5t-201 -35q-72 0 -128 13.5t-89 25.5q-47 18 -26 64l14 37q14 41 63 26q29 -10 70 -21t94 -11 q115 0 201 51t145.5 134t92 186.5t43.5 209.5h-4q-53 -78 -154.5 -125t-218.5 -47q-96 0 -177 34t-140.5 95.5t-92.5 146.5t-33 187zM248 983q0 -154 88 -246t242 -92q72 0 135 22.5t109 57.5t73 80t27 90q0 68 -27 144.5t-74 141t-114.5 107.5t-149.5 43q-74 0 -131 -25.5 t-97 -71.5t-60.5 -110.5t-20.5 -140.5z" />
<glyph unicode=":" horiz-adv-x="448" d="M145 51v62q0 51 52 51h59q49 0 49 -51v-62q0 -51 -49 -51h-59q-51 0 -52 51zM145 918v61q0 51 52 51h59q49 0 49 -51v-61q0 -51 -49 -52h-59q-51 0 -52 52z" />
<glyph unicode=";" horiz-adv-x="552" d="M121 -209l94 334q8 43 57 43h52q29 0 39 -16.5t-1 -42.5l-120 -334q-14 -39 -60 -39h-18q-29 0 -39 15.5t-4 39.5zM217 909v70q0 51 51 51h64q51 0 51 -51v-70q0 -49 -51 -49h-64q-51 0 -51 49z" />
<glyph unicode="&#x3c;" horiz-adv-x="1241" d="M125 571v21q0 43 39 57l829 371q27 12 42.5 2t15.5 -39v-33q0 -43 -39 -57l-713 -309v-4l713 -310q39 -14 39 -57v-33q0 -29 -15.5 -39t-42.5 0l-829 371q-39 18 -39 59z" />
<glyph unicode="=" horiz-adv-x="1241" d="M143 393v19q0 51 52 51h852q51 0 51 -51v-19q0 -49 -51 -49h-852q-51 0 -52 49zM143 750v18q0 51 52 51h852q51 0 51 -51v-18q0 -49 -51 -50h-852q-51 0 -52 50z" />
<glyph unicode="&#x3e;" horiz-adv-x="1241" d="M190 180v33q0 43 39 57l713 310v4l-713 309q-39 14 -39 57v33q0 29 15.5 39t42.5 -2l829 -371q39 -14 39 -57v-21q0 -41 -39 -59l-829 -369q-27 -12 -42.5 -1.5t-15.5 38.5z" />
<glyph unicode="?" horiz-adv-x="909" d="M96 1311q-33 43 10 69q37 25 112 55.5t177 30.5q88 0 163 -26.5t130 -74.5t86 -114.5t31 -146.5q0 -84 -26.5 -144.5t-66.5 -109.5t-87 -89t-88 -83t-69 -93t-30 -116l-2 -49q-4 -43 -47 -43h-39q-51 0 -51 51v47q0 78 26.5 136.5t66.5 104.5t86 86t86 84t66.5 94 t26.5 118q0 49 -19.5 92t-55 74.5t-84.5 50t-109 18.5q-68 0 -122 -20.5t-85 -38.5q-20 -10 -38.5 -9t-30.5 21zM289 51v60q0 51 49 51h61q49 0 50 -51v-60q0 -51 -50 -51h-61q-49 0 -49 51z" />
<glyph unicode="@" horiz-adv-x="1591" d="M117 496q0 156 57 293t155.5 239t231.5 160.5t285 58.5q139 0 234.5 -32.5t154.5 -86t86 -124t27 -144.5v-645h94q49 0 49 -51v-12q0 -51 -49 -52h-500q-90 0 -165 32t-129 85t-85 125t-31 152t31 150.5t85 124.5t129 86t165 32h266q-2 47 -23.5 91t-64.5 78t-108.5 53 t-155.5 19q-127 0 -235.5 -50t-188.5 -137t-126 -201.5t-46 -243.5q0 -125 42 -234.5t116 -193.5t176 -136.5t223 -60.5q49 -6 49 -51v-23q0 -53 -51 -49q-150 8 -277.5 70.5t-221 162t-146.5 231.5t-53 284zM676 496q0 -59 21.5 -109.5t58.5 -89.5t88 -60.5t110 -21.5h254 v563h-250q-61 0 -112 -22.5t-89 -61.5t-59.5 -90t-21.5 -108z" />
<glyph unicode="A" horiz-adv-x="1247" d="M39 59l496 1340q12 41 55 41h67q43 0 56 -41l495 -1340q4 -13 4 -23q0 -36 -45 -36h-45q-45 0 -57 41l-154 418h-577l-152 -418q-12 -41 -57 -41h-43q-46 0 -46 37q0 9 3 22zM375 582h495l-190 522q-10 25 -18.5 57.5t-16.5 61.5q-8 35 -18 69h-4q-10 -35 -19 -69 q-8 -29 -18.5 -62t-18.5 -57z" />
<glyph unicode="B" horiz-adv-x="1251" d="M201 51v1338q0 51 49 51h442q86 0 158 -24.5t124 -72t80.5 -115t28.5 -151.5q0 -113 -50 -192.5t-134 -120.5v-4q111 -31 176.5 -128t65.5 -229q0 -96 -34 -170.5t-92.5 -127t-137 -79t-168.5 -26.5h-459q-49 0 -49 51zM342 127h369q131 0 206.5 76t75.5 205t-78.5 206.5 t-205.5 77.5h-367v-565zM342 815h350q111 0 177.5 69.5t66.5 182.5q0 111 -64.5 178.5t-181.5 67.5h-348v-498z" />
<glyph unicode="C" horiz-adv-x="1454" d="M104 729q0 156 53.5 291t149.5 233.5t228.5 154.5t291.5 56q96 0 174 -16t138.5 -41t103.5 -51.5t68 -44.5q20 -16 20 -37q0 -16 -12 -35l-19 -27q-16 -21 -36 -21q-15 0 -33 13q-23 16 -60.5 38t-88 42.5t-114 33.5t-137.5 13q-131 0 -238.5 -46t-183 -127 t-116.5 -190.5t-41 -236.5q0 -129 41 -241.5t117.5 -197.5t185.5 -134t242 -49q80 0 148.5 17t122.5 42t93 51.5t64 44.5q18 15 34 15q19 0 35 -21l19 -22q15 -17 15 -34q0 -19 -19 -38q-25 -23 -71 -54.5t-111.5 -61.5t-149.5 -51.5t-184 -21.5q-164 0 -299.5 58.5 t-230.5 161t-147.5 239.5t-52.5 295z" />
<glyph unicode="D" horiz-adv-x="1497" d="M201 51v1338q0 51 49 51h416q162 0 295 -48.5t228 -140.5t147.5 -226t52.5 -304q0 -172 -52.5 -306t-147.5 -226.5t-228.5 -140.5t-294.5 -48h-416q-49 0 -49 51zM342 127h309q133 0 241.5 38t186.5 113.5t120 186t42 256.5q0 143 -43 253.5t-120 185.5t-186.5 114 t-240.5 39h-309v-1186z" />
<glyph unicode="E" horiz-adv-x="1132" d="M201 51v1338q0 51 49 51h711q51 0 51 -51v-25q0 -51 -51 -51h-619v-525h496q51 0 51 -49v-26q0 -51 -51 -51h-496v-535h655q51 0 52 -51v-25q0 -51 -52 -51h-747q-49 0 -49 51z" />
<glyph unicode="F" horiz-adv-x="1019" d="M201 51v1338q0 51 49 51h657q51 0 51 -51v-25q0 -51 -51 -51h-565v-541h479q49 0 49 -49v-27q0 -51 -49 -51h-479v-594q0 -51 -49 -51h-43q-49 0 -49 51z" />
<glyph unicode="G" horiz-adv-x="1531" d="M104 719q0 158 55.5 294t153 236.5t230.5 157.5t288 57q92 0 169 -15t136.5 -36.5t102.5 -45.5t66 -40q23 -17 23 -37q0 -16 -15 -33l-19 -26q-17 -24 -38 -24q-14 0 -31 12q-23 14 -60 33.5t-86 37t-110.5 29.5t-132.5 12q-131 0 -239 -47t-184.5 -129t-118.5 -193.5 t-42 -238.5q0 -133 43 -244.5t120 -194.5t181 -129t227 -46q109 0 193 31.5t143 72.5q68 47 119 106v242h-197q-49 0 -49 51v25q0 51 49 51h281q49 0 49 -51v-586q0 -51 -49 -51h-29q-51 0 -51 45v74v37q0 8 2 16h-4q-51 -55 -121 -98q-59 -37 -146 -68t-202 -31 q-147 0 -276 56.5t-224.5 156t-151 235.5t-55.5 296z" />
<glyph unicode="H" horiz-adv-x="1519" d="M201 51v1338q0 51 49 51h43q49 0 49 -51v-605h836v605q0 51 49 51h41q51 0 51 -51v-1338q0 -51 -51 -51h-41q-49 0 -49 51v606h-836v-606q0 -51 -49 -51h-43q-49 0 -49 51z" />
<glyph unicode="I" d="M201 51v1338q0 51 49 51h43q49 0 49 -51v-1338q0 -51 -49 -51h-43q-49 0 -49 51z" />
<glyph unicode="J" horiz-adv-x="1044" d="M53 412q0 49 49 49h45q25 0 34 -11.5t14 -43.5q2 -63 18 -118t48 -94.5t80 -62t116 -22.5q49 0 96 15t84 49t59.5 90t22.5 140v910h-301q-49 0 -49 51v25q0 51 49 51h393q51 0 51 -51v-986q0 -117 -35.5 -198.5t-93 -131.5t-130.5 -74t-146 -24q-74 0 -146.5 24t-130 76 t-92.5 135t-35 202z" />
<glyph unicode="K" horiz-adv-x="1193" d="M201 51v1338q0 51 49 51h43q49 0 49 -51v-574h244l366 590q20 35 60 35h51q31 0 41 -17.5t-6 -44.5l-393 -618v-4l421 -697q10 -15 10 -28q0 -8 -4 -14q-10 -17 -38 -17h-58q-39 0 -59 35l-391 653h-244v-637q0 -51 -49 -51h-43q-49 0 -49 51z" />
<glyph unicode="L" horiz-adv-x="1021" d="M201 51v1338q0 51 49 51h43q49 0 49 -51v-1262h616q51 0 52 -51v-25q0 -51 -52 -51h-708q-49 0 -49 51z" />
<glyph unicode="M" horiz-adv-x="1714" d="M150 53l108 1340q4 47 51 47h56q45 0 59 -39l360 -807q12 -29 24.5 -59.5t22.5 -57.5q12 -31 25 -59h4q10 29 23 59q10 27 22.5 57.5t24.5 59.5l360 807q18 39 60 39h55q47 0 51 -47l109 -1340v-7q0 -46 -49 -46h-41q-47 0 -52 47l-75 961q-4 29 -5.5 63.5t-1.5 65.5v71 h-4q-12 -37 -24 -73q-10 -31 -23.5 -65t-25.5 -62l-324 -701q-14 -39 -57 -39h-49q-45 0 -60 39l-321 701q-12 27 -25.5 61.5t-24.5 67.5q-12 37 -26 75h-4v-73q0 -31 -2 -67t-4 -64l-76 -961q-4 -47 -51 -47h-41q-49 0 -49 46v7z" />
<glyph unicode="N" horiz-adv-x="1525" d="M201 51v1338q0 51 49 51h49q37 0 61 -33l713 -1004q18 -29 39 -62.5t39 -61.5q20 -35 41 -70h4q-4 35 -6 70q-4 29 -5 62.5t-1 61.5v986q0 51 51 51h41q49 0 49 -51v-1338q0 -51 -49 -51h-49q-39 0 -60 33l-714 1003q-18 27 -40 62t-38 63q-23 35 -41 70h-4q2 -35 6 -70 q2 -29 4 -62.5t2 -62.5v-985q0 -51 -49 -51h-43q-49 0 -49 51z" />
<glyph unicode="O" horiz-adv-x="1673" d="M102 729q0 156 55.5 290t154 233.5t232.5 155.5t292 56t292 -56t232 -155.5t153.5 -233.5t55.5 -290q0 -158 -55.5 -296t-153.5 -239.5t-232.5 -160t-291.5 -58.5q-158 0 -292 58.5t-232.5 160t-154 239.5t-55.5 296zM250 729q0 -131 44 -244.5t123 -196.5t185.5 -131 t233.5 -48t234.5 48t185 131t121.5 196.5t44 244.5q0 129 -44 238.5t-121.5 190.5t-185 127t-234.5 46t-233.5 -46t-185.5 -127t-123 -190.5t-44 -238.5z" />
<glyph unicode="P" horiz-adv-x="1206" d="M201 51v1338q0 51 49 51h448q96 0 178 -31t141.5 -87t92.5 -136t33 -180t-33 -182.5t-92.5 -139.5t-141 -88t-178.5 -31h-356v-514q0 -51 -49 -51h-43q-49 0 -49 51zM342 692h338q145 0 231 83t86 231q0 147 -86 227t-229 80h-340v-621z" />
<glyph unicode="Q" horiz-adv-x="1673" d="M104 729q0 156 55.5 290t154 233.5t231.5 155.5t291 56q160 0 295 -56t232 -155.5t152.5 -233.5t55.5 -290q0 -143 -47 -270t-133 -226l141 -143q20 -18 20 -36t-18 -36l-16 -16q-19 -19 -36 -19t-32 17l-143 145q-96 -82 -215 -126t-256 -44q-158 0 -292 58.5 t-231.5 161t-153 239.5t-55.5 295zM252 729q0 -131 45 -243.5t123 -196.5t185.5 -132t230.5 -48q102 0 199.5 33.5t172.5 99.5l-141 145q-19 18 -19 36q0 17 17 34l16 16q18 21 37 21l33 -17l139 -145q63 78 98 181t35 216q0 129 -45 239.5t-123.5 190.5t-186 126t-232.5 46 q-123 0 -230.5 -46t-185.5 -126t-123 -190.5t-45 -239.5z" />
<glyph unicode="R" horiz-adv-x="1247" d="M201 51v1338q0 51 49 51h389q102 0 160.5 -10.5t101.5 -30.5q98 -47 155.5 -138.5t57.5 -222.5q0 -147 -74.5 -254.5t-197.5 -142.5v-4q4 -6 10 -14q4 -8 10 -18.5t17 -24.5l280 -521q8 -16 8 -28q0 -9 -4 -15q-10 -16 -39 -16h-53q-41 0 -59 35l-307 571h-363v-555 q0 -51 -49 -51h-43q-49 0 -49 51zM342 733h342q131 0 208 83t77 218q0 86 -40 152.5t-112 99.5q-31 14 -70.5 20.5t-117.5 6.5h-287v-580z" />
<glyph unicode="S" horiz-adv-x="1077" d="M115 199l24 30q17 20 37 20q16 0 35 -13q18 -16 50 -37t74 -41.5t94 -33.5t114 -13q129 0 211 66.5t82 178.5q0 90 -53.5 148.5t-133.5 101.5t-172 80t-172 87t-133 122t-53 184q0 88 34.5 160t96 122t143.5 76.5t176 26.5q63 0 118.5 -12t101 -28.5t78 -37t53.5 -34.5 q22 -17 22 -38q0 -14 -10 -30l-19 -33q-14 -23 -32.5 -24.5t-38.5 10.5q-39 27 -108.5 59.5t-168.5 32.5q-61 0 -115.5 -16.5t-96.5 -47t-65.5 -75.5t-23.5 -103q0 -86 53.5 -141t133 -96t172 -78t172 -87t133 -125t53.5 -189q0 -84 -29.5 -156t-86 -125t-138.5 -84 t-184 -31q-80 0 -147.5 16.5t-121 41t-92 50.5t-61.5 44q-18 18 -18 38q0 16 12 34z" />
<glyph unicode="T" horiz-adv-x="1200" d="M12 1364v25q0 51 51 51h1074q51 0 51 -51v-25q0 -51 -51 -51h-467v-1262q0 -51 -49 -51h-41q-51 0 -52 51v1262h-465q-51 0 -51 51z" />
<glyph unicode="U" horiz-adv-x="1464" d="M180 502v887q0 51 51 51h41q51 0 52 -51v-885q0 -186 110.5 -290.5t296.5 -104.5t298 104t112 295v881q0 51 51 51h41q49 0 49 -51v-887q0 -121 -40 -217.5t-112.5 -166t-173 -106.5t-223.5 -37t-224 37t-175 106.5t-114 166t-40 217.5z" />
<glyph unicode="V" horiz-adv-x="1249" d="M37 1380q-5 15 -5 26q0 34 46 34h47q45 0 57 -41l383 -1053q10 -29 19.5 -60.5t17.5 -60.5q8 -33 19 -65h4q10 33 18 65q8 29 17.5 60.5t19.5 60.5l387 1053q12 41 55 41h49q45 0 45 -37q0 -10 -4 -23l-497 -1339q-14 -41 -58 -41h-67q-43 0 -55 41z" />
<glyph unicode="W" horiz-adv-x="1904" d="M88 1384q-2 10 -2 17q0 38 47 39h45q43 0 55 -45l269 -1073q6 -29 12 -55.5t10 -49.5q6 -25 11 -49h4q4 25 10 49q4 23 10 49.5t14 55.5l297 1075q12 43 56 43h47q43 0 55 -43l295 -1075q8 -29 15.5 -55.5t11.5 -49.5q6 -25 10 -49h4q2 25 8 49q4 23 9 49.5t14 55.5 l280 1073q12 45 56 45h45q27 0 39 -14q7 -9 7 -22q0 -9 -3 -20l-357 -1341q-12 -43 -57 -43h-78q-45 0 -57 43l-266 971q-10 35 -18.5 71.5t-16.5 69.5q-8 37 -17 74h-6l-16 -74q-8 -33 -16.5 -69.5t-18.5 -71.5l-268 -971q-12 -43 -56 -43h-79q-43 0 -56 45z" />
<glyph unicode="X" horiz-adv-x="1159" d="M59 18q-4 6 -4 13q0 13 11 28l421 693l-381 628q-16 25 -5.5 42.5t40.5 17.5h56q37 0 59 -35l231 -391q16 -29 33 -57.5t31 -53.5q16 -29 31 -55h4q12 27 26 55q12 25 28.5 53.5t33.5 57.5l233 391q20 35 60 35h55q31 0 41 -17.5t-6 -42.5l-385 -628l422 -693 q12 -16 12 -29q0 -7 -4 -13q-10 -17 -41 -17h-51q-39 0 -60 35l-280 463q-16 29 -32.5 57.5t-29.5 50.5q-14 27 -28 51h-5q-12 -27 -26 -53q-12 -23 -28.5 -51.5t-33.5 -56.5l-276 -461q-20 -35 -59 -35h-52q-31 0 -41 18z" />
<glyph unicode="Y" horiz-adv-x="1134" d="M39 1422q10 18 41 18h51q41 0 59 -35l287 -487q16 -29 31.5 -60t28.5 -55l28 -58h4l29 58q12 25 27.5 55.5t31.5 59.5l287 487q18 35 57 35h54q29 0 40 -18q4 -7 4 -15q0 -12 -9 -27l-451 -762v-567q0 -51 -51 -51h-41q-49 0 -49 51v567l-453 762q-10 15 -10 28q0 8 4 14 z" />
<glyph unicode="Z" horiz-adv-x="1177" d="M68 51v15q0 35 20 63l725 1053q18 29 36.5 53.5t33.5 40.5q16 20 30 37v4q-10 -2 -26 -2q-14 -2 -33.5 -2h-46.5h-649q-49 0 -49 51v25q0 51 49 51h880q51 0 52 -49v-17q0 -35 -21 -63l-725 -1053q-20 -29 -37.5 -53.5t-32.5 -40.5q-16 -20 -30 -37v-4q10 0 26 2 q14 0 33 1t47 1h697q49 0 49 -51v-25q0 -51 -49 -51h-928q-51 0 -51 51z" />
<glyph unicode="[" horiz-adv-x="546" d="M178 -143v1587q0 51 49 51h179q49 0 49 -51v-12q0 -51 -49 -52h-99v-1460h99q49 0 49 -51v-12q0 -51 -49 -52h-179q-49 0 -49 52z" />
<glyph unicode="\" horiz-adv-x="788" d="M86 1462q-16 57 43 58h27q43 0 57 -41l487 -1508q10 -27 -2 -42t-39 -15h-26q-45 0 -60 41z" />
<glyph unicode="]" horiz-adv-x="546" d="M92 -131q0 51 51 51h97v1460h-97q-51 0 -51 52v12q0 51 51 51h176q49 0 50 -51v-1587q0 -51 -50 -52h-176q-51 0 -51 52v12z" />
<glyph unicode="^" horiz-adv-x="1241" d="M176 571l363 830q18 39 59 39h12q41 0 60 -39l362 -830q23 -59 -39 -59h-28q-43 0 -58 39l-303 719l-303 -719q-18 -39 -59 -39h-27q-61 0 -39 59z" />
<glyph unicode="_" horiz-adv-x="1101" d="M23 -51q0 51 49 51h956q51 0 51 -51v-17q0 -51 -51 -51h-956q-49 0 -49 51v17z" />
<glyph unicode="`" horiz-adv-x="1032" d="M399 1766.5q7 17.5 39 17.5h47q39 0 60 -35l90 -152q14 -23 8 -40t-35 -17h-28q-37 0 -62 33l-108 149q-18 27 -11 44.5z" />
<glyph unicode="a" horiz-adv-x="1040" d="M70 276q0 84 32.5 143.5t86 98.5t121 61.5t137 34t136 14.5t115.5 3h60v33q0 74 -19.5 125t-53.5 82.5t-80 45t-101 13.5q-86 0 -150.5 -24.5t-99.5 -47.5q-16 -9 -30 -9q-23 0 -40 25l-12 21q-11 18 -11 33q0 22 25 37q41 25 124 57.5t204 32.5q186 0 284.5 -100.5 t98.5 -295.5v-608q0 -51 -49 -51h-33q-51 0 -51 51v82v31.5t2 25.5q2 12 4 21h-4l-18 -37q-19 -37 -60 -81t-107.5 -81t-162.5 -37q-66 0 -128.5 19.5t-111.5 57.5t-78.5 94t-29.5 130zM213 289q0 -37 14.5 -72t43 -62.5t71.5 -45t100 -17.5q74 0 133.5 35t99.5 90t61.5 124 t21.5 136v49h-58q-61 0 -144 -4t-160 -27.5t-130 -71.5t-53 -134z" />
<glyph unicode="b" horiz-adv-x="1189" d="M160 51v1338q0 51 49 51h39q51 0 51 -51v-461q0 -18 -1 -33.5t-3 -26.5l-4 -24h4q29 57 78 104q41 41 108.5 74t167.5 33q104 0 187.5 -40t141.5 -110.5t89 -170t31 -218.5q0 -123 -35 -223t-96.5 -171t-147.5 -109t-186 -38q-94 0 -159.5 33t-106.5 74q-49 47 -78 108 h-4l4 -20t3 -24.5t1 -30.5v-68q0 -47 -51 -47h-33q-49 0 -49 51zM295 514q0 -80 20.5 -153.5t60.5 -132t101.5 -93.5t143.5 -35q70 0 130 28t105 81t71.5 130t26.5 175q0 94 -24.5 171t-67.5 130t-102.5 83t-130.5 30q-66 0 -125.5 -23.5t-106.5 -74t-74.5 -129 t-27.5 -187.5z" />
<glyph unicode="c" horiz-adv-x="1089" d="M88 514q0 119 42 218t114.5 171t171 112t213.5 40q66 0 120 -12.5t97 -31t74.5 -39t50.5 -34.5q20 -16 20 -35q0 -16 -14 -35l-14 -22q-14 -22 -35 -22q-16 0 -35 12q-35 27 -100.5 60.5t-159.5 33.5q-84 0 -158 -31t-128 -85t-85 -131t-31 -169t31 -168t85 -130t128 -85 t160 -31q53 0 98 11.5t82 28t64.5 35t46.5 34.5q16 13 31 13q20 0 36 -25l15 -21q9 -14 9 -28q0 -22 -22 -42q-20 -16 -53 -38.5t-79 -43t-104.5 -35t-129.5 -14.5q-115 0 -214.5 39t-172 111t-113.5 170t-41 219z" />
<glyph unicode="d" horiz-adv-x="1189" d="M92 516q0 123 34 222.5t95.5 170t146.5 108.5t187 38q94 0 157.5 -33t104.5 -72q47 -45 76 -102h4q-2 10 -4 22q-2 10 -2 24.5v31.5v463q0 51 51 51h39q49 0 49 -51v-1338q0 -51 -49 -51h-35q-51 0 -51 49v78q0 14 1 24.5t3 20.5q2 8 4 18h-4q-29 -61 -78 -108 q-41 -41 -109.5 -74t-170.5 -33q-104 0 -187.5 40t-141.5 111t-89 170t-31 220zM236 516q0 -96 23.5 -173t66.5 -130t103 -83t132 -30q63 0 123.5 23.5t108 75t75 129.5t27.5 188q0 78 -20.5 152.5t-60.5 132t-102.5 92.5t-144.5 35q-68 0 -128 -28t-105 -81t-71.5 -129 t-26.5 -174z" />
<glyph unicode="e" horiz-adv-x="1114" d="M90 514q0 127 40 227.5t109.5 170t162 106.5t196.5 37q102 0 182 -36t135.5 -100.5t84 -154.5t28.5 -201q0 -23 -15.5 -37t-37.5 -14h-742q2 -98 35 -175t87.5 -129t126 -80t151.5 -28q98 0 166.5 33t103.5 62q17 11 32 11q21 0 36 -24l16 -24q9 -15 9 -28q0 -22 -23 -40 q-20 -16 -53 -35.5t-77 -37t-98.5 -30t-115.5 -12.5q-115 0 -214.5 40t-171 111t-112.5 170t-41 218zM240 616h647q-4 82 -27.5 142.5t-63.5 100.5t-92.5 60.5t-109.5 20.5q-66 0 -124 -21.5t-105.5 -62.5t-80 -101.5t-44.5 -138.5z" />
<glyph unicode="f" horiz-adv-x="624" d="M63 954v17q0 51 50 51h82v47q0 123 39.5 197.5t95 115.5t114 54.5t97.5 13.5h22q49 0 49 -51v-25q0 -47 -55 -49q-33 -2 -72 -10t-72.5 -35t-56 -77t-22.5 -136v-45h213q49 0 49 -51v-17q0 -49 -49 -49h-213v-854q0 -51 -51 -51h-39q-49 0 -49 51v854h-82q-49 0 -50 49z " />
<glyph unicode="g" horiz-adv-x="1175" d="M94 541q0 113 31 208t89 162.5t142 105.5t193 38q100 0 164.5 -30t103.5 -64q45 -41 68 -95h4q-2 4 -2 11q-2 6 -2 24v84q0 45 49 45h33q51 0 51 -51v-954q0 -123 -42 -209t-110.5 -141.5t-156.5 -80t-181 -24.5q-80 0 -155.5 16.5t-141.5 44.5q-31 14 -31 39q0 12 7 27 l12 29q14 27 40 27q12 0 26 -5q35 -16 94 -34.5t145 -18.5q72 0 136.5 18.5t112.5 57.5t77 100t29 147v107v27.5t2 23.5q2 12 4 23h-4q-47 -88 -126 -140.5t-202 -52.5q-104 0 -188 39t-144.5 109.5t-93.5 169t-33 217.5zM238 545q0 -195 90.5 -304.5t244.5 -109.5 q61 0 116.5 20.5t98.5 67.5t68 123t25 188q0 115 -26 192t-70 123t-102 65.5t-122 19.5q-158 0 -240.5 -102.5t-82.5 -282.5z" />
<glyph unicode="h" horiz-adv-x="1198" d="M160 51v1338q0 51 49 51h39q51 0 51 -51v-515q0 -18 -1 -33.5t-3 -25.5l-4 -24h4q14 37 48 82t85 85.5t120.5 68.5t158.5 28q96 0 161.5 -27t106.5 -78t59.5 -125.5t18.5 -169.5v-604q0 -51 -49 -51h-39q-51 0 -52 51v567q0 61 -7 117t-30.5 97.5t-67.5 66.5t-120 25 q-82 0 -152.5 -32t-123 -88t-83 -135t-30.5 -171v-447q0 -51 -51 -51h-39q-49 0 -49 51z" />
<glyph unicode="i" horiz-adv-x="456" d="M154 1315v74q0 51 49 51h51q49 0 49 -51v-74q0 -49 -49 -49h-51q-49 0 -49 49zM158 51v928q0 51 51 51h39q49 0 49 -51v-928q0 -51 -49 -51h-39q-51 0 -51 51z" />
<glyph unicode="j" horiz-adv-x="456" d="M-121 -348q0 27 14.5 37t36.5 12q33 2 73 11t75 37t58.5 80t23.5 138v1012q0 51 49 51h39q51 0 51 -51v-1016q0 -127 -41 -202.5t-96.5 -115.5t-114.5 -53.5t-96 -13.5h-21q-51 0 -51 51v23zM154 1315v74q0 51 49 51h51q49 0 49 -51v-74q0 -49 -49 -49h-51q-49 0 -49 49z " />
<glyph unicode="k" horiz-adv-x="995" d="M160 51v1338q0 51 49 51h39q51 0 51 -51v-752h166l285 362q25 31 61 31h51q31 0 40 -18.5t-11 -42.5l-311 -387v-4l356 -517q10 -17 10 -30q0 -7 -3 -14q-9 -17 -42 -17h-53q-39 0 -60 35l-321 479h-168v-463q0 -51 -51 -51h-39q-49 0 -49 51z" />
<glyph unicode="l" horiz-adv-x="499" d="M160 244v1145q0 51 49 51h39q51 0 51 -51v-1121q0 -49 10 -77.5t25.5 -44t35 -20.5t36.5 -7q18 -2 30.5 -12.5t12.5 -32.5v-31q0 -51 -54 -51q-31 0 -71.5 7t-77.5 33.5t-61.5 77t-24.5 134.5z" />
<glyph unicode="m" horiz-adv-x="1855" d="M158 51v928q0 51 51 51h37q49 0 49 -51v-119q0 -16 -1 -29.5t-3 -23.5q-2 -12 -4 -21h4q18 51 57 100.5t90 86.5t110.5 59.5t121.5 22.5q143 0 219 -64.5t98 -193.5h4q20 49 58 95t88.5 83t109 58.5t123.5 21.5q186 0 264 -104.5t78 -295.5v-604q0 -51 -51 -51h-37 q-51 0 -51 51v570q0 63 -8.5 118.5t-33 97.5t-67.5 66.5t-112 24.5q-78 0 -141.5 -37t-109.5 -98.5t-70.5 -138t-24.5 -156.5v-447q0 -51 -50 -51h-38q-51 0 -52 51v570q0 57 -6 112t-28.5 98t-65.5 70t-117 27q-78 0 -143.5 -38t-111.5 -99.5t-71.5 -138.5t-25.5 -154v-447 q0 -51 -49 -51h-39q-51 0 -51 51z" />
<glyph unicode="n" horiz-adv-x="1196" d="M158 51v928q0 51 51 51h37q49 0 49 -51v-119q0 -16 -1 -29.5t-3 -23.5q-2 -12 -4 -21h4q14 35 47 81t85 88t122.5 71t161.5 29q96 0 161.5 -27t106.5 -78t59.5 -125.5t18.5 -169.5v-604q0 -51 -52 -51h-38q-49 0 -50 51v567q0 61 -7 117t-30.5 97.5t-68.5 66.5t-119 25 q-82 0 -153.5 -32t-124 -88t-83 -133t-30.5 -167v-453q0 -51 -49 -51h-39q-51 0 -51 51z" />
<glyph unicode="o" horiz-adv-x="1259" d="M86 520q0 115 43 212t116.5 169t172 113t211.5 41t212 -41t172.5 -113t117 -169t43.5 -212q0 -117 -43.5 -216t-117 -173t-172 -115t-210.5 -41q-113 0 -212.5 41t-173 115t-116.5 173t-43 216zM229 520q0 -90 32 -167t86 -133t127 -88t157 -32q82 0 154.5 32t127 88 t86 133t31.5 167q0 88 -31.5 163t-86 130t-127 86t-154.5 31q-84 0 -157 -31t-127 -86t-86 -130t-32 -163z" />
<glyph unicode="p" horiz-adv-x="1189" d="M160 -358v1337q0 51 49 51h33q49 0 49 -47v-74q0 -16 -1 -28.5t-3 -22.5t-2 -18h4q29 59 78 106q41 41 109.5 75t172.5 34t187.5 -40t141.5 -110.5t89 -171t31 -219.5q0 -123 -35 -222t-96.5 -170t-146.5 -109t-185 -38q-94 0 -158.5 32t-105.5 73q-47 45 -76 104h-4 q2 -10 4 -24q2 -12 3 -28.5t1 -37.5v-452q0 -51 -51 -52h-39q-49 0 -49 52zM295 512q0 -78 21.5 -151.5t62.5 -132t101.5 -93.5t140.5 -35q70 0 130 28t105 81t71.5 130t26.5 175q0 94 -24.5 171t-67.5 130t-102.5 83t-130.5 30q-66 0 -125.5 -23.5t-106.5 -75t-74.5 -129 t-27.5 -188.5z" />
<glyph unicode="q" horiz-adv-x="1189" d="M92 516q0 123 35 222.5t96.5 170t146.5 108.5t187 38q94 0 159.5 -33t106.5 -74q47 -47 76 -104h4q-2 8 -4 18t-2 22.5v28.5v72q0 45 51 45h33q49 0 49 -51v-1337q0 -51 -49 -52h-39q-51 0 -51 52v456q0 20 1 37t3 29q2 14 4 24h-4q-29 -59 -78 -106q-41 -41 -108.5 -74 t-169.5 -33t-185.5 40t-141.5 111t-89 170t-31 220zM236 516q0 -96 23.5 -173t66.5 -130t103 -83t132 -30q63 0 123.5 23.5t108 75t75 129.5t27.5 188q0 78 -20.5 152.5t-60.5 132t-102.5 92.5t-144.5 35q-68 0 -128 -28t-105 -81t-71.5 -129t-26.5 -174z" />
<glyph unicode="r" horiz-adv-x="692" d="M158 51v928q0 51 51 51h37q49 0 49 -51v-139q0 -16 -1 -31.5t-3 -26.5l-4 -24h4q18 55 49 106t74 89t95 60.5t114 22.5q53 0 53 -49v-37q0 -51 -58 -51q-82 0 -142 -42t-100 -108.5t-59.5 -149.5t-19.5 -163v-385q0 -51 -49 -51h-39q-51 0 -51 51z" />
<glyph unicode="s" horiz-adv-x="882" d="M94 164l17 20q15 20 36 20q15 0 33 -11q35 -27 103.5 -61t169.5 -34q86 0 147.5 42t61.5 124q0 57 -41 93t-102.5 64t-132.5 53.5t-132 62t-102 90t-41 139.5q0 72 28.5 126t75.5 90t110.5 54.5t135.5 18.5q111 0 180.5 -31t101.5 -53q25 -15 25 -37q0 -14 -10 -31 l-15 -22q-14 -25 -37 -25q-14 0 -32 10q-29 20 -84 43t-137 23t-142.5 -38t-60.5 -122q0 -59 41 -96t101.5 -64.5t132 -52t132 -61.5t101.5 -91.5t41 -140.5q0 -63 -25.5 -116.5t-72 -92.5t-111 -60.5t-139.5 -21.5q-68 0 -123.5 12.5t-99.5 31t-76 39t-50 36.5 q-21 16 -21 36q0 16 13 34z" />
<glyph unicode="t" horiz-adv-x="655" d="M63 954v17q0 51 50 51h88v242q0 51 51 51h37q49 0 49 -51v-242h209q51 0 51 -51v-17q0 -49 -51 -49h-209v-516q0 -90 23.5 -142t58.5 -80t73.5 -37t69.5 -11q31 -4 43 -14.5t12 -36.5v-27q0 -49 -57 -49q-170 0 -266 98t-96 281v534h-86q-49 0 -50 49z" />
<glyph unicode="u" horiz-adv-x="1187" d="M145 375v604q0 51 50 51h38q51 0 52 -51v-567q0 -61 7 -116.5t29.5 -97.5t67.5 -67t119 -25q88 0 158.5 36t120 95.5t76 137.5t26.5 162v442q0 51 51 51h39q49 0 49 -51v-928q0 -51 -49 -51h-37q-49 0 -49 51v119v28.5t2 22.5t4 23h-4q-14 -37 -48 -84t-84 -88t-119 -69 t-155 -28q-184 0 -264 98.5t-80 301.5z" />
<glyph unicode="v" horiz-adv-x="978" d="M41 971q-5 14 -5 25.5t5 18.5q10 15 39 15h45q43 0 55 -41l273 -715q6 -20 13 -41.5t11 -39.5q6 -23 10 -43h5q4 20 10 43q4 18 11 39.5t15 41.5l271 715q12 41 55 41h43q46 0 46 -33q0 -11 -5 -26l-358 -932q-12 -39 -56 -39h-67q-43 0 -58 39z" />
<glyph unicode="w" horiz-adv-x="1630" d="M47 973q-3 12 -3 22q0 35 46 35h43q45 0 57 -43l236 -725q6 -18 11 -37.5t9 -36.5q6 -20 11 -36h4q4 16 10 36q4 16 10 36t13 38l239 723q12 41 58 41h49q45 0 57 -41l240 -723q6 -18 12 -37.5t10 -36.5q6 -20 10 -36h5q2 18 8 36q4 16 9 35t13 39l236 725q12 43 57 43 h43q45 0 45 -35q0 -10 -4 -22l-315 -930q-12 -43 -58 -43h-63q-45 0 -58 43l-239 690q-6 18 -12.5 38t-10.5 36q-6 18 -8 37h-4q-4 -18 -10 -37q-4 -16 -10.5 -35.5t-12.5 -38.5l-237 -690q-12 -43 -58 -43h-63q-45 0 -60 43z" />
<glyph unicode="x" horiz-adv-x="958" d="M60 18q-3 6 -3 13q0 13 11 30l321 476l-291 432q-16 27 -7 44t40 17h51q39 0 58 -35l202 -311q6 -10 12.5 -19.5t10.5 -19.5l12 -20h4l11 20q4 10 11 19.5t13 19.5l201 311q20 35 59 35h51q31 0 40.5 -17.5t-7.5 -43.5l-293 -432l322 -476q10 -17 10 -30q0 -7 -3 -14 q-9 -17 -40 -17h-49q-39 0 -59 35l-232 352q-8 10 -14 20.5t-10 18.5q-6 8 -11 18h-4q-4 -10 -10 -18q-4 -8 -11 -18.5t-14 -20.5l-231 -352q-20 -35 -59 -35h-50q-33 0 -42 18z" />
<glyph unicode="y" horiz-adv-x="1005" d="M18 -364q-2 6 -2 13q0 12 7 23l12 23q14 28 40 28q10 0 21 -4q16 -8 39 -17t51 -9q70 0 117 51t76 119l61 145l-405 963q-10 27 0 43t39 16h47q43 0 57 -39l289 -712q6 -20 13 -39t12 -35q6 -18 12 -35h4q4 16 10 35q4 16 10.5 34.5t14.5 39.5l282 710q14 41 58 41h45 q29 0 40 -16q6 -8 6 -19t-5 -24l-486 -1180q-41 -100 -116.5 -160.5t-180.5 -60.5q-45 0 -80.5 12t-60.5 25q-20 10 -27 29z" />
<glyph unicode="z" horiz-adv-x="1005" d="M70 45v14q0 33 20 60l553 694q16 18 29.5 35.5t25.5 30.5q12 14 27 28v4q-12 -2 -27 -2q-12 -2 -31.5 -2h-43.5h-480q-49 0 -49 49v23q0 51 49 51h721q49 0 49 -45v-14q0 -33 -20 -60l-555 -694q-16 -20 -30.5 -36.5t-26.5 -28.5q-14 -14 -27 -29v-4q10 0 27 2 q14 0 32.5 1t44.5 1h527q49 0 49 -49v-23q0 -51 -49 -51h-766q-49 0 -49 45z" />
<glyph unicode="{" horiz-adv-x="628" d="M61 641v41q0 23 11.5 34t29.5 21q18 6 42 21.5t43.5 41t34 65.5t14.5 96v167q0 123 32.5 195t76.5 111t90 50t71 11h16q49 0 49 -49v-19q0 -51 -49 -51q-16 0 -42.5 -6t-52.5 -32.5t-44 -78t-18 -139.5v-196q0 -76 -26 -126t-56 -79q-37 -37 -82 -55v-5q45 -16 82 -51 q31 -29 56.5 -80t25.5 -129v-223q0 -90 18 -140t44 -77t52.5 -33t42.5 -6q49 0 49 -49v-18q0 -51 -49 -52h-16q-25 0 -71 11.5t-90 50.5t-76.5 111.5t-32.5 195.5v195q0 55 -14.5 94t-34 64.5t-43 40t-42.5 22.5q-18 10 -29.5 21t-11.5 34z" />
<glyph unicode="|" horiz-adv-x="479" d="M176 -270v1835q0 49 49 49h29q51 0 51 -49v-1835q0 -51 -51 -52h-29q-49 0 -49 52z" />
<glyph unicode="}" horiz-adv-x="630" d="M57 -129q0 49 52 49q14 0 40.5 6t52 33t44 77t18.5 140v223q0 78 25.5 129.5t56.5 79.5q37 35 82 51v5q-45 18 -82 55q-31 29 -56.5 79t-25.5 126v196q0 88 -18.5 139.5t-44 78t-52 32.5t-40.5 6q-51 0 -52 51v19q0 49 52 49h14q27 0 72 -11t89 -50t76.5 -111t32.5 -195 v-167q0 -55 14.5 -95.5t35 -66t44 -41t41.5 -21.5q18 -10 28.5 -21t10.5 -34v-41q0 -23 -10 -34t-31 -21q-18 -8 -41.5 -22.5t-43 -40t-34 -64.5t-14.5 -94v-195q0 -123 -32.5 -195.5t-76.5 -111.5t-89 -50.5t-72 -11.5h-14q-51 0 -52 52v18z" />
<glyph unicode="~" horiz-adv-x="1198" d="M137 498q16 133 85 190t171 57q84 0 134.5 -33.5t89 -73.5t78.5 -73t106 -33q37 0 62.5 15.5t42 39t24.5 51.5t10 52q12 47 53 47h23q53 0 47 -53q-10 -141 -81 -202.5t-175 -61.5q-57 0 -97 15.5t-71 40t-55.5 51t-51 51t-58.5 40t-75 15.5q-39 0 -64.5 -15.5t-40.5 -39 t-23.5 -51t-10.5 -52.5q-6 -23 -18.5 -35t-36.5 -12h-21q-53 0 -47 70z" />
<glyph unicode="&#xa2;" horiz-adv-x="1136" d="M109 721q0 111 27.5 210t81.5 176t135 125t186 60v121q0 51 49 51h16q49 0 49 -45v-127q123 -12 215.5 -82.5t145.5 -173.5q23 -45 -27 -65l-37 -15q-25 -10 -39 -1.5t-26 26.5q-47 82 -116 131t-167 49q-90 0 -155.5 -33.5t-108.5 -94t-63.5 -141.5t-20.5 -173 t20.5 -172t63.5 -139.5t108.5 -93t155.5 -33.5q98 0 167 48t116 132q10 16 25.5 24.5t39.5 -2.5l37 -14q49 -20 27 -66q-53 -102 -145.5 -173.5t-215.5 -82.5v-122q0 -51 -49 -52h-16q-49 0 -49 52v122q-104 12 -185.5 60.5t-135.5 125.5t-81.5 176t-27.5 212z" />
<glyph unicode="&#xa3;" horiz-adv-x="1157" d="M111 51v25q0 51 51 51h80v541h-49q-49 0 -50 49v12q0 51 50 51h49v305q0 80 31.5 150t87 121t133 79.5t170.5 28.5q98 0 169.5 -29.5t110.5 -56.5q43 -29 6 -69l-20 -27q-29 -33 -70 -8q-29 16 -79 36.5t-115 20.5q-68 0 -120 -20.5t-88 -55t-54.5 -81t-18.5 -97.5v-297 h342q49 0 49 -51v-12q0 -49 -49 -49h-342v-541h643q51 0 51 -51v-25q0 -51 -51 -51h-866q-51 0 -51 51z" />
<glyph unicode="&#xa5;" horiz-adv-x="1185" d="M76 1422.5q10 17.5 41 17.5h51q41 0 59 -37l277 -475q16 -31 31.5 -64t27.5 -59q14 -31 29 -60h4q12 29 27 60q12 27 28.5 59.5t32.5 63.5l277 475q18 37 57 37h53q31 0 41 -17.5t-4 -42.5l-328 -559h164q51 0 51 -47v-12q0 -45 -51 -45h-223l-55 -101v-79h278 q51 0 51 -45v-13q0 -47 -51 -47h-278v-381q0 -51 -50 -51h-43q-51 0 -51 51v381h-282q-51 0 -52 47v13q0 45 52 45h282v79l-57 101h-225q-51 0 -52 45v12q0 47 48 47h170l-326 559q-14 25 -4 42.5z" />
<glyph unicode="&#xa8;" horiz-adv-x="1032" d="M299 1657v76q0 51 49 51h27q49 0 49 -51v-76q0 -49 -49 -49h-27q-49 0 -49 49zM608 1657v76q0 51 49 51h27q51 0 51 -51v-76q0 -49 -51 -49h-27q-49 0 -49 49z" />
<glyph unicode="&#xa9;" horiz-adv-x="1685" d="M115 721q0 156 56 291t154.5 235.5t230.5 158.5t284 58t284.5 -58t232 -158.5t157 -235.5t57.5 -291q0 -158 -57.5 -293t-157 -236.5t-232.5 -159t-284 -57.5q-152 0 -284 57.5t-230.5 159t-154.5 236.5t-56 293zM236 721q0 -135 46 -251t128 -201t191.5 -134t238.5 -49 t241.5 49t194.5 134t129 201t47 251q0 133 -47 248.5t-129 200.5t-194.5 134.5t-241.5 49.5t-238.5 -49.5t-191.5 -134.5t-128 -200.5t-46 -248.5zM436 717q0 80 28 156.5t82 135t133 94.5t181 36q57 0 106.5 -15.5t88.5 -39t66.5 -49t43.5 -44.5q14 -18 11.5 -34.5 t-17.5 -28.5l-20 -19q-33 -27 -64 11q-12 14 -31.5 32.5t-46 35t-60.5 27.5t-73 11q-76 0 -133 -25.5t-96 -68.5t-58.5 -98.5t-19.5 -116.5q0 -59 19.5 -113.5t58.5 -97.5t96 -68.5t133 -25.5q41 0 75 11t60.5 27.5t46 35t31.5 32.5q31 35 62 8l18 -16q35 -29 8 -64 q-16 -18 -44.5 -43.5t-66.5 -49t-87 -39t-107 -15.5q-102 0 -182 35t-133 93t-81 134t-28 156z" />
<glyph unicode="&#xab;" horiz-adv-x="1009" d="M102 543q-31 35 0 69l283 359q23 29 61 28h35q33 0 41 -17t-12 -44l-287 -360l287 -359q20 -27 13 -44t-38 -17h-39q-39 0 -61 28zM471 543q-31 35 0 69l283 359q23 29 61 28h35q33 0 41 -17t-12 -44l-287 -360l287 -359q20 -27 13 -44t-38 -17h-39q-39 0 -61 28z" />
<glyph unicode="&#xad;" horiz-adv-x="866" d="M143 567v27q0 51 50 51h481q49 0 49 -51v-27q0 -49 -49 -49h-481q-49 0 -50 49z" />
<glyph unicode="&#xae;" horiz-adv-x="1685" d="M115 721q0 156 56 291t154.5 235.5t230.5 158.5t284 58t284.5 -58t232 -158.5t157 -235.5t57.5 -291q0 -158 -57.5 -293t-157 -236.5t-232.5 -159t-284 -57.5q-152 0 -284 57.5t-230.5 159t-154.5 236.5t-56 293zM236 721q0 -135 46 -251t128 -201t191.5 -134t238.5 -49 t241.5 49t194.5 134t129 201t47 251q0 133 -47 248.5t-129 200.5t-194.5 134.5t-241.5 49.5t-238.5 -49.5t-191.5 -134.5t-128 -200.5t-46 -248.5zM596 373v696q0 51 49 51h236q106 0 172.5 -64.5t66.5 -172.5q0 -90 -47 -143.5t-102 -67.5v-4q2 -4 6 -11q4 -4 8 -13t12 -21 l125 -242q14 -27 5 -43t-37 -16h-25q-43 0 -57 36l-144 287h-151v-272q0 -51 -49 -51h-19q-49 0 -49 51zM713 735h147q66 0 103.5 39t37.5 109q0 68 -37.5 104.5t-101.5 36.5h-149v-289z" />
<glyph unicode="&#xb4;" horiz-adv-x="1032" d="M391 1557.5q-10 17.5 6 39.5l90 152q20 35 60 35h47q33 0 40 -17.5t-11 -44.5l-109 -149q-25 -33 -61 -33h-23q-29 0 -39 17.5z" />
<glyph unicode="&#xb8;" horiz-adv-x="1032" d="M371 -371q0 20 8 36t24 16q12 0 22.5 -3.5t31.5 -3.5q39 0 69.5 14.5t30.5 55.5q0 35 -28.5 51.5t-71.5 20.5q-16 2 -27.5 15t-7.5 38l39 166h88l-27 -148q61 -10 102.5 -47t41.5 -98q0 -45 -16.5 -76t-44 -50t-63.5 -27.5t-73 -8.5q-12 0 -29.5 1t-33 6t-25.5 14.5 t-10 27.5z" />
<glyph unicode="&#xbb;" horiz-adv-x="1009" d="M118.5 982q8.5 17 41.5 17h37q35 0 61 -28l283 -359q31 -35 0 -69l-283 -357q-27 -29 -61 -28h-35q-33 0 -41 17.5t12 43.5l285 359l-285 360q-23 27 -14.5 44zM488 175.5q-7 17.5 12 43.5l286 359l-286 360q-20 27 -12 44t38 17h37q37 0 64 -28l282 -359q31 -35 0 -69 l-282 -357q-27 -29 -64 -28h-33q-35 0 -42 17.5z" />
<glyph unicode="&#xc2;" horiz-adv-x="1247" d="M39 59l496 1340q12 41 55 41h67q43 0 56 -41l495 -1340q16 -59 -41 -59h-45q-45 0 -57 41l-154 418h-577l-152 -418q-12 -41 -57 -41h-43q-59 0 -43 59zM375 582h495l-190 522q-10 25 -18.5 57.5t-16.5 61.5q-8 35 -18 69h-4q-10 -35 -19 -69q-8 -29 -18.5 -62t-18.5 -57 zM406 1557.5q-7 17.5 10 44.5l106 149q25 33 62 33h75q23 0 36.5 -8.5t27.5 -24.5l104 -149q18 -27 12.5 -44.5t-34.5 -17.5h-35q-35 0 -55 35l-90 131h-4l-91 -131q-10 -18 -22 -26.5t-35 -8.5h-31q-29 0 -36 17.5z" />
<glyph unicode="&#xc7;" horiz-adv-x="1458" d="M106 729q0 156 53.5 291t150 233.5t228.5 154.5t291 56q96 0 174 -16t138.5 -41t103.5 -51.5t68 -44.5q35 -29 8 -72l-18 -27q-29 -37 -70 -8q-23 16 -60.5 38t-88 42.5t-114 33.5t-136.5 13q-131 0 -239 -46t-183.5 -127t-116.5 -190.5t-41 -236.5q0 -129 41 -241.5 t117.5 -197.5t185.5 -134t242 -49q80 0 148.5 17t122.5 42t93 51.5t64 44.5q39 33 69 -6l19 -22q31 -37 -4 -72q-25 -23 -69 -53.5t-106.5 -60.5t-143.5 -51.5t-177 -23.5l-16 -88q61 -10 102 -47t41 -98q0 -45 -16.5 -76t-44 -50t-63.5 -27.5t-73 -8.5q-12 0 -29.5 1 t-32.5 6t-25.5 14.5t-10.5 27.5q0 20 8.5 36t24.5 16q12 0 22.5 -3.5t30.5 -3.5q39 0 69.5 14.5t30.5 55.5q0 35 -28.5 51.5t-71.5 20.5q-16 2 -27.5 15t-7.5 38l25 111q-150 12 -270.5 74.5t-206.5 162.5t-133.5 231.5t-47.5 280.5z" />
<glyph unicode="&#xce;" d="M58 1557.5q-7 17.5 10 44.5l106 149q25 33 62 33h75q23 0 36 -8.5t28 -24.5l104 -149q18 -27 12 -44.5t-34 -17.5h-35q-35 0 -55 35l-91 131h-4l-90 -131q-10 -18 -22.5 -26.5t-34.5 -8.5h-31q-29 0 -36 17.5zM201 51v1338q0 51 49 51h43q49 0 49 -51v-1338 q0 -51 -49 -51h-43q-49 0 -49 51z" />
<glyph unicode="&#xd6;" horiz-adv-x="1673" d="M102 729q0 156 55.5 290t154 233.5t232.5 155.5t292 56t292 -56t232 -155.5t153.5 -233.5t55.5 -290q0 -158 -55.5 -296t-153.5 -239.5t-232.5 -160t-291.5 -58.5q-158 0 -292 58.5t-232.5 160t-154 239.5t-55.5 296zM250 729q0 -131 44 -244.5t123 -196.5t185.5 -131 t233.5 -48t234.5 48t185 131t121.5 196.5t44 244.5q0 129 -44 238.5t-121.5 190.5t-185 127t-234.5 46t-233.5 -46t-185.5 -127t-123 -190.5t-44 -238.5zM618 1657v76q0 51 50 51h26q49 0 49 -51v-76q0 -49 -49 -49h-26q-49 0 -50 49zM928 1657v76q0 51 49 51h27 q51 0 51 -51v-76q0 -49 -51 -49h-27q-49 0 -49 49z" />
<glyph unicode="&#xdb;" horiz-adv-x="1464" d="M180 502v887q0 51 51 51h41q51 0 52 -51v-885q0 -186 110.5 -290.5t296.5 -104.5t298 104t112 295v881q0 51 51 51h41q49 0 49 -51v-887q0 -121 -40 -217.5t-112.5 -166t-173 -106.5t-223.5 -37t-224 37t-175 106.5t-114 166t-40 217.5zM515 1557.5q-7 17.5 9 44.5 l107 149q25 33 61 33h76q23 0 36 -8.5t27 -24.5l105 -149q18 -27 12 -44.5t-35 -17.5h-34q-35 0 -56 35l-90 131h-4l-90 -131q-10 -18 -22.5 -26.5t-34.5 -8.5h-31q-29 0 -36 17.5z" />
<glyph unicode="&#xdc;" horiz-adv-x="1464" d="M180 502v887q0 51 51 51h41q51 0 52 -51v-885q0 -186 110.5 -290.5t296.5 -104.5t298 104t112 295v881q0 51 51 51h41q49 0 49 -51v-887q0 -121 -40 -217.5t-112.5 -166t-173 -106.5t-223.5 -37t-224 37t-175 106.5t-114 166t-40 217.5zM514 1657v76q0 51 49 51h27 q49 0 49 -51v-76q0 -49 -49 -49h-27q-49 0 -49 49zM823 1657v76q0 51 49 51h27q51 0 51 -51v-76q0 -49 -51 -49h-27q-49 0 -49 49z" />
<glyph unicode="&#xe2;" horiz-adv-x="1040" d="M70 276q0 84 32.5 143.5t86 98.5t121 61.5t137 34t136 14.5t115.5 3h60v33q0 74 -19.5 125t-53.5 82.5t-80 45t-101 13.5q-86 0 -150.5 -24.5t-99.5 -47.5q-43 -23 -70 16l-12 21q-27 45 14 70t124 57.5t204 32.5q186 0 284.5 -100.5t98.5 -295.5v-608q0 -51 -49 -51h-33 q-51 0 -51 51v82v31.5t2 25.5q2 12 4 21h-4l-18 -37q-19 -37 -60 -81t-107.5 -81t-162.5 -37q-66 0 -128.5 19.5t-111.5 57.5t-78.5 94t-29.5 130zM213 289q0 -37 14.5 -72t43 -62.5t71.5 -45t100 -17.5q74 0 133.5 35t99.5 90t61.5 124t21.5 136v49h-58q-61 0 -144 -4 t-160 -27.5t-130 -71.5t-53 -134zM300 1215.5q-7 17.5 9 44.5l107 149q25 33 61 33h76q23 0 36 -8.5t27 -24.5l105 -149q18 -27 12 -44.5t-35 -17.5h-34q-35 0 -56 35l-90 131h-4l-90 -131q-10 -18 -22.5 -26.5t-34.5 -8.5h-31q-29 0 -36 17.5z" />
<glyph unicode="&#xe7;" horiz-adv-x="1093" d="M90 514q0 119 42 218t114.5 171t171 112t213.5 40q66 0 120 -12.5t97 -31t74.5 -39t50.5 -34.5q37 -29 6 -70l-14 -22q-25 -39 -70 -10q-35 27 -100.5 60.5t-159.5 33.5q-84 0 -158 -31t-128 -85t-85 -131t-31 -169t31 -168t85 -130t128 -85t160 -31q53 0 98 11.5t82 28 t64.5 35t46.5 34.5q39 31 67 -12l15 -21q23 -37 -13 -70q-20 -16 -52 -37.5t-76 -42t-100 -35t-124 -16.5l-16 -88q61 -10 102 -47t41 -98q0 -45 -16.5 -76t-44 -50t-63.5 -27.5t-73 -8.5q-12 0 -29.5 1t-32.5 6t-25.5 14.5t-10.5 27.5q0 20 8.5 36t24.5 16q12 0 22.5 -3.5 t30.5 -3.5q39 0 70 14.5t31 55.5q0 35 -29 51.5t-72 20.5q-16 2 -27.5 15t-7.5 38l27 113q-102 12 -187 55t-146.5 112.5t-96.5 161.5t-35 203z" />
<glyph unicode="&#xee;" horiz-adv-x="456" d="M15 1215.5q-7 17.5 10 44.5l106 149q25 33 62 33h75q23 0 36 -8.5t28 -24.5l104 -149q18 -27 12 -44.5t-34 -17.5h-35q-35 0 -55 35l-91 131h-4l-90 -131q-10 -18 -22.5 -26.5t-34.5 -8.5h-31q-29 0 -36 17.5zM158 51v928q0 51 51 51h39q49 0 49 -51v-928q0 -51 -49 -51 h-39q-51 0 -51 51z" />
<glyph unicode="&#xf6;" horiz-adv-x="1259" d="M86 520q0 115 43 212t116.5 169t172 113t211.5 41t212 -41t172.5 -113t117 -169t43.5 -212q0 -117 -43.5 -216t-117 -173t-172 -115t-210.5 -41q-113 0 -212.5 41t-173 115t-116.5 173t-43 216zM229 520q0 -90 32 -167t86 -133t127 -88t157 -32q82 0 154.5 32t127 88 t86 133t31.5 167q0 88 -31.5 163t-86 130t-127 86t-154.5 31q-84 0 -157 -31t-127 -86t-86 -130t-32 -163zM412 1315v76q0 51 49 51h26q49 0 50 -51v-76q0 -49 -50 -49h-26q-49 0 -49 49zM721 1315v76q0 51 49 51h27q51 0 51 -51v-76q0 -49 -51 -49h-27q-49 0 -49 49z" />
<glyph unicode="&#xfb;" horiz-adv-x="1187" d="M145 375v604q0 51 50 51h38q51 0 52 -51v-567q0 -61 7 -116.5t29.5 -97.5t67.5 -67t119 -25q88 0 158.5 36t120 95.5t76 137.5t26.5 162v442q0 51 51 51h39q49 0 49 -51v-928q0 -51 -49 -51h-37q-49 0 -49 51v119v28.5t2 22.5t4 23h-4q-14 -37 -48 -84t-84 -88t-119 -69 t-155 -28q-184 0 -264 98.5t-80 301.5zM369.5 1215.5q-7.5 17.5 9.5 44.5l106 149q25 33 62 33h76q23 0 36 -8.5t27 -24.5l105 -149q18 -27 12 -44.5t-35 -17.5h-35q-35 0 -55 35l-90 131h-4l-90 -131q-10 -18 -22.5 -26.5t-35.5 -8.5h-30q-29 0 -36.5 17.5z" />
<glyph unicode="&#xfc;" horiz-adv-x="1187" d="M145 375v604q0 51 50 51h38q51 0 52 -51v-567q0 -61 7 -116.5t29.5 -97.5t67.5 -67t119 -25q88 0 158.5 36t120 95.5t76 137.5t26.5 162v442q0 51 51 51h39q49 0 49 -51v-928q0 -51 -49 -51h-37q-49 0 -49 51v119v28.5t2 22.5t4 23h-4q-14 -37 -48 -84t-84 -88t-119 -69 t-155 -28q-184 0 -264 98.5t-80 301.5zM369 1315v76q0 51 49 51h26q49 0 50 -51v-76q0 -49 -50 -49h-26q-49 0 -49 49zM678 1315v76q0 51 49 51h27q51 0 51 -51v-76q0 -49 -51 -49h-27q-49 0 -49 49z" />
<glyph unicode="&#x100;" horiz-adv-x="1247" d="M39 59l496 1340q12 41 55 41h67q43 0 56 -41l495 -1340q16 -59 -41 -59h-45q-45 0 -57 41l-154 418h-577l-152 -418q-12 -41 -57 -41h-43q-59 0 -43 59zM371 1657v14q0 49 51 49h403q49 0 49 -49v-14q0 -49 -49 -49h-403q-51 0 -51 49zM375 582h495l-190 522 q-10 25 -18.5 57.5t-16.5 61.5q-8 35 -18 69h-4q-10 -35 -19 -69q-8 -29 -18.5 -62t-18.5 -57z" />
<glyph unicode="&#x101;" horiz-adv-x="1040" d="M70 276q0 84 32.5 143.5t86 98.5t121 61.5t137 34t136 14.5t115.5 3h60v33q0 74 -19.5 125t-53.5 82.5t-80 45t-101 13.5q-86 0 -150.5 -24.5t-99.5 -47.5q-43 -23 -70 16l-12 21q-27 45 14 70t124 57.5t204 32.5q186 0 284.5 -100.5t98.5 -295.5v-608q0 -51 -49 -51h-33 q-51 0 -51 51v82v31.5t2 25.5q2 12 4 21h-4l-18 -37q-19 -37 -60 -81t-107.5 -81t-162.5 -37q-66 0 -128.5 19.5t-111.5 57.5t-78.5 94t-29.5 130zM213 289q0 -37 14.5 -72t43 -62.5t71.5 -45t100 -17.5q74 0 133.5 35t99.5 90t61.5 124t21.5 136v49h-58q-61 0 -144 -4 t-160 -27.5t-130 -71.5t-53 -134zM264 1315v14q0 49 51 49h404q49 0 49 -49v-14q0 -49 -49 -49h-404q-51 0 -51 49z" />
<glyph unicode="&#x102;" horiz-adv-x="1247" d="M39 59l496 1340q12 41 55 41h67q43 0 56 -41l495 -1340q16 -59 -41 -59h-45q-45 0 -57 41l-154 418h-577l-152 -418q-12 -41 -57 -41h-43q-59 0 -43 59zM375 582h495l-190 522q-10 25 -18.5 57.5t-16.5 61.5q-8 35 -18 69h-4q-10 -35 -19 -69q-8 -29 -18.5 -62t-18.5 -57 zM387 1745q0 39 47 39h21q41 0 47 -37q6 -63 39.5 -90t81.5 -27q47 0 81.5 26.5t40.5 90.5q4 16 14.5 26.5t33.5 10.5h20q47 0 47 -39q0 -45 -19.5 -83t-52 -66.5t-75.5 -45t-90 -16.5q-45 0 -87 15.5t-75 43t-53.5 66.5t-20.5 86z" />
<glyph unicode="&#x103;" horiz-adv-x="1040" d="M70 276q0 84 32.5 143.5t86 98.5t121 61.5t137 34t136 14.5t115.5 3h60v33q0 74 -19.5 125t-53.5 82.5t-80 45t-101 13.5q-86 0 -150.5 -24.5t-99.5 -47.5q-43 -23 -70 16l-12 21q-27 45 14 70t124 57.5t204 32.5q186 0 284.5 -100.5t98.5 -295.5v-608q0 -51 -49 -51h-33 q-51 0 -51 51v82v31.5t2 25.5q2 12 4 21h-4l-18 -37q-19 -37 -60 -81t-107.5 -81t-162.5 -37q-66 0 -128.5 19.5t-111.5 57.5t-78.5 94t-29.5 130zM213 289q0 -37 14.5 -72t43 -62.5t71.5 -45t100 -17.5q74 0 133.5 35t99.5 90t61.5 124t21.5 136v49h-58q-61 0 -144 -4 t-160 -27.5t-130 -71.5t-53 -134zM281 1403q0 39 47 39h20q41 0 47 -37q6 -63 40 -90t81 -27t82 26.5t41 90.5q4 16 14.5 26.5t32.5 10.5h21q47 0 47 -39q0 -45 -19.5 -83t-52.5 -66.5t-76 -45t-90 -16.5q-45 0 -87 15.5t-74.5 43t-53 66.5t-20.5 86z" />
<glyph unicode="&#x104;" horiz-adv-x="1247" d="M39 59l496 1340q14 41 55 41h67q41 0 56 -41l495 -1340q8 -25 8.5 -43t-16.5 -34q-18 -16 -41.5 -37t-43 -45.5t-33 -51t-13.5 -53.5q0 -47 33 -68.5t61 -29.5q35 -12 27 -51l-2 -23q-4 -23 -18.5 -32t-34.5 -5q-25 4 -59 15.5t-63.5 33t-50 54t-20.5 82.5 q0 43 16.5 80.5t41 69.5t51 55.5t47.5 39.5q-8 2 -17 11q-6 6 -13 14t-11 22l-146 396h-577l-152 -418q-12 -41 -57 -41h-43q-59 0 -43 59zM375 582h495l-190 522q-10 25 -18.5 57.5t-16.5 61.5q-8 35 -18 69h-4q-10 -35 -19 -69q-8 -29 -18.5 -62t-18.5 -57z" />
<glyph unicode="&#x105;" horiz-adv-x="1044" d="M70 276q0 84 32.5 143.5t86 98.5t121 61.5t137 34t136 14.5t115.5 3h60v33q0 74 -19.5 125t-53.5 82.5t-80 45t-101 13.5q-86 0 -150.5 -24.5t-99.5 -47.5q-43 -23 -70 16l-12 21q-27 45 14 70t124 57.5t204 32.5q186 0 284.5 -100.5t98.5 -295.5v-608q0 -31 -24.5 -56.5 t-53 -54t-53.5 -63.5t-25 -82t33 -68.5t62 -29.5q35 -12 26 -51l-2 -23q-10 -43 -53 -37q-25 4 -58.5 15.5t-63.5 33t-50.5 54t-20.5 82.5q0 41 16.5 78.5t41 69.5t52.5 56.5t50 40.5q-10 8 -10 35v82v31.5t2 25.5q2 12 4 21h-4l-18 -37q-19 -37 -60 -81t-107.5 -81 t-162.5 -37q-66 0 -128.5 19.5t-111.5 57.5t-78.5 94t-29.5 130zM213 289q0 -37 14.5 -72t43 -62.5t71.5 -45t100 -17.5q74 0 133.5 35t99.5 90t61.5 124t21.5 136v49h-58q-61 0 -144 -4t-160 -27.5t-130 -71.5t-53 -134z" />
<glyph unicode="&#x106;" horiz-adv-x="1454" d="M104 729q0 156 53.5 291t149.5 233.5t228.5 154.5t291.5 56q96 0 174 -16t138.5 -41t103.5 -51.5t68 -44.5q35 -29 8 -72l-19 -27q-29 -37 -69 -8q-23 16 -60.5 38t-88 42.5t-114 33.5t-137.5 13q-131 0 -238.5 -46t-183 -127t-116.5 -190.5t-41 -236.5q0 -129 41 -241.5 t117.5 -197.5t185.5 -134t242 -49q80 0 148.5 17t122.5 42t93 51.5t64 44.5q39 33 69 -6l19 -22q31 -37 -4 -72q-25 -23 -71 -54.5t-111.5 -61.5t-149.5 -51.5t-184 -21.5q-164 0 -299.5 58.5t-230.5 161t-147.5 239.5t-52.5 295zM774 1557.5q-10 17.5 6 39.5l90 152 q20 35 60 35h47q33 0 40 -17.5t-11 -44.5l-109 -149q-25 -33 -61 -33h-23q-29 0 -39 17.5z" />
<glyph unicode="&#x107;" horiz-adv-x="1089" d="M88 514q0 119 42 218t114.5 171t171 112t213.5 40q66 0 120 -12.5t97 -31t74.5 -39t50.5 -34.5q37 -29 6 -70l-14 -22q-25 -39 -70 -10q-35 27 -100.5 60.5t-159.5 33.5q-84 0 -158 -31t-128 -85t-85 -131t-31 -169t31 -168t85 -130t128 -85t160 -31q53 0 98 11.5t82 28 t64.5 35t46.5 34.5q39 31 67 -12l15 -21q23 -37 -13 -70q-20 -16 -53 -38.5t-79 -43t-104.5 -35t-129.5 -14.5q-115 0 -214.5 39t-172 111t-113.5 170t-41 219zM549 1215.5q-10 17.5 6 39.5l90 152q20 35 60 35h47q33 0 40 -17.5t-12 -44.5l-108 -149q-25 -33 -62 -33h-22 q-29 0 -39 17.5z" />
<glyph unicode="&#x108;" horiz-adv-x="1454" d="M104 729q0 156 53.5 291t149.5 233.5t228.5 154.5t291.5 56q96 0 174 -16t138.5 -41t103.5 -51.5t68 -44.5q35 -29 8 -72l-19 -27q-29 -37 -69 -8q-23 16 -60.5 38t-88 42.5t-114 33.5t-137.5 13q-131 0 -238.5 -46t-183 -127t-116.5 -190.5t-41 -236.5q0 -129 41 -241.5 t117.5 -197.5t185.5 -134t242 -49q80 0 148.5 17t122.5 42t93 51.5t64 44.5q39 33 69 -6l19 -22q31 -37 -4 -72q-25 -23 -71 -54.5t-111.5 -61.5t-149.5 -51.5t-184 -21.5q-164 0 -299.5 58.5t-230.5 161t-147.5 239.5t-52.5 295zM597 1557.5q-7 17.5 9 44.5l107 149 q25 33 61 33h76q23 0 36 -8.5t27 -24.5l105 -149q18 -27 12 -44.5t-35 -17.5h-34q-35 0 -56 35l-90 131h-4l-90 -131q-10 -18 -22.5 -26.5t-34.5 -8.5h-31q-29 0 -36 17.5z" />
<glyph unicode="&#x109;" horiz-adv-x="1089" d="M88 514q0 119 42 218t114.5 171t171 112t213.5 40q66 0 120 -12.5t97 -31t74.5 -39t50.5 -34.5q37 -29 6 -70l-14 -22q-25 -39 -70 -10q-35 27 -100.5 60.5t-159.5 33.5q-84 0 -158 -31t-128 -85t-85 -131t-31 -169t31 -168t85 -130t128 -85t160 -31q53 0 98 11.5t82 28 t64.5 35t46.5 34.5q39 31 67 -12l15 -21q23 -37 -13 -70q-20 -16 -53 -38.5t-79 -43t-104.5 -35t-129.5 -14.5q-115 0 -214.5 39t-172 111t-113.5 170t-41 219zM374 1215.5q-7 17.5 9 44.5l106 149q25 33 62 33h76q23 0 36 -8.5t27 -24.5l105 -149q18 -27 12 -44.5 t-35 -17.5h-35q-35 0 -55 35l-90 131h-4l-90 -131q-10 -18 -22.5 -26.5t-35.5 -8.5h-30q-29 0 -36 17.5z" />
<glyph unicode="&#x10a;" horiz-adv-x="1454" d="M104 729q0 156 53.5 291t149.5 233.5t228.5 154.5t291.5 56q96 0 174 -16t138.5 -41t103.5 -51.5t68 -44.5q35 -29 8 -72l-19 -27q-29 -37 -69 -8q-23 16 -60.5 38t-88 42.5t-114 33.5t-137.5 13q-131 0 -238.5 -46t-183 -127t-116.5 -190.5t-41 -236.5q0 -129 41 -241.5 t117.5 -197.5t185.5 -134t242 -49q80 0 148.5 17t122.5 42t93 51.5t64 44.5q39 33 69 -6l19 -22q31 -37 -4 -72q-25 -23 -71 -54.5t-111.5 -61.5t-149.5 -51.5t-184 -21.5q-164 0 -299.5 58.5t-230.5 161t-147.5 239.5t-52.5 295zM748 1661v72q0 51 49 51h34q49 0 50 -51 v-72q0 -51 -50 -51h-34q-49 0 -49 51z" />
<glyph unicode="&#x10b;" horiz-adv-x="1089" d="M88 514q0 119 42 218t114.5 171t171 112t213.5 40q66 0 120 -12.5t97 -31t74.5 -39t50.5 -34.5q37 -29 6 -70l-14 -22q-25 -39 -70 -10q-35 27 -100.5 60.5t-159.5 33.5q-84 0 -158 -31t-128 -85t-85 -131t-31 -169t31 -168t85 -130t128 -85t160 -31q53 0 98 11.5t82 28 t64.5 35t46.5 34.5q39 31 67 -12l15 -21q23 -37 -13 -70q-20 -16 -53 -38.5t-79 -43t-104.5 -35t-129.5 -14.5q-115 0 -214.5 39t-172 111t-113.5 170t-41 219zM522 1319v72q0 51 49 51h35q49 0 49 -51v-72q0 -51 -49 -51h-35q-49 0 -49 51z" />
<glyph unicode="&#x10c;" horiz-adv-x="1454" d="M104 729q0 156 53.5 291t149.5 233.5t228.5 154.5t291.5 56q96 0 174 -16t138.5 -41t103.5 -51.5t68 -44.5q35 -29 8 -72l-19 -27q-29 -37 -69 -8q-23 16 -60.5 38t-88 42.5t-114 33.5t-137.5 13q-131 0 -238.5 -46t-183 -127t-116.5 -190.5t-41 -236.5q0 -129 41 -241.5 t117.5 -197.5t185.5 -134t242 -49q80 0 148.5 17t122.5 42t93 51.5t64 44.5q39 33 69 -6l19 -22q31 -37 -4 -72q-25 -23 -71 -54.5t-111.5 -61.5t-149.5 -51.5t-184 -21.5q-164 0 -299.5 58.5t-230.5 161t-147.5 239.5t-52.5 295zM597 1766.5q7 17.5 36 17.5h31 q23 0 35 -8.5t22 -24.5l90 -131h4l90 131q20 33 56 33h32q29 0 36 -17.5t-11 -44.5l-105 -149q-14 -16 -27.5 -24.5t-35.5 -8.5h-76q-37 0 -61 33l-107 149q-16 27 -9 44.5z" />
<glyph unicode="&#x10d;" horiz-adv-x="1089" d="M88 514q0 119 42 218t114.5 171t171 112t213.5 40q66 0 120 -12.5t97 -31t74.5 -39t50.5 -34.5q37 -29 6 -70l-14 -22q-25 -39 -70 -10q-35 27 -100.5 60.5t-159.5 33.5q-84 0 -158 -31t-128 -85t-85 -131t-31 -169t31 -168t85 -130t128 -85t160 -31q53 0 98 11.5t82 28 t64.5 35t46.5 34.5q39 31 67 -12l15 -21q23 -37 -13 -70q-20 -16 -53 -38.5t-79 -43t-104.5 -35t-129.5 -14.5q-115 0 -214.5 39t-172 111t-113.5 170t-41 219zM374 1424.5q7 17.5 36 17.5h30q23 0 35 -8.5t23 -24.5l90 -131h4l90 131q20 33 55 33h33q29 0 36 -17.5 t-11 -44.5l-105 -149q-14 -16 -27.5 -24.5t-35.5 -8.5h-76q-37 0 -62 33l-106 149q-16 27 -9 44.5z" />
<glyph unicode="&#x10e;" horiz-adv-x="1497" d="M201 51v1338q0 51 49 51h416q162 0 295 -48.5t228 -140.5t147.5 -226t52.5 -304q0 -172 -52.5 -306t-147.5 -226.5t-228.5 -140.5t-294.5 -48h-416q-49 0 -49 51zM342 127h309q133 0 241.5 38t186.5 113.5t120 186t42 256.5q0 143 -43 253.5t-120 185.5t-186.5 114 t-240.5 39h-309v-1186zM474 1766.5q7 17.5 36 17.5h31q23 0 35 -8.5t22 -24.5l90 -131h4l90 131q20 33 56 33h32q29 0 36 -17.5t-11 -44.5l-104 -149q-14 -16 -27.5 -24.5t-36.5 -8.5h-76q-37 0 -61 33l-107 149q-16 27 -9 44.5z" />
<glyph unicode="&#x10f;" horiz-adv-x="1189" d="M92 516q0 123 34 222.5t95.5 170t146.5 108.5t187 38q94 0 157.5 -33t104.5 -72q47 -45 76 -102h4q-2 10 -4 22q-2 10 -2 24.5v31.5v463q0 51 51 51h39q49 0 49 -51v-1338q0 -51 -49 -51h-35q-51 0 -51 49v78q0 14 1 24.5t3 20.5q2 8 4 18h-4q-29 -61 -78 -108 q-41 -41 -109.5 -74t-170.5 -33q-104 0 -187.5 40t-141.5 111t-89 170t-31 220zM236 516q0 -96 23.5 -173t66.5 -130t103 -83t132 -30q63 0 123.5 23.5t108 75t75 129.5t27.5 188q0 78 -20.5 152.5t-60.5 132t-102.5 92.5t-144.5 35q-68 0 -128 -28t-105 -81t-71.5 -129 t-26.5 -174zM1149 1178q0 18 10 41.5t10 87.5q0 23 -1 36t-3 21t-3 16.5t-1 22.5q0 35 45 35h31q41 0 50 -36t9 -69q0 -27 -6 -59.5t-17 -61t-27.5 -48t-39.5 -19.5h-12q-45 0 -45 33z" />
<glyph unicode="&#x110;" horiz-adv-x="1497" d="M80 713v22q0 49 39 49h82v605q0 51 51 51h414q162 0 295 -48.5t228 -140.5t147.5 -226t52.5 -304q0 -172 -52.5 -306t-147.5 -226.5t-228.5 -140.5t-294.5 -48h-414q-51 0 -51 51v611h-72q-49 0 -49 51zM342 127h309q133 0 241.5 38t186.5 113.5t120 186t42 256.5 q0 143 -42 253.5t-120 185.5t-186.5 114t-241.5 39h-309v-529h293q51 0 51 -49v-22q0 -51 -49 -51h-295v-535z" />
<glyph unicode="&#x111;" horiz-adv-x="1189" d="M92 516q0 123 34 222.5t95.5 170t146.5 108.5t187 38q94 0 157.5 -32t104.5 -69q47 -43 74 -98h4q-2 10 -2 23q-2 10 -2 24.5v30.5v225h-219q-51 0 -51 47v13q0 45 51 45h219v125q0 51 51 51h39q49 0 49 -51v-125h113q51 0 51 -45v-13q0 -47 -41 -47h-123v-1108 q0 -51 -49 -51h-35q-51 0 -51 49v70v24.5t2 20.5q0 8 2 18h-4q-27 -59 -76 -104q-41 -39 -108.5 -71t-169.5 -32q-104 0 -187.5 40t-141.5 111t-89 170t-31 220zM236 516q0 -96 23.5 -173t66.5 -130t103 -83t132 -30q63 0 123.5 23.5t108 75t75 129.5t27.5 188 q0 78 -20.5 152.5t-60.5 133t-102.5 93.5t-144.5 35q-68 0 -128 -28t-105 -81t-71.5 -130t-26.5 -175z" />
<glyph unicode="&#x112;" horiz-adv-x="1132" d="M201 51v1338q0 51 49 51h711q51 0 51 -51v-25q0 -51 -51 -51h-619v-525h496q51 0 51 -49v-26q0 -51 -51 -51h-496v-535h655q51 0 52 -51v-25q0 -51 -52 -51h-747q-49 0 -49 51zM377 1657v14q0 49 51 49h403q49 0 50 -49v-14q0 -49 -50 -49h-403q-51 0 -51 49z" />
<glyph unicode="&#x113;" horiz-adv-x="1114" d="M90 514q0 127 40 227.5t109.5 170t162 106.5t196.5 37q102 0 182 -36t135.5 -100.5t84 -154.5t28.5 -201q0 -23 -15.5 -37t-37.5 -14h-742q2 -98 35 -175t87.5 -129t126 -80t151.5 -28q98 0 166.5 33t103.5 62q43 27 68 -13l16 -24q23 -39 -14 -68q-20 -16 -53 -35.5 t-77 -37t-98.5 -30t-115.5 -12.5q-115 0 -214.5 40t-171 111t-112.5 170t-41 218zM240 616h647q-4 82 -27.5 142.5t-63.5 100.5t-92.5 60.5t-109.5 20.5q-66 0 -124 -21.5t-105.5 -62.5t-80 -101.5t-44.5 -138.5zM346 1315v14q0 49 51 49h404q49 0 49 -49v-14q0 -49 -49 -49 h-404q-51 0 -51 49z" />
<glyph unicode="&#x114;" horiz-adv-x="1132" d="M201 51v1338q0 51 49 51h711q51 0 51 -51v-25q0 -51 -51 -51h-619v-525h496q51 0 51 -49v-26q0 -51 -51 -51h-496v-535h655q51 0 52 -51v-25q0 -51 -52 -51h-747q-49 0 -49 51zM391 1745q0 39 47 39h21q41 0 47 -37q6 -63 40 -90t81 -27t81.5 26.5t41.5 90.5 q4 16 14 26.5t33 10.5h20q47 0 47 -39q0 -45 -19.5 -83t-52 -66.5t-75.5 -45t-90 -16.5q-45 0 -87 15.5t-75 43t-53.5 66.5t-20.5 86z" />
<glyph unicode="&#x115;" horiz-adv-x="1114" d="M90 514q0 127 40 227.5t109.5 170t162 106.5t196.5 37q102 0 182 -36t135.5 -100.5t84 -154.5t28.5 -201q0 -23 -15.5 -37t-37.5 -14h-742q2 -98 35 -175t87.5 -129t126 -80t151.5 -28q98 0 166.5 33t103.5 62q43 27 68 -13l16 -24q23 -39 -14 -68q-20 -16 -53 -35.5 t-77 -37t-98.5 -30t-115.5 -12.5q-115 0 -214.5 40t-171 111t-112.5 170t-41 218zM240 616h647q-4 82 -27.5 142.5t-63.5 100.5t-92.5 60.5t-109.5 20.5q-66 0 -124 -21.5t-105.5 -62.5t-80 -101.5t-44.5 -138.5zM360 1403q0 39 48 39h20q41 0 47 -37q6 -63 40 -90t81 -27 t82 26.5t41 90.5q4 16 14 26.5t33 10.5h20q47 0 48 -39q0 -45 -19.5 -83t-52.5 -66.5t-76 -45t-90 -16.5q-45 0 -87 15.5t-75 43t-53.5 66.5t-20.5 86z" />
<glyph unicode="&#x116;" horiz-adv-x="1132" d="M201 51v1338q0 51 49 51h711q51 0 51 -51v-25q0 -51 -51 -51h-619v-525h496q51 0 51 -49v-26q0 -51 -51 -51h-496v-535h655q51 0 52 -51v-25q0 -51 -52 -51h-747q-49 0 -49 51zM561 1661v72q0 51 49 51h35q49 0 49 -51v-72q0 -51 -49 -51h-35q-49 0 -49 51z" />
<glyph unicode="&#x117;" horiz-adv-x="1114" d="M90 514q0 127 40 227.5t109.5 170t162 106.5t196.5 37q102 0 182 -36t135.5 -100.5t84 -154.5t28.5 -201q0 -23 -15.5 -37t-37.5 -14h-742q2 -98 35 -175t87.5 -129t126 -80t151.5 -28q98 0 166.5 33t103.5 62q43 27 68 -13l16 -24q23 -39 -14 -68q-20 -16 -53 -35.5 t-77 -37t-98.5 -30t-115.5 -12.5q-115 0 -214.5 40t-171 111t-112.5 170t-41 218zM240 616h647q-4 82 -27.5 142.5t-63.5 100.5t-92.5 60.5t-109.5 20.5q-66 0 -124 -21.5t-105.5 -62.5t-80 -101.5t-44.5 -138.5zM530 1319v72q0 51 50 51h34q49 0 50 -51v-72q0 -51 -50 -51 h-34q-49 0 -50 51z" />
<glyph unicode="&#x118;" horiz-adv-x="1132" d="M201 51v1338q0 51 49 51h711q51 0 51 -51v-25q0 -51 -51 -51h-619v-525h496q51 0 51 -49v-26q0 -51 -51 -51h-496v-535h655q51 0 52 -51v-29q0 -25 -26 -50.5t-56.5 -55t-56 -65.5t-25.5 -81q0 -47 32.5 -68.5t61.5 -29.5q35 -12 29 -51l-4 -23q-4 -23 -18.5 -32 t-35.5 -5q-25 4 -58.5 15.5t-63 33t-50 54t-20.5 82.5q0 37 12 70.5t32.5 63t43 53.5t45.5 42h-641q-49 0 -49 51z" />
<glyph unicode="&#x119;" horiz-adv-x="1114" d="M90 514q0 127 40 227.5t109.5 170t162 106.5t196.5 37t185 -38t135.5 -104.5t82 -156.5t27.5 -195q0 -23 -14.5 -36t-36.5 -13h-744q2 -98 35 -175t87.5 -129t126 -80t151.5 -28q98 0 166.5 33t103.5 62q45 29 70 -15l12 -20q23 -39 -10 -70q-35 -29 -80 -60.5t-86 -68.5 t-69.5 -79t-28.5 -87q0 -47 32.5 -68.5t61.5 -29.5q37 -12 29 -51l-5 -23q-10 -43 -53 -37q-25 4 -58.5 15.5t-63 33t-50 54t-20.5 80.5q0 68 35.5 121t78.5 94q-16 -4 -33.5 -6.5t-35.5 -2.5q-115 0 -214.5 40t-171 111t-112.5 170t-41 218zM240 616h647q-4 82 -27.5 142.5 t-63.5 100.5t-92.5 59.5t-109.5 19.5q-66 0 -124 -20.5t-105.5 -61.5t-80 -101.5t-44.5 -138.5z" />
<glyph unicode="&#x11a;" horiz-adv-x="1132" d="M201 51v1338q0 51 49 51h711q51 0 51 -51v-25q0 -51 -51 -51h-619v-525h496q51 0 51 -49v-26q0 -51 -51 -51h-496v-535h655q51 0 52 -51v-25q0 -51 -52 -51h-747q-49 0 -49 51zM413 1766.5q7 17.5 36 17.5h30q23 0 35 -8.5t23 -24.5l90 -131h4l90 131q20 33 55 33h33 q29 0 36 -17.5t-11 -44.5l-105 -149q-14 -16 -27.5 -24.5t-35.5 -8.5h-76q-37 0 -62 33l-106 149q-16 27 -9 44.5z" />
<glyph unicode="&#x11b;" horiz-adv-x="1114" d="M90 514q0 127 40 227.5t109.5 170t162 106.5t196.5 37q102 0 182 -36t135.5 -100.5t84 -154.5t28.5 -201q0 -23 -15.5 -37t-37.5 -14h-742q2 -98 35 -175t87.5 -129t126 -80t151.5 -28q98 0 166.5 33t103.5 62q43 27 68 -13l16 -24q23 -39 -14 -68q-20 -16 -53 -35.5 t-77 -37t-98.5 -30t-115.5 -12.5q-115 0 -214.5 40t-171 111t-112.5 170t-41 218zM240 616h647q-4 82 -27.5 142.5t-63.5 100.5t-92.5 60.5t-109.5 20.5q-66 0 -124 -21.5t-105.5 -62.5t-80 -101.5t-44.5 -138.5zM382 1424.5q7 17.5 36 17.5h31q23 0 35 -8.5t22 -24.5 l90 -131h4l90 131q20 33 55 33h33q29 0 36 -17.5t-11 -44.5l-105 -149q-14 -16 -27.5 -24.5t-35.5 -8.5h-76q-37 0 -61 33l-107 149q-16 27 -9 44.5z" />
<glyph unicode="&#x11c;" horiz-adv-x="1531" d="M104 719q0 158 55.5 294t153 236.5t230.5 157.5t288 57q92 0 169 -15t136.5 -36.5t102.5 -45.5t66 -40q41 -31 8 -70l-19 -26q-29 -41 -69 -12q-23 14 -60 33.5t-86 37t-110.5 29.5t-132.5 12q-131 0 -239 -47t-184.5 -129t-118.5 -193.5t-42 -238.5q0 -133 43 -244.5 t120 -194.5t181 -129t227 -46q109 0 193 31.5t143 72.5q68 47 119 106v242h-197q-49 0 -49 51v25q0 51 49 51h281q49 0 49 -51v-586q0 -51 -49 -51h-29q-51 0 -51 45v74v37q0 8 2 16h-4q-51 -55 -121 -98q-59 -37 -146 -68t-202 -31q-147 0 -276 56.5t-224.5 156t-151 235.5 t-55.5 296zM591 1557.5q-7 17.5 9 44.5l107 149q25 33 61 33h76q23 0 36 -8.5t27 -24.5l105 -149q18 -27 12 -44.5t-35 -17.5h-35q-35 0 -55 35l-90 131h-4l-90 -131q-10 -18 -22.5 -26.5t-35.5 -8.5h-30q-29 0 -36 17.5z" />
<glyph unicode="&#x11d;" horiz-adv-x="1175" d="M94 541q0 113 31 208t89 162.5t142 105.5t193 38q100 0 164.5 -30t103.5 -64q45 -41 68 -95h4q-2 4 -2 11q-2 6 -2 24v84q0 45 49 45h33q51 0 51 -51v-954q0 -123 -42 -209t-110.5 -141.5t-156.5 -80t-181 -24.5q-80 0 -155.5 16.5t-141.5 44.5q-45 20 -24 66l12 29 q20 39 66 22q35 -16 94 -34.5t145 -18.5q72 0 136.5 18.5t112.5 57.5t77 100t29 147v107v27.5t2 23.5q2 12 4 23h-4q-47 -88 -126 -140.5t-202 -52.5q-104 0 -188 39t-144.5 109.5t-93.5 169t-33 217.5zM238 545q0 -195 90.5 -304.5t244.5 -109.5q61 0 116.5 20.5t98.5 67.5 t68 123t25 188q0 115 -26 192t-70 123t-102 65.5t-122 19.5q-158 0 -240.5 -102.5t-82.5 -282.5zM357 1215.5q-7 17.5 10 44.5l106 149q25 33 62 33h75q23 0 36 -8.5t28 -24.5l104 -149q18 -27 12 -44.5t-34 -17.5h-35q-35 0 -55 35l-91 131h-4l-90 -131 q-10 -18 -22.5 -26.5t-34.5 -8.5h-31q-29 0 -36 17.5z" />
<glyph unicode="&#x11e;" horiz-adv-x="1531" d="M104 719q0 158 55.5 294t153 236.5t230.5 157.5t288 57q92 0 169 -15t136.5 -36.5t102.5 -45.5t66 -40q41 -31 8 -70l-19 -26q-29 -41 -69 -12q-23 14 -60 33.5t-86 37t-110.5 29.5t-132.5 12q-131 0 -239 -47t-184.5 -129t-118.5 -193.5t-42 -238.5q0 -133 43 -244.5 t120 -194.5t181 -129t227 -46q109 0 193 31.5t143 72.5q68 47 119 106v242h-197q-49 0 -49 51v25q0 51 49 51h281q49 0 49 -51v-586q0 -51 -49 -51h-29q-51 0 -51 45v74v37q0 8 2 16h-4q-51 -55 -121 -98q-59 -37 -146 -68t-202 -31q-147 0 -276 56.5t-224.5 156t-151 235.5 t-55.5 296zM571 1745q0 39 47 39h21q41 0 47 -37q6 -63 40 -90t81 -27t82 26.5t41 90.5q4 16 14 26.5t33 10.5h20q47 0 47 -39q0 -45 -19 -83t-52 -66.5t-76 -45t-90 -16.5q-45 0 -87 15.5t-75 43t-53.5 66.5t-20.5 86z" />
<glyph unicode="&#x11f;" horiz-adv-x="1175" d="M94 541q0 113 31 208t89 162.5t142 105.5t193 38q100 0 164.5 -30t103.5 -64q45 -41 68 -95h4q-2 4 -2 11q-2 6 -2 24v84q0 45 49 45h33q51 0 51 -51v-954q0 -123 -42 -209t-110.5 -141.5t-156.5 -80t-181 -24.5q-80 0 -155.5 16.5t-141.5 44.5q-45 20 -24 66l12 29 q20 39 66 22q35 -16 94 -34.5t145 -18.5q72 0 136.5 18.5t112.5 57.5t77 100t29 147v107v27.5t2 23.5q2 12 4 23h-4q-47 -88 -126 -140.5t-202 -52.5q-104 0 -188 39t-144.5 109.5t-93.5 169t-33 217.5zM238 545q0 -195 90.5 -304.5t244.5 -109.5q61 0 116.5 20.5t98.5 67.5 t68 123t25 188q0 115 -26 192t-70 123t-102 65.5t-122 19.5q-158 0 -240.5 -102.5t-82.5 -282.5zM336 1403q0 39 47 39h20q41 0 48 -37q6 -63 39.5 -90t80.5 -27t82 26.5t41 90.5q4 16 14.5 26.5t32.5 10.5h21q47 0 47 -39q0 -45 -19.5 -83t-52 -66.5t-76 -45t-90.5 -16.5 q-45 0 -87 15.5t-74.5 43t-53 66.5t-20.5 86z" />
<glyph unicode="&#x120;" horiz-adv-x="1531" d="M104 719q0 158 55.5 294t153 236.5t230.5 157.5t288 57q92 0 169 -15t136.5 -36.5t102.5 -45.5t66 -40q41 -31 8 -70l-19 -26q-29 -41 -69 -12q-23 14 -60 33.5t-86 37t-110.5 29.5t-132.5 12q-131 0 -239 -47t-184.5 -129t-118.5 -193.5t-42 -238.5q0 -133 43 -244.5 t120 -194.5t181 -129t227 -46q109 0 193 31.5t143 72.5q68 47 119 106v242h-197q-49 0 -49 51v25q0 51 49 51h281q49 0 49 -51v-586q0 -51 -49 -51h-29q-51 0 -51 45v74v37q0 8 2 16h-4q-51 -55 -121 -98q-59 -37 -146 -68t-202 -31q-147 0 -276 56.5t-224.5 156t-151 235.5 t-55.5 296zM741 1661v72q0 51 50 51h34q49 0 49 -51v-72q0 -51 -49 -51h-34q-49 0 -50 51z" />
<glyph unicode="&#x121;" horiz-adv-x="1175" d="M94 541q0 113 31 208t89 162.5t142 105.5t193 38q100 0 164.5 -30t103.5 -64q45 -41 68 -95h4q-2 4 -2 11q-2 6 -2 24v84q0 45 49 45h33q51 0 51 -51v-954q0 -123 -42 -209t-110.5 -141.5t-156.5 -80t-181 -24.5q-80 0 -155.5 16.5t-141.5 44.5q-45 20 -24 66l12 29 q20 39 66 22q35 -16 94 -34.5t145 -18.5q72 0 136.5 18.5t112.5 57.5t77 100t29 147v107v27.5t2 23.5q2 12 4 23h-4q-47 -88 -126 -140.5t-202 -52.5q-104 0 -188 39t-144.5 109.5t-93.5 169t-33 217.5zM238 545q0 -195 90.5 -304.5t244.5 -109.5q61 0 116.5 20.5t98.5 67.5 t68 123t25 188q0 115 -26 192t-70 123t-102 65.5t-122 19.5q-158 0 -240.5 -102.5t-82.5 -282.5zM506 1319v72q0 51 49 51h35q49 0 49 -51v-72q0 -51 -49 -51h-35q-49 0 -49 51z" />
<glyph unicode="&#x122;" horiz-adv-x="1531" d="M104 719q0 158 55.5 294t153 236.5t230.5 157.5t288 57q92 0 169 -15t136.5 -36.5t102.5 -45.5t66 -40q41 -31 8 -70l-19 -26q-29 -41 -69 -12q-23 14 -60 33.5t-86 37t-110.5 29.5t-132.5 12q-131 0 -239 -47t-184.5 -129t-118.5 -193.5t-42 -238.5q0 -133 43 -244.5 t120 -194.5t181 -129t227 -46q109 0 193 31.5t143 72.5q68 47 119 106v242h-197q-49 0 -49 51v25q0 51 49 51h281q49 0 49 -51v-586q0 -51 -49 -51h-29q-51 0 -51 45v74v37q0 8 2 16h-4q-51 -55 -121 -98q-59 -37 -146 -68t-202 -31q-147 0 -276 56.5t-224.5 156t-151 235.5 t-55.5 296zM731 -389q0 18 10.5 41.5t10.5 87.5q0 23 -1 36t-3.5 21t-3.5 16.5t-1 22.5q0 35 45 35h31q41 0 50.5 -36t9.5 -68q0 -27 -6.5 -60t-17.5 -61.5t-27.5 -48t-39.5 -19.5h-12q-45 0 -45 33z" />
<glyph unicode="&#x123;" horiz-adv-x="1175" d="M94 541q0 113 31 208t89 162.5t142 105.5t193 38q100 0 164.5 -30t103.5 -64q45 -41 68 -95h4q-2 4 -2 11q-2 6 -2 24v84q0 45 49 45h33q51 0 51 -51v-954q0 -123 -42 -209t-110.5 -141.5t-156.5 -80t-181 -24.5q-80 0 -155.5 16.5t-141.5 44.5q-45 20 -24 66l12 29 q20 39 66 22q35 -16 94 -34.5t145 -18.5q72 0 136.5 18.5t112.5 57.5t77 100t29 147v107v27.5t2 23.5q2 12 4 23h-4q-47 -88 -126 -140.5t-202 -52.5q-104 0 -188 39t-144.5 109.5t-93.5 169t-33 217.5zM238 545q0 -195 90.5 -304.5t244.5 -109.5q61 0 116.5 20.5t98.5 67.5 t68 123t25 188q0 115 -26 192t-70 123t-102 65.5t-122 19.5q-158 0 -240.5 -102.5t-82.5 -282.5zM506 1264q0 27 6 59.5t17.5 61t27.5 48t39 19.5h12q45 0 45 -33q0 -18 -10 -41.5t-10 -87.5q0 -23 1 -36t3 -21t3 -16.5t1 -22.5q0 -35 -45 -35h-31q-41 0 -50 36t-9 69z" />
<glyph unicode="&#x124;" horiz-adv-x="1519" d="M201 51v1338q0 51 49 51h43q49 0 49 -51v-605h836v605q0 51 49 51h41q51 0 51 -51v-1338q0 -51 -51 -51h-41q-49 0 -49 51v606h-836v-606q0 -51 -49 -51h-43q-49 0 -49 51zM542 1557.5q-7 17.5 9 44.5l106 149q25 33 62 33h76q23 0 36 -8.5t27 -24.5l105 -149 q18 -27 12 -44.5t-35 -17.5h-35q-35 0 -55 35l-90 131h-4l-90 -131q-10 -18 -22.5 -26.5t-35.5 -8.5h-30q-29 0 -36 17.5z" />
<glyph unicode="&#x125;" horiz-adv-x="1198" d="M15 1557.5q-7 17.5 10 44.5l106 149q25 33 62 33h75q23 0 36 -8.5t28 -24.5l104 -149q18 -27 12 -44.5t-34 -17.5h-35q-35 0 -55 35l-91 131h-4l-90 -131q-10 -18 -22.5 -26.5t-34.5 -8.5h-31q-29 0 -36 17.5zM160 51v1338q0 51 49 51h39q51 0 51 -51v-515 q0 -18 -1 -33.5t-3 -25.5l-4 -24h4q14 37 48 82t85 85.5t120.5 68.5t158.5 28q96 0 161.5 -27t106.5 -78t59.5 -125.5t18.5 -169.5v-604q0 -51 -49 -51h-39q-51 0 -52 51v567q0 61 -7 117t-30.5 97.5t-67.5 66.5t-120 25q-82 0 -152.5 -32t-123 -88t-83 -135t-30.5 -171 v-447q0 -51 -51 -51h-39q-49 0 -49 51z" />
<glyph unicode="&#x126;" horiz-adv-x="1517" d="M68 1098v12q0 47 51 47h84v232q0 51 49 51h43q51 0 51 -47v-236h828v232q0 51 49 51h43q51 0 51 -47v-236h82q51 0 51 -47v-12q0 -49 -51 -49h-82v-998q0 -51 -51 -51h-43q-49 0 -49 51v606h-828v-606q0 -51 -51 -51h-43q-49 0 -49 51v998h-84q-51 0 -51 49zM346 784h828 v265h-828v-265z" />
<glyph unicode="&#x127;" horiz-adv-x="1198" d="M2 1206v13q0 45 51 45h107v125q0 51 49 51h39q51 0 51 -41v-135h221q51 0 51 -45v-13q0 -47 -51 -47h-221v-276q0 -18 -1 -33.5t-1 -26.5q-2 -12 -2 -24h4q14 37 47 81t84 82.5t119.5 65.5t157.5 27q96 0 161.5 -27t106.5 -78t59.5 -125.5t18.5 -169.5v-604 q0 -51 -49 -51h-39q-51 0 -52 51v567q0 61 -7 117t-30.5 97.5t-67.5 66.5t-120 25q-86 0 -156.5 -34t-123 -91.5t-81 -133t-28.5 -161.5v-453q0 -51 -51 -51h-39q-49 0 -49 51v1108h-107q-51 0 -51 47z" />
<glyph unicode="&#x128;" d="M-41 1599q0 82 50 134.5t130 52.5q53 0 88 -23.5t62.5 -51.5t53.5 -50.5t60 -22.5q41 0 59.5 32t20.5 71q0 39 47 39h17q43 0 43 -47q0 -90 -48 -141.5t-132 -51.5q-53 0 -88 22.5t-63 50t-53.5 50.5t-60.5 23q-41 0 -60 -32t-19 -73q-4 -35 -48 -35h-14q-45 0 -45 53z M201 51v1338q0 51 49 51h43q49 0 49 -51v-1338q0 -51 -49 -51h-43q-49 0 -49 51z" />
<glyph unicode="&#x129;" horiz-adv-x="456" d="M-84 1257q0 82 50 134.5t130 52.5q53 0 88 -23.5t62.5 -51.5t53.5 -50.5t60 -22.5q41 0 59.5 32t20.5 71q0 39 47 39h17q43 0 43 -47q0 -90 -48 -141.5t-132 -51.5q-53 0 -88 22.5t-63 50t-53.5 50t-60.5 22.5q-41 0 -60 -31.5t-19 -72.5q-4 -35 -48 -35h-14 q-45 0 -45 53zM158 51v928q0 51 51 51h39q49 0 49 -51v-928q0 -51 -49 -51h-39q-51 0 -51 51z" />
<glyph unicode="&#x12a;" d="M23 1657v14q0 49 51 49h403q49 0 49 -49v-14q0 -49 -49 -49h-403q-51 0 -51 49zM201 51v1338q0 51 49 51h43q49 0 49 -51v-1338q0 -51 -49 -51h-43q-49 0 -49 51z" />
<glyph unicode="&#x12b;" horiz-adv-x="456" d="M-20 1315v14q0 49 51 49h403q49 0 49 -49v-14q0 -49 -49 -49h-403q-51 0 -51 49zM158 51v928q0 51 51 51h39q49 0 49 -51v-928q0 -51 -49 -51h-39q-51 0 -51 51z" />
<glyph unicode="&#x12c;" d="M37 1745q0 39 47 39h20q41 0 48 -37q6 -63 39.5 -90t80.5 -27t82 26.5t41 90.5q4 16 14.5 26.5t32.5 10.5h21q47 0 47 -39q0 -45 -19.5 -83t-52 -66.5t-76 -45t-90.5 -16.5q-45 0 -87 15.5t-74.5 43t-53 66.5t-20.5 86zM201 51v1338q0 51 49 51h43q49 0 49 -51v-1338 q0 -51 -49 -51h-43q-49 0 -49 51z" />
<glyph unicode="&#x12d;" horiz-adv-x="456" d="M-6 1403q0 39 47 39h20q41 0 48 -37q6 -63 39.5 -90t80.5 -27t82 26.5t41 90.5q4 16 14.5 26.5t32.5 10.5h21q47 0 47 -39q0 -45 -19.5 -83t-52.5 -66.5t-76 -45t-90 -16.5q-45 0 -87 15.5t-74.5 43t-53 66.5t-20.5 86zM158 51v928q0 51 51 51h39q49 0 49 -51v-928 q0 -51 -49 -51h-39q-51 0 -51 51z" />
<glyph unicode="&#x12e;" d="M59 -229q0 41 16.5 77.5t41 68.5t52.5 56.5t50 38.5q-18 10 -18 39v1338q0 51 49 51h43q49 0 49 -51v-1338q0 -29 -24.5 -55.5t-54.5 -56t-54.5 -64.5t-24.5 -80q0 -23 9.5 -39t23.5 -28.5t30.5 -19.5t31.5 -11q37 -12 28 -51l-4 -23q-10 -43 -51 -37q-25 4 -58.5 15.5 t-63.5 33t-50.5 54t-20.5 82.5z" />
<glyph unicode="&#x12f;" horiz-adv-x="458" d="M16 -229q0 41 16.5 77.5t41 68.5t52.5 56.5t50 38.5q-16 10 -16 39v928q0 51 51 51h39q49 0 49 -51v-928q0 -29 -24.5 -55.5t-53 -56t-53.5 -64.5t-25 -80q0 -47 32 -67.5t61 -30.5q37 -12 28 -51l-2 -23q-10 -43 -53 -37q-25 4 -58.5 15.5t-63.5 33t-50.5 54t-20.5 82.5 zM154 1315v74q0 51 51 51h51q49 0 49 -51v-74q0 -49 -49 -49h-51q-51 0 -51 49z" />
<glyph unicode="&#x130;" d="M201 51v1338q0 51 49 51h43q49 0 49 -51v-1338q0 -51 -49 -51h-43q-49 0 -49 51zM207 1661v72q0 51 49 51h35q49 0 49 -51v-72q0 -51 -49 -51h-35q-49 0 -49 51z" />
<glyph unicode="&#x131;" horiz-adv-x="456" d="M158 51v928q0 51 51 51h39q49 0 49 -51v-928q0 -51 -49 -51h-39q-51 0 -51 51z" />
<glyph unicode="&#x132;" horiz-adv-x="1175" d="M201 51v1338q0 51 49 51h43q49 0 49 -51v-1338q0 -51 -49 -51h-43q-49 0 -49 51zM549 43v33q0 25 12 37t35 16q45 4 90 20.5t81 54.5t58.5 101.5t22.5 161.5v922q0 51 51 51h43q49 0 49 -51v-926q0 -137 -36.5 -227.5t-93 -144.5t-126 -75.5t-135.5 -21.5q-51 0 -51 49z " />
<glyph unicode="&#x133;" horiz-adv-x="931" d="M154 1315v74q0 51 49 51h51q49 0 49 -51v-74q0 -49 -49 -49h-51q-49 0 -49 49zM158 51v928q0 51 51 51h39q49 0 49 -51v-928q0 -51 -49 -51h-39q-51 0 -51 51zM352 -348q0 27 14.5 37t36.5 12q33 2 73 11t75 37t58.5 80t23.5 138v1012q0 51 49 51h39q51 0 51 -51v-1016 q0 -127 -41 -202.5t-96 -115.5t-114.5 -53.5t-96.5 -13.5h-21q-51 0 -51 51v23zM627 1315v74q0 51 49 51h51q49 0 49 -51v-74q0 -49 -49 -49h-51q-49 0 -49 49z" />
<glyph unicode="&#x134;" horiz-adv-x="1046" d="M53 412q0 49 49 49h45q25 0 34 -11.5t14 -43.5q2 -63 18 -118t48 -94.5t80 -62t116 -22.5q49 0 96 15t84 49t59.5 90t22.5 140v910h-301q-49 0 -49 51v25q0 51 49 51h393q51 0 51 -51v-986q0 -117 -35.5 -198.5t-93 -131.5t-130.5 -74t-146 -24q-74 0 -146.5 24t-130 76 t-92.5 135t-35 202zM396 1557.5q-7 17.5 10 44.5l106 149q25 33 61 33h76q23 0 36 -8.5t28 -24.5l104 -149q18 -27 12 -44.5t-34 -17.5h-35q-35 0 -55 35l-91 131h-4l-90 -131q-10 -18 -22.5 -26.5t-34.5 -8.5h-31q-29 0 -36 17.5z" />
<glyph unicode="&#x135;" horiz-adv-x="456" d="M-121 -348q0 45 51 49q33 2 74 11t75 37t57.5 80t23.5 138v1012q0 51 49 51h39q51 0 51 -51v-1016q0 -127 -41 -202.5t-96.5 -115.5t-114.5 -53.5t-96 -13.5h-21q-51 0 -51 51v23zM7 1213.5q-7 17.5 9 43.5l107 150q25 33 61 33h76q37 0 62 -33l106 -150q16 -27 10 -44 t-35 -17h-32q-35 0 -56 35l-90 131h-4l-92 -131q-10 -18 -21.5 -26.5t-33.5 -8.5h-31q-29 0 -36 17.5z" />
<glyph unicode="&#x136;" horiz-adv-x="1193" d="M201 51v1338q0 51 49 51h43q49 0 49 -51v-574h244l366 590q20 35 60 35h51q31 0 41 -17.5t-6 -44.5l-393 -618v-4l421 -697q16 -25 6 -42t-38 -17h-58q-39 0 -59 35l-391 653h-244v-637q0 -51 -49 -51h-43q-49 0 -49 51zM547 -389q0 18 10 41.5t10 87.5q0 23 -1 36t-3 21 t-3 16.5t-1 22.5q0 35 45 35h31q41 0 50 -36t9 -68q0 -27 -6 -60t-17.5 -61.5t-27.5 -48t-39 -19.5h-12q-45 0 -45 33z" />
<glyph unicode="&#x137;" horiz-adv-x="995" d="M160 51v1338q0 51 49 51h39q51 0 51 -51v-752h166l285 362q25 31 61 31h51q31 0 40 -18.5t-11 -42.5l-311 -387v-4l356 -517q16 -27 7 -44t-42 -17h-53q-39 0 -60 35l-321 479h-168v-463q0 -51 -51 -51h-39q-49 0 -49 51zM446 -389q0 18 10.5 41.5t10.5 87.5q0 23 -1 36 t-3 21t-3 16.5t-1 22.5q0 35 45 35h31q41 0 50 -36t9 -68q0 -27 -6 -60t-17.5 -61.5t-28 -48t-38.5 -19.5h-12q-45 0 -46 33z" />
<glyph unicode="&#x138;" horiz-adv-x="993" d="M158 51v928q0 51 51 51h39q49 0 49 -51v-371h162l305 389q12 16 25.5 24.5t35.5 8.5h54q33 0 42 -18.5t-10 -42.5l-331 -416v-4l335 -488q16 -27 7 -44t-39 -17h-60q-39 0 -59 35l-303 452h-164v-436q0 -51 -49 -51h-39q-51 0 -51 51z" />
<glyph unicode="&#x139;" horiz-adv-x="1021" d="M201 51v1338q0 51 49 51h43q49 0 49 -51v-1262h616q51 0 52 -51v-25q0 -51 -52 -51h-708q-49 0 -49 51zM233 1557.5q-10 17.5 7 39.5l90 152q20 35 59 35h47q33 0 40 -17.5t-11 -44.5l-109 -149q-25 -33 -61 -33h-23q-29 0 -39 17.5z" />
<glyph unicode="&#x13a;" horiz-adv-x="499" d="M160 244v1145q0 51 49 51h39q51 0 51 -51v-1121q0 -49 10 -77.5t25.5 -44t35 -20.5t36.5 -7q18 -2 30.5 -12.5t12.5 -32.5v-31q0 -51 -54 -51q-31 0 -71.5 7t-77.5 33.5t-61.5 77t-24.5 134.5zM194 1557.5q-10 17.5 7 39.5l90 152q20 35 59 35h47q33 0 40 -17.5 t-11 -44.5l-109 -149q-25 -33 -61 -33h-23q-29 0 -39 17.5z" />
<glyph unicode="&#x13b;" horiz-adv-x="1021" d="M201 51v1338q0 51 49 51h43q49 0 49 -51v-1262h616q51 0 52 -51v-25q0 -51 -52 -51h-708q-49 0 -49 51zM539 -389q0 18 10 41.5t10 87.5q0 23 -1 36t-3 21t-3 16.5t-1 22.5q0 35 45 35h31q41 0 50 -36t9 -68q0 -27 -6 -60t-17.5 -61.5t-28 -48t-38.5 -19.5h-12 q-45 0 -45 33z" />
<glyph unicode="&#x13c;" horiz-adv-x="499" d="M160 244v1145q0 51 49 51h39q51 0 51 -51v-1121q0 -49 10 -77.5t25.5 -44t35 -20.5t36.5 -7q18 -2 30.5 -12.5t12.5 -32.5v-31q0 -51 -54 -51q-31 0 -71.5 7t-77.5 33.5t-61.5 77t-24.5 134.5zM221 -389q0 18 10.5 41.5t10.5 87.5q0 23 -1 36t-3 21t-3.5 16.5t-1.5 22.5 q0 35 46 35h30q41 0 50.5 -36t9.5 -68q0 -27 -6.5 -60t-17.5 -61.5t-27.5 -48t-38.5 -19.5h-13q-45 0 -45 33z" />
<glyph unicode="&#x13d;" horiz-adv-x="1021" d="M201 51v1338q0 51 49 51h43q49 0 49 -51v-1262h616q51 0 52 -51v-25q0 -51 -52 -51h-708q-49 0 -49 51zM520 1178q0 18 10.5 41.5t10.5 87.5q0 23 -1 36t-3 21t-3.5 16.5t-1.5 22.5q0 35 46 35h30q41 0 50.5 -36t9.5 -69q0 -27 -6.5 -59.5t-17.5 -61t-27.5 -48 t-38.5 -19.5h-13q-45 0 -45 33z" />
<glyph unicode="&#x13e;" horiz-adv-x="499" d="M160 244v1145q0 51 49 51h39q51 0 51 -51v-1121q0 -49 10 -77.5t25.5 -44t35 -20.5t36.5 -7q18 -2 30.5 -12.5t12.5 -32.5v-31q0 -51 -54 -51q-31 0 -71.5 7t-77.5 33.5t-61.5 77t-24.5 134.5zM420 1178q0 18 10 41.5t10 87.5q0 23 -1 36t-3 21t-3 16.5t-1 22.5 q0 35 45 35h31q41 0 50 -36t9 -69q0 -27 -6 -59.5t-17.5 -61t-27.5 -48t-39 -19.5h-12q-45 0 -45 33z" />
<glyph unicode="&#x13f;" horiz-adv-x="1021" d="M201 51v1338q0 51 49 51h43q49 0 49 -51v-1262h616q51 0 52 -51v-25q0 -51 -52 -51h-708q-49 0 -49 51zM598 725v70q0 51 51 51h64q49 0 49 -51v-70q0 -49 -49 -49h-64q-51 0 -51 49z" />
<glyph unicode="&#x140;" horiz-adv-x="567" d="M160 244v1145q0 51 49 51h39q51 0 51 -51v-1121q0 -49 10 -77.5t25.5 -44t35 -20.5t36.5 -7q18 -2 30.5 -12.5t12.5 -32.5v-31q0 -51 -54 -51q-31 0 -71.5 7t-77.5 33.5t-61.5 77t-24.5 134.5zM430 725v70q0 51 51 51h64q49 0 49 -51v-70q0 -49 -49 -49h-64q-51 0 -51 49 z" />
<glyph unicode="&#x141;" horiz-adv-x="1021" d="M74 686v35q0 41 30 59l97 56v553q0 51 51 51h41q49 0 49 -51v-471l172 98q25 16 42 6t17 -41v-35q0 -23 -9 -37t-25 -24l-197 -113v-645h619q49 0 49 -51v-25q0 -51 -49 -51h-709q-51 0 -51 51v639l-76 -41q-20 -12 -35.5 -2t-15.5 39z" />
<glyph unicode="&#x142;" horiz-adv-x="518" d="M8 694v35q0 43 29 59l137 78v523q0 51 49 51h39q51 0 51 -51v-441l119 68q27 16 43.5 6t16.5 -41v-35q0 -41 -33 -61l-146 -84v-533q0 -49 10.5 -77.5t26 -44t34.5 -20.5t36 -7q18 -2 30.5 -12.5t12.5 -32.5v-31q0 -51 -53 -51q-31 0 -72 7t-78 33.5t-61.5 77 t-24.5 134.5v477l-115 -64q-23 -14 -37 -2.5t-14 39.5z" />
<glyph unicode="&#x143;" horiz-adv-x="1525" d="M201 51v1338q0 51 49 51h49q37 0 61 -33l713 -1004q18 -29 39 -62.5t39 -61.5q20 -35 41 -70h4q-4 35 -6 70q-4 29 -5 62.5t-1 61.5v986q0 51 51 51h41q49 0 49 -51v-1338q0 -51 -49 -51h-49q-39 0 -60 33l-714 1003q-18 27 -40 62t-38 63q-23 35 -41 70h-4q2 -35 6 -70 q2 -29 4 -62.5t2 -62.5v-985q0 -51 -49 -51h-43q-49 0 -49 51zM723 1557.5q-10 17.5 6 39.5l90 152q20 35 60 35h47q33 0 40 -17.5t-12 -44.5l-108 -149q-25 -33 -62 -33h-22q-29 0 -39 17.5z" />
<glyph unicode="&#x144;" horiz-adv-x="1196" d="M158 51v928q0 51 51 51h37q49 0 49 -51v-119q0 -16 -1 -29.5t-3 -23.5q-2 -12 -4 -21h4q14 35 47 81t85 88t122.5 71t161.5 29q96 0 161.5 -27t106.5 -78t59.5 -125.5t18.5 -169.5v-604q0 -51 -52 -51h-38q-49 0 -50 51v567q0 61 -7 117t-30.5 97.5t-68.5 66.5t-119 25 q-82 0 -153.5 -32t-124 -88t-83 -133t-30.5 -167v-453q0 -51 -49 -51h-39q-51 0 -51 51zM585.5 1215.5q-10.5 17.5 6.5 39.5l90 152q20 35 59 35h47q33 0 40.5 -17.5t-11.5 -44.5l-108 -149q-25 -33 -62 -33h-22q-29 0 -39.5 17.5z" />
<glyph unicode="&#x145;" horiz-adv-x="1525" d="M201 51v1338q0 51 49 51h49q37 0 61 -33l713 -1004q18 -29 39 -62.5t39 -61.5q20 -35 41 -70h4q-4 35 -6 70q-4 29 -5 62.5t-1 61.5v986q0 51 51 51h41q49 0 49 -51v-1338q0 -51 -49 -51h-49q-39 0 -60 33l-714 1003q-18 27 -40 62t-38 63q-23 35 -41 70h-4q2 -35 6 -70 q2 -29 4 -62.5t2 -62.5v-985q0 -51 -49 -51h-43q-49 0 -49 51zM682 -389q0 18 10 41.5t10 87.5q0 23 -1 36t-3 21t-3 16.5t-1 22.5q0 35 45 35h31q41 0 50 -36t9 -68q0 -27 -6 -60t-17 -61.5t-27.5 -48t-39.5 -19.5h-12q-45 0 -45 33z" />
<glyph unicode="&#x146;" horiz-adv-x="1196" d="M158 51v928q0 51 51 51h37q49 0 49 -51v-119q0 -16 -1 -29.5t-3 -23.5q-2 -12 -4 -21h4q14 35 47 81t85 88t122.5 71t161.5 29q96 0 161.5 -27t106.5 -78t59.5 -125.5t18.5 -169.5v-604q0 -51 -52 -51h-38q-49 0 -50 51v567q0 61 -7 117t-30.5 97.5t-68.5 66.5t-119 25 q-82 0 -153.5 -32t-124 -88t-83 -133t-30.5 -167v-453q0 -51 -49 -51h-39q-51 0 -51 51zM524 -389q0 18 10.5 41.5t10.5 87.5q0 23 -1 36t-3 21t-3 16.5t-1 22.5q0 35 45 35h30q41 0 50.5 -36t9.5 -68q0 -27 -6.5 -60t-17.5 -61.5t-27.5 -48t-38.5 -19.5h-13q-45 0 -45 33z " />
<glyph unicode="&#x147;" horiz-adv-x="1525" d="M201 51v1338q0 51 49 51h49q37 0 61 -33l713 -1004q18 -29 39 -62.5t39 -61.5q20 -35 41 -70h4q-4 35 -6 70q-4 29 -5 62.5t-1 61.5v986q0 51 51 51h41q49 0 49 -51v-1338q0 -51 -49 -51h-49q-39 0 -60 33l-714 1003q-18 27 -40 62t-38 63q-23 35 -41 70h-4q2 -35 6 -70 q2 -29 4 -62.5t2 -62.5v-985q0 -51 -49 -51h-43q-49 0 -49 51zM546 1766.5q7 17.5 36 17.5h30q23 0 35 -8.5t23 -24.5l90 -131h4l90 131q20 33 55 33h33q29 0 36 -17.5t-11 -44.5l-105 -149q-14 -16 -27.5 -24.5t-35.5 -8.5h-76q-37 0 -61 33l-107 149q-16 27 -9 44.5z" />
<glyph unicode="&#x148;" horiz-adv-x="1196" d="M158 51v928q0 51 51 51h37q49 0 49 -51v-119q0 -16 -1 -29.5t-3 -23.5q-2 -12 -4 -21h4q14 35 47 81t85 88t122.5 71t161.5 29q96 0 161.5 -27t106.5 -78t59.5 -125.5t18.5 -169.5v-604q0 -51 -52 -51h-38q-49 0 -50 51v567q0 61 -7 117t-30.5 97.5t-68.5 66.5t-119 25 q-82 0 -153.5 -32t-124 -88t-83 -133t-30.5 -167v-453q0 -51 -49 -51h-39q-51 0 -51 51zM409 1424.5q7 17.5 35 17.5h31q23 0 35 -8.5t22 -24.5l91 -131h4l90 131q20 33 55 33h33q29 0 36 -17.5t-12 -44.5l-104 -149q-14 -16 -27.5 -24.5t-35.5 -8.5h-76q-37 0 -62 33 l-106 149q-16 27 -9 44.5z" />
<glyph unicode="&#x149;" horiz-adv-x="1196" d="M20 1178q0 18 10.5 41.5t10.5 87.5q0 23 -1 36t-3 21t-3 16.5t-1 22.5q0 35 45 35h31q41 0 50 -36t9 -69q0 -27 -6 -59.5t-17.5 -61t-28 -48t-38.5 -19.5h-12q-45 0 -46 33zM158 51v928q0 51 51 51h37q49 0 49 -51v-119q0 -16 -1 -29.5t-3 -23.5q-2 -12 -4 -21h4 q14 35 47 81t85 88t122.5 71t161.5 29q96 0 161.5 -27t106.5 -78t59.5 -125.5t18.5 -169.5v-604q0 -51 -52 -51h-38q-49 0 -50 51v567q0 61 -7 117t-30.5 97.5t-68.5 66.5t-119 25q-82 0 -153.5 -32t-124 -88t-83 -133t-30.5 -167v-453q0 -51 -49 -51h-39q-51 0 -51 51z" />
<glyph unicode="&#x14a;" horiz-adv-x="1525" d="M201 51v1338q0 51 49 51h49q37 0 61 -33l713 -1004q18 -29 39 -62.5t39 -61.5q20 -35 41 -70h4q-4 35 -6 70q-4 29 -5 62.5t-1 61.5v986q0 51 51 51h41q49 0 49 -51v-1395q0 -113 -31.5 -190.5t-84 -126t-119 -71t-136.5 -26.5q-53 -4 -53 49v29q0 47 49 51 q53 4 96.5 21.5t74 53.5t48 90t17.5 132l-733 1030q-18 27 -40 62t-38 63q-23 35 -41 70h-4q2 -35 6 -70q2 -29 4 -62.5t2 -62.5v-985q0 -51 -49 -51h-43q-49 0 -49 51z" />
<glyph unicode="&#x14b;" horiz-adv-x="1200" d="M158 51v928q0 51 51 51h37q49 0 49 -51v-119q0 -16 -1 -29.5t-3 -23.5q-2 -12 -4 -21h4q14 35 47 81t85 88t122.5 71t161.5 29q96 0 161.5 -27t106.5 -78t59.5 -125.5t18.5 -169.5v-692q0 -127 -41 -202.5t-96.5 -115.5t-115 -53.5t-95.5 -13.5h-21q-51 0 -51 51v23 q0 45 51 49q33 2 74 11t74.5 37t57 80t23.5 138v651q0 61 -7 117t-30.5 97.5t-68.5 66.5t-119 25q-82 0 -153.5 -32t-124 -88t-83 -133t-30.5 -167v-453q0 -51 -49 -51h-39q-51 0 -51 51z" />
<glyph unicode="&#x14c;" horiz-adv-x="1673" d="M102 729q0 156 55.5 290t154 233.5t232.5 155.5t292 56t292 -56t232 -155.5t153.5 -233.5t55.5 -290q0 -158 -55.5 -296t-153.5 -239.5t-232.5 -160t-291.5 -58.5q-158 0 -292 58.5t-232.5 160t-154 239.5t-55.5 296zM250 729q0 -131 44 -244.5t123 -196.5t185.5 -131 t233.5 -48t234.5 48t185 131t121.5 196.5t44 244.5q0 129 -44 238.5t-121.5 190.5t-185 127t-234.5 46t-233.5 -46t-185.5 -127t-123 -190.5t-44 -238.5zM584 1657v14q0 49 51 49h403q49 0 49 -49v-14q0 -49 -49 -49h-403q-51 0 -51 49z" />
<glyph unicode="&#x14d;" horiz-adv-x="1259" d="M86 520q0 115 43 212t116.5 169t172 113t211.5 41t212 -41t172.5 -113t117 -169t43.5 -212q0 -117 -43.5 -216t-117 -173t-172 -115t-210.5 -41q-113 0 -212.5 41t-173 115t-116.5 173t-43 216zM229 520q0 -90 32 -167t86 -133t127 -88t157 -32q82 0 154.5 32t127 88 t86 133t31.5 167q0 88 -31.5 163t-86 130t-127 86t-154.5 31q-84 0 -157 -31t-127 -86t-86 -130t-32 -163zM377 1315v14q0 49 51 49h403q49 0 50 -49v-14q0 -49 -50 -49h-403q-51 0 -51 49z" />
<glyph unicode="&#x14e;" horiz-adv-x="1673" d="M102 729q0 156 55.5 290t154 233.5t232.5 155.5t292 56t292 -56t232 -155.5t153.5 -233.5t55.5 -290q0 -158 -55.5 -296t-153.5 -239.5t-232.5 -160t-291.5 -58.5q-158 0 -292 58.5t-232.5 160t-154 239.5t-55.5 296zM250 729q0 -131 44 -244.5t123 -196.5t185.5 -131 t233.5 -48t234.5 48t185 131t121.5 196.5t44 244.5q0 129 -44 238.5t-121.5 190.5t-185 127t-234.5 46t-233.5 -46t-185.5 -127t-123 -190.5t-44 -238.5zM598 1745q0 39 47 39h21q41 0 47 -37q6 -63 39.5 -90t81.5 -27q47 0 81.5 26.5t40.5 90.5q4 16 14.5 26.5t33.5 10.5 h20q47 0 47 -39q0 -45 -19.5 -83t-52 -66.5t-75.5 -45t-90 -16.5q-45 0 -87 15.5t-75 43t-53.5 66.5t-20.5 86z" />
<glyph unicode="&#x14f;" horiz-adv-x="1259" d="M86 520q0 115 43 212t116.5 169t172 113t211.5 41t212 -41t172.5 -113t117 -169t43.5 -212q0 -117 -43.5 -216t-117 -173t-172 -115t-210.5 -41q-113 0 -212.5 41t-173 115t-116.5 173t-43 216zM229 520q0 -90 32 -167t86 -133t127 -88t157 -32q82 0 154.5 32t127 88 t86 133t31.5 167q0 88 -31.5 163t-86 130t-127 86t-154.5 31q-84 0 -157 -31t-127 -86t-86 -130t-32 -163zM393 1403q0 39 47 39h21q41 0 47 -37q6 -63 40 -90t81 -27t81.5 26.5t41.5 90.5q4 16 14 26.5t33 10.5h20q47 0 47 -39q0 -45 -19.5 -83t-52 -66.5t-75.5 -45 t-90 -16.5q-45 0 -87 15.5t-75 43t-53.5 66.5t-20.5 86z" />
<glyph unicode="&#x150;" horiz-adv-x="1673" d="M102 729q0 156 55.5 290t154 233.5t232.5 155.5t292 56t292 -56t232 -155.5t153.5 -233.5t55.5 -290q0 -158 -55.5 -296t-153.5 -239.5t-232.5 -160t-291.5 -58.5q-158 0 -292 58.5t-232.5 160t-154 239.5t-55.5 296zM250 729q0 -131 44 -244.5t123 -196.5t185.5 -131 t233.5 -48t234.5 48t185 131t121.5 196.5t44 244.5q0 129 -44 238.5t-121.5 190.5t-185 127t-234.5 46t-233.5 -46t-185.5 -127t-123 -190.5t-44 -238.5zM633 1557.5q-10 17.5 4 41.5l82 148q18 37 59 37h31q31 0 40 -17.5t-7 -42.5l-84 -147q-23 -37 -60 -37h-26 q-29 0 -39 17.5zM906 1557.5q-9 17.5 5 41.5l90 150q20 35 60 35h45q31 0 38 -17.5t-11 -44.5l-107 -149q-27 -33 -61 -33h-19q-31 0 -40 17.5z" />
<glyph unicode="&#x151;" horiz-adv-x="1259" d="M86 520q0 115 43 212t116.5 169t172 113t211.5 41t212 -41t172.5 -113t117 -169t43.5 -212q0 -117 -43.5 -216t-117 -173t-172 -115t-210.5 -41q-113 0 -212.5 41t-173 115t-116.5 173t-43 216zM229 520q0 -90 32 -167t86 -133t127 -88t157 -32q82 0 154.5 32t127 88 t86 133t31.5 167q0 88 -31.5 163t-86 130t-127 86t-154.5 31q-84 0 -157 -31t-127 -86t-86 -130t-32 -163zM426 1215.5q-10 17.5 4 41.5l82 148q18 37 59 37h31q31 0 40 -17.5t-7 -42.5l-84 -147q-23 -37 -59 -37h-27q-29 0 -39 17.5zM699 1215.5q-9 17.5 6 41.5l90 150 q20 35 59 35h45q31 0 38 -17.5t-11 -44.5l-107 -149q-27 -33 -61 -33h-19q-31 0 -40 17.5z" />
<glyph unicode="&#x152;" horiz-adv-x="1912" d="M102 721q0 156 55.5 290t153 234.5t232.5 157.5t295 57q63 0 128.5 -10t114.5 -10h662q49 0 49 -51v-25q0 -51 -49 -51h-621v-525h498q49 0 49 -49v-26q0 -51 -49 -51h-498v-535h658q49 0 49 -51v-25q0 -51 -49 -51h-697q-47 0 -114.5 -10t-130.5 -10q-160 0 -295 57 t-232.5 156.5t-153 234.5t-55.5 293zM250 721q0 -129 43 -241.5t119.5 -194.5t185.5 -129t240 -47q29 0 54.5 2t45.5 6q23 4 43 8v1190q-20 4 -43 8q-20 4 -46 6t-54 2q-131 0 -240 -47t-185.5 -129t-119.5 -193.5t-43 -240.5z" />
<glyph unicode="&#x153;" horiz-adv-x="2054" d="M88 512q0 123 43 223.5t117 171t171 109.5t208 39q156 0 277.5 -74t187.5 -203h4q61 133 177 205t265 72q102 0 183 -36t136.5 -100.5t84 -154.5t28.5 -201q0 -23 -15.5 -37t-37.5 -14h-741q4 -102 37.5 -179t88 -128t125 -78t148.5 -27q96 0 164.5 33t103.5 62 q45 29 70 -13l12 -22q25 -43 -12 -70q-20 -16 -53 -35.5t-77 -37t-98.5 -30t-115.5 -12.5q-162 0 -285 76t-184 205h-4q-66 -131 -188 -206t-281 -75q-111 0 -208 38t-171 109t-117 169t-43 221zM231 512q0 -92 32 -169t86 -130t126 -83t154 -30t154.5 30t128 84t87 132 t31.5 174q0 94 -32.5 170t-88 129t-128 82t-152.5 29q-82 0 -154 -30t-126 -85t-86 -132t-32 -171zM1182 616h645q-4 80 -27.5 140.5t-63.5 100.5t-91.5 60.5t-108.5 20.5q-66 0 -124 -20.5t-105 -61.5t-80 -101.5t-45 -138.5z" />
<glyph unicode="&#x154;" horiz-adv-x="1247" d="M201 51v1338q0 51 49 51h389q102 0 160.5 -10.5t101.5 -30.5q98 -47 155.5 -138.5t57.5 -222.5q0 -147 -74.5 -254.5t-197.5 -142.5v-4q4 -6 10 -14q4 -8 10 -18.5t17 -24.5l280 -521q14 -27 4 -43t-39 -16h-53q-41 0 -59 35l-307 571h-363v-555q0 -51 -49 -51h-43 q-49 0 -49 51zM342 733h342q131 0 208 83t77 218q0 86 -40 152.5t-112 99.5q-31 14 -70.5 20.5t-117.5 6.5h-287v-580zM569 1557.5q-10 17.5 6 39.5l91 152q20 35 59 35h47q33 0 40 -17.5t-11 -44.5l-109 -149q-25 -33 -61 -33h-23q-29 0 -39 17.5z" />
<glyph unicode="&#x155;" horiz-adv-x="692" d="M158 51v928q0 51 51 51h37q49 0 49 -51v-139q0 -16 -1 -31.5t-3 -26.5l-4 -24h4q18 55 49 106t74 89t95 60.5t114 22.5q53 0 53 -49v-37q0 -51 -58 -51q-82 0 -142 -42t-100 -108.5t-59.5 -149.5t-19.5 -163v-385q0 -51 -49 -51h-39q-51 0 -51 51zM391 1213.5 q-10 17.5 6 39.5l90 152q20 35 60 35h47q33 0 40 -17.5t-11 -44.5l-109 -149q-25 -33 -61 -33h-23q-29 0 -39 17.5z" />
<glyph unicode="&#x156;" horiz-adv-x="1245" d="M201 51v1338q0 51 49 51h389q102 0 160.5 -10.5t101.5 -30.5q98 -47 155.5 -138.5t57.5 -222.5q0 -147 -74.5 -254.5t-197.5 -142.5v-4q4 -6 10 -14q4 -8 10 -18.5t17 -24.5l280 -521q14 -27 4 -43t-39 -16h-53q-41 0 -59 35l-307 571h-363v-555q0 -51 -49 -51h-43 q-49 0 -49 51zM342 733h342q131 0 208 83t77 218q0 86 -40 152.5t-112 99.5q-31 14 -70.5 20.5t-117.5 6.5h-287v-580zM571 -389q0 18 10.5 41.5t10.5 87.5q0 23 -1 36t-3 21t-3 16.5t-1 22.5q0 35 45 35h30q41 0 50.5 -36t9.5 -68q0 -27 -6 -60t-17.5 -61.5t-28 -48 t-38.5 -19.5h-13q-45 0 -45 33z" />
<glyph unicode="&#x157;" horiz-adv-x="692" d="M154 -389q0 18 10 41.5t10 87.5q0 23 -1 36t-3 21t-3 16.5t-1 22.5q0 35 45 35h31q41 0 50 -36t9 -68q0 -27 -6 -60t-17.5 -61.5t-28 -48t-38.5 -19.5h-12q-45 0 -45 33zM158 51v928q0 51 51 51h37q49 0 49 -51v-139q0 -16 -1 -31.5t-3 -26.5l-4 -24h4q18 55 49 106 t74 89t95 60.5t114 22.5q53 0 53 -49v-37q0 -51 -58 -51q-82 0 -142 -42t-100 -108.5t-59.5 -149.5t-19.5 -163v-385q0 -51 -49 -51h-39q-51 0 -51 51z" />
<glyph unicode="&#x158;" horiz-adv-x="1247" d="M201 51v1338q0 51 49 51h389q102 0 160.5 -10.5t101.5 -30.5q98 -47 155.5 -138.5t57.5 -222.5q0 -147 -74.5 -254.5t-197.5 -142.5v-4q4 -6 10 -14q4 -8 10 -18.5t17 -24.5l280 -521q14 -27 4 -43t-39 -16h-53q-41 0 -59 35l-307 571h-363v-555q0 -51 -49 -51h-43 q-49 0 -49 51zM342 733h342q131 0 208 83t77 218q0 86 -40 152.5t-112 99.5q-31 14 -70.5 20.5t-117.5 6.5h-287v-580zM394 1766.5q7 17.5 36 17.5h31q23 0 35 -8.5t22 -24.5l90 -131h4l90 131q20 33 56 33h33q29 0 36 -17.5t-12 -44.5l-104 -149q-14 -16 -27.5 -24.5 t-36.5 -8.5h-76q-37 0 -61 33l-107 149q-16 27 -9 44.5z" />
<glyph unicode="&#x159;" horiz-adv-x="692" d="M158 51v928q0 51 51 51h37q49 0 49 -51v-139q0 -16 -1 -31.5t-3 -26.5l-4 -24h4q18 55 49 106t74 89t95 60.5t114 22.5q53 0 53 -49v-37q0 -51 -58 -51q-82 0 -142 -42t-100 -108.5t-59.5 -149.5t-19.5 -163v-385q0 -51 -49 -51h-39q-51 0 -51 51zM216 1422.5 q7 17.5 36 17.5h31q23 0 35 -8.5t22 -24.5l90 -131h4l90 131q20 33 56 33h32q29 0 36 -17.5t-11 -44.5l-105 -149q-14 -16 -27 -24.5t-36 -8.5h-76q-37 0 -61 33l-107 149q-16 27 -9 44.5z" />
<glyph unicode="&#x15a;" horiz-adv-x="1077" d="M115 199l24 30q31 37 72 7q18 -16 50 -37t74 -41.5t94 -33.5t114 -13q129 0 211 66.5t82 178.5q0 90 -53.5 148.5t-133.5 101.5t-172 80t-172 87t-133 122t-53 184q0 88 34.5 160t96 122t143.5 76.5t176 26.5q63 0 118.5 -12t101 -28.5t78 -37t53.5 -34.5q37 -29 12 -68 l-19 -33q-14 -23 -32.5 -24.5t-38.5 10.5q-39 27 -108.5 59.5t-168.5 32.5q-61 0 -115.5 -16.5t-96.5 -47t-65.5 -75.5t-23.5 -103q0 -86 53.5 -141t133 -96t172 -78t172 -87t133 -125t53.5 -189q0 -84 -29.5 -156t-86 -125t-138.5 -84t-184 -31q-80 0 -147.5 16.5t-121 41 t-92 50.5t-61.5 44q-33 33 -6 72zM502 1557.5q-10 17.5 6 39.5l90 152q20 35 59 35h48q33 0 40 -17.5t-12 -44.5l-108 -149q-25 -33 -62 -33h-22q-29 0 -39 17.5z" />
<glyph unicode="&#x15b;" horiz-adv-x="882" d="M94 164l17 20q27 35 69 9q35 -27 103.5 -61t169.5 -34q86 0 147.5 42t61.5 124q0 57 -41 93t-102.5 64t-132.5 53.5t-132 62t-102 90t-41 139.5q0 72 28.5 126t75.5 90t110.5 54.5t135.5 18.5q111 0 180.5 -31t101.5 -53q41 -25 15 -68l-15 -22q-23 -41 -69 -15 q-29 20 -84 43t-137 23t-142.5 -38t-60.5 -122q0 -59 41 -96t101.5 -64.5t132 -52t132 -61.5t101.5 -91.5t41 -140.5q0 -63 -25.5 -116.5t-72 -92.5t-111 -60.5t-139.5 -21.5q-68 0 -123.5 12.5t-99.5 31t-76 39t-50 36.5q-37 29 -8 70zM405 1215.5q-10 17.5 7 39.5l90 152 q20 35 59 35h47q33 0 40 -17.5t-11 -44.5l-109 -149q-25 -33 -61 -33h-23q-29 0 -39 17.5z" />
<glyph unicode="&#x15c;" horiz-adv-x="1077" d="M115 199l24 30q31 37 72 7q18 -16 50 -37t74 -41.5t94 -33.5t114 -13q129 0 211 66.5t82 178.5q0 90 -53.5 148.5t-133.5 101.5t-172 80t-172 87t-133 122t-53 184q0 88 34.5 160t96 122t143.5 76.5t176 26.5q63 0 118.5 -12t101 -28.5t78 -37t53.5 -34.5q37 -29 12 -68 l-19 -33q-14 -23 -32.5 -24.5t-38.5 10.5q-39 27 -108.5 59.5t-168.5 32.5q-61 0 -115.5 -16.5t-96.5 -47t-65.5 -75.5t-23.5 -103q0 -86 53.5 -141t133 -96t172 -78t172 -87t133 -125t53.5 -189q0 -84 -29.5 -156t-86 -125t-138.5 -84t-184 -31q-80 0 -147.5 16.5t-121 41 t-92 50.5t-61.5 44q-33 33 -6 72zM326 1557.5q-7 17.5 10 44.5l106 149q25 33 62 33h76q23 0 36 -8.5t27 -24.5l105 -149q18 -27 12 -44.5t-35 -17.5h-35q-35 0 -55 35l-90 131h-4l-90 -131q-10 -18 -22.5 -26.5t-35.5 -8.5h-31q-29 0 -36 17.5z" />
<glyph unicode="&#x15d;" horiz-adv-x="882" d="M94 164l17 20q27 35 69 9q35 -27 103.5 -61t169.5 -34q86 0 147.5 42t61.5 124q0 57 -41 93t-102.5 64t-132.5 53.5t-132 62t-102 90t-41 139.5q0 72 28.5 126t75.5 90t110.5 54.5t135.5 18.5q111 0 180.5 -31t101.5 -53q41 -25 15 -68l-15 -22q-23 -41 -69 -15 q-29 20 -84 43t-137 23t-142.5 -38t-60.5 -122q0 -59 41 -96t101.5 -64.5t132 -52t132 -61.5t101.5 -91.5t41 -140.5q0 -63 -25.5 -116.5t-72 -92.5t-111 -60.5t-139.5 -21.5q-68 0 -123.5 12.5t-99.5 31t-76 39t-50 36.5q-37 29 -8 70zM234 1215.5q-7 17.5 10 44.5l106 149 q25 33 62 33h75q23 0 36.5 -8.5t27.5 -24.5l104 -149q18 -27 12.5 -44.5t-34.5 -17.5h-35q-35 0 -55 35l-90 131h-4l-91 -131q-10 -18 -22 -26.5t-35 -8.5h-31q-29 0 -36 17.5z" />
<glyph unicode="&#x15e;" horiz-adv-x="1081" d="M115 199l24 30q31 37 72 7q18 -16 50 -37t74 -41.5t94 -33.5t114 -13q129 0 211 66.5t82 178.5q0 90 -53.5 148.5t-133.5 101.5t-172 80t-172 87t-133 122t-53 184q0 88 34.5 160t96 122t143.5 76.5t176 26.5q63 0 118.5 -12t101 -28.5t78 -37t53.5 -34.5q37 -29 12 -68 l-19 -33q-14 -23 -32.5 -24.5t-38.5 10.5q-39 27 -108.5 59.5t-168.5 32.5q-61 0 -115.5 -16.5t-96.5 -47t-65.5 -75.5t-23.5 -103q0 -86 53.5 -141t133 -96t172 -78t172 -87t133 -125t53.5 -189q0 -78 -26.5 -147.5t-78 -122t-125 -85t-165.5 -39.5l-17 -90 q61 -10 102.5 -47t41.5 -98q0 -45 -16.5 -76t-44 -50t-63.5 -27.5t-73 -8.5q-12 0 -29.5 1t-33 6t-25.5 14.5t-10 27.5q0 20 8 36t25 16q12 0 22 -3.5t31 -3.5q39 0 69.5 14.5t30.5 55.5q0 35 -28.5 51.5t-71.5 20.5q-16 2 -27.5 15t-7.5 38l25 108q-70 6 -129.5 23.5 t-106.5 40t-82 46.5t-55 40q-33 33 -6 72z" />
<glyph unicode="&#x15f;" horiz-adv-x="886" d="M94 164l17 20q27 35 69 9q35 -27 103.5 -61t169.5 -34q86 0 147.5 42t61.5 124q0 57 -41 93t-102.5 64t-132.5 53.5t-132 62t-102 90t-41 139.5q0 72 28.5 126t75.5 90t110.5 54.5t135.5 18.5q111 0 180.5 -31t101.5 -53q41 -25 15 -68l-15 -22q-23 -41 -69 -15 q-29 20 -84 43t-137 23t-142.5 -38t-60.5 -122q0 -59 41 -96t101.5 -64.5t132 -52t132 -61.5t101.5 -91.5t41 -140.5q0 -121 -86 -199.5t-226 -89.5l-16 -90q61 -10 102 -47t41 -98q0 -45 -16 -76t-44 -50t-63.5 -27.5t-72.5 -8.5q-12 0 -29.5 1t-33 6t-26 14.5t-10.5 27.5 q0 20 8.5 36t24.5 16q12 0 22.5 -3.5t31.5 -3.5q39 0 69.5 14.5t30.5 55.5q0 35 -28.5 51.5t-71.5 20.5q-16 2 -27.5 15t-7.5 38l24 108q-113 10 -185.5 49.5t-107.5 67.5q-37 29 -8 70z" />
<glyph unicode="&#x160;" horiz-adv-x="1077" d="M115 199l24 30q31 37 72 7q18 -16 50 -37t74 -41.5t94 -33.5t114 -13q129 0 211 66.5t82 178.5q0 90 -53.5 148.5t-133.5 101.5t-172 80t-172 87t-133 122t-53 184q0 88 34.5 160t96 122t143.5 76.5t176 26.5q63 0 118.5 -12t101 -28.5t78 -37t53.5 -34.5q37 -29 12 -68 l-19 -33q-14 -23 -32.5 -24.5t-38.5 10.5q-39 27 -108.5 59.5t-168.5 32.5q-61 0 -115.5 -16.5t-96.5 -47t-65.5 -75.5t-23.5 -103q0 -86 53.5 -141t133 -96t172 -78t172 -87t133 -125t53.5 -189q0 -84 -29.5 -156t-86 -125t-138.5 -84t-184 -31q-80 0 -147.5 16.5t-121 41 t-92 50.5t-61.5 44q-33 33 -6 72zM327 1766.5q7 17.5 35 17.5h31q23 0 35 -8.5t23 -24.5l90 -131h4l90 131q20 33 55 33h33q29 0 36 -17.5t-11 -44.5l-105 -149q-14 -16 -27.5 -24.5t-35.5 -8.5h-76q-37 0 -62 33l-106 149q-16 27 -9 44.5z" />
<glyph unicode="&#x161;" horiz-adv-x="882" d="M94 164l17 20q27 35 69 9q35 -27 103.5 -61t169.5 -34q86 0 147.5 42t61.5 124q0 57 -41 93t-102.5 64t-132.5 53.5t-132 62t-102 90t-41 139.5q0 72 28.5 126t75.5 90t110.5 54.5t135.5 18.5q111 0 180.5 -31t101.5 -53q41 -25 15 -68l-15 -22q-23 -41 -69 -15 q-29 20 -84 43t-137 23t-142.5 -38t-60.5 -122q0 -59 41 -96t101.5 -64.5t132 -52t132 -61.5t101.5 -91.5t41 -140.5q0 -63 -25.5 -116.5t-72 -92.5t-111 -60.5t-139.5 -21.5q-68 0 -123.5 12.5t-99.5 31t-76 39t-50 36.5q-37 29 -8 70zM235 1424.5q7 17.5 35 17.5h31 q23 0 35 -8.5t22 -24.5l91 -131h4l90 131q20 33 55 33h33q29 0 36 -17.5t-12 -44.5l-104 -149q-14 -16 -27.5 -24.5t-36.5 -8.5h-75q-37 0 -62 33l-106 149q-16 27 -9 44.5z" />
<glyph unicode="&#x162;" horiz-adv-x="1200" d="M12 1364v25q0 51 51 51h1074q51 0 51 -51v-25q0 -51 -51 -51h-467v-1262q0 -39 -29 -49l-20 -115q61 -10 102 -47t41 -98q0 -45 -16.5 -76t-44 -50t-63.5 -27.5t-73 -8.5q-12 0 -29.5 1t-33 6t-25.5 14.5t-10 27.5q0 20 8 36t25 16q12 0 22.5 -3.5t30.5 -3.5 q39 0 69.5 14.5t30.5 55.5q0 35 -28.5 51.5t-71.5 20.5q-16 2 -27.5 15t-7.5 38l31 137q-23 12 -23 45v1262h-465q-51 0 -51 51z" />
<glyph unicode="&#x163;" horiz-adv-x="659" d="M66 954v17q0 51 49 51h88v242q0 51 51 51h37q49 0 49 -51v-242h209q51 0 51 -51v-17q0 -49 -51 -49h-209v-516q0 -90 23.5 -142t58.5 -80t74 -37t69 -11q31 -4 43.5 -14.5t12.5 -36.5v-27q0 -49 -58 -49q-33 0 -61.5 4t-57.5 10l-20 -119q61 -10 102 -47t41 -98 q0 -45 -16 -76t-44 -50t-63.5 -27.5t-72.5 -8.5q-12 0 -29.5 1t-33 6t-26 14.5t-10.5 27.5q0 20 8.5 36t24.5 16q12 0 22.5 -3.5t30.5 -3.5q39 0 70 14.5t31 55.5q0 35 -29 51.5t-72 20.5q-16 2 -27.5 15t-6.5 38l38 170q-78 43 -119.5 128t-41.5 204v534h-86q-49 0 -49 49z " />
<glyph unicode="&#x164;" horiz-adv-x="1200" d="M12 1364v25q0 51 51 51h1074q51 0 51 -51v-25q0 -51 -51 -51h-467v-1262q0 -51 -49 -51h-41q-51 0 -52 51v1262h-465q-51 0 -51 51zM382 1766.5q7 17.5 36 17.5h31q23 0 35 -8.5t22 -24.5l90 -131h4l90 131q20 33 55 33h33q29 0 36 -17.5t-11 -44.5l-105 -149 q-14 -16 -27.5 -24.5t-35.5 -8.5h-76q-37 0 -61 33l-107 149q-16 27 -9 44.5z" />
<glyph unicode="&#x165;" horiz-adv-x="655" d="M63 954v17q0 51 50 51h88v242q0 51 51 51h37q49 0 49 -51v-242h209q51 0 51 -51v-17q0 -49 -51 -49h-209v-516q0 -90 23.5 -142t58.5 -80t73.5 -37t69.5 -11q31 -4 43 -14.5t12 -36.5v-27q0 -49 -57 -49q-170 0 -266 98t-96 281v534h-86q-49 0 -50 49zM465 1178 q0 18 10 41.5t10 87.5q0 23 -1 36t-3 21t-3 16.5t-1 22.5q0 35 45 35h31q41 0 50 -36t9 -69q0 -27 -6 -59.5t-17 -61t-27.5 -48t-39.5 -19.5h-12q-45 0 -45 33z" />
<glyph unicode="&#x166;" horiz-adv-x="1204" d="M14 1364v25q0 51 49 51h1076q51 0 51 -51v-25q0 -51 -51 -51h-467v-533h289q51 0 51 -49v-16q0 -51 -51 -51h-289v-613q0 -51 -49 -51h-41q-51 0 -52 51v613h-280q-49 0 -49 51v16q0 49 49 49h280v533h-467q-49 0 -49 51z" />
<glyph unicode="&#x167;" horiz-adv-x="661" d="M63 621v16q0 51 50 51h86v221h-86q-49 0 -50 49v13q0 51 50 51h88v242q0 51 51 51h37q49 0 49 -51v-242h209q51 0 51 -51v-13q0 -49 -49 -49h-211v-221h209q51 0 51 -51v-16q0 -49 -49 -50h-211v-186q0 -88 23.5 -140t58.5 -80t73.5 -36t69.5 -10q31 -4 43 -14.5 t12 -36.5v-27q0 -49 -57 -49q-168 0 -265 98t-97 281v200h-86q-49 0 -50 50z" />
<glyph unicode="&#x168;" horiz-adv-x="1464" d="M180 502v887q0 51 51 51h41q51 0 52 -51v-885q0 -186 110.5 -290.5t296.5 -104.5t298 104t112 295v881q0 51 51 51h41q49 0 49 -51v-887q0 -121 -40 -217.5t-112.5 -166t-173 -106.5t-223.5 -37t-224 37t-175 106.5t-114 166t-40 217.5zM416 1599q0 82 50 134.5t130 52.5 q53 0 88 -23.5t62.5 -51.5t53 -50.5t60.5 -22.5q41 0 59.5 32t20.5 71q0 39 47 39h17q43 0 43 -47q0 -90 -48.5 -141.5t-132.5 -51.5q-53 0 -88 22.5t-62.5 50t-53 50.5t-60.5 23q-41 0 -60.5 -32t-19.5 -73q-4 -35 -47 -35h-14q-45 0 -45 53z" />
<glyph unicode="&#x169;" horiz-adv-x="1187" d="M145 375v604q0 51 50 51h38q51 0 52 -51v-567q0 -61 7 -116.5t29.5 -97.5t67.5 -67t119 -25q88 0 158.5 36t120 95.5t76 137.5t26.5 162v442q0 51 51 51h39q49 0 49 -51v-928q0 -51 -49 -51h-37q-49 0 -49 51v119v28.5t2 22.5t4 23h-4q-14 -37 -48 -84t-84 -88t-119 -69 t-155 -28q-184 0 -264 98.5t-80 301.5zM270 1257q0 82 50.5 134.5t130.5 52.5q53 0 87.5 -23.5t62.5 -51.5t53.5 -50.5t60.5 -22.5q41 0 59.5 32t20.5 71q0 39 47 39h16q43 0 43 -47q0 -90 -48 -141.5t-132 -51.5q-53 0 -88 22.5t-62.5 50t-53 50t-60.5 22.5 q-41 0 -60.5 -31.5t-19.5 -72.5q-4 -35 -47 -35h-15q-45 0 -45 53z" />
<glyph unicode="&#x16a;" horiz-adv-x="1464" d="M180 502v887q0 51 51 51h41q51 0 52 -51v-885q0 -186 110.5 -290.5t296.5 -104.5t298 104t112 295v881q0 51 51 51h41q49 0 49 -51v-887q0 -121 -40 -217.5t-112.5 -166t-173 -106.5t-223.5 -37t-224 37t-175 106.5t-114 166t-40 217.5zM479 1657v14q0 49 51 49h404 q49 0 49 -49v-14q0 -49 -49 -49h-404q-51 0 -51 49z" />
<glyph unicode="&#x16b;" horiz-adv-x="1187" d="M145 375v604q0 51 50 51h38q51 0 52 -51v-567q0 -61 7 -116.5t29.5 -97.5t67.5 -67t119 -25q88 0 158.5 36t120 95.5t76 137.5t26.5 162v442q0 51 51 51h39q49 0 49 -51v-928q0 -51 -49 -51h-37q-49 0 -49 51v119v28.5t2 22.5t4 23h-4q-14 -37 -48 -84t-84 -88t-119 -69 t-155 -28q-184 0 -264 98.5t-80 301.5zM334 1315v14q0 49 51 49h403q49 0 50 -49v-14q0 -49 -50 -49h-403q-51 0 -51 49z" />
<glyph unicode="&#x16c;" horiz-adv-x="1464" d="M180 502v887q0 51 51 51h41q51 0 52 -51v-885q0 -186 110.5 -290.5t296.5 -104.5t298 104t112 295v881q0 51 51 51h41q49 0 49 -51v-887q0 -121 -40 -217.5t-112.5 -166t-173 -106.5t-223.5 -37t-224 37t-175 106.5t-114 166t-40 217.5zM494 1745q0 39 47 39h20 q41 0 47 -37q6 -63 40 -90t81 -27t82 26.5t41 90.5q4 16 14.5 26.5t32.5 10.5h21q47 0 47 -39q0 -45 -19.5 -83t-52.5 -66.5t-76 -45t-90 -16.5q-45 0 -87 15.5t-74.5 43t-53 66.5t-20.5 86z" />
<glyph unicode="&#x16d;" horiz-adv-x="1187" d="M145 375v604q0 51 50 51h38q51 0 52 -51v-567q0 -61 7 -116.5t29.5 -97.5t67.5 -67t119 -25q88 0 158.5 36t120 95.5t76 137.5t26.5 162v442q0 51 51 51h39q49 0 49 -51v-928q0 -51 -49 -51h-37q-49 0 -49 51v119v28.5t2 22.5t4 23h-4q-14 -37 -48 -84t-84 -88t-119 -69 t-155 -28q-184 0 -264 98.5t-80 301.5zM348 1403q0 39 47 39h21q41 0 47 -37q6 -63 40 -90t81 -27t81.5 26.5t41.5 90.5q4 16 14 26.5t33 10.5h20q47 0 47 -39q0 -45 -19.5 -83t-52 -66.5t-75.5 -45t-90 -16.5q-45 0 -87 15.5t-75 43t-53.5 66.5t-20.5 86z" />
<glyph unicode="&#x16e;" horiz-adv-x="1464" d="M180 502v887q0 51 51 51h41q51 0 52 -51v-885q0 -186 110.5 -290.5t296.5 -104.5t298 104t112 295v881q0 51 51 51h41q49 0 49 -51v-887q0 -121 -40 -217.5t-112.5 -166t-173 -106.5t-223.5 -37t-224 37t-175 106.5t-114 166t-40 217.5zM575 1663q0 66 45.5 105.5 t108.5 39.5t109.5 -39.5t46.5 -105.5t-46.5 -105.5t-109.5 -39.5t-108.5 39.5t-45.5 105.5zM664 1663q0 -29 18 -48.5t47 -19.5q31 0 49.5 19.5t18.5 48.5q0 31 -18.5 50.5t-49.5 19.5q-29 0 -47 -19.5t-18 -50.5z" />
<glyph unicode="&#x16f;" horiz-adv-x="1187" d="M145 375v604q0 51 50 51h38q51 0 52 -51v-567q0 -61 7 -116.5t29.5 -97.5t67.5 -67t119 -25q88 0 158.5 36t120 95.5t76 137.5t26.5 162v442q0 51 51 51h39q49 0 49 -51v-928q0 -51 -49 -51h-37q-49 0 -49 51v119v28.5t2 22.5t4 23h-4q-14 -37 -48 -84t-84 -88t-119 -69 t-155 -28q-184 0 -264 98.5t-80 301.5zM430 1321q0 66 45 105.5t109 39.5q63 0 109 -40t46 -105q0 -66 -46 -105.5t-109 -39.5t-108.5 39.5t-45.5 105.5zM518 1321q0 -29 18.5 -48.5t47.5 -19.5q31 0 49 19.5t18 48.5q0 31 -18.5 50.5t-48.5 19.5q-29 0 -47.5 -19.5 t-18.5 -50.5z" />
<glyph unicode="&#x170;" horiz-adv-x="1464" d="M180 502v887q0 51 51 51h41q51 0 52 -51v-885q0 -186 110.5 -290.5t296.5 -104.5t298 104t112 295v881q0 51 51 51h41q49 0 49 -51v-887q0 -121 -40 -217.5t-112.5 -166t-173 -106.5t-223.5 -37t-224 37t-175 106.5t-114 166t-40 217.5zM528 1557.5q-10 17.5 4 41.5 l82 148q18 37 60 37h31q31 0 40 -17.5t-8 -42.5l-84 -147q-23 -37 -59 -37h-27q-29 0 -39 17.5zM802 1557.5q-9 17.5 5 41.5l90 150q20 35 59 35h45q31 0 38.5 -17.5t-11.5 -44.5l-106 -149q-27 -33 -62 -33h-18q-31 0 -40 17.5z" />
<glyph unicode="&#x171;" horiz-adv-x="1187" d="M145 375v604q0 51 50 51h38q51 0 52 -51v-567q0 -61 7 -116.5t29.5 -97.5t67.5 -67t119 -25q88 0 158.5 36t120 95.5t76 137.5t26.5 162v442q0 51 51 51h39q49 0 49 -51v-928q0 -51 -49 -51h-37q-49 0 -49 51v119v28.5t2 22.5t4 23h-4q-14 -37 -48 -84t-84 -88t-119 -69 t-155 -28q-184 0 -264 98.5t-80 301.5zM383 1215.5q-10 17.5 4 41.5l82 148q18 37 59 37h31q31 0 40 -17.5t-7 -42.5l-84 -147q-23 -37 -59 -37h-27q-29 0 -39 17.5zM656 1215.5q-9 17.5 6 41.5l90 150q20 35 59 35h45q31 0 38 -17.5t-11 -44.5l-107 -149q-27 -33 -61 -33 h-19q-31 0 -40 17.5z" />
<glyph unicode="&#x172;" horiz-adv-x="1464" d="M180 502v887q0 51 51 51h41q51 0 52 -51v-885q0 -186 110.5 -290.5t296.5 -104.5t298 104t112 295v881q0 51 51 51h41q49 0 49 -51v-887q0 -96 -22.5 -168t-59.5 -127t-85 -95t-99 -71q-39 -23 -78 -51.5t-70.5 -60t-52 -66.5t-20.5 -68q0 -23 9 -39t23.5 -28.5 t30.5 -19.5t31 -11q37 -12 29 -51l-5 -23q-10 -43 -53 -37q-25 4 -58.5 15.5t-63 33t-50 54t-20.5 82.5q0 66 33.5 117t76.5 89q-129 -6 -238.5 27t-189.5 101.5t-125 169t-45 227.5z" />
<glyph unicode="&#x173;" horiz-adv-x="1187" d="M145 375v604q0 51 50 51h38q51 0 52 -51v-567q0 -61 7 -116.5t29.5 -97.5t67.5 -67t119 -25q88 0 158.5 36t120 95.5t76 137.5t26.5 162v442q0 51 51 51h39q49 0 49 -51v-928q0 -31 -24.5 -56.5t-53 -54t-53.5 -63.5t-25 -82t33 -68.5t62 -29.5q35 -12 26 -51l-2 -23 q-10 -43 -53 -37q-25 4 -58.5 15.5t-63.5 33t-50.5 54t-20.5 82.5q0 41 16.5 78.5t41 69.5t52.5 56.5t50 38.5q-12 12 -12 37v119v28.5t2 22.5t4 23h-4q-14 -37 -48 -84t-84 -88t-119 -69t-155 -28q-184 0 -264 98.5t-80 301.5z" />
<glyph unicode="&#x174;" horiz-adv-x="1904" d="M88 1384q-12 55 45 56h45q43 0 55 -45l269 -1073q6 -29 12 -55.5t10 -49.5q6 -25 11 -49h4q4 25 10 49q4 23 10 49.5t14 55.5l297 1075q12 43 56 43h47q43 0 55 -43l295 -1075q8 -29 15.5 -55.5t11.5 -49.5q6 -25 10 -49h4q2 25 8 49q4 23 9 49.5t14 55.5l280 1073 q12 45 56 45h45q27 0 39 -14.5t4 -41.5l-357 -1341q-12 -43 -57 -43h-78q-45 0 -57 43l-266 971q-10 35 -18.5 71.5t-16.5 69.5q-8 37 -17 74h-6l-16 -74q-8 -33 -16.5 -69.5t-18.5 -71.5l-268 -971q-12 -43 -56 -43h-79q-43 0 -56 45zM750 1557.5q-7 17.5 10 44.5l106 149 q25 33 62 33h76q23 0 36 -8.5t27 -24.5l104 -149q18 -27 12.5 -44.5t-34.5 -17.5h-35q-35 0 -55 35l-90 131h-4l-91 -131q-10 -18 -22 -26.5t-35 -8.5h-31q-29 0 -36 17.5z" />
<glyph unicode="&#x175;" horiz-adv-x="1630" d="M47 973q-16 57 43 57h43q45 0 57 -43l236 -725q6 -18 11 -37.5t9 -36.5q6 -20 11 -36h4q4 16 10 36q4 16 10 36t13 38l239 723q12 41 58 41h49q45 0 57 -41l240 -723q6 -18 12 -37.5t10 -36.5q6 -20 10 -36h5q2 18 8 36q4 16 9 35t13 39l236 725q12 43 57 43h43 q57 0 41 -57l-315 -930q-12 -43 -58 -43h-63q-45 0 -58 43l-239 690q-6 18 -12.5 38t-10.5 36q-6 18 -8 37h-4q-4 -18 -10 -37q-4 -16 -10.5 -35.5t-12.5 -38.5l-237 -690q-12 -43 -58 -43h-63q-45 0 -60 43zM597 1215.5q-7 17.5 9 44.5l107 149q25 33 61 33h76 q23 0 36 -8.5t27 -24.5l105 -149q18 -27 12 -44.5t-35 -17.5h-34q-35 0 -56 35l-90 131h-4l-90 -131q-10 -18 -22.5 -26.5t-34.5 -8.5h-31q-29 0 -36 17.5z" />
<glyph unicode="&#x176;" horiz-adv-x="1134" d="M39 1422.5q10 17.5 41 17.5h51q41 0 59 -35l287 -487q16 -29 31.5 -60t28.5 -55l28 -58h4l29 58q12 25 27.5 55.5t31.5 59.5l287 487q18 35 57 35h54q29 0 40 -17.5t-5 -42.5l-451 -762v-567q0 -51 -51 -51h-41q-49 0 -49 51v567l-453 762q-16 25 -6 42.5zM351 1557.5 q-7 17.5 9 44.5l107 149q25 33 61 33h76q23 0 36 -8.5t28 -24.5l104 -149q18 -27 12 -44.5t-34 -17.5h-35q-35 0 -56 35l-90 131h-4l-90 -131q-10 -18 -22.5 -26.5t-34.5 -8.5h-31q-29 0 -36 17.5z" />
<glyph unicode="&#x177;" horiz-adv-x="1005" d="M18.5 -364.5q-6.5 18.5 4.5 36.5l12 23q20 39 61 24q16 -8 39 -17t51 -9q70 0 117 51t76 119l61 145l-405 963q-10 27 0 43t39 16h47q43 0 57 -39l289 -712q6 -20 13 -39t12 -35q6 -18 12 -35h4q4 16 10 35q4 16 10.5 34.5t14.5 39.5l282 710q14 41 58 41h45 q29 0 40 -15.5t1 -43.5l-486 -1180q-41 -100 -116.5 -160.5t-180.5 -60.5q-45 0 -80.5 12t-60.5 25q-20 10 -26.5 28.5zM292 1213.5q-7 17.5 9 43.5l107 150q25 33 61 33h76q23 0 36 -8.5t27 -24.5l105 -150q18 -27 12 -44t-35 -17h-35q-35 0 -55 35l-90 131h-4l-90 -131 q-10 -18 -22.5 -26.5t-35.5 -8.5h-30q-29 0 -36 17.5z" />
<glyph unicode="&#x178;" horiz-adv-x="1134" d="M39 1422.5q10 17.5 41 17.5h51q41 0 59 -35l287 -487q16 -29 31.5 -60t28.5 -55l28 -58h4l29 58q12 25 27.5 55.5t31.5 59.5l287 487q18 35 57 35h54q29 0 40 -17.5t-5 -42.5l-451 -762v-567q0 -51 -51 -51h-41q-49 0 -49 51v567l-453 762q-16 25 -6 42.5zM340 1657v76 q0 51 49 51h27q49 0 49 -51v-76q0 -49 -49 -49h-27q-49 0 -49 49zM649 1657v76q0 51 49 51h27q51 0 51 -51v-76q0 -49 -51 -49h-27q-49 0 -49 49z" />
<glyph unicode="&#x179;" horiz-adv-x="1177" d="M68 51v15q0 35 20 63l725 1053q18 29 36.5 53.5t33.5 40.5q16 20 30 37v4q-10 -2 -26 -2q-14 -2 -33.5 -2h-46.5h-649q-49 0 -49 51v25q0 51 49 51h880q51 0 52 -49v-17q0 -35 -21 -63l-725 -1053q-20 -29 -37.5 -53.5t-32.5 -40.5q-16 -20 -30 -37v-4q10 0 26 2 q14 0 33 1t47 1h697q49 0 49 -51v-25q0 -51 -49 -51h-928q-51 0 -51 51zM571 1557.5q-10 17.5 7 39.5l90 152q20 35 59 35h47q33 0 40 -17.5t-11 -44.5l-109 -149q-25 -33 -61 -33h-23q-29 0 -39 17.5z" />
<glyph unicode="&#x17a;" horiz-adv-x="1005" d="M70 45v14q0 33 20 60l553 694q16 18 29.5 35.5t25.5 30.5q12 14 27 28v4q-12 -2 -27 -2q-12 -2 -31.5 -2h-43.5h-480q-49 0 -49 49v23q0 51 49 51h721q49 0 49 -45v-14q0 -33 -20 -60l-555 -694q-16 -20 -30.5 -36.5t-26.5 -28.5q-14 -14 -27 -29v-4q10 0 27 2 q14 0 32.5 1t44.5 1h527q49 0 49 -49v-23q0 -51 -49 -51h-766q-49 0 -49 45zM456.5 1215.5q-10.5 17.5 6.5 39.5l90 152q20 35 59 35h47q33 0 40.5 -17.5t-11.5 -44.5l-108 -149q-25 -33 -62 -33h-22q-29 0 -39.5 17.5z" />
<glyph unicode="&#x17b;" horiz-adv-x="1177" d="M68 51v15q0 35 20 63l725 1053q18 29 36.5 53.5t33.5 40.5q16 20 30 37v4q-10 -2 -26 -2q-14 -2 -33.5 -2h-46.5h-649q-49 0 -49 51v25q0 51 49 51h880q51 0 52 -49v-17q0 -35 -21 -63l-725 -1053q-20 -29 -37.5 -53.5t-32.5 -40.5q-16 -20 -30 -37v-4q10 0 26 2 q14 0 33 1t47 1h697q49 0 49 -51v-25q0 -51 -49 -51h-928q-51 0 -51 51zM545 1661v72q0 51 49 51h35q49 0 49 -51v-72q0 -51 -49 -51h-35q-49 0 -49 51z" />
<glyph unicode="&#x17c;" horiz-adv-x="1005" d="M70 45v14q0 33 20 60l553 694q16 18 29.5 35.5t25.5 30.5q12 14 27 28v4q-12 -2 -27 -2q-12 -2 -31.5 -2h-43.5h-480q-49 0 -49 49v23q0 51 49 51h721q49 0 49 -45v-14q0 -33 -20 -60l-555 -694q-16 -20 -30.5 -36.5t-26.5 -28.5q-14 -14 -27 -29v-4q10 0 27 2 q14 0 32.5 1t44.5 1h527q49 0 49 -49v-23q0 -51 -49 -51h-766q-49 0 -49 45zM434 1319v72q0 51 49 51h35q49 0 49 -51v-72q0 -51 -49 -51h-35q-49 0 -49 51z" />
<glyph unicode="&#x17d;" horiz-adv-x="1177" d="M68 51v15q0 35 20 63l725 1053q18 29 36.5 53.5t33.5 40.5q16 20 30 37v4q-10 -2 -26 -2q-14 -2 -33.5 -2h-46.5h-649q-49 0 -49 51v25q0 51 49 51h880q51 0 52 -49v-17q0 -35 -21 -63l-725 -1053q-20 -29 -37.5 -53.5t-32.5 -40.5q-16 -20 -30 -37v-4q10 0 26 2 q14 0 33 1t47 1h697q49 0 49 -51v-25q0 -51 -49 -51h-928q-51 0 -51 51zM394 1766.5q7 17.5 36 17.5h31q23 0 35 -8.5t22 -24.5l90 -131h4l90 131q20 33 56 33h33q29 0 36 -17.5t-12 -44.5l-104 -149q-14 -16 -27.5 -24.5t-36.5 -8.5h-76q-37 0 -61 33l-107 149 q-16 27 -9 44.5z" />
<glyph unicode="&#x17e;" horiz-adv-x="1005" d="M70 45v14q0 33 20 60l553 694q16 18 29.5 35.5t25.5 30.5q12 14 27 28v4q-12 -2 -27 -2q-12 -2 -31.5 -2h-43.5h-480q-49 0 -49 49v23q0 51 49 51h721q49 0 49 -45v-14q0 -33 -20 -60l-555 -694q-16 -20 -30.5 -36.5t-26.5 -28.5q-14 -14 -27 -29v-4q10 0 27 2 q14 0 32.5 1t44.5 1h527q49 0 49 -49v-23q0 -51 -49 -51h-766q-49 0 -49 45zM286 1424.5q7 17.5 36 17.5h30q23 0 35 -8.5t23 -24.5l90 -131h4l90 131q20 33 55 33h33q29 0 36 -17.5t-11 -44.5l-105 -149q-14 -16 -27.5 -24.5t-35.5 -8.5h-76q-37 0 -62 33l-106 149 q-16 27 -9 44.5z" />
<glyph unicode="&#x17f;" horiz-adv-x="491" d="M63 954v17q0 51 50 51h82v47q0 123 39.5 197.5t95 115.5t114 54.5t97.5 13.5h22q49 0 49 -51v-25q0 -47 -55 -49q-33 -2 -72 -10t-72.5 -35t-56 -77t-22.5 -136v-1016q0 -51 -51 -51h-39q-49 0 -49 51v854h-82q-49 0 -50 49z" />
<glyph unicode="&#x192;" horiz-adv-x="716" d="M-158 -135q1 53 52 47q14 -2 32.5 -4t46.5 -2q31 0 71 8t78 35.5t66.5 80t36.5 140.5l49 578h-133q-49 0 -49 49v16q0 51 49 51h144l20 219q10 127 56.5 202t106.5 115t122.5 52t105.5 12q35 0 67 -3t54 -5q47 -6 47 -53v-25q0 -51 -45 -45q-25 4 -56.5 6t-64.5 2 q-31 0 -70.5 -8t-76.5 -35.5t-66.5 -80t-38.5 -140.5l-20 -213h207q49 0 49 -51v-16q0 -49 -49 -49h-217l-51 -584q-12 -127 -57.5 -203t-105 -116t-121 -51t-104.5 -11q-55 0 -88 6q-47 4 -47 53v23z" />
<glyph unicode="&#x218;" horiz-adv-x="1077" d="M115 199l24 30q31 37 72 7q18 -16 50 -37t74 -41.5t94 -33.5t114 -13q129 0 211 66.5t82 178.5q0 90 -53.5 148.5t-133.5 101.5t-172 80t-172 87t-133 122t-53 184q0 88 34.5 160t96 122t143.5 76.5t176 26.5q63 0 118.5 -12t101 -28.5t78 -37t53.5 -34.5q37 -29 12 -68 l-19 -33q-14 -23 -32.5 -24.5t-38.5 10.5q-39 27 -108.5 59.5t-168.5 32.5q-61 0 -115.5 -16.5t-96.5 -47t-65.5 -75.5t-23.5 -103q0 -86 53.5 -141t133 -96t172 -78t172 -87t133 -125t53.5 -189q0 -84 -29.5 -156t-86 -125t-138.5 -84t-184 -31q-80 0 -147.5 16.5t-121 41 t-92 50.5t-61.5 44q-33 33 -6 72zM457 -389q0 18 10 41.5t10 87.5q0 23 -1 36t-3 21t-3 16.5t-1 22.5q0 35 45 35h31q41 0 50 -36t9 -68q0 -27 -6 -60t-17.5 -61.5t-27.5 -48t-39 -19.5h-12q-45 0 -45 33z" />
<glyph unicode="&#x219;" horiz-adv-x="882" d="M94 164l17 20q27 35 69 9q35 -27 103.5 -61t169.5 -34q86 0 147.5 42t61.5 124q0 57 -41 93t-102.5 64t-132.5 53.5t-132 62t-102 90t-41 139.5q0 72 28.5 126t75.5 90t110.5 54.5t135.5 18.5q111 0 180.5 -31t101.5 -53q41 -25 15 -68l-15 -22q-23 -41 -69 -15 q-29 20 -84 43t-137 23t-142.5 -38t-60.5 -122q0 -59 41 -96t101.5 -64.5t132 -52t132 -61.5t101.5 -91.5t41 -140.5q0 -63 -25.5 -116.5t-72 -92.5t-111 -60.5t-139.5 -21.5q-68 0 -123.5 12.5t-99.5 31t-76 39t-50 36.5q-37 29 -8 70zM365 -389q0 18 10 41.5t10 87.5 q0 23 -1 36t-3 21t-3 16.5t-1 22.5q0 35 45 35h31q41 0 50 -36t9 -68q0 -27 -6 -60t-17.5 -61.5t-28 -48t-38.5 -19.5h-12q-45 0 -45 33z" />
<glyph unicode="&#x21a;" horiz-adv-x="1202" d="M12 1364v25q0 51 51 51h1074q51 0 51 -51v-25q0 -51 -51 -51h-467v-1262q0 -51 -49 -51h-41q-51 0 -52 51v1262h-465q-51 0 -51 51zM522 -389q0 18 10.5 41.5t10.5 87.5q0 23 -1 36t-3 21t-3 16.5t-1 22.5q0 35 45 35h30q41 0 50.5 -36t9.5 -68q0 -27 -6.5 -60 t-17.5 -61.5t-27.5 -48t-38.5 -19.5h-13q-45 0 -45 33z" />
<glyph unicode="&#x21b;" horiz-adv-x="655" d="M63 954v17q0 51 50 51h88v242q0 51 51 51h37q49 0 49 -51v-242h209q51 0 51 -51v-17q0 -49 -51 -49h-209v-516q0 -90 23.5 -142t58.5 -80t73.5 -37t69.5 -11q31 -4 43 -14.5t12 -36.5v-27q0 -49 -57 -49q-170 0 -266 98t-96 281v534h-86q-49 0 -50 49zM276 -389 q0 18 10.5 41.5t10.5 87.5q0 23 -1 36t-3 21t-3 16.5t-1 22.5q0 35 45 35h31q41 0 50 -36t9 -68q0 -27 -6 -60t-17.5 -61.5t-28 -48t-38.5 -19.5h-12q-45 0 -46 33z" />
<glyph unicode="&#x2c6;" horiz-adv-x="1032" d="M300 1557.5q-7 17.5 9 44.5l107 149q25 33 61 33h76q23 0 36 -8.5t27 -24.5l105 -149q18 -27 12 -44.5t-35 -17.5h-34q-35 0 -56 35l-90 131h-4l-90 -131q-10 -18 -22.5 -26.5t-34.5 -8.5h-31q-29 0 -36 17.5z" />
<glyph unicode="&#x2da;" horiz-adv-x="1034" d="M362 1663q0 66 45.5 105.5t108.5 39.5t109.5 -39.5t46.5 -105.5t-46.5 -105.5t-109.5 -39.5t-108.5 39.5t-45.5 105.5zM451 1663q0 -29 18 -48.5t47 -19.5q31 0 49.5 19.5t18.5 48.5q0 31 -18.5 50.5t-49.5 19.5q-29 0 -47 -19.5t-18 -50.5z" />
<glyph unicode="&#x2dc;" horiz-adv-x="1032" d="M201 1599q0 82 50 134.5t130 52.5q53 0 88 -23.5t62.5 -51.5t53 -50.5t60.5 -22.5q41 0 59.5 32t20.5 71q0 39 47 39h16q43 0 43 -47q0 -90 -48 -141.5t-132 -51.5q-53 0 -88 22.5t-62.5 50t-53 50.5t-60.5 23q-41 0 -60.5 -32t-19.5 -73q-4 -35 -47 -35h-14 q-45 0 -45 53z" />
<glyph unicode="&#x2000;" horiz-adv-x="904" />
<glyph unicode="&#x2001;" horiz-adv-x="1808" />
<glyph unicode="&#x2002;" horiz-adv-x="904" />
<glyph unicode="&#x2003;" horiz-adv-x="1808" />
<glyph unicode="&#x2004;" horiz-adv-x="602" />
<glyph unicode="&#x2005;" horiz-adv-x="452" />
<glyph unicode="&#x2006;" horiz-adv-x="301" />
<glyph unicode="&#x2007;" horiz-adv-x="301" />
<glyph unicode="&#x2008;" horiz-adv-x="226" />
<glyph unicode="&#x2009;" horiz-adv-x="361" />
<glyph unicode="&#x200a;" horiz-adv-x="100" />
<glyph unicode="&#x2010;" horiz-adv-x="866" d="M143 567v27q0 51 50 51h481q49 0 49 -51v-27q0 -49 -49 -49h-481q-49 0 -50 49z" />
<glyph unicode="&#x2011;" horiz-adv-x="866" d="M143 567v27q0 51 50 51h481q49 0 49 -51v-27q0 -49 -49 -49h-481q-49 0 -50 49z" />
<glyph unicode="&#x2012;" horiz-adv-x="866" d="M143 567v27q0 51 50 51h481q49 0 49 -51v-27q0 -49 -49 -49h-481q-49 0 -50 49z" />
<glyph unicode="&#x2013;" horiz-adv-x="1310" d="M143 571v19q0 51 52 51h921q51 0 51 -51v-19q0 -49 -51 -49h-921q-51 0 -52 49z" />
<glyph unicode="&#x2014;" horiz-adv-x="1720" d="M143 571v19q0 51 52 51h1331q51 0 51 -51v-19q0 -49 -51 -49h-1331q-51 0 -52 49z" />
<glyph unicode="&#x2018;" horiz-adv-x="411" d="M106 1098l101 319q14 41 57 41h15q53 0 40 -55l-75 -318q-10 -43 -54 -43h-43q-29 0 -40 14.5t-1 41.5z" />
<glyph unicode="&#x2019;" horiz-adv-x="407" d="M109 1098l75 317q8 43 56 43h41q59 0 43 -55l-103 -320q-12 -41 -57 -41h-12q-55 0 -43 56z" />
<glyph unicode="&#x201a;" horiz-adv-x="452" d="M88 -195l78 318q8 45 53 45h43q29 0 40 -15.5t1 -41.5l-100 -320q-16 -41 -58 -41h-14q-53 0 -43 55z" />
<glyph unicode="&#x201c;" horiz-adv-x="673" d="M106 1098l101 319q14 41 57 41h15q53 0 43 -55l-78 -318q-10 -43 -54 -43h-43q-29 0 -40 14.5t-1 41.5zM367 1098l102 319q12 41 55 41h15q53 0 43 -55l-76 -318q-10 -43 -55 -43h-43q-57 0 -41 56z" />
<glyph unicode="&#x201d;" horiz-adv-x="669" d="M109 1098l75 317q8 43 56 43h43q27 0 39 -14t2 -41l-103 -320q-12 -41 -55 -41h-14q-55 0 -43 56zM371 1098l75 317q8 43 54 43h43q29 0 40 -14t1 -41l-101 -320q-14 -41 -57 -41h-14q-53 0 -41 56z" />
<glyph unicode="&#x201e;" horiz-adv-x="712" d="M88 -195l78 318q8 45 53 45h43q29 0 40 -15.5t1 -41.5l-100 -320q-16 -41 -58 -41h-14q-55 0 -43 55zM350 -195l76 318q8 45 55 45h41q59 0 43 -57l-102 -320q-12 -41 -57 -41h-13q-55 0 -43 55z" />
<glyph unicode="&#x2026;" horiz-adv-x="1409" d="M141 51v70q0 49 49 49h66q49 0 49 -49v-70q0 -51 -49 -51h-66q-49 0 -49 51zM623 51v70q0 49 49 49h65q49 0 49 -49v-70q0 -51 -49 -51h-65q-49 0 -49 51zM1104 51v70q0 49 49 49h66q49 0 49 -49v-70q0 -51 -49 -51h-66q-49 0 -49 51z" />
<glyph unicode="&#x202f;" horiz-adv-x="361" />
<glyph unicode="&#x2039;" horiz-adv-x="641" d="M102 543q-31 35 0 69l283 359q23 29 61 28h35q33 0 41 -17t-12 -44l-287 -360l287 -359q20 -27 13 -44t-38 -17h-39q-39 0 -61 28z" />
<glyph unicode="&#x203a;" horiz-adv-x="641" d="M118.5 982q8.5 17 41.5 17h37q35 0 61 -28l283 -359q31 -35 0 -69l-283 -357q-27 -29 -61 -28h-35q-33 0 -41 17.5t12 43.5l285 359l-285 360q-23 27 -14.5 44z" />
<glyph unicode="&#x205f;" horiz-adv-x="452" />
<glyph unicode="&#x20ac;" horiz-adv-x="1218" d="M86 596q0 29 10 41t39 12h64q-4 29 -4 79t6 87h-66q-49 0 -49 51q0 29 10 41.5t39 12.5h84q29 119 92.5 219t153.5 171.5t201.5 112.5t238.5 41q45 0 82 -4t62 -8q51 -10 38 -61l-10 -35q-12 -45 -55 -39q-23 4 -53.5 8t-65.5 4q-98 0 -184 -29.5t-154.5 -84t-118 -129 t-75.5 -166.5h569q57 0 45 -56q-8 -49 -57 -49h-580q-8 -39 -7 -82t5 -84h545q57 0 45 -55q-6 -29 -18.5 -39t-38.5 -10h-510q23 -96 71.5 -176t119.5 -137.5t159 -89t188 -31.5q43 0 77 5t58 9q51 10 60 -35l8 -37q14 -47 -37 -59q-29 -6 -72 -12.5t-96 -6.5 q-131 0 -244.5 42t-204.5 118t-152.5 180.5t-88.5 229.5h-80q-29 0 -39 12t-10 39z" />
<glyph unicode="&#x2122;" horiz-adv-x="1951" d="M84 1382v9q0 49 51 49h656q51 0 51 -49v-9q0 -49 -51 -49h-271v-741q0 -49 -51 -49h-14q-51 0 -52 49v741h-268q-51 0 -51 49zM920 596l65 797q4 47 51 47h15q41 0 59 -39l219 -475q6 -16 11.5 -30.5t9.5 -27.5q4 -14 8 -26h4q4 12 8 26q4 12 8 26.5t13 31.5l219 475 q14 39 59 39h14q47 0 52 -47l65 -797q0 -53 -49 -53h-14q-47 0 -51 47l-48 561q-2 10 -1 21.5t1 19.5t2 18h-4l-213 -460q-14 -39 -57 -39h-12q-43 0 -60 39l-211 460h-4q2 -10 2 -18v-41l-49 -561q-4 -47 -51 -47h-12q-53 0 -49 53z" />
<glyph unicode="&#x25fc;" horiz-adv-x="1034" d="M0 0v1034h1034v-1034h-1034z" />
</font>
</defs>
</svg>
